<svg width="1152" height="16" viewBox="0 0 1152 16" fill="none" xmlns="http://www.w3.org/2000/svg">
<rect y="7" width="184" height="2" fill="#3030F8"/>
<path fill-rule="evenodd" clip-rule="evenodd" d="M192 16C196.418 16 200 12.4183 200 8C200 3.58172 196.418 0 192 0C187.582 0 184 3.58172 184 8C184 12.4183 187.582 16 192 16Z" fill="#3030F8"/>
<path fill-rule="evenodd" clip-rule="evenodd" d="M196.95 6.29289C197.34 5.90236 197.34 5.2692 196.95 4.87867C196.559 4.48815 195.926 4.48815 195.536 4.87867L190.586 9.82842L188.465 7.7071C188.074 7.31658 187.441 7.31658 187.05 7.7071C186.66 8.09763 186.66 8.73079 187.05 9.12131L189.879 11.9497C190.269 12.3403 190.902 12.3403 191.293 11.9497L196.95 6.29289Z" fill="white"/>
<rect x="200" y="7" width="184" height="2" fill="#3030F8"/>
<rect x="384" y="7" width="184" height="2" fill="#3030F8"/>
<path fill-rule="evenodd" clip-rule="evenodd" d="M576 16C580.418 16 584 12.4183 584 8C584 3.58172 580.418 0 576 0C571.582 0 568 3.58172 568 8C568 12.4183 571.582 16 576 16Z" fill="#3030F8"/>
<path fill-rule="evenodd" clip-rule="evenodd" d="M580.95 6.29289C581.34 5.90236 581.34 5.2692 580.95 4.87867C580.559 4.48815 579.926 4.48815 579.536 4.87867L574.586 9.82842L572.465 7.7071C572.074 7.31658 571.441 7.31658 571.05 7.7071C570.66 8.09763 570.66 8.73079 571.05 9.12131L573.879 11.9497C574.269 12.3403 574.902 12.3403 575.293 11.9497L580.95 6.29289Z" fill="white"/>
<rect x="584" y="7" width="184" height="2" fill="#3030F8"/>
<rect x="768" y="7" width="184" height="2" fill="#3030F8"/>
<path fill-rule="evenodd" clip-rule="evenodd" d="M960 16C964.418 16 968 12.4183 968 8C968 3.58172 964.418 0 960 0C955.582 0 952 3.58172 952 8C952 12.4183 955.582 16 960 16Z" fill="#3030F8"/>
<path fill-rule="evenodd" clip-rule="evenodd" d="M960 12C962.209 12 964 10.2091 964 8C964 5.79086 962.209 4 960 4C957.791 4 956 5.79086 956 8C956 10.2091 957.791 12 960 12Z" fill="white"/>
<rect x="968" y="7" width="184" height="2" fill="#3030F8"/>
</svg>
