<svg width="276" height="249" viewBox="0 0 276 249" fill="none" xmlns="http://www.w3.org/2000/svg">
<g filter="url(#filter0_dd_229_20338)">
<path d="M94.5204 238.699C91.8853 238.699 89.3617 237.324 87.9641 234.949C87.8538 234.763 85.4691 230.692 81.9746 223.268C80.7903 222.614 79.6184 221.94 78.4602 221.245C77.7298 221.471 76.9746 221.584 76.2194 221.584C74.8181 221.584 73.4218 221.197 72.1953 220.432L56.4798 210.63C54.2973 209.27 52.9518 206.899 52.8997 204.328C52.8774 203.193 53.1093 202.087 53.557 201.082C45.3464 192.255 38.5049 182.106 33.438 171.219H17.3269C14.2602 171.219 11.6175 169.405 10.4147 166.791C7.80927 165.584 6 162.945 6 159.885V44.0184C6 39.8182 9.40525 36.413 13.6054 36.413H62.5699C75.081 25.6367 89.8615 17.6605 105.708 13.1206C106.368 10.7893 108.105 8.90062 110.396 8.05737C111.25 7.74363 112.141 7.58861 113.024 7.58861C114.673 7.58861 116.302 8.12433 117.65 9.15607L118.965 10.1643C125.042 9.18335 131.173 8.68732 137.241 8.68732C147.028 8.68732 156.728 9.92864 166.144 12.3828C172.582 6.42542 181.198 2.97925 190.055 2.97925C195.371 2.97925 200.505 4.16104 205.319 6.49239C220.95 14.0618 228.467 31.945 223.63 48.1255C241.739 68.9551 251.656 95.3923 251.656 123.101C251.656 136.425 249.386 149.441 244.903 161.864C271.15 186.888 270.247 196.051 269.896 199.6C269.505 203.57 267.4 206.907 263.971 208.997C261.878 210.274 259.588 210.924 257.171 210.924H257.169C251.386 210.923 243.469 207.954 231.895 187.37C231.008 188.678 230.098 189.962 229.166 191.219C229.148 191.244 229.13 191.269 229.112 191.294C207.596 220.236 173.252 237.515 137.241 237.515C127.833 237.515 118.442 236.349 109.287 234.045L96.9993 238.285C96.1846 238.564 95.3463 238.699 94.5204 238.699Z" fill="white"/>
<path d="M137.242 228.61C196.23 228.61 244.049 180.791 244.049 121.803C244.049 62.8157 196.23 14.9967 137.242 14.9967C78.2547 14.9967 30.4358 62.8157 30.4358 121.803C30.4358 180.791 78.2547 228.61 137.242 228.61Z" fill="#3030F8"/>
<path d="M58.5943 63.438C58.5943 63.438 59.8889 127.198 70.2461 166.684C80.6032 206.171 94.5205 229.798 94.5205 229.798L223.012 185.457C223.012 185.457 200.032 158.593 191.294 119.108C182.555 79.621 180.613 44.0196 180.613 44.0196L58.5943 62.1446" fill="#F0F7FD"/>
<path d="M71.5393 76.0606L72.4867 83.5048L170.579 65.3798L169.633 58.2593L71.5393 76.0606Z" fill="#8383FB"/>
<path d="M73.589 92.0267L74.0218 99.58L171.6 81.1388L170.59 74.125L73.589 92.0267Z" fill="#8383FB"/>
<path d="M75.1384 107.726L76.1243 115.256L172.573 96.2156L171.589 89.0132L75.1384 107.726Z" fill="#8383FB"/>
<path d="M78.0585 125.893L78.8757 132.41L158.649 115.959L157.833 109.726L78.0585 125.893Z" fill="#8383FB"/>
<path d="M80.3241 140.458L81.1413 146.974L160.914 130.524L160.098 124.291L80.3241 140.458Z" fill="#8383FB"/>
<path d="M202.944 184.162L196.87 186.792L183.483 191.508L176.587 193.929L163.062 198.695L153.403 202.106L140.067 206.796L126.275 211.651L113.041 216.316L105.2 219.116L95.6288 192.907L84.4855 164.256L183.852 136.58L202.944 184.162Z" fill="#F97066"/>
<path d="M126.275 211.651L113.041 216.316L100.567 176.182L113.078 171.643L126.275 211.651Z" fill="#3030F8"/>
<path d="M153.403 202.106L140.067 206.796L124.513 161.502L138.749 157.193L153.403 202.106Z" fill="#6CE9A6"/>
<path d="M176.587 193.929L163.062 198.696L151.704 165.609L165.94 161.288L176.587 193.929Z" fill="#F0F7FD"/>
<path d="M232.618 154.492C232.618 155.81 232.288 157.053 231.693 158.13V158.143C231.617 158.282 231.54 158.422 231.452 158.548C230.692 159.765 229.615 160.741 228.321 161.362C228.258 161.4 228.195 161.438 228.132 161.451C227.168 161.907 226.09 162.148 224.949 162.148C220.728 162.148 217.293 158.725 217.293 154.492C217.293 150.258 220.728 146.836 224.949 146.836C229.183 146.836 232.618 150.258 232.618 154.492Z" fill="#6CE9A6"/>
<path d="M260.012 201.205C249.364 207.708 233.557 173.546 228.702 162.237C228.562 161.92 228.435 161.628 228.321 161.363C228.321 161.338 228.309 161.325 228.295 161.312C227.598 159.664 227.217 158.701 227.217 158.701L229.373 156.761C229.373 156.761 230.108 157.382 231.363 158.485C231.388 158.51 231.414 158.536 231.452 158.548C232.326 159.334 233.455 160.335 234.761 161.514C245.954 171.694 269.913 195.171 260.012 201.205Z" fill="#6CE9A6"/>
<path d="M197.766 162.477C222.612 162.477 242.755 142.335 242.755 117.488C242.755 92.6413 222.612 72.4991 197.766 72.4991C172.919 72.4991 152.777 92.6413 152.777 117.488C152.777 142.335 172.919 162.477 197.766 162.477Z" fill="#ACACFC"/>
<path d="M197.766 158.269C220.289 158.269 238.547 140.011 238.547 117.488C238.547 94.965 220.289 76.7066 197.766 76.7066C175.243 76.7066 156.985 94.965 156.985 117.488C156.985 140.011 175.243 158.269 197.766 158.269Z" stroke="#6CE9A6" stroke-width="0.2576" stroke-miterlimit="10"/>
<path d="M237.258 117.654C237.258 128.796 232.568 138.837 225.039 145.923C218.092 152.477 208.724 156.494 198.418 156.494C176.969 156.494 159.577 139.102 159.577 117.654C159.577 113.585 160.199 109.668 161.364 105.991C166.309 90.2346 181.038 78.8122 198.418 78.8122C219.866 78.8135 237.258 96.2056 237.258 117.654Z" fill="#F0F7FD"/>
<path d="M199.771 87.5524C199.598 90.3091 200.921 93.0112 202.855 94.9842C204.788 96.9572 207.283 98.2865 209.829 99.3579C212.224 100.365 214.763 101.182 217.36 101.11C219.1 101.062 221.026 100.458 221.818 98.9078C222.24 98.0819 222.272 97.1109 222.178 96.1883C221.786 92.3267 219.351 88.8867 216.262 86.5368C211.745 83.0981 200.403 77.4594 199.771 87.5524Z" fill="white"/>
<path d="M184.637 150.428C186.904 152.72 190.409 153.299 193.626 153.087C194.381 153.037 195.163 152.94 195.806 152.544C196.875 151.883 197.329 150.483 197.122 149.242C196.916 148.002 196.157 146.916 195.259 146.036C192.886 143.708 188.596 142.183 185.319 143.332C182.187 144.43 182.619 148.387 184.637 150.428Z" fill="white"/>
<path opacity="0.11" d="M225.037 145.923C218.091 152.477 208.723 156.494 198.417 156.494C176.968 156.494 159.576 139.102 159.576 117.654C159.576 113.585 160.198 109.668 161.363 105.991C163.924 114.827 169.439 122.914 176.461 128.949C186.539 137.607 199.444 142.437 212.526 144.731C216.633 145.454 220.855 145.935 225.037 145.923Z" fill="#ACACFC"/>
<path opacity="0.41" d="M234.761 161.514C232.834 162.034 230.793 162.174 228.702 162.237C228.562 161.92 228.435 161.629 228.321 161.363C228.258 161.402 228.195 161.439 228.132 161.452C228.182 161.414 228.246 161.363 228.297 161.314C229.374 160.439 230.401 159.501 231.365 158.486C231.479 158.372 231.58 158.258 231.694 158.144C231.619 158.283 231.542 158.423 231.454 158.549C232.327 159.334 233.455 160.336 234.761 161.514Z" fill="#ACACFC"/>
<path d="M139.993 46.4464H17.3268V162.315H139.993V46.4464Z" fill="#ACACFC"/>
<path d="M136.276 42.7236H13.6055V158.588H136.276V42.7236Z" fill="#F0F7FD"/>
<path d="M31.0832 63.1142C35.3733 63.1142 38.8511 59.6364 38.8511 55.3464C38.8511 51.0563 35.3733 47.5785 31.0832 47.5785C26.7931 47.5785 23.3154 51.0563 23.3154 55.3464C23.3154 59.6364 26.7931 63.1142 31.0832 63.1142Z" fill="#6CE9A6"/>
<path d="M96.8941 50.3837H49.4239V53.836H96.8941V50.3837Z" fill="#6CE9A6"/>
<path d="M79.7404 56.3175H49.4242V58.0437H79.7404V56.3175Z" fill="#6CE9A6"/>
<path d="M79.7404 59.8777H49.4242V61.6039H79.7404V59.8777Z" fill="#6CE9A6"/>
<path d="M136.276 68.9388H13.6055V130.863H136.276V68.9388Z" fill="#6CE9A6"/>
<path d="M109.84 122.725H25.4498L50.2154 82.4445C52.5741 78.6312 58.1036 78.5395 60.5688 82.3068L80.5552 112.815L94.5544 100.347C97.9547 97.3304 103.345 98.9388 104.54 103.319L109.84 122.725Z" fill="#F0F7FD"/>
<path d="M109.839 94.6171C115.202 94.6171 119.549 90.2699 119.549 84.9073C119.549 79.5447 115.202 75.1975 109.839 75.1975C104.477 75.1975 100.13 79.5447 100.13 84.9073C100.13 90.2699 104.477 94.6171 109.839 94.6171Z" fill="#F0F7FD"/>
<path d="M36.6164 139.949C34.5257 137.081 31.2221 140.665 30.7261 141.233C30.23 140.665 26.9277 137.081 24.8369 139.949C22.6358 142.968 30.4508 149.894 30.8997 150.287C30.8997 150.297 30.8997 150.305 30.8997 150.305C30.8997 150.305 30.9071 150.299 30.9109 150.295C30.9146 150.298 30.922 150.305 30.922 150.305C30.922 150.305 30.922 150.295 30.922 150.285C31.3536 149.89 38.8163 142.966 36.6164 139.949Z" stroke="#ACACFC" stroke-width="0.3431" stroke-miterlimit="10" stroke-linecap="round" stroke-linejoin="round"/>
<path d="M44.0074 147.478C42.1039 144.774 42.7525 141.039 45.4559 139.136C48.1592 137.232 51.8931 137.881 53.7978 140.584C55.5885 143.126 55.121 146.581 52.8095 148.567L53.3936 150.345L51.5955 149.378C48.9863 150.696 45.7386 149.938 44.0074 147.478Z" stroke="#ACACFC" stroke-width="0.3431" stroke-miterlimit="10" stroke-linecap="round" stroke-linejoin="round"/>
<path d="M60.9641 140.408L74.4525 139.497L65.886 150.07L65.1568 144.419L60.9641 140.408Z" stroke="#ACACFC" stroke-width="0.3431" stroke-miterlimit="10" stroke-linecap="round" stroke-linejoin="round"/>
<path d="M214.756 48.743C221.369 35.0861 215.66 18.6538 202.003 12.0405C188.346 5.42712 171.914 11.1364 165.3 24.7934C159.08 37.6381 163.763 52.9345 175.702 60.2125L166.09 69.957L181.803 62.9853C194.592 67.0131 208.738 61.1698 214.756 48.743Z" fill="#FEC84B"/>
<path d="M176.397 27.3752C181.678 20.1332 190.018 29.1808 191.269 30.6156C192.52 29.1808 200.86 20.1332 206.141 27.3752C211.698 34.9968 191.966 52.4843 190.832 53.4789C190.832 53.5024 190.831 53.5272 190.831 53.5272C190.831 53.5272 190.812 53.5111 190.805 53.5024C190.796 53.5099 190.778 53.5272 190.778 53.5272C190.778 53.5272 190.778 53.5024 190.779 53.4789C189.686 52.4756 170.841 34.9943 176.397 27.3752Z" fill="#F0F7FD"/>
<path d="M108.334 35.7976L113.026 13.8979L127.73 25.1603L108.334 35.7976Z" fill="#ACACFC"/>
<path d="M78.7927 190.434L76.2195 212.682L60.504 202.881L78.7927 190.434Z" fill="#ACACFC"/>
<path d="M220.359 65.8163C220.359 68.1997 218.427 70.1317 216.044 70.1317C213.661 70.1317 211.729 68.1997 211.729 65.8163C211.729 63.4328 213.661 61.5008 216.044 61.5008C218.427 61.5008 220.359 63.4341 220.359 65.8163Z" fill="#F97066"/>
<path d="M153.877 32.3579C153.877 34.7413 151.945 36.6734 149.561 36.6734C147.178 36.6734 145.246 34.7413 145.246 32.3579C145.246 29.9745 147.178 28.0424 149.561 28.0424C151.945 28.0424 153.877 29.9745 153.877 32.3579Z" fill="#F0F7FD"/>
<path d="M176.963 214.138C176.963 216.522 175.031 218.454 172.648 218.454C170.264 218.454 168.332 216.522 168.332 214.138C168.332 211.755 170.264 209.823 172.648 209.823C175.031 209.824 176.963 211.756 176.963 214.138Z" fill="#F97066"/>
<path d="M58.2657 173.926C58.2657 176.31 56.3336 178.242 53.9502 178.242C51.5668 178.242 49.6348 176.31 49.6348 173.926C49.6348 171.543 51.5668 169.611 53.9502 169.611C56.3336 169.611 58.2657 171.543 58.2657 173.926Z" fill="#F97066"/>
</g>
<defs>
<filter id="filter0_dd_229_20338" x="0" y="0.979248" width="276" height="247.72" filterUnits="userSpaceOnUse" color-interpolation-filters="sRGB">
<feFlood flood-opacity="0" result="BackgroundImageFix"/>
<feColorMatrix in="SourceAlpha" type="matrix" values="0 0 0 0 0 0 0 0 0 0 0 0 0 0 0 0 0 0 127 0" result="hardAlpha"/>
<feMorphology radius="2" operator="erode" in="SourceAlpha" result="effect1_dropShadow_229_20338"/>
<feOffset dy="2"/>
<feGaussianBlur stdDeviation="2"/>
<feColorMatrix type="matrix" values="0 0 0 0 0.0627451 0 0 0 0 0.0941176 0 0 0 0 0.156863 0 0 0 0.06 0"/>
<feBlend mode="normal" in2="BackgroundImageFix" result="effect1_dropShadow_229_20338"/>
<feColorMatrix in="SourceAlpha" type="matrix" values="0 0 0 0 0 0 0 0 0 0 0 0 0 0 0 0 0 0 127 0" result="hardAlpha"/>
<feMorphology radius="2" operator="erode" in="SourceAlpha" result="effect2_dropShadow_229_20338"/>
<feOffset dy="4"/>
<feGaussianBlur stdDeviation="4"/>
<feColorMatrix type="matrix" values="0 0 0 0 0.0627451 0 0 0 0 0.0941176 0 0 0 0 0.156863 0 0 0 0.1 0"/>
<feBlend mode="normal" in2="effect1_dropShadow_229_20338" result="effect2_dropShadow_229_20338"/>
<feBlend mode="normal" in="SourceGraphic" in2="effect2_dropShadow_229_20338" result="shape"/>
</filter>
</defs>
</svg>
