<svg width="16" height="17" viewBox="0 0 16 17" fill="none" xmlns="http://www.w3.org/2000/svg">
<g id="Icon row up" clip-path="url(#clip0_227_19958)">
<path id="Vector" d="M0.912 1.22728L0.416 1.73928L1.072 2.29928C2.14933 3.19528 3.376 3.87795 4.752 4.34728C5.27467 4.52861 5.728 4.64595 6.112 4.69928C6.528 4.76328 7.13067 4.80061 7.92 4.81128C8.47467 4.81128 8.99733 4.80061 9.488 4.77928C10 4.75795 10.3467 4.72595 10.528 4.68328C10.6667 4.65128 10.7467 4.65661 10.768 4.69928C10.7893 4.74195 10.728 4.85395 10.584 5.03528C10.44 5.21661 10.1813 5.50995 9.808 5.91528C9.44533 6.28861 8.912 6.83261 8.208 7.54728L5.6 10.1713L0 15.7713L0.448 16.2513L0.928 16.6993L6.528 11.0993L9.152 8.49128C9.86667 7.78728 10.4107 7.25395 10.784 6.89128C11.1893 6.51795 11.4827 6.25928 11.664 6.11528C11.8453 5.97128 11.9573 5.90995 12 5.93128C12.0427 5.95261 12.048 6.03261 12.016 6.17128C11.9733 6.35261 11.9413 6.69928 11.92 7.21128C11.8987 7.70195 11.888 8.22461 11.888 8.77928C11.8987 9.56861 11.936 10.1713 12 10.5873C12.0533 10.9713 12.1707 11.4246 12.352 11.9473C12.8213 13.3233 13.504 14.5499 14.4 15.6273L14.96 16.2833L15.472 15.7873L16 15.2913L15.6 14.8593C15.3867 14.6566 15.0453 14.1766 14.576 13.4193C13.8933 12.2886 13.4667 11.0726 13.296 9.77128C13.1253 8.48061 13.2133 7.20328 13.56 5.93928C13.9067 4.67528 14.496 3.51528 15.328 2.45928L15.984 1.62728L15.552 1.16328L15.104 0.715279L14.672 1.05128C14.1813 1.42461 13.6533 1.78461 13.088 2.13128C12.5227 2.47795 12.0533 2.72595 11.68 2.87528C11.104 3.09928 10.3707 3.27261 9.48 3.39528C8.58933 3.51795 7.856 3.54195 7.28 3.46728C6.288 3.34995 5.28267 3.06995 4.264 2.62728C3.24533 2.18461 2.43733 1.67528 1.84 1.09928L1.408 0.69928L0.912 1.22728Z" fill="white"/>
</g>
<defs>
<clipPath id="clip0_227_19958">
<rect width="16" height="16" fill="white" transform="matrix(1 0 0 -1 0 16.6993)"/>
</clipPath>
</defs>
</svg>
