<svg width="312" height="256" viewBox="0 0 312 256" fill="none" xmlns="http://www.w3.org/2000/svg">
<g filter="url(#filter0_dd_227_19971)">
<path d="M299.66 37.7486C298.842 37.3193 297.998 36.9881 297.153 36.7617C297.153 36.7617 296.754 36.6556 296.655 36.6334C295.733 36.4226 294.78 36.3166 293.827 36.3166C291.795 36.3166 289.727 36.8075 287.925 37.6989C280.239 41.3979 272.954 47.0186 265.731 54.8316C269.549 42.7514 267.681 29.0638 259.506 18.189C251.771 7.90073 239.943 2 227.059 2C218.214 2 209.796 4.81554 202.709 10.1416C184.833 23.5819 181.223 49.0605 194.662 66.9381C194.697 66.9852 194.734 67.0336 194.769 67.0808C190.668 65.6409 186.911 63.7914 183.639 62.0832C182.606 61.5544 181.587 61.0007 180.469 60.3934C179.522 59.8842 177.58 58.8279 177.551 58.8122C177.56 58.769 177.606 58.5451 177.619 58.4758C177.916 56.943 178.068 55.3317 178.068 53.685C178.068 48.3419 176.494 43.1833 173.512 38.7709C168.543 31.4081 160.276 27.0126 151.398 27.0126H151.083C139.113 27.1579 128.981 35.2943 125.776 46.2738C125.096 46.3314 124.421 46.3955 123.755 46.4675C122.434 46.6128 121.111 46.7908 119.79 47.0015V43.0053C119.79 34.7577 113.08 28.048 104.833 28.048H53.509C45.2613 28.048 38.5516 34.7577 38.5516 43.0053V67.5965C38.5516 75.2106 44.2704 81.5145 51.6385 82.4386C51.6319 82.6114 51.6293 82.7855 51.6293 82.9596V94.3657C50.1842 96.5242 48.7928 98.7389 47.4577 101.001C46.9171 100.395 46.3674 99.7822 45.8071 99.1643C45.6383 98.9431 45.4576 98.7298 45.2665 98.5256C45.1801 98.4339 45.0951 98.3462 45.0074 98.2572C44.917 98.1499 44.8241 98.0439 44.7286 97.9392C40.3318 93.1877 34.8329 88.0317 27.4164 85.8262C25.4517 85.2319 23.5315 84.9309 21.7147 84.9309C19.9502 84.9309 18.2512 85.211 16.7747 85.7254C15.6359 86.1037 14.5417 86.6338 13.4827 87.3131C13.09 87.5605 12.7471 87.804 12.4185 88.0697C9.86087 90.0659 7.89745 92.9154 6.87647 96.1289C5.76387 99.6513 5.71282 103.526 6.71024 107.599C7.49953 110.902 8.84382 114.043 10.8177 117.194C10.9041 117.346 11.1934 117.818 11.2562 117.915C14.238 122.513 18.0837 126.449 21.4764 129.922L21.7108 130.161C24.614 133.113 27.4178 136.01 30.0605 138.785C26.5617 139.897 23.7187 142.517 22.1152 146.144C22.0288 146.326 21.9477 146.509 21.8744 146.697C20.8037 149.408 20.5275 152.412 21.0798 155.085C22.127 160.411 25.5499 164.146 28.4152 166.804C28.4963 166.88 28.5788 166.956 28.6626 167.031C28.7673 173.694 29.6469 179.884 31.3276 185.802C31.3276 185.837 31.3302 186.187 31.3367 186.324C29.5828 187.924 28.4806 190.228 28.4806 192.783C28.4806 195.338 29.5828 197.642 31.3367 199.241C31.3302 199.378 31.3276 199.517 31.3276 199.656C31.3276 201.995 32.2399 204.193 33.8722 205.82C35.5005 207.457 37.7584 208.397 40.07 208.397C40.2075 208.397 40.3462 208.395 40.4823 208.387C41.7612 209.789 43.4903 210.774 45.4367 211.113C50.5167 216.494 56.3965 220.433 62.7108 222.646C67.4047 224.296 72.5607 225.131 78.036 225.131C81.1434 225.131 84.3425 224.874 87.7601 224.351L146.875 245.214C147.756 245.525 148.675 245.679 149.591 245.679C150.798 245.679 152.001 245.411 153.111 244.88C155.062 243.947 156.564 242.277 157.283 240.235L165.831 216.015C168.402 216.497 171.166 217.051 174.228 217.699C190.173 221.082 208.246 224.917 225.858 224.917C225.989 224.917 226.121 224.917 226.25 224.916C226.874 225.055 227.515 225.127 228.168 225.127C228.936 225.127 229.693 225.025 230.419 224.83C230.713 224.82 231.006 224.81 231.299 224.796C247.342 224.063 260.911 219.967 272.789 212.272C277.349 209.313 281.398 205.98 284.81 202.377C304.639 181.545 303.241 153.558 291.749 129.445C295.14 127.131 297.373 123.237 297.373 118.83C297.373 112.235 292.378 106.793 285.974 106.072C286.78 104.561 287.584 103.051 288.357 101.534C288.384 101.481 288.781 100.671 288.781 100.671C293.174 91.9835 297.136 82.9125 300.536 73.7682C300.664 73.4291 300.796 73.0744 300.917 72.7158C301.442 71.3427 301.94 69.9513 302.425 68.5599C304.376 62.9641 305.562 57.1734 305.944 51.3525C306.376 44.8208 304.296 40.2618 299.66 37.7486Z" fill="white"/>
<path d="M278.81 196.757C275.873 199.856 272.365 202.767 268.258 205.432C256.673 212.938 243.932 216.052 230.837 216.65C212.493 217.506 193.429 213.455 175.806 209.715C170.666 208.627 165.526 207.621 160.345 206.805C155.177 206.003 149.97 205.392 144.748 205.105C142.857 204.996 140.967 204.941 139.064 204.941C138.072 204.928 137.078 204.928 136.086 204.954C135.584 204.968 135.094 204.982 134.59 205.023C133.162 205.077 131.734 205.186 130.334 205.348C129.314 205.457 128.307 205.593 127.301 205.757C126.132 205.934 124.976 206.138 123.82 206.368C119.687 207.184 115.634 208.299 111.596 209.51C108.495 210.435 105.395 211.427 102.281 212.392C101.751 212.555 101.234 212.718 100.704 212.881C96.7067 214.105 92.573 215.206 88.4119 215.955C80.6198 217.368 72.7203 217.545 65.3221 214.948C52.7575 210.542 43.824 198.141 39.7715 185.849C37.3513 178.48 36.5358 170.919 36.7531 163.317C36.8486 159.741 37.1745 156.15 37.6772 152.561C37.6903 152.425 37.7047 152.303 37.7322 152.167C37.8539 151.243 37.99 150.332 38.1405 149.407C38.2492 148.713 38.3722 148.019 38.494 147.327C39.0516 144.268 39.7309 141.194 40.5608 138.121C40.6014 137.891 40.6694 137.672 40.7244 137.455C40.765 137.333 40.7925 137.21 40.8331 137.088C42.1656 132.18 43.8384 127.27 45.8097 122.444C45.8646 122.308 45.9183 122.172 45.9733 122.035C46.8974 119.805 47.8765 117.602 48.938 115.413C51.997 108.996 55.6006 102.753 59.6936 96.8931C61.9778 93.6155 64.398 90.461 66.9819 87.4425C67.0224 87.3876 67.063 87.3339 67.1036 87.2933C67.6887 86.614 68.2725 85.9464 68.872 85.2802C69.2254 84.8862 69.5788 84.4909 69.9322 84.1113C71.7412 82.1531 73.6038 80.263 75.5345 78.4409C75.8604 78.1281 76.1877 77.8297 76.5267 77.5168C77.6956 76.4422 78.8789 75.395 80.1027 74.3897C84.4406 70.7587 89.0363 67.523 93.8912 64.7494C93.9317 64.7219 93.9723 64.6944 94.0273 64.6682C97.9567 62.4247 102.05 60.494 106.279 58.9298C106.619 58.8081 106.973 58.6719 107.326 58.5489C108.714 58.0593 110.127 57.5973 111.541 57.1889C115.756 55.9519 120.094 55.0671 124.555 54.5776C132.332 53.7346 140.967 53.9663 148.99 55.6653C150.173 55.9101 151.329 56.1954 152.485 56.5226C154.347 57.0253 156.184 57.6235 157.938 58.3172C164.466 60.8736 170.447 64.3135 176.513 67.578C177.614 68.1762 178.716 68.7744 179.831 69.3464C184.808 71.9433 189.908 74.3099 195.455 75.8872C197.59 76.4854 199.752 77.0299 201.913 77.5194C211.336 79.708 220.95 81.1504 230.142 84.1139C232.045 84.7252 233.935 85.4058 235.799 86.1676C236.465 86.4399 237.145 86.7252 237.811 87.025C238.151 87.1611 238.505 87.3247 238.845 87.4871C239.375 87.7187 239.905 87.9635 240.435 88.2083C242.979 89.4191 245.467 90.7647 247.874 92.2333C248.785 92.7909 249.696 93.3616 250.58 93.9467C250.838 94.1103 251.082 94.287 251.327 94.4493C252.102 94.9664 252.864 95.4965 253.626 96.0397C253.815 96.1758 254.007 96.312 254.196 96.4612C254.401 96.5973 254.605 96.7465 254.808 96.9102C256.317 98.0254 257.8 99.2087 259.267 100.459C259.525 100.663 259.77 100.88 260.029 101.112C264.367 104.865 268.473 109.134 272.185 113.772C292.028 138.421 301.152 173.286 278.81 196.757Z" fill="#8383FB"/>
<path d="M294.631 65.8752C294.151 67.2561 293.656 68.6318 293.136 69.9866C293.04 70.2876 292.93 70.5848 292.822 70.8675C289.508 79.7801 285.698 88.5134 281.41 96.994C281.273 97.2689 281.137 97.5438 280.997 97.8318C277.44 104.812 273.583 111.635 269.416 118.279C269.247 118.56 269.074 118.856 268.89 119.134C265.226 124.949 261.319 130.622 257.194 136.126C261.295 131.985 267.137 128.606 272.653 126.728C273.921 126.291 275.603 126.058 276.349 127.161C276.645 127.567 276.724 128.087 276.725 128.601C276.75 130.709 276.207 132.788 275.251 134.663C274.756 135.634 274.233 136.599 273.67 137.537C273.511 137.837 273.357 138.122 273.174 138.4C269.06 145.309 263.673 151.392 257.58 156.695L257.576 156.709C257.291 156.959 257.006 157.209 256.691 157.452L256.688 157.466C253.741 159.973 250.678 162.278 247.483 164.437C236.983 171.542 225.412 176.899 213.778 181.909C213.858 181.496 213.928 181.062 213.977 180.592C214.066 179.854 214.143 179.049 214.183 178.205C214.396 175.041 214.39 171.414 214.748 168.926C215.94 160.439 217.373 151.923 219.142 143.496C219.219 143.034 219.326 142.581 219.414 142.137C219.414 142.137 219.414 142.137 219.418 142.123C222.699 126.79 227.078 111.72 233.099 97.371C233.267 96.9796 233.434 96.5896 233.6 96.1982C237.229 87.6809 241.465 79.4515 246.386 71.5612C247.399 69.9342 248.525 68.2928 249.774 66.7757C250.004 66.4956 250.232 66.2299 250.458 65.9642C251.369 64.9484 252.334 64.0256 253.372 63.2298C256.583 60.7781 261.131 63.7128 260.116 67.6108L260.096 67.6828C259.15 71.3191 258.199 74.9697 257.253 78.606C260.826 73.5914 264.58 68.4839 268.668 63.701L268.672 63.6866C268.989 63.3201 269.304 62.9536 269.632 62.6067L269.636 62.5923C275.905 55.4232 282.976 49.0919 291.377 45.0472C292.418 44.5328 293.61 44.3247 294.753 44.5852L294.956 44.6401C295.261 44.7226 295.54 44.843 295.784 44.9713C297.836 46.0826 297.854 48.7332 297.715 50.8131C297.376 55.9534 296.325 61.0242 294.631 65.8752Z" fill="#3030F8"/>
<path d="M295.784 44.974C288.863 50.1156 283.141 56.748 278.354 62.7443C274.641 67.4107 271.09 72.1674 267.688 77.0105C267.486 77.2984 267.28 77.6008 267.078 77.8888C261.778 85.5055 256.838 93.3435 252.142 101.434C251.991 101.705 251.826 101.972 251.672 102.257C247.746 109.046 243.992 116.004 240.366 123.122C240.23 123.397 240.098 123.657 239.962 123.931C236.691 130.366 233.528 136.924 230.405 143.616C230.273 143.877 230.155 144.14 230.033 144.419C228.226 148.305 226.435 152.243 224.652 156.215C224.539 156.465 224.429 156.699 224.315 156.949C220.854 164.671 217.43 172.543 213.974 180.594C213.761 181.096 213.529 181.611 213.317 182.114L212.634 181.82C213.147 180.604 213.672 179.407 214.181 178.206C217.337 170.868 220.482 163.685 223.643 156.614C223.799 156.267 223.955 155.919 224.111 155.572C229.044 144.573 234.044 133.904 239.294 123.581C239.468 123.224 239.653 122.884 239.823 122.541C243.335 115.673 246.945 108.957 250.732 102.395C250.886 102.109 251.041 101.824 251.206 101.557C256.038 93.1916 261.146 85.0723 266.651 77.216C266.961 76.7552 267.269 76.3076 267.594 75.8507C270.844 71.2315 274.237 66.7117 277.779 62.2796C282.503 56.3448 288.134 49.8132 294.955 44.6429C295.26 44.724 295.538 44.8457 295.784 44.974Z" fill="#0B0B79"/>
<path d="M293.136 69.9866C293.04 70.2877 292.93 70.5848 292.822 70.8675L270.781 77.3141C270.07 77.5274 269.417 77.585 268.781 77.6321C268.208 77.6806 267.679 77.7408 267.078 77.89L266.544 78.0261L266.612 77.4842C266.621 77.3926 266.626 77.3167 266.65 77.229L266.654 77.2146C267.212 72.7105 267.882 68.192 268.668 63.7037L268.672 63.6893C268.989 63.3228 269.305 62.9562 269.632 62.6094C268.84 67.0022 268.163 71.4277 267.598 75.8507C267.536 76.2538 267.479 76.6439 267.43 77.051C267.514 77.0274 267.609 77.0209 267.689 77.0117C268.048 76.9528 268.383 76.9188 268.719 76.8834C269.34 76.8324 269.931 76.7735 270.573 76.5876L293.136 69.9866Z" fill="#0B0B79"/>
<path d="M281.41 96.9926C281.273 97.2675 281.137 97.5424 280.997 97.8303C272.662 99.371 264.276 100.524 256.067 101.649C254.599 101.845 253.14 102.06 251.67 102.256C251.379 102.302 251.089 102.333 250.797 102.379L250.732 102.392L250.348 102.429L250.375 101.985C250.843 90.2843 250.644 78.4658 249.771 66.7769C250.001 66.4968 250.229 66.2311 250.456 65.9654C251.369 77.7891 251.61 89.7437 251.139 101.569C251.157 101.558 251.186 101.566 251.204 101.556C251.512 101.514 251.818 101.472 252.14 101.434C253.401 101.26 254.695 101.078 255.97 100.908C264.345 99.7506 272.907 98.5817 281.41 96.9926Z" fill="#0B0B79"/>
<path d="M269.416 118.279C269.247 118.56 269.074 118.856 268.89 119.134C258.355 121.157 248.35 122.715 239.962 123.931C239.882 123.94 239.815 123.954 239.735 123.964L239.395 124.012L239.293 123.58L233.095 97.3723C233.263 96.9809 233.43 96.5909 233.596 96.1995L239.824 122.524L239.82 122.538L239.978 123.172C240.106 123.16 240.237 123.132 240.365 123.121C248.806 121.889 258.845 120.323 269.416 118.279Z" fill="#0B0B79"/>
<path d="M273.67 137.536C273.511 137.836 273.357 138.121 273.174 138.399C258.885 140.954 244.428 142.98 230.036 144.417C229.908 144.429 229.795 144.446 229.667 144.458L229.59 143.705C229.859 143.684 230.134 143.649 230.408 143.613C244.847 142.175 259.337 140.141 273.67 137.536Z" fill="#0B0B79"/>
<path d="M257.575 156.708C257.29 156.958 257.004 157.208 256.69 157.45L256.686 157.465C245.832 157.55 234.941 157.251 224.316 156.948C224.22 156.953 224.116 156.94 224.02 156.946L223.743 156.934L223.656 156.678C223.646 156.66 223.65 156.645 223.639 156.627L223.643 156.612C222.307 152.207 220.809 147.82 219.139 143.497C219.216 143.035 219.324 142.582 219.411 142.138C221.164 146.562 222.724 151.059 224.11 155.571L224.106 155.585C224.176 155.79 224.245 155.996 224.3 156.198C224.425 156.2 224.533 156.198 224.654 156.215L224.658 156.2C235.483 156.512 246.56 156.813 257.575 156.708Z" fill="#0B0B79"/>
<path d="M89.9409 193.449C89.0691 193.411 87.1829 191.978 86.4643 191.479C75.2519 183.522 61.9857 178.637 49.9618 172.038C49.6371 171.867 49.3282 171.692 49.001 171.506C43.5872 168.476 38.4417 165.066 33.8761 160.823C31.685 158.789 29.5697 156.424 28.9964 153.509C28.7372 152.256 28.9021 150.883 29.376 149.686L29.4139 149.582L29.4283 149.578C30.071 148.042 31.2504 146.781 32.8774 146.445C34.1445 146.18 35.4429 146.49 36.6969 146.81C42.9694 148.485 49.0573 150.881 54.7774 153.946C50.0141 148.39 44.9668 142.824 39.8502 137.354C39.7219 137.213 39.5779 137.077 39.4496 136.935C35.46 132.677 31.4258 128.494 27.4387 124.44C24.0918 121.013 20.6074 117.478 18.0117 113.475C17.9306 113.338 17.8363 113.205 17.7696 113.064C16.3179 110.786 15.1883 108.352 14.5548 105.701C13.9828 103.365 13.8427 100.876 14.5666 98.5831C15.0797 96.9678 16.0758 95.4704 17.4109 94.4534C17.5143 94.3657 17.6216 94.2924 17.7447 94.2151C18.2185 93.9115 18.7185 93.647 19.2539 93.469C21.0877 92.8316 23.1074 93.0737 24.9688 93.6366C30.4297 95.261 34.7492 99.265 38.6499 103.481C38.6394 103.499 38.6394 103.499 38.6577 103.511C38.6459 103.53 38.6459 103.53 38.6656 103.541C38.8567 103.746 39.0373 103.905 39.2284 104.109L39.2428 104.168C39.3488 104.284 39.4378 104.387 39.5439 104.502C42.8712 108.17 46.103 111.891 49.213 115.754L49.2235 115.798C49.4002 116.005 49.5573 116.203 49.7196 116.414C53.937 121.665 57.9476 127.093 61.7017 132.693C61.8444 132.893 61.9726 133.097 62.1009 133.3C66.6364 140.041 70.7949 147.031 74.5189 154.238C74.5228 154.253 74.5228 154.253 74.5228 154.253C74.6616 154.5 74.7977 154.734 74.9076 154.989L74.9116 155.004C78.6067 162.155 81.8843 169.517 84.6894 177.058L84.6933 177.073C84.8098 177.358 84.9119 177.646 85.0179 177.95C85.8085 180.091 86.5599 182.259 87.2654 184.437C87.484 185.136 87.717 185.831 87.9343 186.53C88.6476 188.813 89.31 191.127 89.9409 193.449Z" fill="#6CE9A6"/>
<path d="M87.9316 186.527C86.7719 184.288 85.5964 182.052 84.3922 179.824C84.3084 179.672 84.2233 179.52 84.1396 179.369L84.1356 179.354C81.1264 173.791 77.9509 168.315 74.6536 162.916C74.5541 162.769 74.4704 162.617 74.3709 162.469L74.367 162.454C70.5383 156.23 66.5198 150.131 62.309 144.14C62.1584 143.911 61.9935 143.684 61.8286 143.458C55.7917 134.875 49.3504 126.563 42.5504 118.512L42.5321 118.5C42.392 118.315 42.2415 118.148 42.07 117.955L42.0661 117.941L42.0517 117.945C40.7598 116.381 39.4116 114.845 38.0594 113.297C31.0998 105.363 24.8011 99.0386 17.4082 94.4547C17.5116 94.367 17.6189 94.2937 17.742 94.2165C25.6349 99.1787 32.2817 106.155 38.3409 113.039C39.6485 114.537 40.9522 116.02 42.2337 117.539C42.2376 117.554 42.2376 117.554 42.2376 117.554C42.4104 117.746 42.5832 117.94 42.7442 118.151C45.5244 121.435 48.2548 124.778 50.9015 128.157C51.056 128.339 51.1921 128.51 51.3308 128.694L51.3348 128.708C55.0495 133.44 58.623 138.239 62.0668 143.147C62.2173 143.315 62.3417 143.503 62.449 143.681C66.7005 149.709 70.7621 155.86 74.6353 162.136L74.6392 162.151C74.7675 162.355 74.8958 162.558 75.0241 162.762L75.0319 162.792C78.3514 168.216 81.5191 173.726 84.5506 179.315C84.6645 179.522 84.777 179.73 84.887 179.922C85.692 181.418 86.4826 182.917 87.2614 184.434C87.48 185.133 87.713 185.83 87.9316 186.527Z" fill="#0B0B79"/>
<path d="M42.7455 118.151L42.7743 118.268L42.8397 118.597L42.5517 118.511L42.5334 118.499C34.5711 115.873 26.3522 114.188 18.0116 113.474C17.9305 113.336 17.8362 113.204 17.7695 113.063C26.0263 113.751 34.1522 115.381 42.053 117.942L42.0674 117.939L42.0714 117.953C42.1525 117.965 42.2559 118.001 42.341 118.028C42.3017 117.865 42.2795 117.713 42.2402 117.551C42.2402 117.551 42.2402 117.551 42.2363 117.537C41.2415 113.031 40.0752 108.458 38.6655 103.538C38.8566 103.742 39.0372 103.901 39.2283 104.106L39.2427 104.165C40.6315 109.077 41.7808 113.639 42.7455 118.151Z" fill="#0B0B79"/>
<path d="M49.7169 116.411C50.5363 120.458 51.0848 124.555 51.3322 128.695L51.3361 128.71L50.9487 128.727C50.9343 128.542 50.9172 128.342 50.9028 128.157C50.6384 124.007 50.0782 119.864 49.2222 115.796C49.3976 116.004 49.5546 116.2 49.7169 116.411Z" fill="#0B0B79"/>
<path d="M62.0982 133.299C62.2632 136.598 62.3587 139.99 62.449 143.683C62.449 143.746 62.4516 143.823 62.4556 143.901L62.4726 144.226L62.3103 144.14L62.1846 144.077C55.2865 140.422 47.6396 138.128 39.8488 137.355C39.7205 137.214 39.5765 137.078 39.4482 136.937C47.2247 137.649 54.8859 139.878 61.8299 143.458C61.9176 143.498 61.9922 143.544 62.0799 143.585C62.0734 143.43 62.0707 143.289 62.0668 143.149C61.9739 139.442 61.8679 136.003 61.699 132.69C61.843 132.891 61.97 133.095 62.0982 133.299Z" fill="#0B0B79"/>
<path d="M74.905 154.987L74.9089 155.001C74.96 157.575 75.0032 160.182 75.0241 162.763L75.032 162.793L75.0241 163.015L74.7885 162.947C74.7401 162.943 74.7034 162.92 74.655 162.916C59.4791 159.064 44.2259 154.699 29.3013 149.955L29.3759 149.686L29.4139 149.582L29.4283 149.578C44.2338 154.289 59.3403 158.627 74.3683 162.453L74.3722 162.468C74.4534 162.479 74.5529 162.502 74.638 162.528C74.638 162.402 74.6393 162.276 74.6393 162.151L74.6353 162.136C74.6183 159.508 74.5634 156.856 74.5202 154.25C74.6602 154.499 74.7964 154.732 74.905 154.987Z" fill="#0B0B79"/>
<path d="M85.0141 177.948C84.9853 178.535 84.946 179.141 84.9028 179.731L84.8871 179.924L84.8832 179.972L84.6619 179.901C84.5769 179.875 84.4774 179.853 84.3923 179.827C73.1393 176.503 61.5918 173.893 49.9618 172.041C49.6372 171.87 49.3283 171.694 49.001 171.508C60.8627 173.351 72.6393 175.998 84.1358 179.357L84.1397 179.371C84.2719 179.401 84.4054 179.431 84.5415 179.476C84.5455 179.428 84.5454 179.365 84.5494 179.318C84.6004 178.569 84.6371 177.823 84.6894 177.073C84.8059 177.357 84.9093 177.645 85.0141 177.948Z" fill="#0B0B79"/>
<path d="M216.289 124.453C216.289 128.27 224.045 127.893 231.401 126.672C231.446 126.661 231.501 126.649 231.545 126.649C238.136 125.539 244.361 123.787 244.361 123.787L246.602 144.935L248.776 165.473L251.606 192.28C257.742 188.552 263.468 184.202 268.671 179.31C275.006 173.384 280.587 166.65 285.247 159.283C284.836 151.882 283.694 144.959 280.699 140.964C277.271 136.393 267.694 123.81 259.24 114.102C257.487 112.072 255.778 110.174 254.181 108.498C250.153 104.27 246.857 101.452 245.349 101.653C245.272 101.663 245.194 101.675 245.116 101.697C244.983 101.719 244.851 101.752 244.705 101.786C244.162 101.942 243.485 102.185 242.697 102.518C241.21 103.15 239.347 104.094 237.305 105.259C236.328 105.814 235.297 106.424 234.253 107.068C234.12 107.145 233.998 107.234 233.865 107.311C233.51 107.534 233.143 107.767 232.789 108C231.314 108.943 229.815 109.963 228.35 111.006C226.464 112.371 224.644 113.792 223.013 115.2C221.727 116.321 220.562 117.431 219.585 118.507C217.566 120.715 216.289 122.778 216.289 124.453Z" fill="#FECDCA"/>
<path d="M242.429 198.338H65.1351C62.131 198.338 59.6964 195.902 59.6964 192.899V82.9582C59.6964 79.9542 62.131 77.5195 65.1351 77.5195H242.429C245.433 77.5195 247.868 79.9542 247.868 82.9582V192.899C247.869 195.903 245.433 198.338 242.429 198.338Z" fill="#0B0B79"/>
<path d="M238.847 84.1115H66.9821V190.705H238.847V84.1115Z" fill="#ACACFC"/>
<path d="M194.517 84.1115H66.9821V190.705H194.517V84.1115Z" fill="#3030F8"/>
<path d="M73.6995 115.13H233.403" stroke="#F0F7FD" stroke-width="0.5194" stroke-miterlimit="10" stroke-linecap="round" stroke-linejoin="round"/>
<path d="M73.6995 144.525H233.403" stroke="#F0F7FD" stroke-width="0.5194" stroke-miterlimit="10" stroke-linecap="round" stroke-linejoin="round"/>
<path d="M80.527 104.946L84.1724 100.26L87.8178 104.599L91.6373 92.7951L93.8939 108.591L95.1086 102.517H100.664L104.83 93.1419L108.65 108.591L112.121 100.433L115.42 105.641" stroke="#F0F7FD" stroke-width="0.5194" stroke-miterlimit="10" stroke-linecap="round" stroke-linejoin="round"/>
<path d="M143.656 105.641L140.359 100.433L136.886 108.591L133.068 93.1419L128.902 102.517H123.347L122.132 108.591L118.312 92.7951L115.535 105.467" stroke="#F0F7FD" stroke-width="0.5194" stroke-miterlimit="10" stroke-linecap="round" stroke-linejoin="round"/>
<path d="M171.836 105.641L168.538 100.433L165.066 108.591L161.247 93.1419L157.081 102.517H151.525L150.311 108.591L146.491 92.7951L143.714 105.467" stroke="#F0F7FD" stroke-width="0.5194" stroke-miterlimit="10" stroke-linecap="round" stroke-linejoin="round"/>
<path d="M85.2483 134.761C86.5193 131.155 88.5193 127.808 91.0849 124.971C91.8611 124.113 93.3284 124.515 93.4999 125.66C93.674 126.822 93.6242 128.088 93.8258 129.233C93.9947 130.198 95.0811 130.626 95.9201 130.122C96.0078 130.07 96.0968 130.021 96.1898 129.976C97 129.579 97.9909 130.061 98.1388 130.951C98.2658 131.711 98.233 132.523 98.254 133.302C98.2867 134.556 98.5904 135.98 99.6781 136.604C101.444 133.075 103.208 129.546 104.974 126.017C105.523 124.922 106.178 123.728 107.338 123.333C107.856 123.156 108.513 123.206 108.842 123.644C109.079 123.96 109.085 124.385 109.082 124.78C109.061 127.266 109.04 129.752 109.019 132.237C109.626 132.113 109.961 131.485 110.35 131C110.739 130.517 111.506 130.142 111.936 130.588C112.145 130.805 112.175 131.131 112.194 131.431C112.264 132.507 112.333 133.583 112.402 134.66C112.451 135.402 112.681 136.351 113.421 136.435C114.069 136.509 114.523 135.829 114.794 135.236C116.581 131.342 117.668 126.868 120.922 124.083C121.113 123.919 121.324 123.757 121.572 123.712C122.426 123.562 122.814 124.738 122.848 125.605C122.939 127.883 123.03 130.161 123.12 132.439C123.86 132.72 124.268 131.562 124.945 131.152C126.019 130.499 127.19 131.998 127.254 133.253C127.318 134.51 127.027 135.969 127.911 136.865C128.136 137.092 128.476 137.264 128.775 137.145C128.967 137.069 129.097 136.891 129.212 136.719C131.41 133.456 132.243 129.263 134.627 126.237C135.315 125.364 136.719 125.72 136.992 126.797C137.402 128.409 137.128 130.377 137.436 132.084C137.482 132.338 137.552 132.608 137.747 132.777C138.21 133.176 138.924 132.726 139.254 132.211C139.584 131.697 139.857 131.045 140.448 130.888C141.195 130.689 141.873 131.486 141.977 132.253C142.08 133.02 141.837 133.794 141.867 134.567C141.896 135.341 142.371 136.219 143.144 136.24C146.321 132.644 146.438 127.16 149.347 123.343C149.643 122.956 150.142 122.553 150.562 122.801C150.753 122.914 150.853 123.131 150.926 123.341C151.736 125.638 150.771 128.269 150.883 130.654C150.931 131.686 152.219 132.147 152.957 131.422C153.676 130.716 154.888 131.134 155.032 132.131C155.067 132.38 155.101 132.629 155.133 132.879C155.274 133.99 156.732 134.363 157.342 133.425C158.171 132.15 158.732 130.639 159.31 129.216C160.018 127.47 160.968 125.635 162.417 124.526C163.119 123.99 164.165 124.437 164.314 125.308C164.57 126.805 164.746 128.316 164.843 129.833C164.911 130.904 166.212 131.379 166.946 130.596C167.618 129.879 168.199 129.26 168.199 129.26C168.94 129.88 169.08 130.963 169.03 131.927C168.98 132.892 168.798 133.887 169.093 134.807C169.389 135.727 170.4 136.518 171.294 136.151C172.082 135.828 172.331 134.854 172.475 134.014" stroke="#F0F7FD" stroke-width="0.5194" stroke-miterlimit="10" stroke-linecap="round" stroke-linejoin="round"/>
<path d="M82.8909 158.119C82.37 158.745 82.9394 159.813 83.7431 159.948C84.5468 160.083 85.3308 159.525 85.7484 158.825C86.1659 158.125 86.3047 157.301 86.4971 156.511C86.7824 155.336 87.1987 154.195 87.7367 153.114C87.9854 152.613 88.2838 152.101 88.7694 151.822C89.8415 151.205 91.2446 152.081 91.7499 153.209C92.2551 154.338 92.1832 155.627 92.3572 156.851C92.5313 158.075 93.1086 159.407 94.2827 159.792C95.7605 160.276 97.2605 158.961 97.8744 157.533C98.4896 156.105 98.6101 154.48 99.3758 153.127C100.142 151.774 102.004 150.798 103.25 151.729C103.702 152.067 103.978 152.59 104.177 153.118C104.982 155.251 104.833 157.831 106.359 159.526C106.673 159.875 107.07 160.177 107.532 160.249C108.703 160.428 109.533 159.138 109.892 158.008C110.321 156.657 110.573 155.221 111.326 154.021C112.08 152.821 113.545 151.902 114.895 152.335C116.105 152.724 116.773 154.021 117.087 155.254C117.401 156.487 117.506 157.806 118.163 158.895C118.712 159.804 119.952 160.494 120.818 159.879C121.142 159.648 121.34 159.282 121.502 158.919C122.51 156.677 122.742 153.936 124.593 152.318C125.137 151.842 125.834 151.489 126.556 151.527C128.076 151.606 128.987 153.271 129.28 154.764C129.572 156.258 129.598 157.914 130.569 159.087C130.953 159.549 131.503 159.914 132.103 159.915C132.615 159.918 133.096 159.659 133.49 159.331C134.602 158.406 135.134 156.973 135.594 155.601C136.055 154.229 136.529 152.789 137.575 151.788C138.621 150.788 140.437 150.427 141.491 151.419C141.957 151.857 142.199 152.476 142.428 153.075C142.985 154.531 143.542 155.988 144.099 157.445C144.296 157.962 144.545 158.533 145.059 158.737C145.962 159.096 146.796 158.083 147.165 157.183C147.749 155.767 148.114 154.223 149.067 153.022C150.019 151.823 151.841 151.105 153.103 151.972C153.575 152.297 153.901 152.797 154.136 153.321C154.676 154.526 154.782 155.88 155.226 157.123C155.67 158.367 156.632 159.592 157.948 159.687C159.002 159.765 159.987 159.077 160.603 158.217C161.22 157.359 161.551 156.334 161.958 155.359C162.436 154.217 163.057 153.089 164.039 152.336C165.021 151.584 166.433 151.287 167.517 151.885C168.445 152.398 168.953 153.437 169.242 154.457C169.53 155.477 169.662 156.551 170.111 157.511C170.56 158.471 171.441 159.333 172.5 159.352C173.56 159.372 174.568 158.176 174.081 157.234" stroke="#F0F7FD" stroke-width="0.5194" stroke-miterlimit="10" stroke-linecap="round" stroke-linejoin="round"/>
<path d="M207.423 98.3503H199.958V105.815H207.423V98.3503Z" fill="#3030F8"/>
<path d="M225.476 92.4482H212.109V105.815H225.476V92.4482Z" fill="#FECDCA"/>
<path d="M207.423 128.207H199.958V135.672H207.423V128.207Z" fill="#3030F8"/>
<path d="M225.476 122.305H212.109V135.672H225.476V122.305Z" fill="#FECDCA"/>
<path d="M207.423 153.725H199.958V161.19H207.423V153.725Z" fill="#3030F8"/>
<path d="M225.476 147.823H212.109V161.19H225.476V147.823Z" fill="#FECDCA"/>
<path d="M224.121 174.599C224.052 174.743 223.981 174.883 223.908 175.027C221.262 180.188 215.643 185.874 215.22 186.297L215.227 186.373C215.227 186.373 210.853 182.967 207.391 179.009C207.326 178.937 207.263 178.861 207.198 178.785C204.057 175.141 201.768 171.084 204.395 168.808C208.73 165.053 214.255 171.162 214.255 171.162L214.288 171.108C214.288 171.108 219.023 164.39 223.786 167.603C225.895 169.027 225.518 171.705 224.121 174.599Z" fill="#FEC84B"/>
<path opacity="0.31" d="M66.9821 84.1115L238.847 190.705H66.9821C66.9821 190.705 67.4978 84.6272 66.9821 84.1115Z" fill="#F0F7FD"/>
<path d="M226.719 194.488C226.974 196.518 227.351 198.504 227.851 200.424C228.051 201.168 228.25 201.911 228.461 202.643C232.633 201.379 236.694 199.835 240.621 198.072L242.053 198.439L242.286 197.284C245.493 195.775 248.599 194.111 251.606 192.28C257.742 188.552 263.468 184.203 268.671 179.31L259.039 160.647L257.575 157.806C257.575 157.806 257.042 153.457 256.055 147.089C255.889 145.968 255.7 144.791 255.512 143.549C255.445 143.172 255.378 142.784 255.311 142.395C255.056 140.819 254.779 139.166 254.479 137.48C253.991 134.728 253.448 131.854 252.87 128.958C252.86 128.903 252.848 128.847 252.838 128.792C252.372 126.529 251.883 124.266 251.362 122.035C249.487 113.913 247.235 106.346 244.705 101.786C243.873 100.277 243.007 99.0896 242.108 98.3357C241.442 97.7584 240.765 97.426 240.066 97.3592C239.855 97.337 239.655 97.3488 239.456 97.3815C239.312 97.3815 239.168 97.4142 239.035 97.4705C237.87 97.7925 236.883 98.9129 236.028 100.633C235.495 101.698 235.007 103.007 234.586 104.494C234.33 105.371 234.087 106.314 233.864 107.312C233.798 107.612 233.731 107.922 233.664 108.244C233.398 109.521 233.165 110.885 232.943 112.305C232.665 114.057 232.422 115.899 232.222 117.808C232.055 119.161 231.922 120.548 231.8 121.957C231.644 123.511 231.523 125.085 231.401 126.673C230.736 135.782 230.457 145.059 230.125 151.305C229.947 154.534 229.758 156.963 229.493 158.14C229.349 158.795 229.171 159.56 228.993 160.415C228.427 163.111 227.739 166.728 227.184 170.834C226.851 173.33 226.562 176.005 226.373 178.778C226.02 183.881 226.02 189.318 226.719 194.488Z" fill="#FECDCA"/>
<path d="M259.227 161.445C259.227 161.445 256.089 148.398 254.437 138.488C252.785 128.578 248.657 98.1878 240.068 97.3619C231.48 96.5359 230.654 143.442 230.158 150.874C229.663 158.306 227.68 167.555 226.689 173.832C225.698 180.108 225.863 190.348 226.524 194.643" stroke="#0B0B79" stroke-width="0.3707" stroke-miterlimit="10" stroke-linecap="round"/>
<path d="M261.477 141.668C259.412 142.095 257.391 142.732 255.454 143.566" stroke="#0B0B79" stroke-width="0.3707" stroke-miterlimit="10" stroke-linecap="round"/>
<path d="M259.079 138.608C257.757 139.844 256.48 141.13 255.255 142.464" stroke="#0B0B79" stroke-width="0.3707" stroke-miterlimit="10" stroke-linecap="round"/>
<path d="M285.242 159.28C285.187 163.346 282.115 179.99 278.81 196.757C275.873 199.856 272.365 202.767 268.258 205.432C256.673 212.938 243.932 216.052 230.837 216.65L228.457 202.644L232.293 198.334L247.876 180.861L250.134 178.332L255.504 172.294L263.282 168.894L285.242 159.28Z" fill="#FECDCA"/>
<path d="M165.337 192.669L86.4363 164.824L70.6073 209.676L149.508 237.521L165.337 192.669Z" fill="#F0F7FD"/>
<path d="M111.399 189.006C109.978 193.03 105.566 195.14 101.544 193.72C97.5198 192.3 95.4098 187.887 96.83 183.865C98.2502 179.841 102.663 177.731 106.685 179.151C110.707 180.572 112.819 184.984 111.399 189.006Z" fill="#3030F8"/>
<path d="M111.029 215.48L80.4983 204.705C83.7851 196.823 92.7016 192.804 100.858 195.682C109.001 198.555 113.418 207.282 111.029 215.48Z" fill="#3030F8"/>
<path d="M150.105 200.363L126.533 192.044L125.955 193.681L149.528 202L150.105 200.363Z" fill="#3030F8"/>
<path d="M148.025 206.256L124.453 197.937L123.875 199.574L147.447 207.893L148.025 206.256Z" fill="#3030F8"/>
<path d="M143.17 220.007L119.598 211.688L119.02 213.325L142.592 221.644L143.17 220.007Z" fill="#3030F8"/>
<path d="M146.927 209.368L123.355 201.049L122.777 202.685L146.349 211.004L146.927 209.368Z" fill="#3030F8"/>
<path d="M145.886 212.314L122.314 203.995L121.736 205.632L145.308 213.951L145.886 212.314Z" fill="#3030F8"/>
<path d="M104.744 74.3939H53.4186C49.6632 74.3939 46.6199 71.3493 46.6199 67.5952V43.0028C46.6199 39.2474 49.6645 36.2041 53.4186 36.2041H104.744C108.499 36.2041 111.542 39.2487 111.542 43.0028V67.5952C111.542 71.3506 108.498 74.3939 104.744 74.3939Z" fill="#ACACFC"/>
<path d="M70.2123 49.8289C73.3774 54.3422 72.2831 60.5675 67.7698 63.7326C63.2566 66.8976 57.0312 65.8033 53.8662 61.2901C50.7012 56.7768 51.7955 50.5515 56.3087 47.3865C60.8233 44.2227 67.0486 45.3157 70.2123 49.8289Z" fill="#3030F8"/>
<path d="M69.4611 49.4244C72.6261 53.9377 71.5319 60.163 67.0186 63.3267C62.5054 66.4918 56.28 65.3975 53.115 60.8842C49.95 56.371 51.0442 50.1457 55.5575 46.9819C60.0707 43.8169 66.2961 44.9112 69.4611 49.4244Z" fill="#F0F7FD"/>
<path d="M105.973 49.8289C109.138 54.3422 108.043 60.5675 103.53 63.7326C99.017 66.8976 92.7917 65.8033 89.6279 61.2901C86.4629 56.7768 87.5572 50.5515 92.0704 47.3865C96.5837 44.2227 102.808 45.3157 105.973 49.8289Z" fill="#3030F8"/>
<path d="M105.22 49.4244C108.385 53.9377 107.291 60.163 102.778 63.3267C98.2644 66.4918 92.039 65.3975 88.8753 60.8842C85.7116 56.371 86.8045 50.1457 91.3178 46.9819C95.831 43.8169 102.055 44.9112 105.22 49.4244Z" fill="#F0F7FD"/>
<path d="M79.7167 42.5696V67.4514" stroke="#F0F7FD" stroke-width="0.2597" stroke-miterlimit="10" stroke-linecap="round" stroke-linejoin="round"/>
<path d="M136.25 70.9224C138.839 70.9224 140.937 68.8238 140.937 66.2351C140.937 63.6464 138.839 61.5478 136.25 61.5478C133.661 61.5478 131.563 63.6464 131.563 66.2351C131.563 68.8238 133.661 70.9224 136.25 70.9224Z" fill="#8383FB"/>
<path d="M191.799 212.747C194.388 212.747 196.486 210.648 196.486 208.059C196.486 205.471 194.388 203.372 191.799 203.372C189.21 203.372 187.112 205.471 187.112 208.059C187.112 210.648 189.21 212.747 191.799 212.747Z" fill="#C1C1FD"/>
<path d="M284.438 123.521C287.027 123.521 289.126 121.422 289.126 118.834C289.126 116.245 287.027 114.146 284.438 114.146C281.85 114.146 279.751 116.245 279.751 118.834C279.751 121.422 281.85 123.521 284.438 123.521Z" fill="#C1C1FD"/>
<path d="M151.309 35.17H151.092C140.962 35.293 132.789 43.5197 132.789 53.6771V53.8133C132.857 63.9707 141.125 72.1974 151.309 72.1974C156.041 72.1974 160.366 70.4159 163.629 67.493C166.675 64.7875 168.783 61.0884 169.517 56.9142C169.721 55.867 169.817 54.7793 169.817 53.6771C169.817 43.4503 161.535 35.17 151.309 35.17ZM160.311 65.7247C157.81 67.6148 154.694 68.73 151.309 68.73C143.341 68.73 136.801 62.5164 136.284 54.6693C136.271 54.3434 136.257 54.0161 136.257 53.6771C136.257 45.546 142.702 38.9371 150.765 38.6518C150.942 38.6387 151.133 38.6387 151.309 38.6387C159.617 38.6387 166.349 45.3693 166.349 53.6784C166.349 54.8068 166.226 55.8945 165.981 56.9416C165.193 60.5164 163.14 63.616 160.311 65.7247Z" fill="#F0F7FD"/>
<path d="M169.82 53.6837C169.82 54.7845 169.725 55.8735 169.521 56.9194C168.352 56.8788 167.154 56.8788 165.985 56.9469C166.23 55.8997 166.353 54.812 166.353 53.6837C166.353 45.3758 159.623 38.6439 151.313 38.6439C151.137 38.6439 150.946 38.6439 150.769 38.657C150.877 37.4881 150.986 36.3323 151.095 35.1765H151.312C161.539 35.1765 169.82 43.4582 169.82 53.6837Z" fill="#C1C1FD"/>
<path d="M259.191 46.1936C261.197 28.4107 248.408 12.3685 230.625 10.3624C212.842 8.35633 196.8 21.146 194.794 38.9289C192.788 56.7118 205.577 72.754 223.36 74.7601C241.143 76.7662 257.185 63.9765 259.191 46.1936Z" fill="#F0F7FD"/>
<path d="M209.34 66.8388L208.538 93.5033L225.082 70.0614L209.34 66.8388Z" fill="#F0F7FD"/>
<path d="M243.277 45.3813L243.382 38.9445L211.502 38.4249L211.397 44.8616L243.277 45.3813Z" fill="#FEC84B"/>
<path d="M230.875 25.9955L224.437 25.8906L223.917 57.7707L230.355 57.8757L230.875 25.9955Z" fill="#FEC84B"/>
<path d="M46.8504 183.064V202.502" stroke="#F0F7FD" stroke-width="0.8903" stroke-miterlimit="10" stroke-linecap="round" stroke-linejoin="round"/>
<path d="M53.7237 185.911L39.9785 199.656" stroke="#F0F7FD" stroke-width="0.8903" stroke-miterlimit="10" stroke-linecap="round" stroke-linejoin="round"/>
<path d="M56.5705 192.783H37.1313" stroke="#F0F7FD" stroke-width="0.8903" stroke-miterlimit="10" stroke-linecap="round" stroke-linejoin="round"/>
<path d="M53.7237 199.656L39.9785 185.911" stroke="#F0F7FD" stroke-width="0.8903" stroke-miterlimit="10" stroke-linecap="round" stroke-linejoin="round"/>
<path d="M228.079 196.951V216.39" stroke="#F0F7FD" stroke-width="0.8903" stroke-miterlimit="10" stroke-linecap="round" stroke-linejoin="round"/>
<path d="M234.953 199.798L221.207 213.543" stroke="#F0F7FD" stroke-width="0.8903" stroke-miterlimit="10" stroke-linecap="round" stroke-linejoin="round"/>
<path d="M237.799 206.671H218.36" stroke="#F0F7FD" stroke-width="0.8903" stroke-miterlimit="10" stroke-linecap="round" stroke-linejoin="round"/>
<path d="M234.953 213.543L221.207 199.798" stroke="#F0F7FD" stroke-width="0.8903" stroke-miterlimit="10" stroke-linecap="round" stroke-linejoin="round"/>
</g>
<defs>
<filter id="filter0_dd_227_19971" x="0" y="0" width="312" height="255.679" filterUnits="userSpaceOnUse" color-interpolation-filters="sRGB">
<feFlood flood-opacity="0" result="BackgroundImageFix"/>
<feColorMatrix in="SourceAlpha" type="matrix" values="0 0 0 0 0 0 0 0 0 0 0 0 0 0 0 0 0 0 127 0" result="hardAlpha"/>
<feMorphology radius="2" operator="erode" in="SourceAlpha" result="effect1_dropShadow_227_19971"/>
<feOffset dy="2"/>
<feGaussianBlur stdDeviation="2"/>
<feColorMatrix type="matrix" values="0 0 0 0 0.0627451 0 0 0 0 0.0941176 0 0 0 0 0.156863 0 0 0 0.06 0"/>
<feBlend mode="normal" in2="BackgroundImageFix" result="effect1_dropShadow_227_19971"/>
<feColorMatrix in="SourceAlpha" type="matrix" values="0 0 0 0 0 0 0 0 0 0 0 0 0 0 0 0 0 0 127 0" result="hardAlpha"/>
<feMorphology radius="2" operator="erode" in="SourceAlpha" result="effect2_dropShadow_227_19971"/>
<feOffset dy="4"/>
<feGaussianBlur stdDeviation="4"/>
<feColorMatrix type="matrix" values="0 0 0 0 0.0627451 0 0 0 0 0.0941176 0 0 0 0 0.156863 0 0 0 0.1 0"/>
<feBlend mode="normal" in2="effect1_dropShadow_227_19971" result="effect2_dropShadow_227_19971"/>
<feBlend mode="normal" in="SourceGraphic" in2="effect2_dropShadow_227_19971" result="shape"/>
</filter>
</defs>
</svg>
