<svg width="21" height="20" viewBox="0 0 21 20" fill="none" xmlns="http://www.w3.org/2000/svg">
<g id="SVG">
<path id="Vector" d="M8 2.50001V0.833344H13V2.50001H8ZM9.66667 11.6667H11.3333V6.66668H9.66667V11.6667ZM10.5 18.3333C9.47222 18.3333 8.50333 18.1356 7.59333 17.74C6.68333 17.3445 5.88833 16.8061 5.20833 16.125C4.52778 15.4445 3.98972 14.6492 3.59417 13.7392C3.19861 12.8292 3.00056 11.8606 3 10.8333C3 9.80557 3.19806 8.83668 3.59417 7.92668C3.99028 7.01668 4.52833 6.22168 5.20833 5.54168C5.88889 4.86112 6.68417 4.32307 7.59417 3.92751C8.50417 3.53195 9.47278 3.3339 10.5 3.33334C11.3611 3.33334 12.1875 3.47223 12.9792 3.75001C13.7708 4.02779 14.5139 4.43057 15.2083 4.95834L16.375 3.79168L17.5417 4.95834L16.375 6.12501C16.9028 6.81945 17.3056 7.56251 17.5833 8.35418C17.8611 9.14584 18 9.97223 18 10.8333C18 11.8611 17.8019 12.83 17.4058 13.74C17.0097 14.65 16.4717 15.445 15.7917 16.125C15.1111 16.8056 14.3158 17.3439 13.4058 17.74C12.4958 18.1361 11.5272 18.3339 10.5 18.3333ZM10.5 16.6667C12.1111 16.6667 13.4861 16.0972 14.625 14.9583C15.7639 13.8195 16.3333 12.4445 16.3333 10.8333C16.3333 9.22223 15.7639 7.84723 14.625 6.70834C13.4861 5.56946 12.1111 5.00001 10.5 5.00001C8.88889 5.00001 7.51389 5.56946 6.375 6.70834C5.23611 7.84723 4.66667 9.22223 4.66667 10.8333C4.66667 12.4445 5.23611 13.8195 6.375 14.9583C7.51389 16.0972 8.88889 16.6667 10.5 16.6667Z" fill="#3030F8"/>
</g>
</svg>
