<svg width="513" height="512" viewBox="0 0 513 512" fill="none" xmlns="http://www.w3.org/2000/svg">
<path d="M109.022 38.08C109.022 38.08 109.182 37.76 109.262 37.6C110.462 34.56 113.422 32.48 116.622 32.48H161.982C164.862 32.48 167.503 34 168.863 36.56C170.223 38.96 170.223 41.76 168.863 44.16L127.262 90.72C124.062 94.32 123.342 99.2 125.262 103.6C127.182 108 131.422 110.64 136.222 110.64H164.542C167.662 110.64 170.303 112.32 171.663 115.12C173.023 117.92 172.702 121.04 171.102 123.04L95.9025 204.56C92.9425 208.08 89.6625 209.28 87.2625 207.84C85.3425 206.64 84.2225 203.76 85.6625 200.4L117.262 142.32C119.422 138.56 119.502 134.08 117.262 130.32C115.022 126.56 111.182 124.32 106.862 124.32H79.8225C77.1825 124.32 74.7825 123.04 73.3425 120.88C71.8225 118.72 71.5025 116.08 72.2225 114.08L108.942 38.08H109.022ZM41.2625 201.44C36.3025 167.44 44.7825 132.48 62.9425 105.68L61.1825 109.28C58.8625 115.36 59.6625 122.24 63.4225 127.68C67.1025 133.04 73.2625 136.32 79.8225 136.32H106.782L74.8625 195.12C70.9425 204 73.5025 213.44 80.9425 218.08C83.3425 219.6 86.3825 220.48 89.5025 220.48C94.5425 220.48 100.142 218.24 104.942 212.56L180.223 130.88C184.943 124.8 185.822 116.8 182.462 109.92C179.102 103.04 172.222 98.72 164.542 98.72H136.222L167.982 63.2C191.902 70.48 215.743 89.28 236.943 106.08C241.903 110 246.702 113.76 251.342 117.28L286.302 179.68C288.942 184.4 287.663 190.4 283.263 193.6L240.143 224.88C230.063 232.16 227.743 246.4 235.023 256.56L279.983 319.36C283.103 323.76 282.543 329.84 278.543 333.52L232.223 376.32C225.983 382.08 223.503 390.72 225.663 398.88L245.742 474.32C122.782 380.56 53.9025 288.8 41.2625 201.44ZM470.862 201.44C457.982 290.4 386.862 383.92 259.582 479.52L237.262 395.84C236.222 392 237.423 387.92 240.383 385.2L286.703 342.4C295.103 334.64 296.462 321.76 289.742 312.48L244.783 249.68C241.343 244.88 242.462 238.16 247.182 234.72L290.302 203.44C299.662 196.64 302.463 184 296.783 173.92L263.823 115.04C267.503 112.24 271.183 109.28 275.103 106.24C301.343 85.44 331.103 61.84 360.223 60.08C398.383 57.76 423.662 76.16 438.302 92C464.142 120.08 476.623 162.08 470.943 201.6L470.862 201.44Z" fill="white"/>
</svg>
