<svg width="13" height="12" viewBox="0 0 13 12" fill="none" xmlns="http://www.w3.org/2000/svg">
<g clip-path="url(#clip0_379_2360)">
<path d="M1.01725 0.396L0.645252 0.78L1.13725 1.2C1.94525 1.872 2.86525 2.384 3.89725 2.736C4.28925 2.872 4.62925 2.96 4.91725 3C5.22925 3.048 5.68125 3.076 6.27325 3.084C6.68925 3.084 7.08125 3.076 7.44925 3.06C7.83325 3.044 8.09325 3.02 8.22925 2.988C8.33325 2.964 8.39325 2.968 8.40925 3C8.42525 3.032 8.37925 3.116 8.27125 3.252C8.16325 3.388 7.96925 3.608 7.68925 3.912C7.41725 4.192 7.01725 4.6 6.48925 5.136L4.53325 7.104L0.333252 11.304L0.669252 11.664L1.02925 12L5.22925 7.8L7.19725 5.844C7.73325 5.316 8.14125 4.916 8.42125 4.644C8.72525 4.364 8.94525 4.17 9.08125 4.062C9.21725 3.954 9.30125 3.908 9.33325 3.924C9.36525 3.94 9.36925 4 9.34525 4.104C9.31325 4.24 9.28925 4.5 9.27325 4.884C9.25725 5.252 9.24925 5.644 9.24925 6.06C9.25725 6.652 9.28525 7.104 9.33325 7.416C9.37325 7.704 9.46125 8.044 9.59725 8.436C9.94925 9.468 10.4613 10.388 11.1333 11.196L11.5533 11.688L11.9373 11.316L12.3333 10.944L12.0333 10.62C11.8733 10.468 11.6173 10.108 11.2653 9.54C10.7533 8.692 10.4333 7.78 10.3053 6.804C10.1773 5.836 10.2433 4.878 10.5033 3.93C10.7633 2.982 11.2053 2.112 11.8293 1.32L12.3213 0.696L11.9973 0.348L11.6613 0.0120001L11.3373 0.264C10.9693 0.544 10.5733 0.814 10.1493 1.074C9.72525 1.334 9.37325 1.52 9.09325 1.632C8.66125 1.8 8.11125 1.93 7.44325 2.022C6.77525 2.114 6.22525 2.132 5.79325 2.076C5.04925 1.988 4.29525 1.778 3.53125 1.446C2.76725 1.114 2.16125 0.732 1.71325 0.3L1.38925 0L1.01725 0.396Z" fill="#3030F8"/>
</g>
<defs>
<clipPath id="clip0_379_2360">
<rect width="12" height="12" fill="white" transform="matrix(1 0 0 -1 0.333252 12)"/>
</clipPath>
</defs>
</svg>
