<svg width="12" height="12" viewBox="0 0 12 12" fill="none" xmlns="http://www.w3.org/2000/svg">
<g clip-path="url(#clip0_379_1533)">
<path d="M0.684 0.396L0.312 0.78L0.804 1.2C1.612 1.872 2.532 2.384 3.564 2.736C3.956 2.872 4.296 2.96 4.584 3C4.896 3.048 5.348 3.076 5.94 3.084C6.356 3.084 6.748 3.076 7.116 3.06C7.5 3.044 7.76 3.02 7.896 2.988C8 2.964 8.06 2.968 8.076 3C8.092 3.032 8.046 3.116 7.938 3.252C7.83 3.388 7.636 3.608 7.356 3.912C7.084 4.192 6.684 4.6 6.156 5.136L4.2 7.104L0 11.304L0.336 11.664L0.696 12L4.896 7.8L6.864 5.844C7.4 5.316 7.808 4.916 8.088 4.644C8.392 4.364 8.612 4.17 8.748 4.062C8.884 3.954 8.968 3.908 9 3.924C9.032 3.94 9.036 4 9.012 4.104C8.98 4.24 8.956 4.5 8.94 4.884C8.924 5.252 8.916 5.644 8.916 6.06C8.924 6.652 8.952 7.104 9 7.416C9.04 7.704 9.128 8.044 9.264 8.436C9.616 9.468 10.128 10.388 10.8 11.196L11.22 11.688L11.604 11.316L12 10.944L11.7 10.62C11.54 10.468 11.284 10.108 10.932 9.54C10.42 8.692 10.1 7.78 9.972 6.804C9.844 5.836 9.91 4.878 10.17 3.93C10.43 2.982 10.872 2.112 11.496 1.32L11.988 0.696L11.664 0.348L11.328 0.0120001L11.004 0.264C10.636 0.544 10.24 0.814 9.816 1.074C9.392 1.334 9.04 1.52 8.76 1.632C8.328 1.8 7.778 1.93 7.11 2.022C6.442 2.114 5.892 2.132 5.46 2.076C4.716 1.988 3.962 1.778 3.198 1.446C2.434 1.114 1.828 0.732 1.38 0.3L1.056 0L0.684 0.396Z" fill="white"/>
</g>
<defs>
<clipPath id="clip0_379_1533">
<rect width="12" height="12" fill="white" transform="matrix(1 0 0 -1 0 12)"/>
</clipPath>
</defs>
</svg>
