<svg width="24" height="24" viewBox="0 0 24 24" fill="none" xmlns="http://www.w3.org/2000/svg">
<g clip-path="url(#clip0_40000010_70104)">
<mask id="mask0_40000010_70104" style="mask-type:luminance" maskUnits="userSpaceOnUse" x="0" y="0" width="24" height="24">
<path d="M24 0H0V24H24V0Z" fill="white"/>
</mask>
<g mask="url(#mask0_40000010_70104)">
<path d="M11.98 12C14.74 12 16.98 9.76 16.98 7C16.98 4.24 14.75 2 11.98 2C9.20998 2 6.97998 4.24 6.97998 7C6.97998 9.76 9.21998 12 11.98 12Z" fill="#3030F8"/>
<path opacity="0.4" d="M19.3399 19.49C19.1799 20.08 18.6799 20.46 18.0699 20.46C17.4599 20.46 16.9599 20.08 16.7999 19.48L16.5399 18.51C16.3999 18.01 16.0199 17.63 15.5199 17.49L14.5399 17.22C13.9699 17.06 13.5799 16.56 13.5799 15.95C13.5799 15.65 13.6699 15.38 13.8299 15.17C13.2299 15.06 12.6199 15 11.9799 15C7.70994 15 4.16995 17.54 3.49995 20.86C3.37995 21.45 3.85995 22 4.46995 22H19.4899C20.0899 22 20.5699 21.45 20.4599 20.86C20.3099 20.09 19.9899 19.36 19.5499 18.69L19.3399 19.499V19.49Z" fill="#3030F8"/>
<path d="M21.5798 15.9699C21.5798 16.0399 21.5398 16.1999 21.3498 16.2599L20.3698 16.5299C19.5198 16.7599 18.8798 17.3999 18.6498 18.2499L18.3898 19.2099C18.3298 19.4299 18.1598 19.4499 18.0798 19.4499C17.9998 19.4499 17.8298 19.4299 17.7698 19.2099L17.5098 18.2399C17.2798 17.3999 16.6298 16.7599 15.7898 16.5299L14.8198 16.2699C14.6098 16.2099 14.5898 16.0299 14.5898 15.9599C14.5898 15.8799 14.6098 15.6999 14.8198 15.6399L15.7998 15.3799C16.6398 15.1399 17.2798 14.4999 17.5098 13.6599L17.7898 12.6399C17.8598 12.4699 18.0198 12.4399 18.0798 12.4399C18.1398 12.4399 18.3098 12.4599 18.3698 12.6199L18.6498 13.6499C18.8798 14.4899 19.5298 15.1299 20.3698 15.3699L21.3698 15.6499C21.5698 15.7299 21.5798 15.9099 21.5798 15.9699Z" fill="#3030F8"/>
</g>
</g>
<defs>
<clipPath id="clip0_40000010_70104">
<rect width="24" height="24" fill="white"/>
</clipPath>
</defs>
</svg>
