<svg width="25" height="24" viewBox="0 0 25 24" fill="none" xmlns="http://www.w3.org/2000/svg">
<path d="M1.85589 10.5569C1.45597 11.009 1.63743 11.6242 2.22565 11.7512C2.68623 11.8505 3.31933 11.9614 4.17218 12.0649C4.1519 12.7475 4.13953 13.5396 4.13953 14.4561C4.13953 16.8997 4.22744 18.4584 4.31882 19.4186C4.40265 20.2995 5.00023 20.9705 5.86825 21.114C6.9966 21.3006 8.94905 21.4999 12.1415 21.4999C15.3339 21.4999 17.2864 21.3006 18.4147 21.114C19.2827 20.9705 19.8803 20.2995 19.9641 19.4186C20.0555 18.4584 20.1434 16.8997 20.1434 14.4561C20.1434 13.5397 20.1311 12.7476 20.1108 12.065C20.9639 11.9615 21.5972 11.8506 22.0579 11.7512C22.6463 11.6243 22.8277 11.0089 22.4277 10.5567C21.7257 9.76334 20.4206 8.41074 18.1434 6.40609C15.5064 4.08469 13.7383 3.07482 12.8393 2.65608C12.3923 2.44787 11.8917 2.4479 11.4447 2.65615C10.5458 3.07493 8.7779 4.08482 6.14055 6.40609C3.86281 8.41089 2.55766 9.76354 1.85589 10.5569Z" fill="#C1C1FD"/>
<path d="M8.1416 18C8.1416 17.5 8.5298 17.0873 9.0293 17.0659C9.75 17.0352 10.8553 17 12.1416 17C13.4279 17 14.5332 17.0352 15.2539 17.0659C15.7534 17.0873 16.1416 17.5 16.1416 18C16.1416 18.4999 15.7534 18.9127 15.2539 18.934C14.5332 18.9648 13.4279 19 12.1416 19C10.8553 19 9.75 18.9648 9.0293 18.934C8.5298 18.9127 8.1416 18.4999 8.1416 18Z" fill="#2626C6"/>
</svg>
