<svg width="136" height="136" viewBox="0 0 136 136" fill="none" xmlns="http://www.w3.org/2000/svg">
<g style="mix-blend-mode:overlay">
<g clip-path="url(#clip0_402_15405)">
<path fill-rule="evenodd" clip-rule="evenodd" d="M96.4822 7.44112C83.0524 -0.085711 67.19 -1.99349 52.3584 2.1343C37.5269 6.26209 24.9308 16.0902 17.3202 29.4728C9.70965 42.8554 7.70286 58.7055 11.738 73.5626C15.773 88.4196 25.5223 101.077 38.8571 108.771V131.143C38.8571 132.431 39.3688 133.666 40.2797 134.577C41.1906 135.488 42.426 136 43.7142 136H92.2857C93.5739 136 94.8093 135.488 95.7202 134.577C96.6311 133.666 97.1428 132.431 97.1428 131.143V111.714H111.714C115.579 111.714 119.285 110.179 122.018 107.446C124.75 104.714 126.286 101.007 126.286 97.1428V58.2857C126.284 47.9269 123.522 37.7556 118.284 28.819C113.045 19.8823 105.52 12.5031 96.4822 7.44112Z" fill="#F0F7FD"/>
<path d="M50.7571 26.0828C43.3483 30.3639 37.6735 37.1053 34.7187 45.1357C31.7639 53.1661 31.7158 61.9778 34.5828 70.04C35.9234 73.8091 39.9937 75.7034 43.86 74.6737C63.4343 69.4863 83.368 55.4685 95.472 44.5303C98.6777 41.6257 99.348 36.788 96.492 33.5531C90.9022 27.221 83.2946 23.017 74.959 21.6537C66.6235 20.2904 58.0729 21.8518 50.7571 26.0731V26.0828Z" fill="#2626C6"/>
</g>
</g>
<defs>
<clipPath id="clip0_402_15405">
<rect width="136" height="136" rx="24" fill="white"/>
</clipPath>
</defs>
</svg>
