<svg width="25" height="24" viewBox="0 0 25 24" fill="none" xmlns="http://www.w3.org/2000/svg">
<mask id="mask0_40000388_6101" style="mask-type:luminance" maskUnits="userSpaceOnUse" x="0" y="0" width="25" height="24">
<path d="M24.1418 0H0.141846V24H24.1418V0Z" fill="white"/>
</mask>
<g mask="url(#mask0_40000388_6101)">
<path opacity="0.4" d="M17.1418 9C17.1418 12.87 13.7818 16 9.64185 16L8.71186 17.12L8.16185 17.78C7.69185 18.34 6.79185 18.22 6.48185 17.55L5.14185 14.6C3.32185 13.32 2.14185 11.29 2.14185 9C2.14185 5.13 5.50185 2 9.64185 2C12.6618 2 15.2718 3.67001 16.4418 6.07001C16.8918 6.96001 17.1418 7.95 17.1418 9Z" fill="#475467"/>
<path d="M22.1416 12.8603C22.1416 15.1503 20.9616 17.1803 19.1416 18.4603L17.8016 21.4103C17.4916 22.0803 16.5916 22.2103 16.1216 21.6403L14.6416 19.8603C12.2216 19.8603 10.0617 18.7903 8.71167 17.1203L9.64167 16.0003C13.7816 16.0003 17.1416 12.8703 17.1416 9.00031C17.1416 7.95031 16.8917 6.96031 16.4417 6.07031C19.7117 6.82031 22.1416 9.58029 22.1416 12.8603Z" fill="#475467"/>
<path d="M12.1418 9.75H7.14185C6.73185 9.75 6.39185 9.41 6.39185 9C6.39185 8.59 6.73185 8.25 7.14185 8.25H12.1418C12.5518 8.25 12.8918 8.59 12.8918 9C12.8918 9.41 12.5518 9.75 12.1418 9.75Z" fill="#475467"/>
</g>
</svg>
