<svg width="136" height="136" viewBox="0 0 136 136" fill="none" xmlns="http://www.w3.org/2000/svg">
<g style="mix-blend-mode:overlay">
<g clip-path="url(#clip0_402_15416)">
<path d="M14.5714 0C6.52385 0 0 6.52385 0 14.5714V121.429C0 129.476 6.52385 136 14.5714 136H121.429C129.476 136 136 129.476 136 121.429V14.5714C136 6.52385 129.476 0 121.429 0L14.5714 0Z" fill="#C1C1FD"/>
<path d="M0 121.429V68H20.7104C18.403 70.578 17 73.9822 17 77.7143C17 85.7619 23.5238 92.2857 31.5714 92.2857C39.619 92.2857 46.1429 85.7619 46.1429 77.7143C46.1429 73.9822 44.7398 70.578 42.4325 68H68V42.4325C65.422 44.7398 62.0177 46.1429 58.2857 46.1429C50.2381 46.1429 43.7143 39.619 43.7143 31.5714C43.7143 23.5238 50.2381 17 58.2857 17C62.0177 17 65.422 18.403 68 20.7104V0H121.429C129.476 0 136 6.52385 136 14.5714V68H115.29C117.597 65.422 119 62.0177 119 58.2857C119 50.2381 112.476 43.7143 104.429 43.7143C96.381 43.7143 89.8571 50.2381 89.8571 58.2857C89.8571 62.0177 91.2602 65.422 93.5675 68H68V93.5675C70.578 91.2602 73.9822 89.8571 77.7143 89.8571C85.7619 89.8571 92.2857 96.381 92.2857 104.429C92.2857 112.476 85.7619 119 77.7143 119C73.9822 119 70.578 117.597 68 115.29V136H14.5714C6.52385 136 0 129.476 0 121.429Z" fill="#2626C6"/>
</g>
</g>
<defs>
<clipPath id="clip0_402_15416">
<rect width="136" height="136" rx="24" fill="white"/>
</clipPath>
</defs>
</svg>
