<svg width="233" height="219" viewBox="0 0 233 219" fill="none" xmlns="http://www.w3.org/2000/svg">
<g filter="url(#filter0_dd_379_3013)">
<path d="M115.925 208.605C113.615 208.605 111.146 208.553 108.378 208.448C89.9877 207.736 74.7367 205.921 60.5317 202.747C57.8807 203.37 55.2967 203.686 52.8307 203.686C52.2837 203.686 51.7387 203.671 51.1917 203.64C50.2327 203.58 49.3417 203.301 48.5607 202.858C45.4827 202.49 42.7607 201.509 40.4437 199.931C36.0787 196.96 33.0607 192.944 31.4547 187.974C31.3357 187.849 31.2177 187.725 31.0997 187.598C24.2437 180.303 18.8007 171.484 15.3667 162.103C12.8567 155.225 10.0897 147.07 8.5937 138.697C8.3327 137.214 8.12072 135.755 7.95772 134.338C6.33372 131.323 6.18972 127.778 7.55772 124.707C7.83972 116.097 9.90771 107.775 13.7107 99.95C14.2957 98.753 14.9047 97.545 15.5327 96.338C12.2317 89.21 9.7067 81.846 7.8397 73.917C6.2107 67.001 4.90671 57.976 9.31972 49.499C11.8457 44.655 16.1157 41.729 20.7437 41.669C20.7687 41.668 20.8597 41.668 20.8857 41.668C24.2177 41.668 26.7977 43.186 28.4497 44.328C29.6867 45.183 30.8377 46.086 31.9137 47.02C33.9177 39.59 41.8077 34.371 52.1787 33.644C62.9697 23.238 76.1317 16.101 90.4427 12.912C97.5557 5.954 107.906 2 119.17 2C120.718 2 122.279 2.079 123.808 2.235C133.805 3.253 142.743 7.30601 149.364 13.754C151.304 12.501 153.615 11.785 156.08 11.785C162.9 11.785 168.449 17.334 168.449 24.154C168.449 26.824 167.582 29.311 166.113 31.344C167.287 32.449 168.413 33.596 169.486 34.781C169.838 35.171 170.182 35.561 170.516 35.95C170.598 35.949 170.679 35.948 170.762 35.948C176.406 35.948 181.748 38.584 185.196 43.035C185.342 43.188 185.467 43.335 185.574 43.471C185.799 43.758 186.045 44.129 186.262 44.583C187.973 47.333 188.919 50.472 189.007 53.711C189.124 58.038 187.696 62.233 185.026 65.578C185.434 67.314 185.791 69.077 186.097 70.86C192.174 65.953 199.221 62.013 207.539 61.195C208.242 61.125 208.96 61.09 209.675 61.09C217.663 61.09 224.041 65.113 225.923 71.338C228.064 78.411 223.462 84.916 221.731 87.364C215.498 96.178 207.796 104.669 198.304 113.177C202.315 118.163 204.046 125.943 202.583 134.521C202.469 135.202 202.303 136.131 202.051 137.122C199.979 145.649 195.161 152.548 189.136 155.839C189.113 155.905 189.091 155.971 189.068 156.037C183.42 172.484 173.487 186.661 161.103 195.948C161.053 195.985 161.004 196.021 160.953 196.057C160.773 196.191 160.619 196.303 160.47 196.405C150.232 203.876 138.085 207.709 122.255 208.468C122.163 208.473 122.07 208.475 121.977 208.475L121.769 208.485C119.855 208.566 117.964 208.605 115.925 208.605Z" fill="white"/>
<path d="M185.082 149.303C184.869 150.077 184.647 150.851 184.405 151.615C184.144 152.457 183.873 153.298 183.583 154.14C178.631 168.562 169.915 182.085 157.621 191.303C157.457 191.419 157.302 191.545 157.137 191.651C146.565 199.399 134.502 202.069 121.976 202.668C121.802 202.668 121.628 202.678 121.454 202.687C117.208 202.871 112.913 202.813 108.599 202.648C92.3576 202.019 76.2916 200.433 60.4476 196.777C60.1186 196.709 59.7996 196.632 59.4706 196.545H59.4606C59.0926 196.468 58.7256 196.38 58.3576 196.284H58.3476C58.3286 196.284 58.3086 196.274 58.2896 196.274C53.9556 195.22 49.0516 194.407 45.2316 192.153C42.3486 190.451 39.6697 188.061 37.2517 185.614C37.0387 185.392 36.8167 185.179 36.6137 184.956C36.1787 184.511 35.7526 184.076 35.3366 183.631C29.0006 176.889 23.9996 168.803 20.8176 160.107C18.0706 152.582 15.6427 145.143 14.3077 137.676C13.9977 135.916 13.7566 134.165 13.5916 132.414C13.3886 130.344 13.3016 128.274 13.3306 126.223C13.3206 126.223 13.3306 126.213 13.3306 126.213C13.4076 118.059 15.2266 110.108 18.9316 102.486C19.9276 100.445 20.9626 98.4431 22.0366 96.4691C27.4826 86.3611 33.6436 76.9201 37.6776 66.0091C37.8516 65.5351 38.0356 65.0611 38.2286 64.5871C38.7796 63.1551 39.3896 61.7531 40.0376 60.3701C40.3476 59.7121 40.6566 59.0551 40.9856 58.4061C44.0326 52.3601 47.8826 46.7701 52.3606 41.7881C53.1146 40.9561 53.8796 40.1441 54.6626 39.3501C65.1186 28.7101 78.6027 21.1551 93.3637 18.2241H93.3736C93.7606 18.1471 94.1376 18.0691 94.5346 18.0011H94.5447C97.5527 17.4501 100.62 17.1011 103.715 16.9471C106.52 16.8121 109.374 16.7921 112.247 16.9081C112.247 16.9081 112.257 16.8981 112.266 16.9081C115.119 17.0051 117.992 17.2371 120.856 17.6041C120.904 17.6141 120.943 17.6141 120.991 17.6231C124.628 18.0871 128.246 18.7641 131.815 19.6741H131.825C137.242 21.0481 142.504 22.9431 147.447 25.4291C148.337 25.8641 149.217 26.3291 150.088 26.8221C150.872 27.2571 151.645 27.7021 152.41 28.1861C153.706 28.9691 154.973 29.8111 156.211 30.7011C159.461 33.0221 162.479 35.6831 165.188 38.6711C166.175 39.7641 167.123 40.8961 168.003 42.0561C168.264 42.3851 168.516 42.7231 168.758 43.0621C170.838 45.8861 172.627 48.9141 174.165 52.0671C174.213 52.1541 174.252 52.2411 174.291 52.3281C174.339 52.4151 174.378 52.4921 174.417 52.5791C176.139 56.1871 177.522 59.9791 178.596 63.8671C178.615 63.9061 178.625 63.9351 178.635 63.9731C178.635 63.9831 178.635 63.9831 178.635 63.9831C180.337 70.1541 181.285 76.5871 181.556 82.9901C181.604 83.9671 181.633 84.9541 181.643 85.9301C181.749 94.3261 180.85 102.761 181.73 111.138C181.788 111.728 181.865 112.318 181.962 112.898C182.039 113.449 182.136 114.001 182.243 114.552C182.485 115.829 182.775 117.096 183.094 118.354C184.303 123.219 185.899 128.008 186.538 132.999C186.664 133.957 186.751 134.934 186.799 135.91C186.988 140.433 186.272 144.931 185.082 149.303Z" fill="#1A73E8"/>
<path d="M128.303 143.625C137.544 120.314 148.627 97.231 165.69 78.856C167.326 77.094 169.072 75.339 171.273 74.373C173.475 73.408 176.253 73.393 178.095 74.938C180.917 77.306 180.267 81.736 179.364 85.308C187.31 76.812 196.529 68.107 208.107 66.968C213.027 66.484 218.935 68.283 220.367 73.015C221.518 76.821 219.288 80.764 216.992 84.011C205.615 100.1 190.456 113.148 174.579 124.82C158.702 136.491 141.955 146.959 126.312 158.942C127.02 154.577 126.673 147.736 128.303 143.625Z" fill="#32D583"/>
<path d="M66.1117 174.287C54.3567 157.039 34.8057 144.277 22.6157 127.248C19.6817 123.15 17.1377 118.612 17.4537 113.66C17.5607 111.99 18.1857 110.078 20.0277 109.151C22.0017 108.159 24.4467 108.765 26.2057 109.717C27.9647 110.669 29.5017 111.958 31.6037 112.381C22.7097 99.944 16.8887 87.019 13.4887 72.585C11.9247 65.944 11.0327 58.775 14.4687 52.178C15.6397 49.93 17.8927 47.508 20.8187 47.47C22.5107 47.448 23.9286 48.256 25.1486 49.099C32.4076 54.121 36.6787 61.365 40.3237 68.596C57.0597 101.797 65.0097 137.317 66.1117 174.287Z" fill="#32D583"/>
<path d="M147.477 20.232C148.223 21.117 148.925 22.047 149.576 23.021C154.192 29.921 156.216 38.565 154.749 46.771C153.562 53.41 150.281 60.454 153.215 66.527C155.617 71.499 161.498 73.981 164.163 78.817C166.348 82.781 165.99 87.683 164.738 92.033C163.623 95.907 161.773 99.691 158.725 102.329C156.819 103.979 154.518 105.116 152.146 105.971C143.88 108.948 134.767 108.587 126.109 107.093C112.986 104.828 100.305 100.028 88.9706 93.036C81.5556 88.462 74.4786 82.663 70.8266 74.752C67.1746 66.841 67.8056 56.4571 74.2036 50.5431C77.4036 47.5851 81.8076 45.862 84.1736 42.202C86.3466 38.841 86.3296 34.581 87.1166 30.658C90.4436 14.079 107.607 6.41902 123.22 8.00902C132.471 8.94902 141.421 13.05 147.477 20.232Z" fill="#3D2929"/>
<path d="M166.693 164.712C166.055 168.823 165.02 172.76 163.801 176.397V176.407C161.702 182.714 159.081 188.072 157.136 191.652C146.564 199.4 134.501 202.07 121.975 202.669C121.801 202.669 121.627 202.679 121.453 202.688C117.207 202.872 112.912 202.814 108.598 202.649C92.3575 202.02 76.2915 200.434 60.4474 196.778C60.1184 196.71 59.7995 196.633 59.4705 196.546H59.4604C59.0924 196.469 58.7255 196.381 58.3575 196.285H58.3474C58.3284 196.285 58.3085 196.275 58.2895 196.275C53.9555 195.221 49.0514 194.408 45.2314 192.154C42.3484 190.452 39.6695 188.062 37.2515 185.615C37.2515 180.034 38.2965 171.618 40.0565 162.294C40.0955 162.091 40.1335 161.888 40.1725 161.685C40.9565 157.613 41.8654 153.376 42.8904 149.139C43.1614 148.027 43.4324 146.914 43.7224 145.802C43.8574 145.26 43.9935 144.719 44.1385 144.187C44.1865 143.965 44.2445 143.742 44.3025 143.52C44.8825 141.344 45.4825 139.177 46.1115 137.059C46.1215 137.02 46.1305 136.972 46.1505 136.933C49.0135 127.192 52.3604 118.303 55.8134 112.402C56.0944 111.918 56.4034 111.435 56.7224 110.971C56.7324 110.952 56.7414 110.942 56.7704 110.923V110.913C57.0214 110.536 57.2924 110.159 57.5634 109.791C58.6754 108.34 59.9524 106.947 61.3745 105.603C67.8355 99.4701 77.0835 94.4891 85.1505 90.9101C85.2565 90.8621 85.3734 90.8131 85.4894 90.7651C85.5574 90.7261 85.6245 90.6971 85.7025 90.6681C92.3385 87.7571 98.0935 85.8031 100.724 84.9711C100.801 84.9421 100.879 84.9131 100.956 84.8941C101.033 84.8651 101.111 84.8461 101.188 84.8261C101.865 84.6031 102.242 84.4971 102.242 84.4971L106.527 85.0001L118.715 86.4321L122.681 86.8961L122.942 86.9251C122.942 86.9251 123.019 86.9641 123.155 87.0411C124.519 87.7861 132.325 92.1191 140.527 97.7881H140.537C140.682 97.8851 140.837 97.9911 140.982 98.0981C143.246 99.6651 145.528 101.329 147.705 103.051C148.624 103.776 149.523 104.512 150.394 105.247C150.762 105.557 151.119 105.876 151.477 106.205C158.296 112.483 162.079 121.024 164.419 132.08C165.686 138.038 166.528 144.722 167.195 152.17C167.573 156.393 167.331 160.63 166.693 164.712Z" fill="#FAEDDC"/>
<path d="M119.66 84.5891C119.66 84.5891 117.981 89.8491 112.6 89.3451C107.261 88.8471 105.741 83.101 105.741 83.101L107.275 77.7581L108.078 73.8221L108.087 73.7631L108.407 73.795L120.563 75.028L120.243 78.4341L119.66 84.5891Z" fill="#FECDCA"/>
<path d="M120.243 78.434C119.764 79.051 119.249 79.628 118.659 80.133C117.319 81.299 115.589 82.103 113.825 82.003C113.053 81.961 112.305 81.759 111.588 81.467C109.81 80.725 108.293 79.394 107.275 77.759L108.078 73.823C108.19 73.814 108.295 73.805 108.407 73.796L120.563 75.029L120.243 78.434Z" fill="#3D2929"/>
<path d="M147.851 51.3481C147.245 55.3401 145.899 59.0281 143.975 62.2891C137.882 72.6191 126.013 78.7391 113.518 76.8051C103.28 75.2211 95.0445 68.6081 90.9015 59.8381C88.3815 54.5151 87.3665 48.4071 88.3185 42.1351C90.8375 25.5331 106.201 14.1411 122.641 16.6841C139.08 19.2301 150.37 34.7461 147.851 51.3481Z" fill="#FECDCA"/>
<path d="M83.6514 39.37C81.6424 40.052 80.2394 42.038 79.8584 44.143C79.4774 46.248 79.9984 48.436 80.9114 50.367C82.5544 53.842 85.8334 56.806 89.6454 56.892C90.0354 56.901 90.4384 56.877 90.7904 56.707C91.5474 56.342 91.8594 55.428 92.0014 54.593C92.6684 50.645 91.1034 46.948 89.9574 43.262C89.1104 40.533 86.8054 38.3 83.6514 39.37Z" fill="#FECDCA"/>
<path d="M152.59 49.5971C154.304 50.8551 155.054 53.1741 154.794 55.2981C154.533 57.4221 153.387 59.3521 151.943 60.9181C149.345 63.7371 145.337 65.5741 141.675 64.5021C141.3 64.3921 140.923 64.2481 140.637 63.9791C140.023 63.4021 139.996 62.4351 140.109 61.5961C140.643 57.6271 143.233 54.5731 145.419 51.4031C147.037 49.0551 149.899 47.6221 152.59 49.5971Z" fill="#FECDCA"/>
<path d="M110.718 43.8081C110.524 45.0871 109.339 45.9661 108.072 45.7701C106.805 45.5741 105.935 44.3781 106.129 43.0981C106.323 41.8191 107.508 40.9401 108.775 41.1361C110.043 41.3331 110.912 42.5291 110.718 43.8081Z" fill="#3D2929"/>
<path d="M130.564 46.8791C130.37 48.1581 129.186 49.0371 127.919 48.8411C126.652 48.6451 125.782 47.4491 125.976 46.1691C126.17 44.8901 127.355 44.0111 128.622 44.2071C129.888 44.4041 130.758 45.6001 130.564 46.8791Z" fill="#3D2929"/>
<path d="M115.268 45.5371C114.242 47.1331 113.493 48.9101 113.065 50.7641C112.933 51.3341 112.936 52.1101 113.483 52.3041C113.756 52.4011 114.063 52.2961 114.344 52.3671C114.698 52.4571 114.923 52.7941 115.189 53.0481C115.876 53.7021 117.019 53.7991 117.804 53.2701C118.146 53.0401 118.437 52.7011 118.839 52.6131C119.117 52.5521 119.414 52.6231 119.689 52.5481C120.054 52.4491 120.313 52.1041 120.419 51.7371C120.525 51.3701 120.504 50.9801 120.483 50.5991C120.385 48.8531 120.272 47.0521 119.501 45.4871C119.285 45.0481 119.007 44.6211 118.6 44.3521C117.483 43.6141 115.887 44.5731 115.268 45.5371Z" fill="#FE6963"/>
<path d="M104.968 36.707C104.586 36.967 104.189 37.385 104.325 37.826C104.468 38.29 105.072 38.392 105.558 38.386C106.955 38.369 108.35 38.155 109.688 37.751C110.18 37.603 110.754 37.312 110.761 36.798C110.775 35.821 108.942 35.457 108.217 35.48C107.112 35.516 105.864 36.097 104.968 36.707Z" fill="#3D2929"/>
<path d="M133.314 39.7311C133.662 40.0351 134.007 40.4971 133.819 40.9191C133.621 41.3631 133.009 41.3921 132.528 41.3281C131.143 41.1451 129.784 40.7651 128.504 40.2041C128.034 39.9981 127.498 39.6411 127.552 39.1301C127.655 38.1581 129.518 38.0161 130.235 38.1251C131.327 38.2931 132.498 39.0181 133.314 39.7311Z" fill="#3D2929"/>
<path d="M116.515 57.271C116.461 57.271 116.407 57.27 116.354 57.268C114.971 57.215 113.617 56.478 112.822 55.346C112.745 55.236 112.771 55.086 112.881 55.01C112.99 54.933 113.141 54.9591 113.217 55.0691C113.928 56.0811 115.137 56.738 116.373 56.785C117.588 56.834 118.864 56.268 119.65 55.314C119.735 55.212 119.886 55.196 119.991 55.281C120.094 55.366 120.108 55.519 120.024 55.622C119.177 56.649 117.845 57.271 116.515 57.271Z" fill="#3D2929"/>
<path d="M122.944 86.9271L117.305 96.2231L104.933 116.623L102.08 93.9501L100.924 84.6591L106.278 81.6171L119.859 82.6811C121.512 85.1471 122.944 86.9271 122.944 86.9271Z" fill="#FECDCA"/>
<path d="M117.304 96.2231L104.932 116.623L102.079 93.9501C106.722 96.3391 112.168 97.1611 117.304 96.2231Z" fill="#8383FB"/>
<path d="M120.89 10.2651C119.981 14.5861 120.795 19.1101 122.544 23.1581C124.294 27.2051 126.941 30.8271 129.784 34.2431C134.804 40.2761 140.809 45.9711 148.46 48.3591C151.667 39.7791 150.626 29.2571 145.297 21.8081C139.969 14.3581 130.323 10.3891 120.89 10.2651Z" fill="#3D2929"/>
<path d="M122.616 10.0151C122.673 14.3391 121.001 18.5051 118.503 22.0221C116.005 25.5391 112.708 28.4641 109.26 31.1531C103.17 35.9011 96.1783 40.1231 88.2123 40.8411C86.7233 31.9671 89.7763 22.1051 96.4423 16.0641C103.107 10.0231 113.337 8.20011 122.616 10.0151Z" fill="#3D2929"/>
<path d="M144.671 45.8391C144.811 48.2281 144.951 50.6171 145.092 53.0051C146.571 52.1411 147.333 51.2721 148.24 50.0901C149.292 48.7201 149.765 46.9212 149.524 45.2112C147.838 45.1402 146.357 45.9141 144.671 45.8391Z" fill="#3D2929"/>
<path d="M92.2223 39.545C91.6523 41.869 91.0834 44.1931 90.5134 46.5171C89.2154 45.4001 88.6224 44.4081 87.9434 43.0811C87.1564 41.5441 87.0163 39.688 87.5633 38.05C89.2353 38.286 90.5503 39.314 92.2223 39.545Z" fill="#3D2929"/>
<path d="M100.76 138.245C100.742 138.245 100.724 138.243 100.705 138.238C100.628 138.221 100.565 138.166 100.535 138.092L86.0466 102.035C86.0086 101.94 86.0357 101.83 86.1127 101.763L93.2647 95.5641L84.6697 90.6291C84.5537 90.5631 84.5136 90.4151 84.5796 90.2991C84.6456 90.1821 84.7937 90.1441 84.9097 90.2091L93.8006 95.3131C93.8686 95.3521 93.9136 95.4221 93.9216 95.4991C93.9296 95.5771 93.8976 95.6541 93.8396 95.7051L86.5617 102.014L100.857 137.589L124.71 116.006L122.913 100.16C122.898 100.028 122.992 99.909 123.124 99.893L140.74 97.7521C140.882 97.7411 140.992 97.8301 141.009 97.9631C141.025 98.0951 140.931 98.2161 140.798 98.2321L123.42 100.343L125.203 116.075C125.213 116.153 125.183 116.23 125.126 116.282L100.923 138.18C100.877 138.223 100.819 138.245 100.76 138.245Z" fill="#3D2929"/>
<path d="M100.76 138.245C100.756 138.245 100.751 138.245 100.747 138.245C100.614 138.237 100.512 138.124 100.518 137.99C100.55 137.393 101.337 123.295 104.829 116.976C111.667 104.602 122.629 86.976 122.74 86.799C122.81 86.685 122.96 86.6501 123.072 86.7221C123.185 86.7921 123.22 86.9411 123.15 87.0551C123.04 87.2321 112.085 104.847 105.252 117.211C101.814 123.431 101.009 137.872 101.001 138.017C100.994 138.145 100.887 138.245 100.76 138.245Z" fill="#3D2929"/>
<path d="M105.041 117.335C104.921 117.335 104.816 117.246 104.801 117.123L100.684 84.6891C100.667 84.5571 100.761 84.436 100.894 84.419C101.038 84.405 101.147 84.4951 101.164 84.6291L105.281 117.063C105.298 117.195 105.203 117.316 105.071 117.333C105.061 117.334 105.05 117.335 105.041 117.335Z" fill="#3D2929"/>
<path d="M57.1287 113.142C57.1287 113.142 55.3177 107.05 59.5987 105.898C63.8797 104.746 81.1667 105.569 81.8257 107.05C82.4847 108.532 82.3197 113.636 82.3197 113.636L57.1287 113.142Z" fill="#3D2929"/>
<path d="M40.0056 108.696L56.0586 183.28L110.145 185.256L99.2776 112.401L40.0056 108.696Z" fill="#ACACFC"/>
<path d="M65.1965 165.993C65.1965 165.993 77.2155 158.255 82.3195 153.809C87.4235 149.364 97.6315 137.344 99.7715 138.497C101.912 139.649 94.6675 152.986 94.6675 152.986L104.547 142.943C104.547 142.943 108.828 144.095 107.675 148.376C107.675 148.376 110.803 149.035 110.639 151.834C110.474 154.633 108.663 157.597 108.663 157.597C108.663 157.597 110.474 156.115 110.803 159.243C111.132 162.371 104.217 170.768 101.747 172.579C99.2766 174.39 73.9215 184.927 73.9215 184.927L65.1965 165.993Z" fill="#FECDCA"/>
<path d="M102.125 156.361C102.075 156.361 102.025 156.346 101.982 156.314C101.874 156.236 101.851 156.085 101.93 155.977L107.525 148.35C107.604 148.241 107.756 148.219 107.862 148.298C107.97 148.376 107.993 148.527 107.914 148.635L102.319 156.262C102.272 156.327 102.199 156.361 102.125 156.361Z" fill="#3D2929"/>
<path d="M104.907 162.76C104.848 162.76 104.789 162.738 104.743 162.696C104.645 162.605 104.639 162.452 104.73 162.354C106.524 160.418 107.776 158.736 108.671 157.061C109.789 154.972 110.367 152.804 110.342 150.793C110.34 150.66 110.447 150.55 110.581 150.548C110.705 150.523 110.824 150.654 110.826 150.787C110.852 152.88 110.254 155.129 109.098 157.29C108.183 159.002 106.907 160.716 105.085 162.683C105.036 162.733 104.972 162.76 104.907 162.76Z" fill="#3D2929"/>
<path d="M67.6655 156.361L80.5075 185.997C80.5075 185.997 55.3165 203.038 43.7095 195.135C32.1025 187.232 36.0535 172.167 38.7705 158.09C41.4875 144.013 45.9326 136.11 45.9326 136.11L53.1765 163.029L67.6655 156.361Z" fill="#FAEDDC"/>
<path d="M52.8306 197.883C52.3926 197.883 51.9547 197.871 51.5167 197.846C51.3837 197.837 51.2817 197.723 51.2887 197.59C51.2957 197.457 51.4157 197.353 51.5447 197.362C64.8727 198.153 78.7146 186.639 80.2136 185.354L67.5416 156.678L46.5236 165.883C46.3976 165.938 46.2586 165.881 46.2056 165.759C46.1516 165.636 46.2076 165.494 46.3296 165.441L67.5687 156.138C67.6937 156.083 67.8336 156.14 67.8866 156.262L80.7287 185.322C80.7717 185.417 80.7467 185.531 80.6687 185.6C80.5257 185.729 66.6676 197.883 52.8306 197.883Z" fill="#3D2929"/>
<path d="M143.334 130.509C141.748 137.067 140.065 143.616 138.295 150.145C133.507 167.837 128.042 185.422 121.977 202.669C121.803 202.669 121.629 202.679 121.455 202.688C127.472 185.577 132.908 168.136 137.676 150.59C139.504 143.877 141.236 137.145 142.861 130.403C142.9 130.268 143.025 130.19 143.161 130.219C143.286 130.247 143.363 130.383 143.334 130.509Z" fill="#3D2929"/>
<path d="M36.7427 52.113C36.8317 51.4 37.0007 50.7191 37.2547 50.0581C39.5277 44.3251 48.1087 40.7911 57.8227 41.9461C57.8647 41.9551 57.9237 41.9541 57.9657 41.9641C68.5397 43.2701 76.4646 49.7101 75.9376 56.4721C75.9296 56.5731 75.9177 56.6871 75.9067 56.8021C75.1477 63.2321 66.8837 67.6301 57.0177 67.1451C56.2917 67.1121 55.5687 67.0651 54.8277 66.9691C44.0127 65.6811 35.9177 59.027 36.7427 52.113Z" fill="#E7D8DD"/>
<path d="M37.2547 50.0581C37.2627 49.9571 37.2747 49.8421 37.2827 49.7421C38.1077 42.8291 47.5377 38.2701 58.3617 39.5751C58.4347 39.5771 58.5187 39.5961 58.5877 39.6121C69.2847 40.9611 77.2607 47.5591 76.4477 54.4171C76.3587 55.1301 76.1897 55.8111 75.9357 56.4721C73.7617 61.9631 65.7627 65.4541 56.5547 64.7221C56.1517 64.6891 55.7657 64.6451 55.3657 64.5981C44.7267 63.3201 36.7047 56.8581 37.2547 50.0581Z" fill="#FAEDDC"/>
<path d="M56.5558 64.722C56.2518 62.511 56.2418 60.234 56.2958 58.002C56.3898 52.624 56.7468 47.1891 57.9648 41.9641C58.1458 41.1691 58.3518 40.3941 58.5878 39.6121C69.2848 40.9611 77.2608 47.5591 76.4478 54.4171C76.3588 55.1301 76.1898 55.811 75.9358 56.472C73.7628 61.962 65.7648 65.453 56.5558 64.722Z" fill="#8383FB"/>
<path d="M179.512 151.874C178.815 151.7 178.159 151.451 177.533 151.12C172.113 148.177 169.631 139.236 171.939 129.73C171.953 129.69 171.959 129.631 171.974 129.591C174.536 119.249 181.877 112.152 188.527 113.483C188.626 113.503 188.739 113.528 188.851 113.553C195.144 115.076 198.522 123.806 196.861 133.544C196.741 134.261 196.608 134.973 196.425 135.697C193.853 146.279 186.277 153.52 179.512 151.874Z" fill="#E7D8DD"/>
<path d="M177.533 151.12C177.434 151.1 177.321 151.075 177.222 151.054C170.457 149.408 167.059 139.501 169.649 128.91C169.66 128.838 169.688 128.757 169.713 128.69C172.332 118.231 179.837 111.102 186.548 112.729C187.246 112.903 187.901 113.152 188.527 113.483C193.719 116.298 196.228 124.657 194.4 133.712C194.319 134.108 194.229 134.487 194.134 134.878C191.594 145.288 184.219 152.48 177.533 151.12Z" fill="#FAEDDC"/>
<path d="M194.4 133.712C192.168 133.749 189.907 133.487 187.697 133.167C182.369 132.43 177.015 131.426 171.974 129.591C171.206 129.316 170.462 129.019 169.713 128.691C172.332 118.232 179.837 111.103 186.548 112.73C187.246 112.904 187.901 113.153 188.527 113.484C193.719 116.298 196.228 124.657 194.4 133.712Z" fill="#FECDCA"/>
<path d="M169.866 67.947C162.99 68.134 157.265 62.711 157.078 55.835C156.891 48.959 162.314 43.2341 169.19 43.0471C176.066 42.8601 181.791 48.2831 181.978 55.1591C182.165 62.0351 176.742 67.76 169.866 67.947Z" fill="#32D583"/>
<path d="M171.092 66.6541C164.216 66.8411 158.491 61.4181 158.304 54.5421C158.117 47.6661 163.54 41.9411 170.416 41.7541C177.292 41.5671 183.017 46.9901 183.204 53.8661C183.391 60.7421 177.968 66.4671 171.092 66.6541Z" fill="#E7D8DD"/>
<path d="M161.459 62.7101C161.378 62.7101 161.297 62.6741 161.243 62.6061C161.149 62.4871 161.17 62.3141 161.288 62.2211L180.614 46.9981C180.734 46.9041 180.906 46.9251 180.998 47.0431C181.092 47.1621 181.072 47.3351 180.954 47.4281L161.628 62.6511C161.577 62.6911 161.518 62.7101 161.459 62.7101Z" fill="white"/>
<path d="M33.2947 164.511C26.4187 164.698 20.6936 159.275 20.5066 152.399C20.3196 145.523 25.7426 139.798 32.6186 139.611C39.4946 139.424 45.2197 144.847 45.4067 151.723C45.5927 158.599 40.1707 164.324 33.2947 164.511Z" fill="#32D583"/>
<path d="M42.602 159.956C47.6719 155.307 48.0137 147.429 43.3654 142.359C38.7172 137.29 30.8391 136.948 25.7692 141.596C20.6993 146.244 20.3575 154.122 25.0058 159.192C29.654 164.262 37.5321 164.604 42.602 159.956Z" fill="#E7D8DD"/>
<path d="M24.8845 159.274C24.8035 159.274 24.7235 159.238 24.6695 159.17C24.5755 159.051 24.5965 158.878 24.7145 158.785L44.0405 143.562C44.1615 143.468 44.3325 143.489 44.4255 143.607C44.5195 143.726 44.4985 143.899 44.3805 143.992L25.0545 159.216C25.0035 159.255 24.9445 159.274 24.8845 159.274Z" fill="white"/>
<path d="M58.7735 83.3051C54.9915 83.3051 51.9055 86.391 51.9055 90.173C51.9055 93.955 54.9915 97.041 58.7735 97.041C62.5555 97.041 65.6415 93.955 65.6415 90.173C65.6415 86.391 62.5555 83.3051 58.7735 83.3051ZM58.7735 96.441C55.3205 96.441 52.5055 93.626 52.5055 90.173C52.5055 86.72 55.3205 83.9051 58.7735 83.9051C62.2265 83.9051 65.0415 86.72 65.0415 90.173C65.0415 93.626 62.2265 96.441 58.7735 96.441Z" fill="#3D2929"/>
<path d="M156.08 30.716C159.705 30.716 162.645 27.7768 162.645 24.1511C162.645 20.5253 159.705 17.5861 156.08 17.5861C152.454 17.5861 149.515 20.5253 149.515 24.1511C149.515 27.7768 152.454 30.716 156.08 30.716Z" fill="#8383FB"/>
<path d="M164.228 165.66C163.822 162.265 160.92 159.624 157.418 159.624C153.636 159.624 150.55 162.7 150.55 166.492C150.55 170.274 153.636 173.35 157.418 173.35C158.85 173.35 160.175 172.905 161.287 172.15C163.096 170.922 164.286 168.842 164.286 166.491C164.286 166.211 164.266 165.931 164.228 165.66ZM161.219 171.454C160.165 172.276 158.849 172.75 157.417 172.75C153.964 172.75 151.149 169.945 151.149 166.492C151.149 163.029 153.964 160.224 157.417 160.224C160.725 160.224 163.443 162.797 163.666 166.057C163.676 166.202 163.685 166.347 163.685 166.492C163.686 168.523 162.719 170.322 161.219 171.454Z" fill="#3D2929"/>
<path d="M167.77 177.744C171.395 177.744 174.335 174.805 174.335 171.179C174.335 167.553 171.395 164.614 167.77 164.614C164.144 164.614 161.205 167.553 161.205 171.179C161.205 174.805 164.144 177.744 167.77 177.744Z" fill="#8383FB"/>
<path d="M21.367 133.06C23.3563 131.071 23.2911 127.78 21.2213 125.71C19.1516 123.641 15.861 123.575 13.8717 125.565C11.8824 127.554 11.9476 130.845 14.0174 132.914C16.0872 134.984 19.3777 135.049 21.367 133.06Z" fill="#FAEDDC"/>
<path d="M172.369 99.0331C174.439 101.103 174.504 104.393 172.515 106.382C170.526 108.371 167.235 108.306 165.166 106.236C163.096 104.166 163.031 100.876 165.02 98.8871C167.009 96.8991 170.299 96.9641 172.369 99.0331Z" fill="#FAEDDC"/>
</g>
<defs>
<filter id="filter0_dd_379_3013" x="0.313477" y="0" width="232.166" height="218.605" filterUnits="userSpaceOnUse" color-interpolation-filters="sRGB">
<feFlood flood-opacity="0" result="BackgroundImageFix"/>
<feColorMatrix in="SourceAlpha" type="matrix" values="0 0 0 0 0 0 0 0 0 0 0 0 0 0 0 0 0 0 127 0" result="hardAlpha"/>
<feMorphology radius="2" operator="erode" in="SourceAlpha" result="effect1_dropShadow_379_3013"/>
<feOffset dy="2"/>
<feGaussianBlur stdDeviation="2"/>
<feColorMatrix type="matrix" values="0 0 0 0 0.0627451 0 0 0 0 0.0941176 0 0 0 0 0.156863 0 0 0 0.06 0"/>
<feBlend mode="normal" in2="BackgroundImageFix" result="effect1_dropShadow_379_3013"/>
<feColorMatrix in="SourceAlpha" type="matrix" values="0 0 0 0 0 0 0 0 0 0 0 0 0 0 0 0 0 0 127 0" result="hardAlpha"/>
<feMorphology radius="2" operator="erode" in="SourceAlpha" result="effect2_dropShadow_379_3013"/>
<feOffset dy="4"/>
<feGaussianBlur stdDeviation="4"/>
<feColorMatrix type="matrix" values="0 0 0 0 0.0627451 0 0 0 0 0.0941176 0 0 0 0 0.156863 0 0 0 0.1 0"/>
<feBlend mode="normal" in2="effect1_dropShadow_379_3013" result="effect2_dropShadow_379_3013"/>
<feBlend mode="normal" in="SourceGraphic" in2="effect2_dropShadow_379_3013" result="shape"/>
</filter>
</defs>
</svg>
