<svg width="136" height="136" viewBox="0 0 136 136" fill="none" xmlns="http://www.w3.org/2000/svg">
<g style="mix-blend-mode:overlay">
<g clip-path="url(#clip0_402_15383)">
<path fill-rule="evenodd" clip-rule="evenodd" d="M90.0003 36.4372C91.5815 32.737 95.8627 31.0194 99.5627 32.6005C107.869 36.1502 117.212 36.425 125.713 33.3696C129.499 32.0087 133.672 33.975 135.033 37.7617C136.394 41.5484 134.428 45.7213 130.642 47.0822C118.677 51.3825 105.528 50.9957 93.8369 45.9998C90.1369 44.4186 88.4191 40.1373 90.0003 36.4372ZM36.3886 103.471C28.1186 99.8658 18.7822 99.5637 10.2965 102.627C6.51174 103.993 2.33609 102.032 0.969923 98.2474C-0.396238 94.4629 1.56443 90.2872 5.3492 88.9211C17.3376 84.5937 30.5279 85.0204 42.2115 90.1137C45.9 91.7216 47.5867 96.0152 45.9788 99.7036C44.3708 103.392 40.0772 105.079 36.3886 103.471ZM54.0801 43.6841C51.2348 40.8388 46.6218 40.8388 43.7765 43.6841C40.9313 46.5293 40.9313 51.1423 43.7765 53.9876L82.0121 92.2232C84.8573 95.0684 89.4705 95.0685 92.3157 92.2232C95.1609 89.3779 95.1609 84.7648 92.3157 81.9196L54.0801 43.6841Z" fill="#F0F7FD"/>
<path fill-rule="evenodd" clip-rule="evenodd" d="M102.608 10.3471C104.002 6.57249 102.073 2.38252 98.2979 0.988552C94.5234 -0.405427 90.3334 1.52447 88.9394 5.29908C84.5359 17.2228 84.8067 30.3711 89.6971 42.1036L89.7048 42.1218C92.501 48.7788 93.2603 56.1155 91.8865 63.2042C90.5146 70.2834 87.0767 76.7977 82.0069 81.9251C76.7796 87.1146 70.1308 90.6378 62.901 92.0489C58.9518 92.8197 56.3752 96.6461 57.1459 100.595C57.9167 104.544 61.7431 107.121 65.6924 106.35C75.7636 104.385 85.0244 99.4733 92.301 92.2382L92.3409 92.1982C99.4491 85.0198 104.269 75.8945 106.192 65.9764C108.113 56.0616 107.052 45.7998 103.143 36.488C99.6715 28.1542 99.4812 18.816 102.608 10.3471ZM72.7238 43.9524C76.6737 43.1842 79.2528 39.3595 78.4845 35.4096C77.7163 31.4599 73.8916 28.8808 69.9418 29.649C59.9163 31.5989 50.6925 36.4733 43.4332 43.6576L43.3741 43.7168C36.2799 50.9008 31.4696 60.0229 29.5487 69.9349C27.6278 79.8468 28.6821 90.1054 32.579 99.4199L32.5963 99.4607C36.148 107.805 36.423 117.183 33.3664 125.721C32.0104 129.51 33.9821 133.68 37.7705 135.036C41.5588 136.392 45.7293 134.421 47.0854 130.633C51.375 118.649 50.992 105.49 46.0134 93.7767C43.2327 87.1199 42.4814 79.7898 43.8539 72.7072C45.2252 65.6316 48.655 59.1187 53.7129 53.9851C58.9225 48.8409 65.5364 45.3504 72.7238 43.9524Z" fill="white"/>
</g>
</g>
<defs>
<clipPath id="clip0_402_15383">
<rect width="136" height="136" rx="24" fill="white"/>
</clipPath>
</defs>
</svg>
