<svg width="16" height="16" viewBox="0 0 16 16" fill="none" xmlns="http://www.w3.org/2000/svg">
<g clip-path="url(#clip0_40000034_4305)">
<mask id="mask0_40000034_4305" style="mask-type:luminance" maskUnits="userSpaceOnUse" x="0" y="0" width="16" height="16">
<path d="M16 0H0V16H16V0Z" fill="white"/>
</mask>
<g mask="url(#mask0_40000034_4305)">
<path opacity="0.4" d="M14 14.6665H2C1.72667 14.6665 1.5 14.4398 1.5 14.1665C1.5 13.8932 1.72667 13.6665 2 13.6665H14C14.2733 13.6665 14.5 13.8932 14.5 14.1665C14.5 14.4398 14.2733 14.6665 14 14.6665Z" fill="#3030F8"/>
<path opacity="0.4" d="M12.6801 2.3197C11.3868 1.02636 10.1201 0.993031 8.79346 2.3197L7.9868 3.12636C7.92013 3.19303 7.89346 3.2997 7.92013 3.39303C8.4268 5.1597 9.84013 6.57303 11.6068 7.07972C11.6335 7.08639 11.6601 7.09305 11.6868 7.09305C11.7601 7.09305 11.8268 7.06638 11.8801 7.01305L12.6801 6.20637C13.3401 5.55303 13.6601 4.9197 13.6601 4.2797C13.6668 3.6197 13.3468 2.9797 12.6801 2.3197Z" fill="#3030F8"/>
<path d="M10.4065 7.68704C10.2132 7.5937 10.0265 7.50037 9.84653 7.39371C9.69987 7.30704 9.55987 7.21371 9.41987 7.11371C9.30653 7.04037 9.1732 6.9337 9.04653 6.82704C9.0332 6.82037 8.98653 6.78037 8.9332 6.72704C8.7132 6.54036 8.46653 6.30036 8.24653 6.03369C8.22653 6.02036 8.1932 5.97369 8.14653 5.91369C8.07987 5.83369 7.96653 5.70036 7.86653 5.54702C7.78653 5.44702 7.6932 5.30036 7.60653 5.15369C7.49987 4.97369 7.40653 4.79369 7.3132 4.60702C7.21987 4.40702 7.14653 4.21369 7.07987 4.03369L2.89322 8.22037C2.80655 8.30704 2.72655 8.47371 2.70655 8.58704L2.34655 11.1404C2.27989 11.5937 2.40655 12.0204 2.68655 12.307C2.92655 12.5404 3.25989 12.667 3.61989 12.667C3.69989 12.667 3.77989 12.6604 3.85989 12.647L6.41989 12.287C6.53989 12.267 6.70653 12.187 6.78653 12.1004L10.9732 7.9137C10.7865 7.84704 10.6065 7.7737 10.4065 7.68704Z" fill="#3030F8"/>
</g>
</g>
<defs>
<clipPath id="clip0_40000034_4305">
<rect width="16" height="16" fill="white"/>
</clipPath>
</defs>
</svg>
