<svg width="13" height="10" viewBox="0 0 13 10" fill="none" xmlns="http://www.w3.org/2000/svg">
<path fill-rule="evenodd" clip-rule="evenodd" d="M0.122437 1C0.122437 0.447715 0.570152 0 1.12244 0H11.1224C11.6747 0 12.1224 0.447715 12.1224 1C12.1224 1.55228 11.6747 2 11.1224 2H1.12244C0.570152 2 0.122437 1.55228 0.122437 1ZM2.12244 5C2.12244 4.44772 2.57015 4 3.12244 4H9.12244C9.67472 4 10.1224 4.44772 10.1224 5C10.1224 5.55228 9.67472 6 9.12244 6H3.12244C2.57015 6 2.12244 5.55228 2.12244 5ZM5.12244 8C4.57015 8 4.12244 8.44771 4.12244 9C4.12244 9.55229 4.57015 10 5.12244 10H7.12244C7.67472 10 8.12244 9.55229 8.12244 9C8.12244 8.44771 7.67472 8 7.12244 8H5.12244Z" fill="#32324D"/>
</svg>
