<svg width="25" height="24" viewBox="0 0 25 24" fill="none" xmlns="http://www.w3.org/2000/svg">
<path d="M21.6152 14.1049C21.7682 14.0372 21.8967 13.9262 21.9479 13.7668C22.0331 13.5012 22.1416 12.9721 22.1416 12C22.1416 11.028 22.0331 10.4988 21.9479 10.2332C21.8967 10.0739 21.7682 9.96288 21.6152 9.89513C20.9723 9.61078 19.1071 8.82473 17.4357 8.50003C17.4357 8.50003 17.1416 8.80003 17.1416 12C17.1416 15.2 17.4357 15.5 17.4357 15.5C19.1071 15.1753 20.9723 14.3893 21.6152 14.1049Z" fill="#2626C6"/>
<path d="M10.5739 20.8873C10.3809 21.686 9.5911 22.1644 8.82345 21.9478L6.68825 21.3454C5.8241 21.1016 5.3916 20.1008 5.7922 19.2719L7.85665 15L11.6416 16.4685L10.5739 20.8873Z" fill="#2626C6"/>
<path d="M3.7475 16.2402C3.07678 16.1473 2.50005 15.7241 2.37317 15.0412C2.25274 14.3929 2.1416 13.4121 2.1416 12C2.1416 10.5879 2.25274 9.60715 2.37317 8.95885C2.50005 8.2759 3.07678 7.85275 3.7475 7.75985C6.242 7.41425 12.545 6.2943 17.0037 3.3716C18.118 2.64118 19.5041 2.99935 19.7013 4.34208C19.9332 5.92065 20.1416 8.3537 20.1416 12C20.1416 15.6463 19.9332 18.0794 19.7013 19.6579C19.5041 21.0007 18.118 21.3588 17.0037 20.6284C12.545 17.7057 6.242 16.5858 3.7475 16.2402Z" fill="#C1C1FD"/>
<path d="M2.37317 15.0414C2.50005 15.7243 3.07678 16.1475 3.7475 16.2404C4.12961 16.2933 4.60108 16.3644 5.1416 16.4574V7.54303C4.60108 7.63603 4.12961 7.70713 3.7475 7.76008C3.07678 7.85298 2.50005 8.27613 2.37317 8.95908C2.25274 9.60738 2.1416 10.5881 2.1416 12.0002C2.1416 13.4123 2.25274 14.3931 2.37317 15.0414Z" fill="#2626C6"/>
</svg>
