<svg width="136" height="136" viewBox="0 0 136 136" fill="none" xmlns="http://www.w3.org/2000/svg">
<g style="mix-blend-mode:overlay">
<path fill-rule="evenodd" clip-rule="evenodd" d="M36.4277 0C27.0389 0 19.4277 7.61116 19.4277 17V119C19.4277 124.75 22.9371 129.021 25.742 131.413C27.2587 132.706 28.9292 133.774 30.578 134.548C32.0775 135.251 34.1719 136 36.4277 136H99.5706C108.959 136 116.571 128.389 116.571 119V17C116.571 7.61116 108.959 0 99.5706 0H36.4277Z" fill="#C1C1FD"/>
<path fill-rule="evenodd" clip-rule="evenodd" d="M55.8555 102C55.8555 97.9763 59.1174 94.7142 63.1412 94.7142H72.8555C76.8792 94.7142 80.1412 97.9763 80.1412 102C80.1412 106.024 76.8792 109.286 72.8555 109.286H63.1412C59.1174 109.286 55.8555 106.024 55.8555 102Z" fill="#2626C6"/>
</g>
</svg>
