<svg width="255" height="280" viewBox="0 0 255 280" fill="none" xmlns="http://www.w3.org/2000/svg">
<g filter="url(#filter0_dd_305_15848)">
<path d="M13.9991 269.133C12.0819 269.133 10.2436 268.38 8.88488 267.04C7.52379 265.695 6.75715 263.872 6.75357 261.968L6.68181 220.346L6.5 122.484C6.5 121.639 6.51196 120.803 6.52511 119.967C6.99396 88.866 20.5283 59.3813 44.6344 36.9425C67.8973 15.2882 98.8244 2.8674 129.482 2.8674C136.971 2.8674 144.471 3.59937 151.775 5.04179C158.609 6.39211 165.416 8.39188 172.009 10.9849C211.13 26.3767 240.506 62.9108 246.848 104.062C247.763 110.051 248.233 116.105 248.246 122.063C248.267 131.982 248.318 165.054 248.318 165.054L248.475 246.049L248.5 261.551C248.506 265.513 245.268 268.731 241.268 268.738C241.268 268.738 14.0039 269.133 13.9991 269.133Z" fill="white"/>
<path d="M241.315 121.919V261.4H16.2212V121.919C16.2212 119.562 16.293 117.23 16.4484 114.922C16.5322 113.331 16.6637 111.752 16.8312 110.173C16.8671 109.791 16.9149 109.408 16.9627 109.037C17.19 106.968 17.477 104.911 17.8358 102.878C18.2784 100.234 18.8166 97.627 19.4505 95.0555C22.62 82.0786 28.062 69.9867 35.3219 59.2104C40.429 51.5916 46.457 44.6426 53.2505 38.495C55.7621 36.2106 58.3934 34.0338 61.1084 31.9886C69.074 25.9845 77.8529 21.0209 87.2777 17.2893C88.988 16.6075 90.7342 15.9617 92.4924 15.3637C103.867 11.4885 116.078 9.3835 128.768 9.3835C143.515 9.3835 157.605 12.2181 170.51 17.373C175.569 19.3943 180.461 21.7864 185.125 24.4894H185.137C188.737 26.5825 192.206 28.8789 195.543 31.3427C196.117 31.7613 196.679 32.1799 197.229 32.6105C201.152 35.6126 204.86 38.8658 208.341 42.3463C209.8 43.8054 211.223 45.3004 212.586 46.8433C214.895 49.4028 217.072 52.082 219.129 54.8568C220.098 56.1485 221.03 57.4641 221.939 58.8037C231.161 72.3667 237.488 88.0588 240.035 104.983C240.873 110.508 241.315 116.166 241.315 121.919Z" fill="#8383FB"/>
<path d="M174.575 69.7341L155.439 21.0782L42.4504 63.7827L36.5659 65.9475L40.1899 75.7669L41.362 78.9603L47.4738 95.5613L48.6578 98.7428L54.6739 115.081L55.858 118.274L61.8382 134.528L63.0103 137.722L69.0742 154.131L70.2463 157.325L76.2265 173.579L77.4106 176.772L83.5223 193.385L84.7064 196.555L91.5716 215.213L97.4561 213.036L97.6594 213.574L213.053 171.653L174.575 69.7341ZM53.9922 73.9609C53.6214 72.9323 53.5616 71.8439 53.7888 70.8512C53.9443 70.0977 54.2672 69.3801 54.7217 68.7581C55.3556 67.9089 56.2168 67.2153 57.2932 66.8086C60.1637 65.7561 63.3691 67.2392 64.4216 70.1216C65.498 73.0041 64.0149 76.1975 61.1325 77.25C58.25 78.3145 55.0566 76.8433 53.9922 73.9609ZM61.1923 93.4922C60.8455 92.5354 60.7617 91.5426 60.9411 90.6217C61.0607 89.8682 61.3478 89.1506 61.7664 88.5167C62.4003 87.5479 63.3212 86.7824 64.4814 86.3519C67.3638 85.2993 70.5573 86.7705 71.6337 89.641C72.3155 91.5187 71.9327 93.54 70.7606 95.0111C70.5333 95.3102 70.2702 95.5852 69.9712 95.8244C69.5047 96.2191 68.9546 96.554 68.3326 96.7693C65.4502 97.8338 62.2568 96.3746 61.1923 93.4922ZM68.3924 113.011C68.0336 112.067 67.9619 111.086 68.1293 110.141C68.2489 109.387 68.536 108.682 68.9665 108.024C69.5885 107.079 70.5333 106.302 71.6815 105.883C74.564 104.807 77.7574 106.278 78.8219 109.16C79.5156 111.062 79.1209 113.083 77.9607 114.542C77.7215 114.841 77.4584 115.117 77.1594 115.368C76.681 115.75 76.1308 116.085 75.5328 116.301C72.6384 117.365 69.4449 115.894 68.3924 113.011ZM75.5926 132.531C75.2218 131.55 75.174 130.533 75.3534 129.577C75.4849 128.835 75.7839 128.105 76.2145 127.484C76.8365 126.551 77.7574 125.809 78.8817 125.402C81.7641 124.326 84.9575 125.809 86.0101 128.692C86.7038 130.569 86.321 132.579 85.1728 134.038C85.125 134.11 85.0532 134.193 84.9934 134.265C84.3954 134.959 83.6299 135.497 82.721 135.832C79.8505 136.896 76.6451 135.413 75.5926 132.531ZM82.7807 152.062C82.4339 151.117 82.3502 150.136 82.5296 149.204C82.6492 148.438 82.9362 147.709 83.3549 147.087C83.9888 146.118 84.9097 145.352 86.0818 144.922C88.9523 143.857 92.1577 145.34 93.2222 148.211C93.9159 150.101 93.5212 152.134 92.361 153.593C92.1218 153.892 91.8467 154.179 91.5477 154.43C91.0693 154.813 90.543 155.124 89.9211 155.363C87.0386 156.416 83.8452 154.956 82.7807 152.062ZM89.9809 171.593C89.6101 170.613 89.5503 169.596 89.7297 168.627C89.8732 167.886 90.1723 167.168 90.6028 166.534C91.2367 165.601 92.1457 164.86 93.27 164.453C96.1644 163.389 99.3578 164.86 100.422 167.754C101.116 169.632 100.709 171.641 99.5731 173.112C99.5372 173.16 99.5013 173.208 99.4535 173.256C98.8435 173.973 98.0542 174.548 97.1212 174.894C94.2388 175.947 91.0454 174.464 89.9809 171.593ZM106.725 192.679C106.271 193.254 105.673 193.756 104.991 194.103C104.776 194.222 104.561 194.318 104.321 194.414C101.439 195.478 98.2335 194.007 97.181 191.125C96.8461 190.228 96.7624 189.295 96.9059 188.422C97.0016 187.656 97.2648 186.939 97.6714 186.293C98.2814 185.252 99.2621 184.427 100.482 183.972C103.353 182.92 106.546 184.391 107.61 187.273C108.304 189.163 107.898 191.208 106.725 192.679Z" fill="#FEF0C7"/>
<path d="M54.7252 68.7605C52.363 68.2463 49.8429 68.3754 47.409 69.2713C46.5168 69.605 45.6796 70.014 44.9237 70.508C42.8605 71.808 41.2398 73.6416 40.1861 75.7622C38.6145 78.9065 38.2881 82.6657 39.5965 86.2047C40.8882 89.7067 43.5243 92.3476 46.701 93.7254L45.5061 90.4746C43.8126 89.263 42.4694 87.5311 41.6967 85.4321C40.9062 83.2768 40.8272 81.0343 41.3643 78.958C42.0017 76.4415 43.5279 74.1726 45.7154 72.6632C46.463 72.1417 47.2918 71.7052 48.184 71.3703C50.0415 70.685 51.9635 70.5355 53.7851 70.8464C57.1149 71.4062 60.1026 73.5088 61.7136 76.6484C62.515 76.2202 63.1333 75.6964 63.5376 75.3256C61.6706 71.8858 58.4018 69.5475 54.7252 68.7605Z" fill="#3030F8"/>
<path d="M61.7712 88.5143C59.482 88.0574 57.0433 88.2152 54.7026 89.0764C53.82 89.4017 52.9911 89.8203 52.2256 90.3035C50.1445 91.6036 48.5323 93.4467 47.4786 95.5673C45.9165 98.7033 45.59 102.461 46.8985 106C48.1818 109.493 50.8179 112.134 54.0029 113.521L52.7985 110.279C51.1049 109.048 49.7534 107.326 48.9892 105.236C48.189 103.071 48.1196 100.819 48.6566 98.744C49.2929 96.2275 50.8203 93.9766 53.0078 92.4492C53.7553 91.9277 54.5842 91.4912 55.4765 91.1563C57.2873 90.4973 59.1638 90.3382 60.9388 90.6205C64.3247 91.1444 67.3758 93.2577 69.006 96.4344C69.3696 96.2478 69.6866 96.0313 69.9772 95.8244C70.3324 95.5721 70.6135 95.3197 70.8396 95.1212C70.8216 95.0841 70.7953 95.0375 70.7678 95.0088C68.8553 91.5594 65.5028 89.2283 61.7712 88.5143Z" fill="#3030F8"/>
<path d="M68.9679 108.03C66.6787 107.573 64.24 107.731 61.8994 108.592C61.0071 108.926 60.1699 109.335 59.4128 109.829C57.3496 111.129 55.729 112.962 54.6753 115.083C53.1049 118.227 52.7772 121.987 54.0868 125.526C55.3786 129.028 58.0242 131.66 61.1913 133.046L59.9965 129.795C58.3125 128.574 56.9597 126.852 56.1871 124.753C55.3965 122.598 55.3176 120.354 55.8546 118.279C56.5004 115.754 58.0182 113.494 60.2142 111.975C60.9617 111.453 61.7822 111.025 62.6732 110.691C64.4756 110.023 66.351 109.864 68.1271 110.146C71.5131 110.67 74.5737 112.773 76.2123 115.96C76.5568 115.772 76.8833 115.566 77.1644 115.368C77.5196 115.097 77.8102 114.853 78.0267 114.645C78.0088 114.608 77.9909 114.571 77.9645 114.542C76.0521 111.094 72.7092 108.754 68.9679 108.03Z" fill="#3030F8"/>
<path d="M76.2124 127.483C73.8957 127.016 71.4295 127.165 69.0613 128.035C68.1787 128.36 67.3498 128.779 66.5843 129.262C64.5032 130.562 62.891 132.405 61.8373 134.526C60.2669 137.67 59.9487 141.42 61.2488 144.968C62.5501 148.462 65.1778 151.093 68.3533 152.489L67.1584 149.238C65.4744 148.017 64.1217 146.295 63.3491 144.196C62.5585 142.04 62.4795 139.797 63.0166 137.722C63.6528 135.205 65.1802 132.936 67.3761 131.417C68.1236 130.896 68.9525 130.459 69.8447 130.124C71.6651 129.457 73.5596 129.298 75.3537 129.58C78.7109 130.131 81.7441 132.226 83.3743 135.401C84.0548 135.035 84.5979 134.602 84.9913 134.259C85.0655 134.205 85.1313 134.142 85.1971 134.078C85.1875 134.069 85.1887 134.051 85.1791 134.041C83.287 130.575 79.944 128.235 76.2124 127.483Z" fill="#3030F8"/>
<path d="M83.3611 147.082C81.0719 146.625 78.6332 146.783 76.2925 147.644C75.4003 147.978 74.5631 148.387 73.806 148.881C71.7428 150.181 70.1222 152.014 69.0685 154.135C67.4969 157.279 67.1704 161.038 68.4788 164.577C69.7706 168.079 72.4066 170.72 75.5833 172.098L74.3884 168.847C72.7044 167.626 71.3517 165.904 70.5791 163.805C69.7885 161.649 69.7096 159.407 70.2466 157.331C70.8924 154.806 72.4102 152.545 74.6061 151.026C75.3536 150.505 76.1741 150.078 77.0652 149.743C78.876 149.084 80.7525 148.925 82.5274 149.207C85.9134 149.731 88.9657 151.826 90.6043 155.011C90.9488 154.824 91.2669 154.626 91.5468 154.429C91.902 154.159 92.2022 153.906 92.4187 153.698C92.4008 153.661 92.3828 153.624 92.3565 153.595C90.4452 150.146 87.1023 147.805 83.3611 147.082Z" fill="#3030F8"/>
<path d="M90.6054 166.534C88.2887 166.066 85.8224 166.215 83.4543 167.085C82.5716 167.411 81.7427 167.829 80.9773 168.313C78.8962 169.611 77.2839 171.456 76.2302 173.576C74.6586 176.721 74.3417 180.47 75.6418 184.019C76.943 187.513 79.5791 190.153 82.7462 191.54L81.5514 188.289C79.8674 187.068 78.5147 185.345 77.742 183.246C76.9514 181.091 76.8725 178.849 77.4095 176.772C78.0458 174.256 79.5732 171.987 81.7691 170.468C82.5166 169.946 83.3454 169.51 84.2377 169.176C86.0581 168.509 87.9346 168.35 89.7275 168.631C93.0943 169.173 96.137 171.276 97.7672 174.453C98.4849 174.069 99.0649 173.618 99.4596 173.257L99.5912 173.13C99.5816 173.121 99.5816 173.121 99.5733 173.111C97.6895 169.635 94.337 167.286 90.6054 166.534Z" fill="#3030F8"/>
<path d="M97.6681 186.289C95.4339 185.869 93.0418 186.038 90.7561 186.881C89.8639 187.215 89.0267 187.624 88.2696 188.118C86.1969 189.426 84.5762 191.261 83.5225 193.382C81.9605 196.518 81.634 200.276 82.9424 203.815C84.2246 207.307 86.8702 209.94 90.0469 211.335L88.8521 208.084C87.1585 206.854 85.807 205.131 85.0427 203.042C84.2521 200.887 84.1732 198.643 84.7006 196.559C85.3369 194.043 86.8642 191.774 89.0614 190.255C89.8089 189.734 90.6294 189.305 91.5204 188.972C93.3037 188.322 95.1516 188.153 96.9002 188.425C100.286 188.912 103.33 190.979 104.988 194.11C105.014 194.157 105.032 194.194 105.06 194.24C105.851 193.822 106.489 193.298 106.882 192.937C106.838 192.853 106.784 192.76 106.73 192.684C104.774 189.261 101.41 186.976 97.6681 186.289Z" fill="#3030F8"/>
<path d="M165.416 57.5034C165.469 57.6338 165.421 57.7713 165.336 57.8527C165.326 57.8622 165.317 57.8706 165.317 57.8706C165.289 57.8981 165.26 57.9244 165.223 57.9244L164.545 58.1791L78.6483 89.8394C78.4904 89.9004 78.2979 89.8143 78.2369 89.6385C78.1747 89.4806 78.262 89.2881 78.4294 89.2175L164.317 57.5668L164.642 57.434L164.995 57.3108C165.171 57.2498 165.354 57.3455 165.416 57.5034Z" fill="#8383FB"/>
<path d="M160.178 45.4426C160.23 45.573 160.182 45.7105 160.098 45.7918C160.088 45.8014 160.078 45.8098 160.078 45.8098C160.05 45.8373 160.022 45.8636 159.985 45.8636L159.307 46.1184L73.41 77.7787C73.2522 77.8397 73.0596 77.7536 72.9986 77.5777C72.9364 77.4199 73.0237 77.2273 73.1911 77.1567L159.079 45.506L159.404 45.3733L159.757 45.25C159.932 45.189 160.115 45.2847 160.178 45.4426Z" fill="#8383FB"/>
<path d="M169.591 69.4015C169.56 69.4326 169.521 69.4566 169.478 69.4733L82.9229 101.419C82.7543 101.482 82.5665 101.395 82.5043 101.227C82.4421 101.058 82.5306 100.87 82.6969 100.808L169.252 68.8621C169.42 68.7999 169.608 68.886 169.67 69.0547C169.717 69.1791 169.682 69.3142 169.591 69.4015Z" fill="#8383FB"/>
<path d="M173.861 80.984C173.829 81.0151 173.791 81.039 173.748 81.0558L87.1785 112.964C87.0087 113.026 86.8221 112.939 86.7599 112.77C86.6989 112.601 86.7886 112.413 86.9537 112.351L173.523 80.4434C173.691 80.3812 173.879 80.4685 173.941 80.6372C173.987 80.7616 173.951 80.8967 173.861 80.984Z" fill="#8383FB"/>
<path d="M178.123 92.5474C178.092 92.5785 178.052 92.6024 178.009 92.6191L91.44 124.527C91.2714 124.589 91.0836 124.502 91.0214 124.333C90.9592 124.163 91.0477 123.978 91.2151 123.915L177.784 92.0068C177.953 91.9446 178.141 92.0319 178.203 92.2005C178.248 92.3249 178.214 92.4601 178.123 92.5474Z" fill="#8383FB"/>
<path d="M182.384 104.111C182.353 104.142 182.315 104.166 182.271 104.182L95.7016 136.09C95.533 136.152 95.3452 136.065 95.283 135.896C95.222 135.727 95.3105 135.541 95.4768 135.478L182.046 103.57C182.214 103.508 182.402 103.595 182.464 103.764C182.511 103.889 182.475 104.024 182.384 104.111Z" fill="#8383FB"/>
<path d="M186.647 115.674C186.616 115.704 186.576 115.729 186.533 115.746L99.9653 147.653C99.7954 147.716 99.6088 147.628 99.5467 147.46C99.4845 147.29 99.5742 147.104 99.7404 147.041L186.308 115.133C186.478 115.071 186.665 115.158 186.727 115.327C186.772 115.453 186.737 115.587 186.647 115.674Z" fill="#8383FB"/>
<path d="M190.909 127.237C190.878 127.267 190.839 127.292 190.795 127.309L104.226 159.217C104.057 159.279 103.869 159.192 103.807 159.023C103.745 158.853 103.836 158.668 104.001 158.604L190.57 126.696C190.739 126.634 190.927 126.722 190.989 126.89C191.035 127.016 190.999 127.15 190.909 127.237Z" fill="#8383FB"/>
<path d="M195.171 138.801C195.14 138.83 195.101 138.856 195.058 138.872L108.489 170.78C108.32 170.842 108.132 170.755 108.07 170.586C108.009 170.417 108.099 170.23 108.264 170.168L194.833 138.26C195.001 138.198 195.189 138.285 195.251 138.452C195.297 138.579 195.262 138.713 195.171 138.801Z" fill="#8383FB"/>
<path d="M199.433 150.365C199.401 150.395 199.362 150.42 199.319 150.437L112.75 182.344C112.581 182.407 112.393 182.319 112.331 182.151C112.269 181.981 112.36 181.794 112.525 181.732L199.094 149.824C199.263 149.762 199.45 149.849 199.513 150.018C199.559 150.142 199.523 150.277 199.433 150.365Z" fill="#8383FB"/>
<path d="M203.695 161.927C203.664 161.958 203.624 161.982 203.581 161.999L117.012 193.906C116.842 193.969 116.656 193.881 116.594 193.713C116.533 193.543 116.62 193.356 116.787 193.294L203.357 161.386C203.526 161.324 203.713 161.411 203.775 161.58C203.821 161.706 203.785 161.841 203.695 161.927Z" fill="#8383FB"/>
<path d="M91.5718 215.213L213.053 171.653L215.393 179.464L93.9579 222.42L91.5718 215.213Z" fill="#8383FB"/>
<path d="M87.4572 226.344C86.297 228.748 84.802 231.009 83.295 233.174C82.9481 233.676 82.6013 234.166 82.2544 234.657C80.0059 237.838 77.6855 241.127 76.2742 244.811C74.229 250.145 74.1812 256.114 76.0829 261.4H74.8031C72.9732 255.946 73.0569 249.846 75.1499 244.38C76.6211 240.565 78.9893 237.204 81.2737 233.963C81.5966 233.509 81.9076 233.054 82.2305 232.6C83.7495 230.435 85.2325 228.186 86.3807 225.818L87.4572 226.344Z" fill="#3030F8"/>
<path d="M52.4731 250.552C52.1143 252.274 51.7435 254.056 51.4684 255.803C51.1455 257.824 51.002 259.678 51.0139 261.4H49.8179C49.8059 259.618 49.9614 257.692 50.2843 255.623C50.5714 253.841 50.9422 252.047 51.301 250.313C52.1262 246.294 52.9874 242.132 52.7362 237.982C52.2937 230.626 48.1195 223.653 44.0171 216.92C43.9334 216.788 43.8497 216.644 43.7659 216.513C42.6536 214.683 41.6011 212.973 40.6323 211.25L41.6729 210.664C42.6297 212.363 43.6822 214.073 44.7826 215.891C44.9022 216.094 45.0218 216.286 45.1533 216.489C49.1242 223.007 53.4658 230.339 53.9322 237.898C54.1954 242.216 53.3223 246.462 52.4731 250.552Z" fill="#3030F8"/>
<path d="M61.5463 191.187C59.1339 198.845 51.0009 199.983 45.8866 199.979C43.8737 199.952 42.3631 199.767 41.9827 199.71C41.9158 199.703 41.8787 199.693 41.8787 199.693L46.5612 214.282C46.8339 215.11 46.4105 216.008 45.6032 216.317L39.8992 218.459L39.7139 218.521L27.8289 187.038C27.4892 186.124 27.9233 185.11 28.8096 184.724L30.4135 184.036C30.4135 184.036 32.0461 170.041 43.5902 169.091C56.1091 168.064 65.7504 177.843 61.5463 191.187Z" fill="white"/>
<path d="M45.8867 199.979C43.8738 199.951 42.3632 199.767 41.9828 199.71C41.1659 197.256 38.5215 188.938 38.5215 188.938L45.8867 199.979Z" fill="#3030F8"/>
<path d="M50.5115 186.373C50.3679 185.99 50.1885 185.631 49.9852 185.272C49.3274 184.172 48.3944 183.335 47.3419 182.892C46.2535 182.438 45.1891 182.474 44.316 182.988C43.4429 183.502 42.9047 184.435 42.797 185.607C42.6654 186.744 42.9645 187.963 43.6223 189.064C44.2921 190.164 45.225 191.001 46.2655 191.444C47.1506 191.815 48.0237 191.863 48.7892 191.587C48.9686 191.528 49.136 191.456 49.2915 191.348C50.1646 190.834 50.7028 189.913 50.8224 188.729C50.8942 187.975 50.7865 187.162 50.5115 186.373ZM50.1526 188.669C50.0569 189.626 49.6264 190.368 48.9447 190.774C48.2749 191.169 47.4137 191.193 46.5286 190.822C45.6077 190.451 44.7944 189.698 44.2083 188.717C43.6223 187.748 43.3591 186.66 43.4548 185.667C43.5505 184.722 43.9811 183.969 44.6628 183.574C44.7705 183.502 44.914 183.43 45.0336 183.395C45.6436 183.167 46.3492 183.215 47.0788 183.514C47.9878 183.897 48.825 184.638 49.3991 185.619C49.9852 186.588 50.2603 187.676 50.1526 188.669Z" fill="#3030F8"/>
<path d="M114.598 229.525C107.259 232.783 101.025 227.436 97.6451 223.598C96.333 222.071 95.4731 220.815 95.2638 220.493C95.2243 220.438 95.2076 220.405 95.2076 220.405L87.3651 233.568C86.925 234.321 85.9706 234.597 85.2063 234.195L79.6543 231.235L79.6567 231.237L95.4013 201.495C95.8618 200.636 96.9083 200.291 97.785 200.7L99.3614 201.448C99.3614 201.448 110.937 193.413 119.286 201.442C128.339 210.148 127.385 223.848 114.598 229.525Z" fill="white"/>
<path d="M97.645 223.598C96.3329 222.071 95.473 220.815 95.2637 220.493C96.5638 218.257 101.051 210.772 101.051 210.772L97.645 223.598Z" fill="#3030F8"/>
<path d="M111.414 213.379C111.043 212.267 110.302 211.49 109.345 211.179C108.388 210.868 107.336 211.083 106.367 211.765C105.458 212.423 104.728 213.475 104.334 214.683C103.939 215.903 103.927 217.159 104.298 218.247C104.609 219.156 105.147 219.838 105.853 220.221C106.02 220.316 106.187 220.4 106.367 220.448C107.336 220.759 108.388 220.556 109.333 219.862C109.967 219.419 110.505 218.797 110.912 218.068C111.103 217.709 111.259 217.338 111.39 216.944C111.773 215.724 111.785 214.456 111.414 213.379ZM110.732 216.74C110.397 217.817 109.752 218.738 108.938 219.312C108.173 219.874 107.324 220.041 106.582 219.802C105.829 219.563 105.243 218.929 104.932 218.02C104.621 217.087 104.633 215.975 104.979 214.886C105.326 213.798 105.96 212.877 106.762 212.303C107.551 211.753 108.388 211.585 109.13 211.824C109.273 211.872 109.405 211.92 109.524 211.992C110.087 212.303 110.529 212.865 110.768 213.607C111.103 214.54 111.079 215.652 110.732 216.74Z" fill="#3030F8"/>
<path d="M222.15 237.419L140.186 241.654C138.42 241.745 136.914 240.387 136.824 238.622L129.445 95.815C129.354 94.0497 130.711 92.545 132.477 92.4529L214.442 88.2178C216.207 88.1269 217.711 89.4844 217.804 91.2498L225.182 234.056C225.273 235.823 223.915 237.328 222.15 237.419Z" fill="#D6D6FE"/>
<path d="M225.224 237.261L143.259 241.496C141.494 241.587 139.989 240.23 139.897 238.464L132.519 95.6583C132.428 93.893 133.786 92.3884 135.55 92.2963L217.514 88.0611C219.279 87.9702 220.784 89.3277 220.876 91.0918L228.254 233.899C228.347 235.664 226.989 237.169 225.224 237.261Z" fill="#1500A3"/>
<path d="M221.402 219.538L146.318 223.415L139.896 99.1543L158.249 98.2059C158.796 98.1772 159.336 98.3362 159.78 98.6556L163.518 101.341C164.281 101.887 165.234 102.154 166.187 102.104L191.436 100.731C192.529 100.667 193.533 100.197 194.233 99.4211L196.476 96.9333C196.904 96.4585 197.503 96.1726 198.142 96.1403L214.982 95.2636L221.402 219.538Z" fill="#D6D6FE"/>
<path d="M206.402 171.901L156.729 174.468C155.297 174.542 154.076 173.44 154.002 172.009L150.942 112.777C150.867 111.344 151.969 110.124 153.401 110.05L203.073 107.484C204.505 107.409 205.726 108.511 205.8 109.943L208.861 169.174C208.935 170.607 207.835 171.828 206.402 171.901Z" fill="#0BA5EC"/>
<path d="M148.271 190.591C147.947 190.591 147.678 190.338 147.66 190.011C147.642 189.675 147.901 189.387 148.24 189.369L215.359 185.902C215.706 185.906 215.983 186.146 216.001 186.482C216.018 186.818 215.759 187.106 215.421 187.124L148.302 190.591C148.291 190.591 148.28 190.591 148.271 190.591Z" fill="white"/>
<path d="M160.946 189.326C161.029 190.932 159.794 192.303 158.187 192.385C156.581 192.468 155.211 191.232 155.127 189.626C155.045 188.02 156.28 186.649 157.887 186.567C159.493 186.484 160.862 187.72 160.946 189.326Z" fill="#1500A3"/>
<path d="M191.211 230.684C191.353 233.438 189.236 235.786 186.482 235.928C183.727 236.071 181.38 233.954 181.237 231.199C181.095 228.445 183.213 226.097 185.966 225.954C188.72 225.812 191.069 227.929 191.211 230.684Z" stroke="white" stroke-width="0.3407" stroke-miterlimit="10" stroke-linecap="round" stroke-linejoin="round"/>
<path d="M190.198 97.0648L169.401 98.0599C168.792 98.0886 168.276 97.6198 168.246 97.011C168.217 96.4022 168.686 95.8855 169.295 95.8568L190.092 94.8617C190.7 94.833 191.217 95.3019 191.247 95.9106C191.276 96.5182 190.807 97.0361 190.198 97.0648Z" stroke="white" stroke-width="0.3126" stroke-miterlimit="10"/>
<path d="M183.693 216.036C189.743 216.036 194.648 211.131 194.648 205.08C194.648 199.029 189.743 194.124 183.693 194.124C177.642 194.124 172.737 199.029 172.737 205.08C172.737 211.131 177.642 216.036 183.693 216.036Z" fill="#1500A3"/>
<path d="M180.071 199.99L181.19 211.184C181.218 211.462 181.542 211.601 181.763 211.43L190.399 204.714C190.609 204.55 190.572 204.22 190.328 204.109L180.573 199.631C180.323 199.516 180.043 199.716 180.071 199.99Z" fill="white"/>
<path d="M204.975 178.128L158.644 180.298C158.203 180.319 157.823 179.974 157.803 179.533C157.783 179.091 158.127 178.712 158.569 178.692L204.899 176.521C205.341 176.501 205.72 176.845 205.74 177.287C205.761 177.728 205.416 178.106 204.975 178.128Z" fill="#1500A3"/>
<path d="M203.341 181.88L160.272 183.897C159.862 183.916 159.51 183.596 159.49 183.186C159.47 182.775 159.791 182.424 160.201 182.405L203.27 180.387C203.681 180.368 204.032 180.688 204.051 181.099C204.072 181.509 203.751 181.86 203.341 181.88Z" fill="#1500A3"/>
<path d="M181.189 144.952C177.21 145.157 173.786 142.07 173.58 138.091L173.101 128.809C172.895 124.83 175.982 121.405 179.961 121.2C183.94 120.994 187.364 124.081 187.57 128.06L188.05 137.343C188.257 141.322 185.169 144.746 181.189 144.952Z" stroke="white" stroke-width="0.8952" stroke-miterlimit="10" stroke-linecap="round" stroke-linejoin="round"/>
<path d="M169.247 135.44L169.95 139.171C171.073 145.131 175.911 149.329 181.334 149.049L181.759 149.028C187.154 148.749 191.522 144.118 192.057 138.109L192.347 134.852" stroke="white" stroke-width="0.9124" stroke-miterlimit="10" stroke-linecap="round" stroke-linejoin="round"/>
<path d="M173.47 133.306L187.624 132.619" stroke="white" stroke-width="0.9124" stroke-miterlimit="10" stroke-linecap="round" stroke-linejoin="round"/>
<path d="M182.364 149.133L182.936 160.191" stroke="white" stroke-width="0.9124" stroke-miterlimit="10" stroke-linecap="round" stroke-linejoin="round"/>
<path d="M177.906 160.861L187.325 160.375" stroke="white" stroke-width="0.9124" stroke-miterlimit="10" stroke-linecap="round" stroke-linejoin="round"/>
<path d="M196.031 56.2919L197.817 56.8146C198.238 56.9377 198.243 57.5322 197.823 57.6626L196.08 58.202C193.256 59.0763 191.016 61.2411 190.046 64.0338L189.236 66.3661C189.095 66.7727 188.514 66.7584 188.393 66.3446L187.847 64.4764C186.956 61.4337 184.577 59.0536 181.533 58.1625L179.788 57.6518C179.363 57.5274 179.363 56.9258 179.788 56.8014L181.533 56.2907C184.575 55.3997 186.956 53.0208 187.847 49.9768L188.357 48.2318C188.482 47.8072 189.083 47.8072 189.208 48.2318L189.718 49.9768C190.608 53.0219 192.988 55.4021 196.031 56.2919Z" fill="#A6F4C5"/>
<path d="M232.065 155.029L233.851 155.552C234.272 155.675 234.277 156.27 233.857 156.4L232.114 156.94C229.291 157.814 227.05 159.979 226.08 162.771L225.27 165.104C225.128 165.51 224.547 165.496 224.426 165.082L223.88 163.214C222.989 160.171 220.61 157.791 217.566 156.9L215.821 156.389C215.396 156.265 215.396 155.663 215.821 155.539L217.566 155.028C220.61 154.137 222.989 151.758 223.88 148.714L224.39 146.969C224.515 146.545 225.116 146.545 225.241 146.969L225.752 148.714C226.643 151.758 229.023 154.138 232.065 155.029Z" fill="#FEC84B"/>
<path d="M232.065 242.975L233.851 243.498C234.272 243.621 234.277 244.216 233.857 244.346L232.114 244.885C229.291 245.76 227.05 247.925 226.08 250.717L225.27 253.05C225.128 253.456 224.547 253.442 224.426 253.028L223.88 251.16C222.989 248.116 220.61 245.737 217.566 244.846L215.821 244.335C215.396 244.211 215.396 243.609 215.821 243.485L217.566 242.974C220.61 242.083 222.989 239.704 223.88 236.66L224.39 234.915C224.515 234.491 225.116 234.491 225.241 234.915L225.752 236.66C226.643 239.705 229.023 242.086 232.065 242.975Z" fill="white"/>
<path d="M45.5852 242.975L47.3709 243.498C47.7919 243.621 47.7967 244.216 47.3769 244.346L45.6343 244.885C42.8105 245.76 40.5703 247.925 39.6003 250.717L38.7906 253.05C38.6494 253.456 38.0682 253.442 37.9474 253.028L37.4008 251.16C36.5097 248.116 34.1308 245.737 31.0869 244.846L29.3419 244.335C28.9173 244.211 28.9173 243.609 29.3419 243.485L31.0869 242.974C34.1296 242.083 36.5097 239.704 37.4008 236.66L37.9115 234.915C38.0359 234.491 38.6375 234.491 38.7619 234.915L39.2726 236.66C40.1624 239.705 42.5425 242.086 45.5852 242.975Z" fill="#FEC84B"/>
<path d="M127.425 241.348L129.211 241.87C129.632 241.993 129.637 242.588 129.218 242.718L127.476 243.258C124.652 244.132 122.412 246.297 121.442 249.089L120.632 251.422C120.491 251.828 119.909 251.814 119.789 251.4L119.242 249.532C118.351 246.489 115.972 244.109 112.928 243.218L111.183 242.707C110.759 242.583 110.759 241.981 111.183 241.857L112.928 241.346C115.971 240.455 118.351 238.076 119.242 235.032L119.753 233.287C119.877 232.863 120.479 232.863 120.602 233.287L121.113 235.032C122.003 238.078 124.381 240.457 127.425 241.348Z" fill="white"/>
<path d="M97.9058 28.6061L99.6915 29.1288C100.112 29.252 100.117 29.8464 99.6975 29.9768L97.9548 30.5162C95.131 31.3905 92.8908 33.5553 91.9208 36.348L91.1099 38.6803C90.9688 39.087 90.3875 39.0726 90.2667 38.6588L89.7201 36.7906C88.8291 33.7478 86.4502 31.3677 83.4063 30.4767L81.6612 29.966C81.2366 29.8416 81.2366 29.24 81.6612 29.1156L83.4063 28.6049C86.4502 27.7139 88.8291 25.3349 89.7201 22.291L90.2308 20.546C90.3552 20.1214 90.9568 20.1214 91.0812 20.546L91.5919 22.291C92.483 25.3349 94.8619 27.7151 97.9058 28.6061Z" fill="white"/>
<path d="M45.7886 138.946L47.5743 139.469C47.9953 139.592 48 140.187 47.5802 140.317L45.8376 140.856C43.0138 141.731 40.7736 143.896 39.8036 146.688L38.9927 149.021C38.8516 149.427 38.2703 149.413 38.1495 148.999L37.6029 147.131C36.7119 144.088 34.3329 141.708 31.289 140.817L29.544 140.306C29.1194 140.182 29.1194 139.58 29.544 139.456L31.289 138.945C34.3317 138.054 36.7119 135.675 37.6029 132.631L38.1136 130.886C38.238 130.462 38.8396 130.462 38.964 130.886L39.4747 132.631C40.3658 135.676 42.7459 138.055 45.7886 138.946Z" fill="white"/>
</g>
<defs>
<filter id="filter0_dd_305_15848" x="0.5" y="0.867401" width="254" height="278.265" filterUnits="userSpaceOnUse" color-interpolation-filters="sRGB">
<feFlood flood-opacity="0" result="BackgroundImageFix"/>
<feColorMatrix in="SourceAlpha" type="matrix" values="0 0 0 0 0 0 0 0 0 0 0 0 0 0 0 0 0 0 127 0" result="hardAlpha"/>
<feMorphology radius="2" operator="erode" in="SourceAlpha" result="effect1_dropShadow_305_15848"/>
<feOffset dy="2"/>
<feGaussianBlur stdDeviation="2"/>
<feColorMatrix type="matrix" values="0 0 0 0 0.0627451 0 0 0 0 0.0941176 0 0 0 0 0.156863 0 0 0 0.06 0"/>
<feBlend mode="normal" in2="BackgroundImageFix" result="effect1_dropShadow_305_15848"/>
<feColorMatrix in="SourceAlpha" type="matrix" values="0 0 0 0 0 0 0 0 0 0 0 0 0 0 0 0 0 0 127 0" result="hardAlpha"/>
<feMorphology radius="2" operator="erode" in="SourceAlpha" result="effect2_dropShadow_305_15848"/>
<feOffset dy="4"/>
<feGaussianBlur stdDeviation="4"/>
<feColorMatrix type="matrix" values="0 0 0 0 0.0627451 0 0 0 0 0.0941176 0 0 0 0 0.156863 0 0 0 0.1 0"/>
<feBlend mode="normal" in2="effect1_dropShadow_305_15848" result="effect2_dropShadow_305_15848"/>
<feBlend mode="normal" in="SourceGraphic" in2="effect2_dropShadow_305_15848" result="shape"/>
</filter>
</defs>
</svg>
