<svg width="168" height="168" viewBox="0 0 168 168" fill="none" xmlns="http://www.w3.org/2000/svg">
<g filter="url(#filter0_dd_571_19136)">
<circle cx="84" cy="80" r="78" fill="white"/>
<circle cx="84.0011" cy="80.0004" r="66.5294" fill="#5959F9"/>
<path d="M103.923 124.598L90.9187 126.566L90.7584 126.589L90.4764 126.633L86.2356 127.274H48.9382L46.1151 121.675L31.708 62.4183L32.4931 58.4706L32.6977 58.4429L83.0674 51.985L92.9534 86.4089L96.7629 99.6621L96.962 100.364L97.1887 101.144L98.4825 105.656L103.923 124.598Z" fill="#FFEFE5"/>
<path d="M48.9995 127.274H44.8914L29.3658 60.583L28.9346 58.7307L29.9022 58.6091L32.6501 58.2607L32.6943 58.4432L48.9995 127.274Z" fill="#32D583"/>
<path d="M56.627 61.4143L54.0439 65.104L54.5177 65.4357L57.1008 61.746L56.627 61.4143Z" fill="#FEC84B"/>
<path d="M44.6369 61.8033L44.1348 62.0902L46.2008 65.7058L46.7029 65.4189L44.6369 61.8033Z" fill="#FEC84B"/>
<path d="M37.2254 67.2016L37.0938 67.7642L40.5624 68.576L40.6941 68.0134L37.2254 67.2016Z" fill="#FEC84B"/>
<path d="M46.3607 86.0677L44 89.7579L44.4872 90.0696L46.8479 86.3793L46.3607 86.0677Z" fill="#FEC84B"/>
<path d="M54.4694 87.731L53.9424 87.9652L55.4178 91.2844L55.9448 91.0502L54.4694 87.731Z" fill="#FEC84B"/>
<path d="M60.9555 81.6L60.7354 82.1348L64.4988 83.6842L64.719 83.1494L60.9555 81.6Z" fill="#FEC84B"/>
<path d="M66.2577 74.0575L61.6826 74.8693L61.7836 75.4382L66.3586 74.6264L66.2577 74.0575Z" fill="#FEC84B"/>
<path d="M50.5168 86.1527C55.9373 86.1527 60.3314 81.7585 60.3314 76.3381C60.3314 70.9176 55.9373 66.5234 50.5168 66.5234C45.0963 66.5234 40.7021 70.9176 40.7021 76.3381C40.7021 81.7585 45.0963 86.1527 50.5168 86.1527Z" fill="#FEC84B"/>
<path d="M82.3908 83.0532C79.6639 81.2242 76.2453 78.3651 74.3129 76.702L74.3471 76.6699L72.7973 75.3783C72.7973 75.3783 71.9486 73.6074 71.3216 72.0946C70.6946 70.5819 70.2147 69.4379 68.702 68.1098C67.1892 66.7818 66.4146 67.5934 66.4146 67.5934C66.4146 67.5934 65.6765 66.7447 64.6436 66.8188C63.6108 66.8929 63.1679 67.9998 63.1679 67.9998C63.1679 67.9998 62.5039 67.8522 61.9134 68.0733C61.3229 68.2945 60.1994 69.7768 60.7324 71.2094C61.3229 72.7957 62.0975 73.2756 62.5774 73.3862C63.7601 73.6593 64.2749 73.4968 64.2749 73.4968C63.869 76.0794 65.5294 78.2197 65.5294 78.2197L65.9015 78.6432L65.886 78.6504C65.886 78.6504 66.1321 78.9208 66.5545 79.3863L68.7396 81.8728L68.775 81.8401C70.4851 83.7344 72.773 86.2783 75.135 88.9323C79.9072 94.2944 87.7783 99.0665 87.7783 99.0665L92.2552 87.9973C92.2552 87.9973 86.4248 85.7591 82.3908 83.0532Z" fill="#FECDCA"/>
<path d="M66.3306 76.5792C66.2548 76.5792 66.1813 76.5394 66.1415 76.4692L64.5176 73.5913C64.2793 73.311 62.9966 71.7142 63.3001 70.9678C63.3377 70.8755 63.4146 70.8064 63.5163 70.7743C64.302 70.5316 68.3487 73.0799 69.5712 73.8683C69.6718 73.9336 69.7005 74.0674 69.6359 74.168C69.5706 74.2686 69.4368 74.2979 69.3362 74.2327C66.9968 72.7233 64.2295 71.1762 63.6877 71.1823C63.6153 71.5998 64.3351 72.7006 64.8731 73.3458L66.5191 76.2558C66.5777 76.3603 66.5412 76.4924 66.4373 76.551C66.403 76.5704 66.3665 76.5792 66.3306 76.5792Z" fill="#2C1F40"/>
<path d="M64.5336 71.3154C64.4241 71.3154 64.3301 71.2325 64.318 71.1213C64.0852 68.897 66.2918 67.4815 66.3858 67.4224C66.4876 67.3593 66.6208 67.3892 66.685 67.4904C66.7485 67.5916 66.7187 67.7254 66.617 67.7895C66.5959 67.8028 64.5447 69.1231 64.7492 71.0765C64.7614 71.1954 64.6751 71.3021 64.5563 71.3148C64.5485 71.3154 64.5408 71.3154 64.5336 71.3154Z" fill="#2C1F40"/>
<path d="M64.3107 73.5347C63.1541 73.5347 62.5016 73.1145 62.2031 71.2064C61.9476 69.5715 62.9412 67.9531 62.9832 67.8851C63.0468 67.7834 63.18 67.7535 63.2818 67.8155C63.3835 67.8791 63.4145 68.0129 63.3514 68.114C63.342 68.1295 62.401 69.666 62.631 71.1395C62.9158 72.9608 63.4537 73.1405 64.5231 73.0963C64.6486 73.0825 64.7437 73.1842 64.7486 73.3042C64.7536 73.4236 64.6607 73.5248 64.5407 73.5298C64.4622 73.5331 64.3854 73.5347 64.3107 73.5347Z" fill="#2C1F40"/>
<path d="M65.9608 72.0292C65.9022 72.0292 65.843 72.0054 65.8004 71.9584C65.7203 71.8699 65.7263 71.7328 65.8148 71.6521L67.4381 70.1764C67.5266 70.0957 67.6637 70.1023 67.7444 70.1907C67.8252 70.2792 67.8185 70.4163 67.7301 70.4971L66.1067 71.9728C66.0647 72.0104 66.0127 72.0292 65.9608 72.0292Z" fill="#2C1F40"/>
<path d="M103.03 88.4403L91.8134 86.1772L86.5 100.444L97.9136 107.135L105.096 88.5387L103.03 88.4403Z" fill="#32D583"/>
<path d="M126.319 127.274H119.149L112.514 123.958L105.809 127.274H90.6846C90.7122 127.058 90.7343 126.826 90.762 126.588C91.055 123.901 91.5305 119.937 92.1387 116.398C92.1498 116.327 92.1608 116.26 92.1774 116.194C92.5092 114.253 92.8851 112.445 93.2888 111.068C93.3053 111.019 93.3164 110.969 93.333 110.914C93.6813 109.775 94.2398 108.265 94.9143 106.573C94.9198 106.568 94.9198 106.562 94.9198 106.557C95.0415 106.242 95.1742 105.926 95.3069 105.6C95.8874 104.179 96.5288 102.659 97.1923 101.144V101.138C99.7025 95.3714 102.395 89.693 102.395 89.693L104.811 89.2894L107.355 88.8581C107.36 88.8581 107.36 88.8581 107.36 88.8581L109.257 88.5375L117.689 87.122L117.744 87.111C117.744 87.111 117.755 87.122 117.771 87.1386C118.114 87.5256 121.531 91.4789 123.4 98.6722C124.976 104.738 125.982 121.026 126.319 127.274Z" fill="#32D583"/>
<path d="M119.145 118.991V127.274H105.937V119.063L119.145 118.991Z" fill="#FECDCA"/>
<path d="M98.9744 95.3933C98.9578 95.4264 98.0731 97.3561 96.9673 100.364C96.4144 101.862 95.8062 103.621 95.2201 105.55C95.1206 105.882 95.0211 106.214 94.9216 106.556C94.9216 106.562 94.9216 106.567 94.916 106.573C94.7723 107.082 94.6285 107.601 94.4848 108.127C92.9256 113.938 91.4382 121.789 90.924 126.566C90.8964 126.815 90.8743 127.047 90.8522 127.274H90.4209C90.4375 127.069 90.4596 126.854 90.4817 126.632C90.7692 123.912 91.3774 120.186 92.1404 116.398C92.1515 116.326 92.1626 116.26 92.1791 116.194C92.5385 114.408 92.9311 112.616 93.3347 110.913C93.578 109.907 93.8213 108.934 94.0701 108.011C94.3189 107.087 94.5732 106.186 94.8386 105.323C95.4855 103.184 96.1656 101.249 96.7683 99.6617V99.6562C97.7856 96.9525 98.5652 95.2385 98.5818 95.2108C98.6316 95.1002 98.7587 95.056 98.8693 95.1058C98.9799 95.1555 99.0241 95.2827 98.9744 95.3933Z" fill="#2C1F40"/>
<path d="M122.171 119.281H104.018C103.959 119.281 103.904 119.259 103.864 119.217C103.823 119.176 103.801 119.12 103.801 119.063C103.807 118.226 104.061 98.5599 113.747 98.038C113.863 98.0286 113.969 98.1231 113.975 98.2431C113.982 98.3626 113.89 98.4648 113.77 98.4715C105.018 98.9431 104.294 116.665 104.239 118.848H122.171C122.291 118.848 122.388 118.946 122.388 119.065C122.388 119.184 122.291 119.281 122.171 119.281Z" fill="#2C1F40"/>
<path d="M117.371 56.1114C118.49 53.6659 122.171 51.9193 125.843 52.0913C129.514 52.2632 132.827 54.3372 133.468 56.8651C133.503 57.0038 133.533 57.1465 133.632 57.2692C133.88 57.5777 134.454 57.6518 134.941 57.7514C137.23 58.218 138.7 59.9232 138.737 61.5869C138.776 63.2506 137.615 64.8346 136.064 66.0986C136.824 66.2827 137.487 66.6283 138.046 67.0324C140.261 68.6359 140.772 71.2434 139.338 73.2327C137.904 75.2221 134.664 76.4838 131.477 76.3578C131.427 76.3555 131.297 76.4125 131.248 76.4125H117.921C119.555 71.0963 120.538 65.6176 118.618 60.3478C118.244 59.3222 117.75 58.3181 117.143 57.3488L117.371 56.1114Z" fill="#2C1F40"/>
<path d="M102.394 88.0719V89.6953C102.394 89.6953 103.648 91.0233 106.747 90.8763C109.846 90.7286 117.742 87.1126 117.742 87.1126L117.299 83.349L102.394 88.0719Z" fill="#FECDCA"/>
<path d="M123.453 71.5914C123.453 63.1552 116.614 56.3163 108.178 56.3163C99.7414 56.3163 92.9025 63.1552 92.9025 71.5914C92.9025 71.9718 92.9213 72.3478 92.9484 72.7216L92.9025 72.7968C92.9025 72.7968 92.6073 86.0798 96.1492 87.3586C99.6911 88.6375 110.514 90.5075 112.088 86.4729C112.104 86.4309 112.121 86.3877 112.137 86.3452C118.653 84.6008 123.453 78.6576 123.453 71.5914Z" fill="#FECDCA"/>
<path d="M102.9 79.7897C102.9 81.6978 101.353 83.2448 99.4453 83.2448C97.5373 83.2448 95.9902 81.6978 95.9902 79.7897C95.9902 77.8816 97.5373 76.3346 99.4453 76.3346C101.353 76.3346 102.9 77.8816 102.9 79.7897Z" fill="#F97066"/>
<path d="M97.507 59.5206C97.507 59.5206 95.8809 62.1811 96.9894 64.9899C98.098 67.7981 100.611 68.8332 100.611 68.8332C100.611 68.8332 98.6896 72.4547 99.8717 75.2629C101.054 78.0711 104.193 80.4724 104.193 80.4724C104.193 80.4724 104.749 74.7454 108.889 76.5932C113.027 78.441 111.106 81.7667 110.366 82.8012L117.757 87.1614C117.757 87.1614 128.178 76.5926 125.887 66.0979C124.659 60.4743 121.526 59.8899 121.526 59.8899C121.526 59.8899 118.126 54.6423 110.219 54.9381C102.311 55.2339 97.507 59.5206 97.507 59.5206Z" fill="#2C1F40"/>
<path d="M107.899 75.7819C109.646 75.2998 111.772 76.0009 112.547 77.6402C112.796 78.1672 112.899 78.7549 112.904 79.3377C112.919 80.8388 112.279 82.3355 111.183 83.3617C110.087 84.3879 108.551 84.9275 107.054 84.8131C106.494 84.7705 105.93 84.6356 105.461 84.3276C104.708 83.8328 104.287 82.9432 104.155 82.0513C103.991 80.9433 103.921 79.2802 104.554 78.3148C105.321 77.1437 106.541 76.1562 107.899 75.7819Z" fill="#FECDCA"/>
<path d="M106.103 81.9182C106.078 81.9182 106.053 81.9138 106.028 81.9049C105.916 81.8635 105.858 81.7385 105.899 81.6263C106.788 79.2106 109.108 77.4463 111.674 77.2368C111.793 77.2257 111.898 77.3158 111.908 77.4353C111.918 77.5547 111.829 77.6592 111.709 77.6691C109.347 77.8621 107.125 79.5507 106.307 81.7761C106.275 81.864 106.192 81.9182 106.103 81.9182Z" fill="#2C1F40"/>
<path d="M109.833 81.7607C109.723 81.7607 109.628 81.6778 109.617 81.5661C109.566 81.0613 109.32 80.5769 108.945 80.2364C108.569 79.8958 108.063 79.7 107.556 79.6984C107.436 79.6984 107.339 79.6005 107.339 79.4805C107.339 79.3606 107.436 79.2638 107.556 79.2638H107.557C108.17 79.2655 108.782 79.5026 109.236 79.914C109.691 80.3259 109.987 80.9114 110.049 81.5213C110.061 81.6407 109.975 81.7474 109.855 81.7596C109.847 81.7607 109.84 81.7607 109.833 81.7607Z" fill="#2C1F40"/>
<path d="M93.3615 81.5638C93.2648 81.5638 93.1768 81.4985 93.1514 81.4007C93.1215 81.2846 93.1918 81.1662 93.3079 81.1364C94.0991 80.9335 94.8372 80.5359 95.4415 79.9858C95.53 79.905 95.6671 79.9111 95.7484 80.0001C95.8291 80.0886 95.8225 80.2263 95.734 80.307C95.0772 80.9047 94.2755 81.3371 93.4157 81.5571C93.398 81.5616 93.3798 81.5638 93.3615 81.5638Z" fill="#2C1F40"/>
<path d="M95.5111 76.7774C95.9395 76.7774 96.2868 76.215 96.2868 75.5212C96.2868 74.8274 95.9395 74.265 95.5111 74.265C95.0827 74.265 94.7354 74.8274 94.7354 75.5212C94.7354 76.215 95.0827 76.7774 95.5111 76.7774Z" fill="#2C1F40"/>
<path d="M96.8774 72.5594C96.8332 72.5594 96.789 72.5461 96.7503 72.518C96.2598 72.1624 95.5455 72.1176 95.0147 72.4085C94.908 72.4654 94.7775 72.4273 94.72 72.3222C94.6625 72.2172 94.7012 72.085 94.8062 72.0275C95.4902 71.6543 96.3737 71.7096 97.0052 72.1669C97.1019 72.2371 97.124 72.3725 97.0533 72.4698C97.0112 72.5285 96.9449 72.5594 96.8774 72.5594Z" fill="#2C1F40"/>
<path d="M54.1614 73.5137C53.5112 72.6783 52.5336 72.1049 51.487 71.9462C50.1611 71.745 48.8021 72.1967 47.6736 72.9204C46.5445 73.6442 45.609 74.6262 44.6846 75.5982C45.1556 76.9174 46.6883 77.5715 48.0849 77.6804C49.4816 77.7893 50.8738 77.2032 51.937 76.2915C53.0003 75.3792 53.567 74.7821 54.1614 73.5137Z" fill="#F97066"/>
<path d="M63.527 71.7347C63.6425 72.0875 63.8565 72.5265 64.1108 72.9777L53.625 74.4921L53.573 74.4982C53.0815 74.5673 52.6308 74.2267 52.5612 73.7407C52.486 73.2491 52.8271 72.7924 53.3187 72.7233C53.3242 72.7233 53.3358 72.7233 53.3419 72.7178H53.359L63.527 71.7347Z" fill="#2C1F40"/>
<path d="M82.458 70.1221C82.4696 70.2377 82.3889 70.3361 82.2728 70.3532L67.1624 72.5383C66.7173 72.2552 66.0931 71.8676 65.4805 71.5442L82.2208 69.9258C82.3425 69.9142 82.4464 70.001 82.458 70.1221Z" fill="#2C1F40"/>
<path d="M44.1022 45.9713C42.9438 44.9938 42.6552 43.2388 43.1285 41.7985C43.6012 40.3582 44.7093 39.2043 45.9456 38.3268C47.3848 37.3056 49.1231 36.578 50.8808 36.7427C52.6385 36.9075 54.3613 38.1449 54.6892 39.8794C54.8225 40.5854 54.6345 41.4552 53.9749 41.7394C53.3993 41.9876 52.6954 41.6509 52.3659 41.1173C52.0364 40.5838 52.0098 39.9159 52.0917 39.2944C52.33 37.4726 53.4712 35.7774 55.1006 34.9292C56.7305 34.0811 58.81 34.1325 60.3615 35.1167C61.9129 36.1003 62.8512 38.0006 62.6256 39.8235C62.5891 40.1182 62.5084 40.4356 62.2707 40.6131C61.9168 40.8768 61.37 40.6767 61.1322 40.3051C60.8945 39.933 60.8928 39.4597 60.9459 39.0218C61.224 36.7179 62.896 34.6389 65.0872 33.8737C67.2778 33.1085 69.8809 33.6946 71.5324 35.3245C73.1839 36.9545 73.8043 39.5493 73.0684 41.7504C72.4242 43.6762 70.8418 45.2033 68.999 46.057C67.1561 46.9107 65.0733 47.1413 63.0464 47.0235C60.4389 46.8725 57.8955 46.1704 55.3029 45.853C53.1383 45.5876 51.0572 45.691 48.9771 46.3594C47.3992 46.8665 45.4889 47.1413 44.1022 45.9713Z" stroke="#FEC84B" stroke-width="1.0455" stroke-miterlimit="10"/>
<path d="M97.6628 48.3472C95.6243 48.6845 93.4336 48.8116 91.5853 47.8883C90.1057 47.1496 88.9794 45.7602 88.5023 44.1772C88.0251 42.5937 88.1888 40.8382 88.8943 39.3426C89.7342 37.5617 91.4587 36.1119 93.4254 36.0113C95.392 35.9107 97.4212 37.4566 97.4859 39.4244C97.5135 40.2587 96.8932 41.275 96.087 41.0571C95.4656 40.8896 95.2488 40.1194 95.2367 39.4764C95.1869 36.7826 97.0281 34.1591 99.5786 33.2899C102.129 32.4207 105.189 33.3751 106.795 35.5391C107.785 36.8744 108.179 38.8477 107.171 40.1697C106.91 40.5114 106.542 40.8028 106.114 40.8459C105.303 40.9283 104.644 40.0354 104.721 39.2242C104.796 38.4131 105.394 37.7408 106.059 37.2703C107.775 36.0561 110.155 35.8515 112.053 36.7544C113.952 37.6573 115.295 39.6317 115.437 41.7295C115.498 42.6373 115.344 43.5706 114.911 44.3713C113.881 46.276 111.56 47.0462 109.421 47.3885C107.445 47.7047 105.503 47.7279 103.511 47.6561C101.523 47.5831 99.6129 48.0249 97.6628 48.3472Z" stroke="#FEC84B" stroke-width="1.0455" stroke-miterlimit="10"/>
</g>
<defs>
<filter id="filter0_dd_571_19136" x="0" y="0" width="168" height="168" filterUnits="userSpaceOnUse" color-interpolation-filters="sRGB">
<feFlood flood-opacity="0" result="BackgroundImageFix"/>
<feColorMatrix in="SourceAlpha" type="matrix" values="0 0 0 0 0 0 0 0 0 0 0 0 0 0 0 0 0 0 127 0" result="hardAlpha"/>
<feMorphology radius="2" operator="erode" in="SourceAlpha" result="effect1_dropShadow_571_19136"/>
<feOffset dy="2"/>
<feGaussianBlur stdDeviation="2"/>
<feColorMatrix type="matrix" values="0 0 0 0 0.0627451 0 0 0 0 0.0941176 0 0 0 0 0.156863 0 0 0 0.06 0"/>
<feBlend mode="normal" in2="BackgroundImageFix" result="effect1_dropShadow_571_19136"/>
<feColorMatrix in="SourceAlpha" type="matrix" values="0 0 0 0 0 0 0 0 0 0 0 0 0 0 0 0 0 0 127 0" result="hardAlpha"/>
<feMorphology radius="2" operator="erode" in="SourceAlpha" result="effect2_dropShadow_571_19136"/>
<feOffset dy="4"/>
<feGaussianBlur stdDeviation="4"/>
<feColorMatrix type="matrix" values="0 0 0 0 0.0627451 0 0 0 0 0.0941176 0 0 0 0 0.156863 0 0 0 0.1 0"/>
<feBlend mode="normal" in2="effect1_dropShadow_571_19136" result="effect2_dropShadow_571_19136"/>
<feBlend mode="normal" in="SourceGraphic" in2="effect2_dropShadow_571_19136" result="shape"/>
</filter>
</defs>
</svg>
