<svg width="25" height="26" viewBox="0 0 25 26" fill="none" xmlns="http://www.w3.org/2000/svg">
<path d="M3.38609 3.25118C2.47749 3.35902 1.80961 4.01379 1.67889 4.91938C1.48275 6.27824 1.25781 8.78288 1.25781 13.1238C1.25781 17.047 1.35988 19.4703 1.45997 20.9034C1.53924 22.0386 2.34833 22.908 3.48044 23.0221C4.53913 23.1287 6.11051 23.2253 8.32891 23.2253C10.5473 23.2253 12.1187 23.1287 13.1774 23.0221C14.3095 22.908 15.1186 22.0386 15.1978 20.9034C15.2979 19.4703 15.4 17.047 15.4 13.1238C15.4 9.20058 15.2979 6.77726 15.1978 5.3441C15.1186 4.20901 14.3095 3.33951 13.1774 3.22548C12.1187 3.11884 10.5473 3.02222 8.32891 3.02222C5.93328 3.02222 4.36585 3.13489 3.38609 3.25118Z" fill="#C1C1FD"/>
<path d="M19.1398 17.7451C18.3775 18.3866 17.4359 17.9666 17.3804 16.9682C17.3496 16.4154 17.3227 15.7182 17.3066 14.8445C12.986 14.8008 9.62156 14.6992 8.04713 14.6445C7.49907 14.6254 7.07031 14.1726 7.07031 13.6207V12.4871C7.07031 11.9436 7.4866 11.4948 8.02602 11.4666C9.59136 11.3848 12.9665 11.2313 17.3064 11.1654C17.3225 10.2872 17.3495 9.58681 17.3803 9.03193C17.4359 8.03339 18.3778 7.61332 19.1402 8.25497C19.5945 8.63731 20.1546 9.13345 20.8289 9.77146C21.9593 10.841 22.6082 11.6448 22.9749 12.1829C23.3188 12.6873 23.3188 13.3122 22.9749 13.8166C22.6081 14.3546 21.9592 15.1584 20.8289 16.228C20.1544 16.8663 19.5942 17.3627 19.1398 17.7451Z" fill="#2626C6"/>
</svg>
