<svg width="25" height="26" viewBox="0 0 25 26" fill="none" xmlns="http://www.w3.org/2000/svg">
<path d="M22.2227 13C22.2227 18.579 17.7 23.1016 12.1211 23.1016C6.54215 23.1016 2.01953 18.579 2.01953 13C2.01953 7.42109 6.54215 2.89847 12.1211 2.89847C17.7 2.89847 22.2227 7.42109 22.2227 13Z" fill="#C1C1FD"/>
<path d="M14.5055 17.4531C16.092 16.6014 17.1708 14.9267 17.1708 13C17.1708 10.2106 14.9094 7.94925 12.12 7.94925C9.33056 7.94925 7.06922 10.2106 7.06922 13C7.06922 14.9268 8.14807 16.6015 9.73462 17.4532C8.03367 18.0626 6.63425 19.3052 5.82031 20.897C7.54763 22.2768 9.73755 23.1016 12.1201 23.1016C14.5027 23.1016 16.6926 22.2768 18.4198 20.897C17.606 19.3052 16.2064 18.0625 14.5055 17.4531Z" fill="#2626C6"/>
</svg>
