<svg width="201" height="201" viewBox="0 0 201 201" fill="none" xmlns="http://www.w3.org/2000/svg">
<g filter="url(#filter0_dd_149_4158)">
<mask id="mask0_149_4158" style="mask-type:alpha" maskUnits="userSpaceOnUse" x="6" y="2" width="189" height="189">
<circle cx="100.273" cy="96.2734" r="94.2734" fill="#D9D9D9"/>
</mask>
<g mask="url(#mask0_149_4158)">
<g filter="url(#filter1_dd_149_4158)">
<circle cx="100.273" cy="96.2734" r="94.2734" fill="white"/>
<circle cx="99.8201" cy="95.8201" r="83.8489" fill="#5959F9"/>
<path d="M186.713 100.455C183.755 97.8685 181.159 94.901 178.979 91.6395C178.296 90.61 177.638 89.5372 177.007 88.499C175.631 86.2324 174.204 83.8965 172.378 81.8894C171.712 81.154 171.003 80.4965 170.267 79.9169C170.285 79.2161 170.259 78.5067 170.172 77.78C169.739 74.0772 168.139 70.6426 166.59 67.3205L166.227 66.5419C164.601 63.0554 163.026 59.3353 163.035 55.4681C163.061 49.5073 166.902 44.5328 171.946 41.2972C171.755 41.0636 171.565 40.83 171.375 40.5964C166.141 43.9964 162.152 49.2132 162.135 55.4681C162.118 59.517 163.744 63.3495 165.405 66.9312L165.769 67.7011C167.291 70.9627 168.857 74.3281 169.272 77.8838C169.333 78.351 169.359 78.8095 169.367 79.2594C166.893 77.5897 164.194 76.8283 161.694 77.1657C159.462 77.4685 157.307 78.9133 156.079 80.9377C155.058 82.6248 154.825 84.4588 155.421 86.1026C156.027 87.7896 157.429 89.0527 159.358 89.667C161.633 90.385 164.194 90.039 166.037 88.7499C168.338 87.1408 169.826 84.2858 170.189 81.0242C170.717 81.4655 171.219 81.9586 171.712 82.495C173.477 84.4415 174.878 86.7428 176.237 88.9662C176.868 90.013 177.534 91.1031 178.226 92.1412C180.45 95.472 183.106 98.5 186.117 101.139C187.483 102.35 189.101 103.604 190.996 104.253V103.293C189.369 102.661 187.942 101.537 186.713 100.455ZM165.518 88.0059C163.908 89.1392 161.65 89.442 159.626 88.8018C157.974 88.2827 156.78 87.21 156.269 85.7911C155.768 84.4069 155.975 82.8497 156.849 81.4049C157.939 79.6054 159.842 78.325 161.815 78.0568C162.161 78.0136 162.516 77.9876 162.87 77.9876C165.007 77.9876 167.274 78.8268 169.342 80.3494C169.134 83.5937 167.741 86.4573 165.518 88.0059Z" fill="#32D583"/>
<path d="M51.2062 167.547C51.2668 170.973 50.6265 174.623 49.2769 178.568H48.3166C49.7182 174.571 50.3756 170.877 50.2978 167.443C50.2805 166.361 50.1853 165.306 50.021 164.276C49.9777 163.982 49.9171 163.688 49.8479 163.394C49.822 163.247 49.7873 163.091 49.7527 162.944C49.3461 161.292 48.68 159.639 47.7976 158.091C47.7197 157.935 47.6245 157.779 47.5294 157.623C46.5691 156.023 45.3665 154.552 43.9736 153.324C41.4561 151.092 38.3243 149.664 34.8378 149.751C34.3706 149.759 33.8862 149.785 33.3844 149.811C30.192 149.976 26.5758 150.157 25.4597 147.19C25.0704 146.16 25.1916 145.036 25.3646 144.067C25.9356 140.883 27.164 137.846 28.3493 134.905C29.448 132.18 30.5813 129.368 31.1696 126.47C32.3462 120.717 31.2908 114.773 28.2801 110.162C26.1605 106.927 23.0546 104.418 19.5854 103.033V102.064C23.3661 103.492 26.7488 106.174 29.0414 109.669C32.1819 114.479 33.2806 120.665 32.0607 126.652C31.4465 129.628 30.2958 132.483 29.1885 135.242C28.0205 138.141 26.8094 141.134 26.2557 144.231C26.0999 145.114 25.9961 146.048 26.2989 146.87C27.19 149.223 30.3131 149.059 33.3411 148.912C33.8429 148.886 34.3447 148.86 34.8119 148.842H35.1406C39.1462 148.842 42.7106 150.711 45.4444 153.479C46.6988 154.734 47.7716 156.187 48.6367 157.736C48.7232 157.883 48.8097 158.039 48.8876 158.194C49.7181 159.752 50.3324 161.395 50.7044 163.039C50.739 163.186 50.765 163.333 50.7996 163.48C50.8428 163.697 50.8774 163.913 50.912 164.129C51.0937 165.245 51.1889 166.387 51.2062 167.547Z" fill="#32D583"/>
<path d="M67.3958 36.917C39.1676 46.7104 24.1675 77.4808 33.8405 105.75L41.4053 127.858C50.8045 155.328 80.0537 170.642 107.984 162.716C138.719 153.995 155.438 120.869 144.197 90.9633L135.976 69.091C125.622 41.5446 95.1982 27.2715 67.3958 36.917Z" fill="#1D1D95"/>
<path d="M72.1087 35.1502C43.8807 44.9437 28.8807 75.714 38.5536 103.984L46.118 126.091C55.5172 153.561 84.7662 168.874 112.697 160.949C143.432 152.228 160.151 119.102 148.91 89.1961L140.689 67.3242C130.335 39.7775 99.9112 25.5044 72.1087 35.1502Z" fill="#D6D6FE"/>
<path d="M136.484 136.112C136.483 136.109 136.483 136.106 136.483 136.103C136.483 136.1 136.482 136.098 136.482 136.095C136.411 135.85 136.331 135.608 136.242 135.368C135.397 133.076 135.292 130.444 135.752 128.045C135.87 127.427 135.929 126.793 135.929 126.141C135.929 123.286 134.908 120.847 132.875 118.805C131.105 116.979 128.948 115.984 126.405 115.819C125.897 115.786 125.393 115.897 124.925 116.097L123.142 116.876L122.489 117.159C122.486 117.161 122.483 117.161 122.481 117.161C122.478 117.161 122.475 117.162 122.472 117.163L121.04 117.775L119.489 118.447C116.095 119.916 114.912 114.941 111.394 116.08C110.797 116.27 110.373 116.599 110.122 117.066C109.871 117.533 109.724 117.94 109.672 118.286C109.629 118.632 109.603 119.186 109.603 119.93V146.022C109.603 146.619 109.612 147.069 109.629 147.363C109.646 147.666 109.724 148.029 109.863 148.47C110.001 148.912 110.217 149.24 110.494 149.457C110.78 149.673 111.186 149.863 111.723 150.019C112.25 150.175 112.925 150.253 113.738 150.253H126.101C129.077 150.253 131.638 149.154 133.766 146.965C135.799 144.932 136.855 142.345 136.915 139.205C136.915 138.125 136.769 137.097 136.484 136.112ZM125.634 141.939C121.377 141.939 117.926 138.487 117.926 134.23V130.856C117.926 127.134 120.943 124.117 124.665 124.117C125.617 124.134 126.343 124.29 126.837 124.584C127.347 124.904 127.607 125.562 127.607 126.565C127.607 127.127 127.555 127.569 127.442 127.906C127.416 127.993 127.382 128.07 127.338 128.148C127.226 128.356 127.079 128.503 126.88 128.607C126.612 128.745 126.369 128.832 126.153 128.866C125.928 128.901 125.617 128.91 125.21 128.91C123.86 128.91 122.9 129.135 122.321 129.567C121.741 130.008 121.447 130.891 121.447 132.206C121.447 133.616 121.732 134.542 122.295 134.974C122.857 135.415 123.757 135.632 124.976 135.632C125.599 135.632 126.075 135.658 126.387 135.701C126.698 135.753 127.061 135.865 127.468 136.038C127.875 136.211 128.16 136.514 128.333 136.955C128.506 137.388 128.593 137.968 128.593 138.694C128.593 139.447 128.489 140.061 128.264 140.546C128.048 141.03 127.745 141.359 127.347 141.532C126.958 141.705 126.655 141.817 126.43 141.861C126.214 141.913 125.945 141.939 125.634 141.939Z" fill="#2C1F40"/>
<path d="M131.87 133.253C131.316 132.367 131.269 131.242 131.709 130.295C132.311 128.998 132.614 127.613 132.614 126.141C132.614 123.286 131.593 120.847 129.56 118.805C128.236 117.438 126.688 116.538 124.923 116.097C124.101 115.898 123.236 115.794 122.319 115.794H110.475C109.471 115.794 108.667 115.889 108.078 116.08C107.481 116.27 107.058 116.599 106.807 117.066C106.556 117.533 106.409 117.94 106.357 118.286C106.314 118.632 106.288 119.186 106.288 119.93V146.022C106.288 146.619 106.296 147.069 106.314 147.363C106.331 147.666 106.409 148.029 106.547 148.471C106.686 148.912 106.902 149.24 107.179 149.457C107.464 149.673 107.871 149.863 108.407 150.019C108.935 150.175 109.61 150.253 110.423 150.253H122.786C125.762 150.253 128.323 149.154 130.451 146.965C132.493 144.932 133.539 142.345 133.6 139.205C133.6 137.059 133.02 135.07 131.87 133.253ZM122.319 141.939C118.061 141.939 114.61 138.488 114.61 134.23V130.701C114.61 127.065 117.558 124.117 121.194 124.117C122.223 124.117 123.002 124.273 123.521 124.584C124.032 124.904 124.291 125.562 124.291 126.565C124.291 127.128 124.239 127.569 124.127 127.906C124.023 128.235 123.833 128.469 123.564 128.607C123.296 128.745 123.054 128.832 122.838 128.867C122.613 128.901 122.301 128.91 121.895 128.91C120.545 128.91 119.585 129.135 119.005 129.567C118.425 130.009 118.131 130.891 118.131 132.206C118.131 133.616 118.417 134.542 118.979 134.974C119.541 135.416 120.441 135.632 121.661 135.632C122.284 135.632 122.76 135.658 123.071 135.701C123.383 135.753 123.746 135.865 124.153 136.038C124.559 136.212 124.853 136.514 125.018 136.956C125.191 137.388 125.277 137.968 125.277 138.694C125.277 139.447 125.174 140.061 124.949 140.546C124.732 141.03 124.43 141.359 124.032 141.532C123.642 141.705 123.339 141.818 123.115 141.861C122.898 141.913 122.63 141.939 122.319 141.939Z" fill="#FEC84B"/>
<path d="M128.289 90.593C128.012 89.9615 127.346 89.278 126.273 88.5513C124.543 87.3834 123.228 87.0027 122.337 87.3834C122.051 87.5132 121.679 87.8506 121.221 88.4042C121.039 88.6205 120.849 88.8628 120.641 89.1483L120.459 89.4338L120.105 90.0394C119.862 90.42 119.395 90.8959 118.703 91.4755C118.011 92.0465 117.224 92.5223 116.333 92.9116C115.467 93.2836 114.49 93.5172 113.408 93.6124C113.339 93.621 113.261 93.621 113.183 93.6297C112.163 93.6989 111.116 93.6124 110.017 93.3615C108.849 93.1019 107.724 92.5223 106.652 91.6226C105.579 90.7228 104.722 89.5376 104.091 88.0755C103.468 86.6307 103.191 85.2119 103.269 83.819C103.347 82.4175 103.684 81.215 104.29 80.1941C104.887 79.1819 105.596 78.3081 106.401 77.5641C107.205 76.8201 108.053 76.2578 108.944 75.8771C108.988 75.8598 109.022 75.8425 109.065 75.8252C111.038 74.9947 112.82 74.8043 114.412 75.2455C114.473 75.2542 114.533 75.2628 114.585 75.2715C115.718 75.4705 116.532 75.4532 117.025 75.2455C117.916 74.8562 118.582 73.645 119.032 71.6033C119.274 70.5046 119.239 69.6049 118.928 68.8781C118.746 68.4542 118.443 68.0995 118.037 67.8313C117.63 67.5631 117.25 67.3814 116.878 67.2863C116.514 67.1911 116.004 67.096 115.346 67.0008L114.049 66.8451C113.149 66.7239 111.903 66.7586 110.329 66.9489C109.065 67.1046 107.872 67.3728 106.756 67.7881C106.479 67.8832 106.21 67.9957 105.942 68.1082C104.619 68.6791 103.321 69.4578 102.049 70.4354C100.786 71.413 99.5835 72.6328 98.4415 74.0949C97.2996 75.5656 96.4085 77.1488 95.7596 78.8445C95.1108 80.5488 94.808 82.4694 94.8512 84.615C94.9031 86.7692 95.4049 88.9493 96.3566 91.164C97.3428 93.4393 98.6319 95.36 100.224 96.9432C101.816 98.5264 103.468 99.677 105.172 100.386C105.856 100.672 106.548 100.914 107.249 101.113C107.301 101.13 107.344 101.139 107.396 101.156C107.567 101.208 107.73 101.251 107.902 101.294C107.905 101.294 107.908 101.295 107.911 101.295C107.913 101.295 107.916 101.295 107.919 101.296C108.774 101.503 109.629 101.667 110.51 101.762C110.804 101.797 111.098 101.823 111.384 101.84C111.626 101.866 111.86 101.874 112.093 101.892C113.27 101.935 114.386 101.883 115.424 101.727C115.485 101.719 115.545 101.71 115.606 101.701C116.168 101.615 116.722 101.502 117.25 101.364C117.431 101.329 117.613 101.277 117.786 101.234C117.895 101.201 118.004 101.175 118.106 101.134C118.112 101.132 118.118 101.13 118.125 101.13C118.13 101.13 118.134 101.13 118.139 101.128C118.301 101.077 118.463 101.026 118.625 100.966C119.04 100.836 119.438 100.681 119.828 100.516C121.298 99.8759 122.665 99.0108 123.928 97.9121C125.2 96.822 126.005 96.0261 126.359 95.533C126.706 95.0399 126.974 94.6505 127.155 94.365C127.735 93.5691 128.133 92.8857 128.341 92.3147C128.557 91.7437 128.539 91.1727 128.289 90.593Z" fill="#2C1F40"/>
<path d="M124.95 91.4062C124.673 90.7746 123.998 90.0912 122.934 89.3558C122.311 88.9405 121.74 88.6204 121.221 88.4041C120.313 88.0148 119.569 87.9456 118.998 88.1965C118.591 88.3695 118.029 88.9578 117.302 89.9527L117.12 90.2383L116.766 90.8525C116.523 91.2332 116.056 91.709 115.364 92.28C114.724 92.8077 113.989 93.2576 113.184 93.6296C113.123 93.6555 113.054 93.6901 112.994 93.7161C112.129 94.0881 111.151 94.3303 110.07 94.4168C108.979 94.512 107.855 94.4342 106.678 94.1746C105.51 93.9151 104.386 93.3354 103.313 92.427C102.24 91.5273 101.384 90.3421 100.743 88.88C100.12 87.4439 99.8523 86.025 99.9301 84.6235C100.008 83.222 100.345 82.0194 100.942 81.0072C101.548 79.995 102.257 79.1126 103.062 78.3686C103.867 77.6332 104.714 77.0709 105.605 76.6816C106.825 76.1452 107.985 75.8597 109.066 75.8251C109.767 75.7991 110.433 75.877 111.073 76.05C112.293 76.2749 113.167 76.2749 113.686 76.05C114.023 75.9116 114.317 75.6434 114.586 75.2714C115.044 74.6485 115.407 73.6882 115.693 72.4078C115.935 71.3177 115.901 70.4093 115.589 69.6913C115.399 69.2587 115.105 68.904 114.698 68.6358C114.291 68.3763 113.902 68.1859 113.539 68.0908C113.175 67.9956 112.665 67.9004 112.007 67.8052L110.71 67.6495C109.801 67.5371 108.564 67.563 106.99 67.7533C106.912 67.762 106.834 67.7707 106.756 67.788C105.268 67.9869 103.884 68.3589 102.595 68.9126C101.271 69.4836 99.982 70.2622 98.7103 71.2398C97.4472 72.2174 96.2446 73.4373 95.1027 74.908C93.9607 76.3701 93.0696 77.9533 92.4207 79.6576C91.7719 81.3533 91.4691 83.2739 91.5124 85.4281C91.5556 87.5736 92.0574 89.7538 93.0177 91.9685C94.0039 94.2438 95.293 96.1731 96.8848 97.7563C98.4767 99.3308 100.12 100.481 101.833 101.191C103.538 101.9 105.32 102.359 107.171 102.566C107.301 102.584 107.431 102.592 107.552 102.601C107.639 102.618 107.725 102.627 107.812 102.627C107.976 102.644 108.14 102.662 108.305 102.67C109.507 102.739 110.649 102.714 111.713 102.584C111.904 102.566 112.085 102.532 112.267 102.506C112.328 102.497 112.388 102.489 112.449 102.471C113.513 102.298 114.499 102.056 115.425 101.727C115.788 101.606 116.143 101.468 116.489 101.321C116.766 101.2 117.034 101.078 117.293 100.94C117.379 100.897 117.464 100.855 117.549 100.812C117.552 100.811 117.554 100.81 117.557 100.81C117.56 100.81 117.563 100.809 117.566 100.808C117.657 100.758 117.733 100.707 117.817 100.657C117.82 100.655 117.823 100.654 117.826 100.654C117.828 100.654 117.831 100.654 117.833 100.653C117.884 100.627 117.926 100.602 117.968 100.577C118.885 100.058 119.759 99.4433 120.59 98.7252C121.853 97.6265 122.666 96.8306 123.012 96.3375C123.367 95.8443 123.635 95.455 123.817 95.1695C124.396 94.3736 124.785 93.6901 125.002 93.1191C125.218 92.5482 125.201 91.9772 124.95 91.4062Z" fill="#F97066"/>
<path d="M166.261 136.021C173.396 128.747 172.895 116.953 165.082 110.412C156.359 103.109 146.513 95.0586 144.428 94.14C143.249 93.6205 142.159 93.637 141.213 93.9131C138.764 94.627 135.587 95.2849 133.204 96.1926C132.746 96.3669 132.275 96.6221 131.802 96.9832C130.01 98.3501 129.046 99.4759 126.867 100.051C125.019 100.539 121.691 103.079 120.015 102.159L112.395 97.9777C110.948 97.2086 109.158 97.5763 108.134 98.855C107.032 100.229 107.158 102.215 108.424 103.439C115.362 110.145 120.698 118.275 126.051 126.302C127.52 128.504 129.093 130.581 130.642 132.132C136.348 137.845 143.195 137.383 145.876 140.058C150.525 144.696 158.103 144.339 162.7 139.651L166.261 136.021Z" fill="#FECDCA"/>
<path d="M129.361 100.325C129.22 100.251 129.152 100.083 129.206 99.9287C129.25 99.8024 130.314 96.8376 133.094 95.8064C135.492 94.917 139.132 97.1127 141.79 98.7115C142.268 98.9996 142.712 99.2678 143.109 99.4919C143.265 99.581 143.32 99.7808 143.231 99.9383C143.142 100.095 142.961 100.14 142.786 100.061C142.386 99.8344 141.937 99.5637 141.454 99.2721C138.911 97.7382 135.424 95.6385 133.322 96.4189C130.835 97.342 129.833 100.117 129.823 100.145C129.763 100.315 129.577 100.405 129.406 100.345C129.39 100.339 129.374 100.333 129.361 100.325Z" fill="#2C1F40"/>
<path d="M122.637 104.242C122.483 104.16 122.42 103.972 122.496 103.813C122.596 103.603 124.998 98.6665 128.407 99.6217C131.603 100.514 138.431 104.913 138.719 105.1C138.87 105.197 138.914 105.4 138.816 105.552C138.719 105.704 138.512 105.75 138.365 105.649C138.295 105.604 131.331 101.12 128.232 100.251C125.35 99.4452 123.109 104.049 123.087 104.095C123.009 104.259 122.813 104.328 122.651 104.249C122.645 104.247 122.641 104.245 122.637 104.242Z" fill="#2C1F40"/>
<path d="M129.753 123.91C129.729 123.897 129.705 123.881 129.685 123.86L108.836 104.457C107.512 103.155 106.98 101.59 107.369 100.16C107.748 98.7684 108.921 97.6999 110.507 97.3028C110.906 97.2025 111.277 97.1731 111.612 97.2137C113.389 97.4369 132.209 109.275 134.349 110.625C134.503 110.722 134.548 110.924 134.451 111.077C134.355 111.229 134.158 111.262 134.001 111.179C125.645 105.911 112.769 98.0174 111.531 97.8626C111.282 97.8323 110.982 97.8574 110.667 97.9361C109.313 98.2752 108.317 99.1715 108 100.333C107.669 101.546 108.127 102.843 109.288 103.984L130.129 123.382C130.262 123.504 130.269 123.711 130.147 123.843C130.043 123.954 129.881 123.978 129.753 123.91Z" fill="#2C1F40"/>
<path d="M112.651 103.446C112.37 103.297 112.123 103.103 111.924 102.867C111.588 102.47 111.369 101.952 111.253 101.283C111.053 100.137 111.242 98.5988 112.371 97.7147C112.514 97.6031 112.717 97.6281 112.831 97.77C112.941 97.9128 112.916 98.1178 112.774 98.2294C111.872 98.9354 111.738 100.256 111.897 101.171C111.993 101.721 112.165 102.138 112.424 102.444C113.049 103.188 114.147 103.241 114.895 103.059C116.045 102.783 117.053 101.937 117.526 100.854C117.598 100.689 117.79 100.614 117.956 100.685C118.111 100.76 118.197 100.949 118.124 101.116C117.572 102.384 116.392 103.372 115.047 103.695C114.185 103.903 113.321 103.803 112.651 103.446Z" fill="#2C1F40"/>
<path d="M190.422 119.151C190.779 119.27 190.993 119.626 190.993 120.002V157.276C190.993 169.036 181.46 178.569 169.701 178.569C164.247 178.569 158.61 176.777 155.482 172.309C155.08 171.734 154.763 171.202 154.545 170.722C154.19 169.935 153.939 169.147 153.783 168.36C153.706 168.014 153.654 167.659 153.619 167.322C153.039 162.105 155.912 157.165 156.656 155.971C156.676 155.94 156.694 155.912 156.711 155.886C156.78 155.78 156.763 155.64 156.672 155.552L156.598 155.481C156.596 155.479 156.594 155.478 156.591 155.478C156.588 155.478 156.585 155.477 156.583 155.475L151.058 150.495L150.695 150.166C150.079 149.609 150.009 148.667 150.535 148.024L152.209 145.979L160.895 135.407L164.589 130.917L174.737 118.563C175.669 117.43 177.343 117.265 178.479 118.194L183.008 121.902L183.017 121.91C183.153 122.023 183.358 121.999 183.475 121.868C184.115 121.193 186.166 119.29 189.401 118.952C189.444 118.943 189.496 118.952 189.548 118.952C189.79 118.952 190.085 119.021 190.422 119.151Z" fill="#32D583"/>
<path d="M156.675 155.988C156.658 155.979 156.642 155.968 156.627 155.956C156.485 155.844 156.46 155.639 156.572 155.497L183.004 121.912C183.116 121.769 183.325 121.744 183.463 121.857C183.605 121.969 183.63 122.174 183.518 122.317L157.086 155.901C156.986 156.028 156.812 156.061 156.675 155.988Z" fill="#2C1F40"/>
<path d="M181.874 166.18C181.502 168.931 179.927 171.596 177.566 173.473C176.666 174.191 175.671 174.779 174.711 175.35C174.2 175.671 173.681 175.973 173.188 176.293C172.928 176.466 172.626 176.674 172.565 176.934C172.513 177.133 172.574 177.384 172.764 177.712C172.828 177.821 172.894 177.926 172.964 178.027C173.116 178.248 172.968 178.569 172.699 178.569C172.604 178.569 172.513 178.525 172.456 178.448C172.361 178.317 172.272 178.179 172.193 178.041C171.916 177.557 171.83 177.141 171.925 176.778C172.072 176.242 172.565 175.921 172.833 175.748C173.335 175.42 173.863 175.108 174.373 174.797C175.316 174.226 176.294 173.646 177.15 172.963C179.391 171.18 180.879 168.68 181.225 166.093C181.606 163.308 180.628 160.479 178.682 158.714C177.903 158.013 177.029 157.537 176.155 157.347C174.2 156.914 172.271 157.849 170.999 158.705C170.169 159.268 169.381 159.934 168.62 160.591C167.954 161.171 167.262 161.75 166.535 162.278C166.232 162.486 165.878 162.719 165.462 162.737C164.874 162.754 164.459 162.382 164.078 162.053C163.974 161.967 163.879 161.872 163.767 161.794C163.031 161.231 161.941 161.076 160.86 161.387C159.761 161.707 158.818 162.434 158.126 163.022C156.615 164.317 155.297 165.857 154.253 167.554C154.082 167.831 153.668 167.76 153.631 167.437C153.622 167.36 153.64 167.286 153.68 167.221C154.761 165.461 156.14 163.853 157.702 162.529C158.446 161.889 159.458 161.11 160.678 160.764C161.959 160.392 163.265 160.591 164.173 161.275C164.286 161.361 164.39 161.456 164.502 161.56C164.822 161.828 165.116 162.088 165.436 162.071C165.679 162.071 165.921 161.915 166.146 161.75C166.855 161.231 167.53 160.652 168.196 160.098C168.966 159.432 169.771 158.748 170.636 158.16C172.02 157.226 174.114 156.222 176.302 156.707C177.271 156.923 178.249 157.451 179.123 158.229C181.225 160.133 182.281 163.178 181.874 166.18Z" fill="#2C1F40"/>
<path d="M190.995 148.575C190.995 148.669 190.957 148.759 190.894 148.829C190.028 149.783 189.622 151.11 189.93 152.269C190.034 152.649 190.207 153.013 190.389 153.393C190.675 154.008 190.977 154.639 190.986 155.357C191.021 156.707 190.086 157.719 189.186 158.697C189.022 158.887 188.858 159.069 188.693 159.242C187.569 160.531 186.833 162.053 186.565 163.637C186.133 166.275 187.024 168.732 187.854 170.324C188.655 171.875 189.689 173.161 190.863 174.089C190.945 174.154 190.995 174.253 190.995 174.358C190.995 174.629 190.693 174.786 190.48 174.619C189.223 173.633 188.121 172.275 187.275 170.627C186.401 168.949 185.449 166.344 185.925 163.524C186.21 161.828 187.006 160.202 188.2 158.818C188.365 158.627 188.538 158.446 188.711 158.255C189.524 157.373 190.354 156.456 190.337 155.366C190.32 154.795 190.069 154.25 189.792 153.67C189.61 153.281 189.42 152.874 189.308 152.442C188.912 151.032 189.392 149.461 190.447 148.334C190.653 148.114 190.995 148.273 190.995 148.575Z" fill="#2C1F40"/>
<path d="M190.5 145.049C190.72 144.929 190.993 145.085 190.993 145.335C190.993 145.45 190.932 145.556 190.832 145.611C190.721 145.672 190.611 145.73 190.5 145.789C189.159 146.481 187.42 147.242 185.681 146.905C185.249 146.827 184.833 146.671 184.444 146.463C183.017 145.702 181.927 144.179 181.641 142.389C181.347 140.537 181.875 138.409 183.129 136.419C184.124 134.827 185.456 133.46 186.745 132.145L187.1 131.773C187.619 131.246 188.095 130.718 188.164 130.104C188.251 129.472 187.939 128.867 187.61 128.218C187.524 128.045 187.446 127.88 187.36 127.725C186.391 125.64 186.477 123.122 187.602 121.132C188.074 120.304 188.705 119.586 189.449 119.025C189.513 118.977 189.571 118.95 189.651 118.956C189.966 118.979 190.031 119.397 189.781 119.591C189.13 120.098 188.581 120.728 188.173 121.452C187.152 123.26 187.065 125.553 187.948 127.439C188.026 127.595 188.104 127.759 188.19 127.924C188.553 128.633 188.934 129.351 188.813 130.182C188.701 131.003 188.164 131.618 187.576 132.223L187.213 132.604C185.949 133.893 184.643 135.234 183.683 136.765C182.515 138.625 182.013 140.58 182.29 142.293C182.601 144.275 184.081 145.936 185.802 146.273C187.334 146.559 188.882 145.892 190.197 145.209C190.298 145.157 190.4 145.103 190.5 145.049Z" fill="#2C1F40"/>
<path d="M168.018 150.805C166.584 150.042 165.203 148.975 163.696 147.466C163.569 147.338 163.569 147.131 163.696 147.003C163.824 146.876 164.03 146.875 164.159 147.003C165.703 148.548 167.097 149.611 168.564 150.351C170.335 151.246 172.162 151.61 173.848 151.406C174.784 151.292 175.515 151.004 176.019 150.548C176.606 150.019 176.862 149.211 176.639 148.583C176.529 148.269 176.31 147.992 176.078 147.699C175.838 147.395 175.59 147.081 175.438 146.696C175.159 145.987 175.278 145.253 175.392 144.542C175.491 143.929 175.584 143.351 175.424 142.826C175.141 141.903 174.107 141.347 173.238 140.965C172.119 140.474 170.96 140.054 169.792 139.714C169.619 139.663 169.518 139.483 169.569 139.309C169.62 139.136 169.801 139.037 169.974 139.087C171.168 139.435 172.355 139.865 173.501 140.367C174.498 140.804 175.688 141.458 176.048 142.635C176.253 143.306 176.144 143.987 176.036 144.647C175.932 145.298 175.831 145.915 176.045 146.456C176.162 146.751 176.369 147.015 176.59 147.293C176.844 147.616 177.107 147.948 177.254 148.364C177.567 149.249 177.246 150.322 176.455 151.035C175.849 151.581 174.998 151.923 173.926 152.053C172.11 152.274 170.154 151.887 168.267 150.934C168.185 150.894 168.101 150.85 168.018 150.805Z" fill="#2C1F40"/>
<path d="M82.1702 79.4931C82.0144 78.9826 81.5127 78.3078 80.6821 77.4513L60.6456 56.2988C59.3738 54.9924 57.929 54.5944 56.3199 55.1049C56.1901 55.1481 56.0603 55.1914 55.9392 55.252C55.3509 55.5029 54.8319 55.8922 54.3906 56.4112C53.8543 57.0428 53.5255 57.7522 53.413 58.5395L49.2777 87.4264C49.096 88.6116 49.0787 89.4508 49.2431 89.9612C49.5891 91.034 50.7571 91.7174 52.7555 92.0029C53.0237 92.0462 53.2833 92.0722 53.5255 92.0981C54.3387 92.1673 55.0135 92.1154 55.5499 91.951C56.0258 91.7953 56.4064 91.5185 56.6919 91.1205C56.9774 90.7139 57.1504 90.3505 57.2369 90.0304C57.3148 89.7103 57.41 89.2085 57.5138 88.5164C58.0004 85.1047 60.397 82.2725 63.6812 81.228L68.674 79.6402C69.9221 79.2435 71.2871 79.5972 72.1856 80.5499L74.5829 83.092C75.076 83.5938 75.448 83.9658 75.7076 84.2081C75.9325 84.4244 76.218 84.5974 76.59 84.7358C76.6506 84.7618 76.7112 84.7877 76.7804 84.805C77.2389 84.9607 77.7061 84.9521 78.1905 84.805C78.874 84.5887 79.644 84.061 80.5005 83.2305C81.9539 81.8116 82.5154 80.5658 82.1702 79.4931ZM59.8913 75.1316C59.6754 75.2002 59.462 75.0196 59.4941 74.7954L60.0824 70.6254C60.2227 69.6428 61.4338 69.254 62.1199 69.9713L63.2169 71.118C64.2176 72.1642 63.7753 73.8971 62.3956 74.3356L59.8913 75.1316Z" fill="#2C1F40"/>
<path d="M79.7922 79.7873C79.6365 79.2769 79.1347 78.6021 78.3042 77.7456L58.2676 56.5843C57.5496 55.849 56.7709 55.3991 55.9404 55.2521C55.3089 55.1223 54.6427 55.1742 53.942 55.3991C53.1979 55.6327 52.5491 56.0653 52.0127 56.6968C51.4763 57.3284 51.1476 58.0464 51.0351 58.8337L46.8998 87.7206C46.7181 88.8972 46.7008 89.745 46.8651 90.2468C47.2025 91.3282 48.3791 92.003 50.3776 92.2885C51.5542 92.4789 52.4799 92.4615 53.172 92.2453C53.3018 92.202 53.4142 92.1588 53.5267 92.0982C53.8382 91.9338 54.1064 91.7089 54.314 91.4061C54.5908 91.0081 54.7725 90.6448 54.859 90.3246C54.9369 90.0046 55.032 89.5028 55.1358 88.802C55.6225 85.3954 58.0158 82.5678 61.2952 81.525L67.8713 79.4339C68.1567 79.3431 68.4688 79.4233 68.6752 79.6402L72.205 83.3776C72.6981 83.888 73.0701 84.2601 73.3297 84.5023C73.5892 84.7532 73.9439 84.9522 74.4024 85.0992C74.861 85.2463 75.3281 85.2463 75.8126 85.0992C76.0635 85.0214 76.323 84.9003 76.5912 84.7359C77.0671 84.459 77.5775 84.0524 78.1225 83.5247C79.576 82.1059 80.1374 80.8601 79.7922 79.7873ZM57.6381 71.4114C57.8055 70.2307 59.2607 69.7633 60.0844 70.6255L60.4597 71.0175C61.6355 72.2454 61.1164 74.2807 59.4961 74.7955C58.3625 75.156 57.2415 74.2082 57.4085 73.0304L57.6381 71.4114Z" fill="#8383FB"/>
<path d="M89.5393 116.806C88.6655 112.091 86.2431 108.432 82.2548 105.836C78.2752 103.241 74.0447 102.359 69.5806 103.18C69.4768 103.198 69.3903 103.276 69.3124 103.388C68.6289 104.374 68.5684 108.44 66.8554 108.743C64.9435 109.081 62.9969 108.795 62.0712 108.968C61.085 109.15 59.2595 105.136 58.7145 105.421C58.1608 105.715 57.8061 106.122 57.6417 106.624C57.4773 107.134 57.4081 107.558 57.4254 107.913C57.4427 108.259 57.5206 108.804 57.6504 109.539L62.3913 135.242C62.5211 135.952 62.6595 136.505 62.7979 136.912C62.9363 137.319 63.1699 137.708 63.49 138.08C63.8101 138.443 64.286 138.668 64.9002 138.746C65.5231 138.824 66.2931 138.781 67.2188 138.608L73.0757 137.526L75.6798 137.051C80.3948 136.177 84.0976 133.754 86.7968 129.783C89.4874 125.821 90.4044 121.487 89.5393 116.806ZM71.7002 129.316C70.6634 129.507 69.668 128.822 69.4769 127.785L66.9427 114.031C66.7557 113.016 67.4244 112.04 68.4386 111.849C68.5485 111.833 68.6513 111.811 68.7534 111.794C68.7742 111.79 68.7984 111.788 68.8192 111.785C68.8442 111.78 68.8664 111.778 68.8914 111.773L71.0427 111.373C73.3872 110.941 75.576 111.408 77.635 112.766C79.6854 114.124 80.9398 116.036 81.3897 118.502C81.8569 121.028 81.3465 123.278 79.8671 125.259C78.379 127.24 76.5276 128.434 74.3129 128.84L71.7002 129.316Z" fill="#2C1F40"/>
<path d="M86.9358 117.282C86.062 112.567 83.6396 108.916 79.6513 106.321C76.3725 104.184 72.9292 103.206 69.313 103.388C68.543 103.423 67.7557 103.518 66.9684 103.665C66.0168 103.838 64.5807 104.098 62.6687 104.435C60.7568 104.772 59.3379 105.023 58.4122 105.196C57.426 105.378 56.656 105.612 56.1023 105.906C55.5573 106.2 55.1939 106.598 55.0382 107.108C54.8738 107.619 54.8046 108.043 54.8219 108.389C54.8392 108.735 54.9084 109.28 55.0469 110.024L59.7878 135.727C59.9176 136.436 60.056 136.99 60.1944 137.397C60.3328 137.803 60.5578 138.184 60.8865 138.556C61.2066 138.928 61.6738 139.153 62.2967 139.231C62.9196 139.309 63.6896 139.257 64.6153 139.092L67.2193 138.608L73.0763 137.526C77.7913 136.661 81.4941 134.239 84.1846 130.268C86.8839 126.297 87.8009 121.971 86.9358 117.282ZM69.8234 129.662C68.386 129.93 67.0044 128.98 66.7396 127.542L64.8185 117.11C64.3669 114.658 65.9873 112.303 68.4392 111.849C68.5356 111.835 68.6265 111.816 68.7163 111.8C68.7621 111.792 68.8079 111.78 68.8544 111.78C71.0346 111.486 73.0936 111.962 75.0229 113.242C77.0732 114.6 78.3277 116.512 78.7862 118.978C79.2534 121.504 78.7429 123.762 77.2549 125.735C75.7755 127.716 73.9241 128.91 71.7007 129.316L69.8234 129.662Z" fill="#8383FB"/>
<path d="M149.865 33.7169L132.769 74.7079L145.128 80.6817L162.637 37.4249L149.865 33.7169Z" fill="#912018"/>
<path d="M145.128 80.6817L139.509 83.4856L135.24 85.6251L134.405 81.9179L132.769 74.7079L145.128 80.6817Z" fill="#DC6803"/>
<path d="M139.508 83.4857L135.24 85.626L134.404 81.9181C135.216 81.8722 136.269 81.861 137.093 82.021C137.94 82.1923 138.856 82.8905 139.508 83.4857Z" fill="#912018"/>
<path d="M137.21 76.8956C137.183 76.8956 137.157 76.8905 137.13 76.8801C137.02 76.836 136.965 76.7114 137.008 76.5998L153.354 35.0732C153.398 34.9616 153.524 34.9088 153.635 34.9512C153.745 34.9954 153.8 35.1199 153.757 35.2315L137.411 76.7581C137.378 76.8446 137.297 76.8956 137.21 76.8956Z" fill="#2C1F40"/>
<path d="M141.812 79.1418C141.786 79.1418 141.758 79.1366 141.733 79.1263C141.622 79.083 141.567 78.9576 141.611 78.8459L158.324 36.2891C158.368 36.1783 158.495 36.1247 158.604 36.1671C158.715 36.2103 158.77 36.3358 158.727 36.4474L142.014 79.0043C141.98 79.0891 141.899 79.1418 141.812 79.1418Z" fill="#2C1F40"/>
<path d="M38.2114 166.011L82.3169 171.23L84.6779 157.708L38.2798 152.713L38.2114 166.011Z" fill="#FEC84B"/>
<path d="M84.6774 157.708L88.9122 162.344L92.1392 165.863L88.8023 167.682L82.3164 171.23L84.6774 157.708Z" fill="#32D583"/>
<path d="M88.9134 162.344L92.1403 165.863L88.8026 167.682C88.5362 166.913 88.2368 165.903 88.165 165.067C88.0993 164.206 88.5197 163.135 88.9134 162.344Z" fill="#5959F9"/>
<path d="M82.9973 166.635C82.9903 166.635 82.9825 166.635 82.9756 166.634L38.5604 162.284C38.4419 162.272 38.3545 162.167 38.3657 162.048C38.3778 161.929 38.486 161.842 38.6019 161.854L83.0171 166.203C83.1357 166.216 83.223 166.321 83.2118 166.44C83.2014 166.551 83.1071 166.635 82.9973 166.635Z" fill="#2C1F40"/>
<path d="M83.8961 161.594C83.8892 161.594 83.8814 161.594 83.8745 161.593L38.3675 157.172C38.249 157.16 38.1616 157.054 38.1728 156.936C38.185 156.817 38.2922 156.728 38.409 156.741L83.916 161.162C84.0346 161.174 84.122 161.28 84.1107 161.398C84.1003 161.51 84.006 161.594 83.8961 161.594Z" fill="#2C1F40"/>
</g>
</g>
</g>
<defs>
<filter id="filter0_dd_149_4158" x="0" y="0" width="200.547" height="200.547" filterUnits="userSpaceOnUse" color-interpolation-filters="sRGB">
<feFlood flood-opacity="0" result="BackgroundImageFix"/>
<feColorMatrix in="SourceAlpha" type="matrix" values="0 0 0 0 0 0 0 0 0 0 0 0 0 0 0 0 0 0 127 0" result="hardAlpha"/>
<feMorphology radius="2" operator="erode" in="SourceAlpha" result="effect1_dropShadow_149_4158"/>
<feOffset dy="2"/>
<feGaussianBlur stdDeviation="2"/>
<feColorMatrix type="matrix" values="0 0 0 0 0.0627451 0 0 0 0 0.0941176 0 0 0 0 0.156863 0 0 0 0.06 0"/>
<feBlend mode="normal" in2="BackgroundImageFix" result="effect1_dropShadow_149_4158"/>
<feColorMatrix in="SourceAlpha" type="matrix" values="0 0 0 0 0 0 0 0 0 0 0 0 0 0 0 0 0 0 127 0" result="hardAlpha"/>
<feMorphology radius="2" operator="erode" in="SourceAlpha" result="effect2_dropShadow_149_4158"/>
<feOffset dy="4"/>
<feGaussianBlur stdDeviation="4"/>
<feColorMatrix type="matrix" values="0 0 0 0 0.0627451 0 0 0 0 0.0941176 0 0 0 0 0.156863 0 0 0 0.1 0"/>
<feBlend mode="normal" in2="effect1_dropShadow_149_4158" result="effect2_dropShadow_149_4158"/>
<feBlend mode="normal" in="SourceGraphic" in2="effect2_dropShadow_149_4158" result="shape"/>
</filter>
<filter id="filter1_dd_149_4158" x="0" y="0" width="200.547" height="200.547" filterUnits="userSpaceOnUse" color-interpolation-filters="sRGB">
<feFlood flood-opacity="0" result="BackgroundImageFix"/>
<feColorMatrix in="SourceAlpha" type="matrix" values="0 0 0 0 0 0 0 0 0 0 0 0 0 0 0 0 0 0 127 0" result="hardAlpha"/>
<feMorphology radius="2" operator="erode" in="SourceAlpha" result="effect1_dropShadow_149_4158"/>
<feOffset dy="2"/>
<feGaussianBlur stdDeviation="2"/>
<feColorMatrix type="matrix" values="0 0 0 0 0.0627451 0 0 0 0 0.0941176 0 0 0 0 0.156863 0 0 0 0.06 0"/>
<feBlend mode="normal" in2="BackgroundImageFix" result="effect1_dropShadow_149_4158"/>
<feColorMatrix in="SourceAlpha" type="matrix" values="0 0 0 0 0 0 0 0 0 0 0 0 0 0 0 0 0 0 127 0" result="hardAlpha"/>
<feMorphology radius="2" operator="erode" in="SourceAlpha" result="effect2_dropShadow_149_4158"/>
<feOffset dy="4"/>
<feGaussianBlur stdDeviation="4"/>
<feColorMatrix type="matrix" values="0 0 0 0 0.0627451 0 0 0 0 0.0941176 0 0 0 0 0.156863 0 0 0 0.1 0"/>
<feBlend mode="normal" in2="effect1_dropShadow_149_4158" result="effect2_dropShadow_149_4158"/>
<feBlend mode="normal" in="SourceGraphic" in2="effect2_dropShadow_149_4158" result="shape"/>
</filter>
</defs>
</svg>
