<svg width="32" height="32" viewBox="0 0 32 32" fill="none" xmlns="http://www.w3.org/2000/svg">
<path fill-rule="evenodd" clip-rule="evenodd" d="M3.85747 2.85759C3.59241 2.85759 3.33817 2.96288 3.15071 3.15034C2.96328 3.33782 2.85794 3.59206 2.85794 3.85721V8.71439C2.85794 9.5036 2.21817 10.1434 1.42897 10.1434C0.639772 10.1434 0 9.5036 0 8.71439V3.85721C0 2.83413 0.406399 1.85295 1.12981 1.12951C1.85322 0.406069 2.83439 -0.000366211 3.85747 -0.000366211H8.7145C9.5037 -0.000366211 10.1435 0.639408 10.1435 1.42861C10.1435 2.21781 9.5037 2.85759 8.7145 2.85759H3.85747ZM23.2855 -0.000366211C22.4964 -0.000366211 21.8566 0.639408 21.8566 1.42861C21.8566 2.21781 22.4964 2.85759 23.2855 2.85759H28.1427C28.4077 2.85759 28.6619 2.96288 28.8494 3.15034C29.0369 3.33782 29.1421 3.59206 29.1421 3.85721V8.71439C29.1421 9.5036 29.782 10.1434 30.571 10.1434C31.3603 10.1434 32 9.5036 32 8.71439V3.85721C32 2.83413 31.5937 1.85295 30.8703 1.12951C30.1469 0.406069 29.1656 -0.000366211 28.1427 -0.000366211H23.2855ZM20.9131 7.74612C21.4712 7.18807 22.376 7.18807 22.9339 7.74612L25.5673 10.3794C26.1254 10.9375 26.1254 11.8422 25.5673 12.4003C25.0092 12.9584 24.1045 12.9584 23.5464 12.4003L21.9236 10.7774L20.653 12.048L22.276 13.6711C22.834 14.2291 22.834 15.1339 22.276 15.6919C21.7179 16.25 20.8131 16.25 20.2551 15.6919L18.6321 14.0689L16.0685 16.6325C16.5147 17.4164 16.7696 18.3233 16.7696 19.2898C16.7696 22.2605 14.3614 24.6688 11.3907 24.6688C8.41997 24.6688 6.01175 22.2605 6.01175 19.2898C6.01175 16.3191 8.41997 13.9109 11.3907 13.9109C12.357 13.9109 13.2638 14.1656 14.0475 14.6117L20.9131 7.74612ZM13.173 17.5072L13.1591 17.4932C12.7041 17.0452 12.0796 16.7688 11.3907 16.7688C9.99835 16.7688 8.86969 17.8975 8.86969 19.2898C8.86969 20.6821 9.99835 21.8107 11.3907 21.8107C12.783 21.8107 13.9116 20.6821 13.9116 19.2898C13.9116 18.6007 13.6352 17.9762 13.1871 17.5211L13.173 17.5072ZM30.571 21.8568C31.3603 21.8568 32 22.4966 32 23.2858V28.1429C32 29.166 31.5937 30.1471 30.8703 30.8708C30.1469 31.5942 29.1656 32.0004 28.1427 32.0004H23.2855C22.4964 32.0004 21.8566 31.3607 21.8566 30.5715C21.8566 29.7824 22.4964 29.1425 23.2855 29.1425H28.1427C28.4077 29.1425 28.6619 29.0373 28.8494 28.8498C29.0369 28.6624 29.1421 28.4081 29.1421 28.1429V23.2858C29.1421 22.4966 29.782 21.8568 30.571 21.8568ZM2.85794 23.2858C2.85794 22.4966 2.21817 21.8568 1.42897 21.8568C0.639772 21.8568 0 22.4966 0 23.2858V28.1429C0 29.166 0.406399 30.1471 1.12981 30.8708C1.85322 31.5942 2.83439 32.0004 3.85747 32.0004H8.7145C9.5037 32.0004 10.1435 31.3607 10.1435 30.5715C10.1435 29.7824 9.5037 29.1425 8.7145 29.1425H3.85747C3.59241 29.1425 3.33817 29.0373 3.15071 28.8498C2.96328 28.6624 2.85794 28.4081 2.85794 28.1429V23.2858Z" fill="#031B4E"/>
</svg>
