<svg width="152" height="161" viewBox="0 0 152 161" fill="none" xmlns="http://www.w3.org/2000/svg">
<rect opacity="0.1" x="5" width="140" height="140" rx="39.2683" fill="#4A3AFF"/>
<g filter="url(#filter0_d_588_8670)">
<path d="M52.1598 31.7803C56.9127 31.7843 61.5391 30.2489 65.3465 27.404L71.841 22.5513C74.2666 20.8524 77.4962 20.8524 79.9218 22.5513L86.8347 27.5646C90.567 30.2712 95.0552 31.7369 99.6655 31.7547L105.161 31.7759C110.606 31.7759 115.021 36.1901 115.021 41.6352C115.021 46.6021 117.219 51.3145 121.024 54.5065L121.26 54.7046C121.739 55.106 122.015 55.6986 122.015 56.3232V112.103C122.015 115.993 118.862 119.146 114.973 119.146H37.0267C33.1376 119.146 29.9844 115.993 29.9844 112.103L29.9878 56.3231C29.9878 55.6986 30.2643 55.106 30.7423 54.7046L30.9738 54.5104C34.7802 51.3173 36.9786 46.6036 36.9786 41.6352C36.9786 36.1901 41.3924 31.7759 46.8379 31.7759L52.1598 31.7803Z" fill="#FF0000" fill-opacity="0.01"/>
</g>
<mask id="mask0_588_8670" style="mask-type:alpha" maskUnits="userSpaceOnUse" x="29" y="18" width="94" height="102">
<path d="M58.0746 31.776L71.9592 20.1284C74.3848 18.4295 77.6144 18.4295 80.04 20.1284L93.9256 31.776H105.161C110.606 31.776 115.021 36.1901 115.021 41.6353V49.4709L121.26 54.7047C121.739 55.1061 122.015 55.6987 122.015 56.3233V112.103C122.015 115.993 118.862 119.146 114.973 119.146H37.0267C33.1376 119.146 29.9844 115.993 29.9844 112.103L29.9878 56.3232C29.9878 55.6986 30.2643 55.1061 30.7423 54.7047L36.9786 49.4731V41.6353C36.9786 36.1901 41.3924 31.776 46.8379 31.776H58.0746Z" fill="#EBE9FF"/>
</mask>
<g mask="url(#mask0_588_8670)">
<path d="M69.7104 23.0875L33.1119 52.8016C31.1356 54.4061 29.9879 56.8161 29.9877 59.3618L29.9847 112.103C29.9847 115.993 33.1376 119.146 37.027 119.146H114.973C118.863 119.146 122.015 115.993 122.015 112.103V59.3719C122.015 56.8204 120.863 54.4056 118.879 52.8011L82.1247 23.0757C78.5032 20.1469 73.3262 20.1517 69.7104 23.0875Z" fill="#AFA8FF"/>
<path d="M105.162 31.7759C110.607 31.7759 115.021 36.19 115.021 41.6352L115.021 117.737C115.021 118.515 114.39 119.146 113.613 119.146L38.3873 119.146C37.6095 119.146 36.9789 118.515 36.9789 117.737L36.9789 41.6351C36.9789 36.19 41.393 31.7759 46.8382 31.7759L105.162 31.7759Z" fill="#F9F9FF"/>
<rect x="47.6082" y="65.6863" width="44.4953" height="6.42546" rx="3.21273" fill="#BCB6FF"/>
<rect x="47.608" y="43.8298" width="44.0601" height="6.42546" rx="3.21273" fill="#BCB6FF"/>
<rect x="47.6082" y="54.7581" width="33.4123" height="6.42546" rx="3.21273" fill="#BCB6FF"/>
<path d="M65.4274 87.0349L29.5634 58.0925L29.8124 116.261L65.4274 87.0349Z" fill="#8277FF"/>
<path d="M86.7559 87.5446L123.087 58.5105L122.583 113.834L86.7559 87.5446Z" fill="#8277FF"/>
<path d="M14.7674 117.385L68.0568 80.0603C72.9079 76.6625 79.3663 76.6625 84.2174 80.0603L148.481 125.072C149.608 125.862 149.049 127.634 147.673 127.634L17.9995 127.634C12.492 127.634 10.2564 120.545 14.7674 117.385Z" fill="#4A3AFF"/>
</g>
<defs>
<filter id="filter0_d_588_8670" x="0.905666" y="4.17198" width="150.188" height="156.026" filterUnits="userSpaceOnUse" color-interpolation-filters="sRGB">
<feFlood flood-opacity="0" result="BackgroundImageFix"/>
<feColorMatrix in="SourceAlpha" type="matrix" values="0 0 0 0 0 0 0 0 0 0 0 0 0 0 0 0 0 0 127 0" result="hardAlpha"/>
<feOffset dy="11.9736"/>
<feGaussianBlur stdDeviation="14.5394"/>
<feColorMatrix type="matrix" values="0 0 0 0 0.290196 0 0 0 0 0.227451 0 0 0 0 1 0 0 0 0.15 0"/>
<feBlend mode="normal" in2="BackgroundImageFix" result="effect1_dropShadow_588_8670"/>
<feBlend mode="normal" in="SourceGraphic" in2="effect1_dropShadow_588_8670" result="shape"/>
</filter>
</defs>
</svg>
