<svg width="25" height="24" viewBox="0 0 25 24" fill="none" xmlns="http://www.w3.org/2000/svg">
<g clip-path="url(#clip0_40000033_1709)">
<mask id="mask0_40000033_1709" style="mask-type:luminance" maskUnits="userSpaceOnUse" x="0" y="0" width="25" height="24">
<path d="M24.1416 0H0.141602V24H24.1416V0Z" fill="white"/>
</mask>
<g mask="url(#mask0_40000033_1709)">
<path opacity="0.4" d="M22.1416 7.81V14H18.0616C17.3916 14 16.6016 13.52 16.2916 12.93L15.2516 10.96C14.9716 10.43 14.5716 10.46 14.3516 11.01L12.0516 16.82C11.8016 17.47 11.3816 17.47 11.1216 16.82L9.9816 13.94C9.7116 13.24 8.8716 12.67 8.1216 12.67L2.1416 12.7V7.81C2.1416 4.17 4.3116 2 7.9516 2H16.3316C19.9716 2 22.1416 4.17 22.1416 7.81Z" fill="#E4E7EC"/>
<path d="M22.1416 16.1906V14.0006H18.0616C17.3916 14.0006 16.6016 13.5206 16.2916 12.9306L15.2516 10.9606C14.9716 10.4306 14.5716 10.4606 14.3516 11.0106L12.0516 16.8206C11.8016 17.4706 11.3816 17.4706 11.1216 16.8206L9.9816 13.9406C9.7116 13.2406 8.8716 12.6706 8.1216 12.6706L2.1416 12.7006V16.1906C2.1416 19.7706 4.2416 21.9306 7.7716 21.9906C7.8816 22.0006 8.0016 22.0006 8.1116 22.0006H16.1116C16.2616 22.0006 16.4116 22.0006 16.5516 21.9906C20.0616 21.9106 22.1416 19.7606 22.1416 16.1906Z" fill="#475467"/>
<path d="M2.14182 12.6992V16.0092C2.12182 15.6892 2.11182 15.3492 2.11182 14.9992V12.6992H2.14182Z" fill="#475467"/>
</g>
</g>
<defs>
<clipPath id="clip0_40000033_1709">
<rect width="24" height="24" fill="white" transform="translate(0.141602)"/>
</clipPath>
</defs>
</svg>
