<svg width="25" height="24" viewBox="0 0 25 24" fill="none" xmlns="http://www.w3.org/2000/svg">
<path d="M8.41955 2.03168C8.41955 2.03168 7.1954 2.49988 4.94542 4.74988C2.70366 6.99163 2.23355 8.21793 2.23013 8.22688C2.1755 9.29513 2.1416 10.5444 2.1416 11.9999C2.1416 16.3426 2.44336 18.8493 2.69741 20.1902C2.86062 21.0516 3.53277 21.642 4.40444 21.7361C5.58105 21.863 7.65735 21.9999 11.1416 21.9999C14.6259 21.9999 16.7022 21.863 17.8788 21.7361C18.7505 21.642 19.4226 21.0516 19.5858 20.1902C19.8399 18.8493 20.1416 16.3426 20.1416 11.9999C20.1416 7.65713 19.8399 5.15043 19.5858 3.80955C19.4226 2.94814 18.7505 2.35773 17.8788 2.26367C16.7022 2.1367 14.6259 1.99988 11.1416 1.99988C10.1168 1.99988 9.2137 2.01173 8.41955 2.03168Z" fill="#C1C1FD"/>
<path d="M2.22998 8.22686C3.66976 8.58901 5.36965 8.61306 6.8379 8.16451C7.45865 7.97486 7.94265 7.49131 8.15215 6.87701C8.67405 5.34666 8.803 3.47348 8.4194 2.03165C8.4194 2.03165 7.1953 2.49985 4.94529 4.74985C2.69529 6.99986 2.22998 8.22686 2.22998 8.22686Z" fill="#2626C6"/>
<path d="M21.7274 12.278C22.5085 11.4969 22.5085 10.2306 21.7274 9.44951L20.1922 7.91431C19.4111 7.13326 18.1448 7.13326 17.3637 7.91431L11.7274 13.5507C11.3523 13.9258 11.1416 14.4345 11.1416 14.9649V17.5001C11.1416 18.0524 11.5893 18.5001 12.1416 18.5001H14.6768C15.2073 18.5001 15.716 18.2894 16.091 17.9143L21.7274 12.278Z" fill="#2626C6"/>
</svg>
