<svg width="453" height="334" viewBox="0 0 453 334" fill="none" xmlns="http://www.w3.org/2000/svg">
<path d="M27.5675 317.8C15.0875 308.12 7.16751 294.2 5.16751 278.52L1.08751 246.2C-0.912493 230.52 3.32751 215.08 13.0075 202.6C22.6075 190.28 36.3675 182.36 51.8875 180.28L52.5275 185.32L69.9675 323.48L70.7675 329.64C55.2475 331.56 39.9675 327.24 27.5675 317.64V317.8ZM92.8475 180.28L110.288 318.44C110.768 321.96 109.808 325.4 107.568 328.2C105.408 331 102.288 332.84 98.7675 333.24L96.7675 333.48C89.5675 334.44 82.8475 329.24 81.8875 321.96L65.7275 194.12L64.4475 183.8C63.9675 180.28 64.9275 176.84 67.1675 174.04C69.3275 171.24 72.4475 169.4 75.9675 169L77.9675 168.76C78.5275 168.76 79.0875 168.68 79.6475 168.68C86.2075 168.68 91.9675 173.64 92.8475 180.28ZM225.727 28.8399C148.687 28.8399 83.6475 83.0799 69.4875 158.28C64.8475 159.88 60.7675 162.76 57.6475 166.68C57.4075 167 57.2475 167.32 57.0075 167.64C56.7675 167.64 56.5275 167.56 56.2875 167.64L50.6875 168.36C43.8875 169.24 37.4075 171 31.3275 173.72C42.5275 75.6399 125.888 0.359863 225.648 0.359863C325.408 0.359863 408.527 75.4799 419.967 173.16C414.447 170.92 408.608 169.32 402.448 168.52L396.848 167.8C396.048 167.72 395.247 167.8 394.527 167.96C394.207 167.48 393.967 167 393.647 166.6C390.607 162.68 386.528 159.8 381.888 158.2C367.648 82.9999 302.688 28.8399 225.648 28.8399H225.727ZM364.688 330.76C361.888 332.92 358.447 333.88 354.927 333.48L352.927 333.24C349.407 332.84 346.288 331 344.128 328.2C341.968 325.4 341.008 321.88 341.408 318.44L358.688 180.28C359.488 173.56 365.248 168.68 371.888 168.68C372.448 168.68 373.008 168.68 373.568 168.76L375.568 169C379.088 169.4 382.207 171.24 384.367 174.04C386.527 176.84 387.487 180.36 387.087 183.8L369.807 321.96C369.407 325.48 367.567 328.6 364.767 330.76H364.688ZM452.288 246.28L448.288 278.6C444.288 310.76 414.927 333.8 382.767 329.88L401.487 180.44C433.567 184.68 456.367 214.12 452.367 246.28H452.288ZM256.448 144.52C247.248 145.08 238.767 150.68 231.647 156.04C228.127 158.68 223.168 158.68 219.648 156.04C212.528 150.68 204.048 145.08 194.848 144.52C183.568 143.88 173.087 148.12 165.247 156.6C155.967 166.68 151.408 181.72 153.488 195.88C157.328 222.68 177.007 250.36 211.887 278.2C215.967 281.4 220.768 283.08 225.648 283.08C230.528 283.08 235.328 281.48 239.408 278.2C274.288 250.36 293.967 222.68 297.807 195.88C299.887 181.72 295.327 166.68 286.047 156.6C278.207 148.12 267.728 143.88 256.448 144.52Z" fill="white"/>
</svg>
