<svg width="25" height="24" viewBox="0 0 25 24" fill="none" xmlns="http://www.w3.org/2000/svg">
<path d="M8.4198 2.03174C8.4198 2.03174 7.19565 2.49994 4.94567 4.74994C2.7039 6.99169 2.23379 8.21799 2.23038 8.22694C2.17574 9.29519 2.14185 10.5444 2.14185 11.9999C2.14185 16.3427 2.4436 18.8494 2.69766 20.1903C2.86087 21.0517 3.53301 21.6421 4.40468 21.7361C5.5813 21.8631 7.6576 21.9999 11.1418 21.9999C14.6261 21.9999 16.7024 21.8631 17.879 21.7361C18.7507 21.6421 19.4228 21.0517 19.586 20.1903C19.8401 18.8494 20.1418 16.3427 20.1418 11.9999C20.1418 7.65719 19.8401 5.15049 19.586 3.80961C19.4228 2.9482 18.7507 2.35779 17.879 2.26373C16.7024 2.13676 14.6261 1.99994 11.1418 1.99994C10.117 1.99994 9.21395 2.01179 8.4198 2.03174Z" fill="#C1C1FD"/>
<path d="M2.23047 8.22689C3.67024 8.58904 5.37014 8.61309 6.83839 8.16454C7.45914 7.97489 7.94314 7.49134 8.15264 6.87704C8.67454 5.34669 8.80349 3.47351 8.41989 2.03168C8.41989 2.03168 7.19579 2.49988 4.94577 4.74988C2.69577 6.99989 2.23047 8.22689 2.23047 8.22689Z" fill="#2626C6"/>
<path d="M21.7276 12.278C22.5087 11.4969 22.5087 10.2306 21.7276 9.44954L20.1924 7.91434C19.4113 7.13329 18.145 7.13329 17.3639 7.91434L11.7276 13.5507C11.3525 13.9258 11.1418 14.4345 11.1418 14.9649V17.5001C11.1418 18.0524 11.5895 18.5001 12.1418 18.5001H14.677C15.2075 18.5001 15.7162 18.2894 16.0912 17.9143L21.7276 12.278Z" fill="#2626C6"/>
</svg>
