<svg width="24" height="24" viewBox="0 0 24 24" fill="none" xmlns="http://www.w3.org/2000/svg">
<g clip-path="url(#clip0_3332_17130)">
<mask id="mask0_3332_17130" style="mask-type:luminance" maskUnits="userSpaceOnUse" x="0" y="0" width="24" height="24">
<path d="M24 0H0V24H24V0Z" fill="white"/>
</mask>
<g mask="url(#mask0_3332_17130)">
<path opacity="0.4" d="M15.3594 11.1891L18.2694 9.44914C18.8694 9.08913 19.3594 8.21914 19.3594 7.51914V3.86914C19.3594 2.62914 18.3494 1.61914 17.1094 1.61914H10.1094C8.86936 1.61914 7.85938 2.62914 7.85938 3.86914V7.51914C7.85938 8.20914 8.34938 9.07913 8.94938 9.43913L11.8794 11.1891C12.0294 11.2891 12.0294 11.4391 11.8794 11.5391L8.95937 13.2891C8.56937 13.5191 8.25936 13.9191 8.06936 14.3691C8.62936 14.3691 9.10937 14.7091 9.29937 15.2091L9.32938 15.3091L9.60936 16.3291C9.73936 16.8291 10.1294 17.2091 10.6194 17.3491L11.7794 17.6791C12.2794 17.8891 12.5794 18.3591 12.5794 18.9091C12.5794 19.4917 12.1806 19.9856 11.6294 20.1591L10.6394 20.4291C10.2594 20.5291 9.95937 20.7691 9.76937 21.0891C9.87937 21.1091 9.98936 21.1191 10.1094 21.1191H17.1094C18.3494 21.1191 19.3594 20.0991 19.3594 18.8691V15.2191C19.3594 14.5091 18.8694 13.6391 18.2694 13.2791L15.3594 11.5391C15.1994 11.4391 15.1994 11.2891 15.3594 11.1891Z" fill="#6464FA"/>
<path d="M11.5994 18.8894C11.5994 18.9594 11.5594 19.1194 11.3694 19.1794L10.3894 19.4494C9.53938 19.6794 8.89937 20.3194 8.66937 21.1694L8.40938 22.1294C8.34938 22.3494 8.17937 22.3694 8.09937 22.3694C8.01937 22.3694 7.84937 22.3494 7.78937 22.1294L7.52938 21.1594C7.29938 20.3194 6.64937 19.6794 5.80937 19.4494L4.83938 19.1894C4.62938 19.1294 4.60938 18.9494 4.60938 18.8794C4.60938 18.7994 4.62938 18.6194 4.83938 18.5594L5.81938 18.2994C6.65937 18.0594 7.29938 17.4194 7.52938 16.5794L7.80937 15.5594C7.87937 15.3894 8.03937 15.3594 8.09937 15.3594C8.15937 15.3594 8.32937 15.3794 8.38937 15.5394L8.66937 16.5694C8.89937 17.4094 9.54938 18.0494 10.3894 18.2894L11.3894 18.5694C11.5894 18.6494 11.5994 18.8294 11.5994 18.8894Z" fill="#6464FA"/>
</g>
</g>
<defs>
<clipPath id="clip0_3332_17130">
<rect width="24" height="24" fill="white"/>
</clipPath>
</defs>
</svg>
