<svg width="24" height="24" viewBox="0 0 24 24" fill="none" xmlns="http://www.w3.org/2000/svg">
<path d="M2.56113 6.32515C2.65326 5.47128 3.2316 4.81289 4.07539 4.65302C5.38884 4.40416 7.84427 4.10858 12.0982 4.10858C16.3521 4.10858 18.8075 4.40416 20.121 4.65302C20.9648 4.81289 21.5431 5.47128 21.6352 6.32515C21.7596 7.47768 21.8936 9.51151 21.8936 12.9245C21.8936 16.3375 21.7596 18.3713 21.6352 19.5238C21.5431 20.3777 20.9648 21.0361 20.121 21.196C18.8075 21.4448 16.3521 21.7404 12.0982 21.7404C7.84427 21.7404 5.38884 21.4448 4.07539 21.196C3.2316 21.0361 2.65326 20.3777 2.56113 19.5238C2.43676 18.3713 2.30273 16.3375 2.30273 12.9245C2.30273 9.51151 2.43676 7.47768 2.56113 6.32515Z" fill="#A6CFFF"/>
<path d="M17.8928 2.18006C18.199 2.2053 18.4094 2.42957 18.4302 2.73608C18.4493 3.01767 18.4658 3.45143 18.4658 4.10854C18.4658 4.21409 18.4654 4.31389 18.4646 4.40821C19.1514 4.48695 19.6963 4.57241 20.1215 4.65298C20.9653 4.81284 21.5436 5.47123 21.6357 6.3251C21.6825 6.7587 21.7307 7.31709 21.7726 8.02672H2.4248C2.46668 7.31709 2.51483 6.7587 2.56163 6.3251C2.65376 5.47123 3.2321 4.81285 4.07589 4.65298C4.50112 4.5724 5.04605 4.48694 5.73295 4.40819C5.73217 4.31387 5.73173 4.21409 5.73173 4.10854C5.73173 3.45143 5.74828 3.01767 5.76738 2.73608C5.78815 2.42957 5.99855 2.2053 6.30471 2.18006C6.51306 2.16288 6.80315 2.14944 7.20104 2.14944C7.59894 2.14944 7.88903 2.16288 8.09738 2.18006C8.40353 2.2053 8.61394 2.42957 8.63471 2.73608C8.65381 3.01767 8.67036 3.45143 8.67036 4.10854C8.67036 4.13341 8.67036 4.15797 8.67031 4.18221C9.65623 4.13639 10.7927 4.10854 12.0987 4.10854C13.4048 4.10854 14.5413 4.1364 15.5272 4.18222L15.5272 4.10854C15.5272 3.45143 15.5437 3.01767 15.5628 2.73608C15.5836 2.42957 15.794 2.2053 16.1002 2.18006C16.3085 2.16288 16.5986 2.14944 16.9965 2.14944C17.3944 2.14944 17.6845 2.16288 17.8928 2.18006Z" fill="#1575E5"/>
<path fill-rule="evenodd" clip-rule="evenodd" d="M17.0929 10.8746C17.4796 11.0802 17.6048 11.5514 17.3607 11.9014C15.3435 14.7949 13.461 16.7026 12.5365 17.5676C12.194 17.888 11.6658 17.9096 11.301 17.612C10.5325 16.9851 9.17646 15.7643 7.83032 13.9943C7.6158 13.7123 7.65263 13.3262 7.90903 13.0772L8.50283 12.5008C8.7917 12.2204 9.26359 12.2034 9.56162 12.4751C10.8152 13.6177 11.9392 14.9287 11.9392 14.9287C11.9392 14.9287 13.4364 12.8877 15.5826 10.7044C15.8234 10.4595 16.2109 10.4057 16.5192 10.5697L17.0929 10.8746Z" fill="#1575E5"/>
</svg>
