<svg width="136" height="136" viewBox="0 0 136 136" fill="none" xmlns="http://www.w3.org/2000/svg">
<path fill-rule="evenodd" clip-rule="evenodd" d="M19.4286 29.1429C19.4286 13.0477 32.4763 0 48.5714 0C64.6665 0 77.7143 13.0477 77.7143 29.1429C77.7143 45.238 64.6665 58.2857 48.5714 58.2857C32.4763 58.2857 19.4286 45.238 19.4286 29.1429ZM89.8571 100.995V94.7143C79.127 94.7143 70.4286 86.0158 70.4286 75.2857C70.4286 74.5899 70.4468 73.8983 70.483 73.2115C63.8998 69.8782 56.455 68 48.5714 68C21.7462 68 0 89.7462 0 116.571V121.429C0 124.111 2.17462 126.286 4.85714 126.286H87.4286C87.4286 120.661 89.5531 115.533 93.0434 111.659C91.0292 108.598 89.8571 104.933 89.8571 100.995Z" fill="#C1C1FD"/>
<path fill-rule="evenodd" clip-rule="evenodd" d="M109.286 63.1427C102.579 63.1427 97.143 68.5792 97.143 75.2856C97.143 79.3093 93.881 82.5713 89.8572 82.5713C85.8335 82.5713 82.5715 79.3093 82.5715 75.2856C82.5715 60.5317 94.532 48.5713 109.286 48.5713C124.04 48.5713 136 60.5317 136 75.2856C136 87.5137 127.785 97.8227 116.572 100.994C116.572 105.018 113.309 108.28 109.286 108.28C105.262 108.28 102 105.018 102 100.994V94.7141C102 90.6904 105.262 87.4284 109.286 87.4284C115.993 87.4284 121.429 81.9919 121.429 75.2856C121.429 68.5792 115.993 63.1427 109.286 63.1427ZM119 126.286C119 131.651 114.651 136 109.286 136C103.921 136 99.5715 131.651 99.5715 126.286C99.5715 120.92 103.921 116.571 109.286 116.571C114.651 116.571 119 120.92 119 126.286Z" fill="#2626C6"/>
</svg>
