<svg width="21" height="20" viewBox="0 0 21 20" fill="none" xmlns="http://www.w3.org/2000/svg">
<path opacity="0.4" d="M14.3318 0H5.95185C2.31185 0 0.141846 2.17 0.141846 5.81V14.18C0.141846 17.83 2.31185 20 5.95185 20H14.3218C17.9618 20 20.1318 17.83 20.1318 14.19V5.81C20.1418 2.17 17.9718 0 14.3318 0Z" fill="#475467"/>
<path d="M13.7219 17.2496C13.3119 17.2496 12.9719 16.9096 12.9719 16.4996V12.5996C12.9719 12.1896 13.3119 11.8496 13.7219 11.8496C14.1319 11.8496 14.4719 12.1896 14.4719 12.5996V16.4996C14.4719 16.9096 14.1319 17.2496 13.7219 17.2496Z" fill="#475467"/>
<path d="M13.7219 6.2C13.3119 6.2 12.9719 5.86 12.9719 5.45V3.5C12.9719 3.09 13.3119 2.75 13.7219 2.75C14.1319 2.75 14.4719 3.09 14.4719 3.5V5.45C14.4719 5.86 14.1319 6.2 13.7219 6.2Z" fill="#475467"/>
<path d="M6.56177 17.2508C6.15177 17.2508 5.81177 16.9108 5.81177 16.5008V14.5508C5.81177 14.1408 6.15177 13.8008 6.56177 13.8008C6.97177 13.8008 7.31177 14.1408 7.31177 14.5508V16.5008C7.31177 16.9108 6.98177 17.2508 6.56177 17.2508Z" fill="#475467"/>
<path d="M6.56177 8.15C6.15177 8.15 5.81177 7.81 5.81177 7.4V3.5C5.81177 3.09 6.15177 2.75 6.56177 2.75C6.97177 2.75 7.31177 3.09 7.31177 3.5V7.4C7.31177 7.81 6.98177 8.15 6.56177 8.15Z" fill="#475467"/>
<path d="M13.7219 5.33008C12.2219 5.33008 10.9919 6.55008 10.9919 8.0501C10.9919 9.5501 12.2119 10.7801 13.7219 10.7801C15.2219 10.7801 16.4419 9.5601 16.4419 8.0501C16.4419 6.54008 15.2219 5.33008 13.7219 5.33008Z" fill="#475467"/>
<path d="M6.56204 9.23047C5.06204 9.23047 3.84204 10.4505 3.84204 11.9605C3.84204 13.4705 5.06204 14.6805 6.56204 14.6805C8.06204 14.6805 9.29204 13.4605 9.29204 11.9605C9.29204 10.4605 8.07204 9.23047 6.56204 9.23047Z" fill="#475467"/>
</svg>
