<svg width="32" height="32" viewBox="0 0 32 32" fill="none" xmlns="http://www.w3.org/2000/svg">
<g clip-path="url(#clip0_187_7930)">
<path fill-rule="evenodd" clip-rule="evenodd" d="M2.85668 16.0003C2.85668 8.74092 8.7415 2.85602 16.0007 2.85602C23.26 2.85602 29.1448 8.74092 29.1448 16.0003C29.1448 23.2597 23.26 29.1447 16.0007 29.1447C13.8464 29.1447 11.817 28.6274 10.0261 27.7118C9.73931 27.565 9.4114 27.5198 9.09556 27.5829L3.73392 28.6551L5.2944 24.7538C5.47142 24.3113 5.41606 23.8096 5.14676 23.4162C3.70182 21.3059 2.85668 18.754 2.85668 16.0003ZM16.0007 -0.0011158C7.16349 -0.0011158 -0.000468921 7.163 -0.000468921 16.0003C-0.000468921 19.0706 0.865548 21.9422 2.36672 24.3801L0.101704 30.0427C-0.0929988 30.5294 -0.00543618 31.0837 0.329829 31.4869C0.665095 31.8898 1.19419 32.0768 1.70827 31.9739L9.18096 30.4795C11.2513 31.4562 13.5641 32.0018 16.0007 32.0018C24.838 32.0018 32.0019 24.8377 32.0019 16.0003C32.0019 7.163 24.838 -0.0011158 16.0007 -0.0011158ZM16.0001 24.8571C14.8955 24.8571 14.0001 23.9616 14.0001 22.8571C14.0001 21.7526 14.8955 20.8571 16.0001 20.8571C17.1047 20.8571 18.0001 21.7526 18.0001 22.8571C18.0001 23.9616 17.1047 24.8571 16.0001 24.8571ZM13.4287 12C13.4287 10.5798 14.5799 9.42857 16.0001 9.42857C17.4202 9.42857 18.5715 10.5798 18.5715 12C18.5715 13.4202 17.4202 14.5714 16.0001 14.5714C15.2111 14.5714 14.5715 15.211 14.5715 16V18.2857C14.5715 19.0747 15.2111 19.7143 16.0001 19.7143C16.7891 19.7143 17.4287 19.0747 17.4287 18.2857V17.2386C19.7337 16.6115 21.4287 14.5037 21.4287 12C21.4287 9.00187 18.9982 6.57143 16.0001 6.57143C13.002 6.57143 10.5715 9.00187 10.5715 12C10.5715 12.789 11.2111 13.4286 12.0001 13.4286C12.7891 13.4286 13.4287 12.789 13.4287 12Z" fill="#031B4E"/>
</g>
<defs>
<clipPath id="clip0_187_7930">
<rect width="32" height="32" fill="white"/>
</clipPath>
</defs>
</svg>
