<svg width="25" height="24" viewBox="0 0 25 24" fill="none" xmlns="http://www.w3.org/2000/svg">
<path d="M12.4993 11.151C12.105 11.151 11.7141 11.2316 11.3507 11.3893L1.56212 15.9579L1.53812 15.9699C1.23771 16.1213 0.985247 16.3532 0.808854 16.6397C0.632461 16.9262 0.539062 17.256 0.539062 17.5924C0.539062 17.9289 0.632461 18.2587 0.808854 18.5452C0.985247 18.8317 1.23771 19.0635 1.53812 19.215L1.56383 19.227L11.3353 23.7527L11.3524 23.7613C11.7148 23.9189 12.1058 24.0002 12.501 24.0002C12.8962 24.0002 13.2871 23.9189 13.6495 23.7613L23.4398 19.191L23.4638 19.1807C23.7642 19.0293 24.0167 18.7974 24.1931 18.5109C24.3695 18.2244 24.4629 17.8946 24.4629 17.5581C24.4629 17.2217 24.3695 16.8919 24.1931 16.6054C24.0167 16.3189 23.7642 16.087 23.4638 15.9356L23.4381 15.9236L13.6667 11.3979L13.6495 11.3893C13.2872 11.2313 12.8962 11.1496 12.501 11.1493L12.4993 11.151Z" fill="#C1C1FD"/>
<path d="M12.4995 5.57447C12.1052 5.57447 11.7144 5.65676 11.3509 5.81447L1.56237 10.3813L1.53837 10.3933C1.23841 10.545 0.986382 10.7768 0.810309 11.0631C0.634235 11.3494 0.541016 11.6789 0.541016 12.015C0.541016 12.3512 0.634235 12.6807 0.810309 12.967C0.986382 13.2533 1.23841 13.4851 1.53837 13.6368L1.56409 13.6505L11.3355 18.1762L11.3527 18.1848C11.7151 18.3424 12.106 18.4237 12.5012 18.4237C12.8964 18.4237 13.2874 18.3424 13.6498 18.1848L23.4401 13.6145L23.4641 13.6025C23.764 13.4508 24.0161 13.219 24.1922 12.9327C24.3682 12.6464 24.4614 12.3169 24.4614 11.9808C24.4614 11.6446 24.3682 11.3151 24.1922 11.0288C24.0161 10.7425 23.764 10.5107 23.4641 10.359L23.4384 10.3453L13.6669 5.81961L13.6498 5.81104C13.2867 5.65402 12.8951 5.57349 12.4995 5.57447Z" fill="#2626C6"/>
<path d="M12.4993 -0.000364408C12.105 -0.000364408 11.7141 0.080207 11.3507 0.237921L1.56212 4.80821L1.53812 4.81849C1.23771 4.96996 0.985247 5.20184 0.808854 5.48833C0.632461 5.77481 0.539062 6.10463 0.539062 6.44106C0.539062 6.7775 0.632461 7.10732 0.808854 7.3938C0.985247 7.68028 1.23771 7.91217 1.53812 8.06364L1.56383 8.07564L11.3353 12.6013L11.3524 12.6099C11.7148 12.7675 12.1058 12.8489 12.501 12.8489C12.8962 12.8489 13.2871 12.7675 13.6495 12.6099L23.4398 8.04135L23.4638 8.02935C23.7642 7.87789 24.0167 7.646 24.1931 7.35952C24.3695 7.07304 24.4629 6.74321 24.4629 6.40678C24.4629 6.07035 24.3695 5.74052 24.1931 5.45404C24.0167 5.16756 23.7642 4.93567 23.4638 4.78421L23.4381 4.77221L13.6667 0.246493L13.6495 0.237921C13.2866 0.0803085 12.895 -0.000807129 12.4993 -0.000364408Z" fill="#C1C1FD"/>
</svg>
