<svg width="25" height="24" viewBox="0 0 25 24" fill="none" xmlns="http://www.w3.org/2000/svg">
<g clip-path="url(#clip0_40000388_6111)">
<mask id="mask0_40000388_6111" style="mask-type:luminance" maskUnits="userSpaceOnUse" x="0" y="0" width="25" height="24">
<path d="M24.1418 0H0.141846V24H24.1418V0Z" fill="white"/>
</mask>
<g mask="url(#mask0_40000388_6111)">
<path d="M19.1418 8C20.7987 8 22.1418 6.65685 22.1418 5C22.1418 3.34315 20.7987 2 19.1418 2C17.4849 2 16.1418 3.34315 16.1418 5C16.1418 6.65685 17.4849 8 19.1418 8Z" fill="#475467"/>
<path opacity="0.4" d="M19.1418 9.5C16.6618 9.5 14.6418 7.48 14.6418 5C14.6418 4.28 14.8318 3.61 15.1318 3H7.66185C4.21185 3 2.14185 5.06 2.14185 8.52V16.47C2.14185 19.94 4.21185 22 7.66185 22H15.6118C19.0718 22 21.1318 19.94 21.1318 16.48V9.01C20.5318 9.31 19.8618 9.5 19.1418 9.5Z" fill="#475467"/>
<path d="M11.8918 14H6.89185C6.48185 14 6.14185 13.66 6.14185 13.25C6.14185 12.84 6.48185 12.5 6.89185 12.5H11.8918C12.3018 12.5 12.6418 12.84 12.6418 13.25C12.6418 13.66 12.3018 14 11.8918 14Z" fill="#475467"/>
<path d="M15.8918 18H6.89185C6.48185 18 6.14185 17.66 6.14185 17.25C6.14185 16.84 6.48185 16.5 6.89185 16.5H15.8918C16.3018 16.5 16.6418 16.84 16.6418 17.25C16.6418 17.66 16.3018 18 15.8918 18Z" fill="#475467"/>
</g>
</g>
<defs>
<clipPath id="clip0_40000388_6111">
<rect width="24" height="24" fill="white" transform="translate(0.141846)"/>
</clipPath>
</defs>
</svg>
