<svg width="25" height="24" viewBox="0 0 25 24" fill="none" xmlns="http://www.w3.org/2000/svg">
<g clip-path="url(#clip0_40000033_1720)">
<mask id="mask0_40000033_1720" style="mask-type:luminance" maskUnits="userSpaceOnUse" x="0" y="0" width="25" height="24">
<path d="M24.1416 0H0.141602V24H24.1416V0Z" fill="white"/>
</mask>
<g mask="url(#mask0_40000033_1720)">
<path opacity="0.4" d="M16.3316 2H7.9516C4.3116 2 2.1416 4.17 2.1416 7.81V16.18C2.1416 19.83 4.3116 22 7.9516 22H16.3216C19.9616 22 22.1316 19.83 22.1316 16.19V7.81C22.1416 4.17 19.9716 2 16.3316 2Z" fill="#E4E7EC"/>
<path d="M16.5614 7.81039V16.1904C16.5614 16.8304 16.0414 17.3504 15.4014 17.3504C14.7514 17.3504 14.2314 16.8304 14.2314 16.1904V7.81039C14.2314 7.17039 14.7514 6.65039 15.4014 6.65039C16.0414 6.65039 16.5614 7.17039 16.5614 7.81039Z" fill="#475467"/>
<path d="M10.0517 12.9295V16.1895C10.0517 16.8295 9.53168 17.3495 8.88168 17.3495C8.24168 17.3495 7.72168 16.8295 7.72168 16.1895V12.9295C7.72168 12.2895 8.24168 11.7695 8.88168 11.7695C9.53168 11.7695 10.0517 12.2895 10.0517 12.9295Z" fill="#475467"/>
</g>
</g>
<defs>
<clipPath id="clip0_40000033_1720">
<rect width="24" height="24" fill="white" transform="translate(0.141602)"/>
</clipPath>
</defs>
</svg>
