<svg width="513" height="512" viewBox="0 0 513 512" fill="none" xmlns="http://www.w3.org/2000/svg">
<path d="M314.703 30C376.623 30 426.943 80.32 426.943 142.24C426.943 204.16 376.623 254.48 314.703 254.48C252.783 254.48 202.463 204.16 202.463 142.24C202.463 80.32 252.783 30 314.703 30ZM340.383 350.64C331.743 357.76 326.703 368.16 326.703 379.04L326.543 466.08C326.543 474.88 319.423 482 310.623 482H195.103C186.303 482 179.183 474.88 179.183 466.08V431.04C179.183 421.92 171.823 414.32 162.463 413.84C150.303 413.2 140.463 408.72 133.183 400.56C115.823 381.04 117.903 346.56 117.903 346.24C118.063 343.84 116.783 341.6 114.703 340.48L92.5425 329.04C89.0225 327.2 86.5425 324.16 85.5825 320.4C84.5425 316.64 85.1825 312.8 87.2625 309.44L112.463 269.52C116.383 263.36 118.303 256.24 118.063 248.96C118.063 247.84 118.063 246.64 118.063 245.52C118.063 194.08 146.703 147.68 191.903 124.4C191.023 130.24 190.463 136.16 190.463 142.24C190.463 210.72 246.223 266.48 314.703 266.48C343.023 266.48 369.103 256.88 389.983 240.8C391.343 283.04 373.343 323.44 340.383 350.56V350.64ZM237.103 148C240.303 147.84 243.183 145.44 243.263 142.16C243.423 137.28 245.743 136.32 246.543 136C249.743 134.64 254.703 135.84 257.743 138.8C260.463 141.44 261.183 144.72 259.823 148.64C259.103 150.64 258.143 152.56 257.183 154.48C255.823 157.12 254.463 159.84 253.503 163.04C249.263 176.88 256.543 192.8 270.143 198.8C282.383 203.92 295.183 202.4 305.343 199.36C316.063 211.52 332.223 218.56 348.383 218.56C353.183 218.56 358.063 217.92 362.703 216.64C373.183 213.68 381.503 207.84 386.223 200.08C392.143 190.32 391.423 177.6 384.543 169.76C379.263 163.76 370.622 160.64 361.582 161.36C353.742 162 346.623 165.2 340.703 168.32C336.543 170.48 332.543 172.8 328.463 175.12C322.143 178.8 316.063 182.24 309.663 185.04C303.583 174.4 302.463 160.8 306.783 148.72C307.103 147.92 307.503 147.04 307.983 146.16C324.063 151.04 341.102 149.52 354.302 141.92C367.662 134.24 376.462 119.36 377.342 103.04C378.142 88.4 372.223 75.36 361.263 67.36C336.463 49.28 291.343 53.04 260.623 75.84C257.983 77.84 257.423 81.6 259.343 84.24C261.343 86.88 265.103 87.44 267.743 85.52C294.543 65.68 333.262 61.92 354.142 77.12C361.822 82.72 365.902 92 365.342 102.48C364.702 114.56 357.982 126 348.302 131.6C339.022 136.96 327.103 138.4 315.343 135.76C315.503 135.52 315.663 135.28 315.903 135.04C325.023 123.2 336.303 108.4 327.503 94.64C321.183 84.72 307.823 83.92 297.983 88.24C285.503 93.76 277.583 106.56 279.183 118.56C280.463 127.76 286.943 136 296.943 141.6C296.383 142.64 295.983 143.68 295.583 144.72C290.383 159.28 291.423 175.68 298.223 188.96C291.263 190.56 282.623 191.12 274.623 187.76C266.943 184.4 262.543 174.72 265.023 166.72C265.663 164.56 266.783 162.4 267.983 160.16C269.183 157.76 270.383 155.36 271.263 152.88C274.223 144.48 272.383 136.24 266.143 130.4C259.583 124.16 249.663 122.08 242.063 125.28C235.503 128 231.583 134.16 231.343 142.24C231.263 145.52 233.903 148.32 237.183 148.4L237.103 148ZM334.383 185.36C338.303 183.12 342.142 180.88 346.142 178.8C351.022 176.32 356.702 173.68 362.462 173.2C367.662 172.72 372.702 174.4 375.422 177.52C378.862 181.44 379.023 188.4 375.823 193.76C372.703 198.88 366.862 202.88 359.342 204.96C344.782 209.04 328.383 204.72 317.343 194.56C323.263 191.76 328.863 188.56 334.303 185.36H334.383ZM290.943 116.72C289.903 109.04 296.223 101.84 302.703 98.96C304.703 98.08 307.263 97.44 309.743 97.44C312.783 97.44 315.743 98.32 317.263 100.8C321.263 107.04 314.943 116.16 306.223 127.52C305.263 128.8 304.303 130 303.343 131.28C298.383 128.64 291.823 123.92 290.863 116.72H290.943Z" fill="white"/>
</svg>
