<svg width="21" height="21" viewBox="0 0 21 21" fill="none" xmlns="http://www.w3.org/2000/svg">
<mask id="mask0_40000399_5418" style="mask-type:luminance" maskUnits="userSpaceOnUse" x="0" y="0" width="21" height="21">
<path d="M20.1418 0.470703H0.141846V20.4707H20.1418V0.470703Z" fill="white"/>
</mask>
<g mask="url(#mask0_40000399_5418)">
<path opacity="0.4" d="M14.3318 0.470703H5.95185C2.31185 0.470703 0.141846 2.6407 0.141846 6.2807V14.6607C0.141846 18.3007 2.31185 20.4707 5.95185 20.4707H14.3318C17.9718 20.4707 20.1418 18.3007 20.1418 14.6607V6.2807C20.1418 2.6407 17.9718 0.470703 14.3318 0.470703Z" fill="#475467"/>
<path d="M16.4519 7.33984C16.4519 7.74984 16.1219 8.08984 15.7019 8.08984H10.4519C10.0419 8.08984 9.7019 7.74984 9.7019 7.33984C9.7019 6.92984 10.0419 6.58984 10.4519 6.58984H15.7019C16.1219 6.58984 16.4519 6.92984 16.4519 7.33984Z" fill="#475467"/>
<path d="M8.1119 6.37125L5.8619 8.62125C5.7119 8.77125 5.5219 8.84125 5.3319 8.84125C5.1419 8.84125 4.9419 8.77125 4.8019 8.62125L4.0519 7.87125C3.7519 7.58125 3.7519 7.10125 4.0519 6.81125C4.3419 6.52125 4.8119 6.52125 5.1119 6.81125L5.3319 7.03125L7.0519 5.31125C7.3419 5.02125 7.8119 5.02125 8.1119 5.31125C8.4019 5.60125 8.4019 6.08125 8.1119 6.37125Z" fill="#475467"/>
<path d="M16.4519 14.3398C16.4519 14.7498 16.1219 15.0898 15.7019 15.0898H10.4519C10.0419 15.0898 9.7019 14.7498 9.7019 14.3398C9.7019 13.9298 10.0419 13.5898 10.4519 13.5898H15.7019C16.1219 13.5898 16.4519 13.9298 16.4519 14.3398Z" fill="#475467"/>
<path d="M8.1119 13.3712L5.8619 15.6213C5.7119 15.7713 5.5219 15.8412 5.3319 15.8412C5.1419 15.8412 4.9419 15.7713 4.8019 15.6213L4.0519 14.8713C3.7519 14.5813 3.7519 14.1012 4.0519 13.8112C4.3419 13.5213 4.8119 13.5213 5.1119 13.8112L5.3319 14.0312L7.0519 12.3113C7.3419 12.0213 7.8119 12.0213 8.1119 12.3113C8.4019 12.6012 8.4019 13.0812 8.1119 13.3712Z" fill="#475467"/>
</g>
</svg>
