<svg width="136" height="136" viewBox="0 0 136 136" fill="none" xmlns="http://www.w3.org/2000/svg">
<g style="mix-blend-mode:overlay">
<path fill-rule="evenodd" clip-rule="evenodd" d="M25.1599 1.35999C17.2729 1.35999 10.8799 7.75296 10.8799 15.64V120.36C10.8799 128.247 17.2729 134.64 25.1599 134.64H110.84C118.727 134.64 125.12 128.247 125.12 120.36V48.1411C125.117 44.3554 123.61 40.7252 120.931 38.0499L88.43 5.53907C85.7527 2.86376 82.1235 1.36096 78.3388 1.35999H25.1599Z" fill="#C1C1FD"/>
<path fill-rule="evenodd" clip-rule="evenodd" d="M68.5808 62.05C68.5808 58.1069 71.7768 54.91 75.7208 54.91H99.5208C105.017 54.91 108.452 60.86 105.704 65.62C104.428 67.829 102.072 69.19 99.5208 69.19H75.7208C71.7778 69.19 68.5808 65.993 68.5808 62.05Z" fill="#2626C6"/>
<path fill-rule="evenodd" clip-rule="evenodd" d="M68.5808 99.8347C68.5808 95.8917 71.7768 92.6947 75.7208 92.6947H99.5208C105.017 92.6947 108.452 98.6457 105.704 103.405C104.428 105.614 102.072 106.975 99.5208 106.975H75.7208C71.7768 106.975 68.5808 103.779 68.5808 99.8347Z" fill="#2626C6"/>
<path fill-rule="evenodd" clip-rule="evenodd" d="M59.5367 82.8512C62.7463 85.1408 63.4914 89.5987 61.2027 92.8093L47.9029 111.411C45.3374 114.996 40.1684 115.422 37.0501 112.306L29.0727 104.338C25.2521 100.386 27.1425 93.7807 32.4747 92.4479C34.8634 91.8514 37.3921 92.5276 39.1639 94.2373L41.1816 96.2549L49.5786 84.4977C51.8741 81.2949 56.332 80.5576 59.5367 82.8512Z" fill="#2626C6"/>
<path fill-rule="evenodd" clip-rule="evenodd" d="M59.5368 44.4662C62.7522 46.7568 63.4983 51.2224 61.2028 54.434L47.903 73.0456C45.3374 76.6302 40.1685 77.0566 37.0502 73.9403L29.0728 65.9629C25.326 61.9412 27.3369 55.3724 32.6923 54.1377C35.0043 53.6054 37.429 54.2543 39.164 55.8717L41.1817 57.8806L49.5787 46.1322C51.8683 42.9235 56.3262 42.1775 59.5368 44.4662Z" fill="#2626C6"/>
</g>
</svg>
