<svg width="25" height="24" viewBox="0 0 25 24" fill="none" xmlns="http://www.w3.org/2000/svg">
<g clip-path="url(#clip0_180_5122)">
<path fill-rule="evenodd" clip-rule="evenodd" d="M16.6102 6.43012C16.8893 5.77715 17.6448 5.47403 18.2977 5.75304C19.7636 6.37946 21.4122 6.42796 22.9124 5.88878C23.5806 5.64861 24.3171 5.99561 24.5573 6.66384C24.7974 7.33209 24.4505 8.06848 23.7822 8.30865C21.6707 9.06751 19.3505 8.99927 17.2873 8.11763C16.6343 7.83859 16.3312 7.08307 16.6102 6.43012ZM7.14934 18.2596C5.68994 17.6234 4.04234 17.5701 2.54486 18.1106C1.87696 18.3518 1.14008 18.0057 0.898989 17.3378C0.657902 16.6699 1.0039 15.9331 1.6718 15.692C3.78741 14.9283 6.1151 15.0036 8.17692 15.9024C8.82784 16.1862 9.12549 16.9439 8.84174 17.5948C8.55797 18.2457 7.80028 18.5434 7.14934 18.2596ZM10.2714 7.70897C9.76927 7.20686 8.95521 7.20686 8.45309 7.70897C7.951 8.21107 7.951 9.02513 8.45309 9.52725L15.2006 16.2747C15.7027 16.7768 16.5167 16.7768 17.0188 16.2747C17.5209 15.7726 17.5209 14.9585 17.0188 14.4564L10.2714 7.70897Z" fill="#2626C6"/>
<path fill-rule="evenodd" clip-rule="evenodd" d="M18.8351 1.82595C19.0811 1.15985 18.7407 0.420445 18.0745 0.17445C17.4084 -0.0715459 16.669 0.269024 16.423 0.935132C15.6459 3.03933 15.6937 5.35961 16.5567 7.43004L16.5581 7.43326C17.0515 8.60803 17.1855 9.90274 16.9431 11.1537C16.701 12.403 16.0943 13.5525 15.1996 14.4574C14.2772 15.3732 13.1038 15.9949 11.828 16.2439C11.1311 16.3799 10.6764 17.0552 10.8124 17.7521C10.9484 18.449 11.6237 18.9038 12.3206 18.7677C14.0979 18.4209 15.7321 17.5541 17.0162 16.2773L17.0233 16.2703C18.2777 15.0035 19.1283 13.3931 19.4675 11.6429C19.8066 9.89323 19.6194 8.08233 18.9296 6.43906C18.3169 4.96839 18.2833 3.32047 18.8351 1.82595ZM13.5614 7.7563C14.2585 7.62074 14.7136 6.94579 14.578 6.24876C14.4425 5.55175 13.7675 5.09661 13.0705 5.23217C11.3013 5.57628 9.67355 6.43646 8.3925 7.70429L8.38206 7.71473C7.13015 8.9825 6.28127 10.5923 5.94229 12.3415C5.6033 14.0906 5.78935 15.901 6.47704 17.5447L6.48011 17.5519C7.10687 19.0245 7.1554 20.6794 6.616 22.1861C6.3767 22.8547 6.72465 23.5906 7.39319 23.8299C8.06173 24.0693 8.79769 23.7214 9.037 23.0529C9.79399 20.9381 9.7264 18.6159 8.84783 16.5488C8.35711 15.3741 8.22453 14.0806 8.46674 12.8307C8.70873 11.582 9.31399 10.4327 10.2066 9.52678C11.1259 8.61898 12.2931 8.00301 13.5614 7.7563Z" fill="#C1C1FD"/>
</g>
<defs>
<clipPath id="clip0_180_5122">
<rect width="24" height="24" fill="white" transform="translate(0.727539)"/>
</clipPath>
</defs>
</svg>
