<svg width="25" height="24" viewBox="0 0 25 24" fill="none" xmlns="http://www.w3.org/2000/svg">
<path fill-rule="evenodd" clip-rule="evenodd" d="M5.16746 0.23999C3.77563 0.23999 2.64746 1.36816 2.64746 2.75999V21.24C2.64746 22.6318 3.77563 23.76 5.16746 23.76H20.2875C21.6793 23.76 22.8075 22.6318 22.8075 21.24V8.49548C22.8069 7.82742 22.5411 7.18679 22.0683 6.71468L16.3328 0.977476C15.8603 0.505362 15.2199 0.240162 14.552 0.23999H5.16746Z" fill="#C1C1FD"/>
<path fill-rule="evenodd" clip-rule="evenodd" d="M12.8301 10.9499C12.8301 10.2541 13.3941 9.68994 14.0901 9.68994H18.2901C19.26 9.68994 19.8662 10.7399 19.3812 11.5799C19.1561 11.9698 18.7402 12.2099 18.2901 12.2099H14.0901C13.3942 12.2099 12.8301 11.6458 12.8301 10.9499Z" fill="#2626C6"/>
<path fill-rule="evenodd" clip-rule="evenodd" d="M12.8301 17.6179C12.8301 16.9221 13.3941 16.3579 14.0901 16.3579H18.2901C19.26 16.3579 19.8662 17.4081 19.3812 18.2479C19.1561 18.6377 18.7402 18.8779 18.2901 18.8779H14.0901C13.3941 18.8779 12.8301 18.3139 12.8301 17.6179Z" fill="#2626C6"/>
<path fill-rule="evenodd" clip-rule="evenodd" d="M11.2339 14.6208C11.8003 15.0249 11.9318 15.8115 11.5279 16.3781L9.18091 19.6608C8.72816 20.2934 7.81599 20.3686 7.26571 19.8187L5.85794 18.4126C5.18371 17.7153 5.51731 16.5495 6.45828 16.3143C6.87982 16.2091 7.32605 16.3284 7.63874 16.6301L7.99479 16.9862L9.47662 14.9114C9.88171 14.3462 10.6684 14.2161 11.2339 14.6208Z" fill="#2626C6"/>
<path fill-rule="evenodd" clip-rule="evenodd" d="M11.2337 7.84696C11.8011 8.25119 11.9328 9.03925 11.5277 9.60599L9.18065 12.8904C8.7279 13.523 7.81573 13.5982 7.26545 13.0483L5.85767 11.6405C5.19647 10.9308 5.55133 9.77159 6.49642 9.55371C6.90442 9.45976 7.3323 9.57428 7.63848 9.85971L7.99453 10.2142L9.47636 8.14096C9.88042 7.57474 10.6671 7.44308 11.2337 7.84696Z" fill="#2626C6"/>
</svg>
