<svg width="24" height="24" viewBox="0 0 24 24" fill="none" xmlns="http://www.w3.org/2000/svg">
<g clip-path="url(#clip0_222_8154)">
<path d="M2.57143 0C1.15127 0 0 1.15127 0 2.57143V21.4286C0 22.8487 1.15127 24 2.57143 24H21.4286C22.8487 24 24 22.8487 24 21.4286V2.57143C24 1.15127 22.8487 0 21.4286 0L2.57143 0Z" fill="#C1C1FD"/>
<path d="M0 21.4286V12H3.65477C3.24759 12.4549 3 13.0557 3 13.7143C3 15.1345 4.15126 16.2857 5.57143 16.2857C6.99159 16.2857 8.14286 15.1345 8.14286 13.7143C8.14286 13.0557 7.89526 12.4549 7.48809 12H12V7.48809C11.5451 7.89526 10.9443 8.14286 10.2857 8.14286C8.86555 8.14286 7.71429 6.99159 7.71429 5.57143C7.71429 4.15126 8.86555 3 10.2857 3C10.9443 3 11.5451 3.24759 12 3.65477V0H21.4286C22.8487 0 24 1.15127 24 2.57143V12H20.3453C20.7525 11.5451 21 10.9443 21 10.2857C21 8.86555 19.8487 7.71429 18.4286 7.71429C17.0084 7.71429 15.8571 8.86555 15.8571 10.2857C15.8571 10.9443 16.1047 11.5451 16.5119 12H12V16.5119C12.4549 16.1047 13.0557 15.8571 13.7143 15.8571C15.1345 15.8571 16.2857 17.0084 16.2857 18.4286C16.2857 19.8487 15.1345 21 13.7143 21C13.0557 21 12.4549 20.7525 12 20.3453V24H2.57143C1.15127 24 0 22.8487 0 21.4286Z" fill="#2626C6"/>
</g>
<defs>
<clipPath id="clip0_222_8154">
<rect width="24" height="24" fill="white"/>
</clipPath>
</defs>
</svg>
