<svg width="25" height="24" viewBox="0 0 25 24" fill="none" xmlns="http://www.w3.org/2000/svg">
<path fill-rule="evenodd" clip-rule="evenodd" d="M17.7539 1.31313C15.384 -0.0151362 12.5847 -0.351804 9.96738 0.37663C7.35004 1.10506 5.1272 2.83943 3.78416 5.20107C2.44112 7.5627 2.08698 10.3598 2.79906 12.9816C3.51113 15.6035 5.23158 17.8371 7.58479 19.1948V23.1428C7.58479 23.3702 7.67509 23.5882 7.83584 23.7489C7.99658 23.9097 8.2146 24 8.44193 24H17.0134C17.2407 24 17.4587 23.9097 17.6194 23.7489C17.7802 23.5882 17.8705 23.3702 17.8705 23.1428V19.7143H20.4419C21.1239 19.7143 21.778 19.4434 22.2602 18.9611C22.7424 18.4789 23.0134 17.8248 23.0134 17.1428V10.2857C23.0131 8.45768 22.5257 6.66275 21.6013 5.08569C20.6768 3.50863 19.3488 2.20642 17.7539 1.31313Z" fill="#C1C1FD"/>
<path d="M9.68469 4.6029C8.37726 5.35839 7.37582 6.54804 6.85439 7.96517C6.33295 9.38229 6.32446 10.9373 6.83041 12.36C7.06698 13.0252 7.78526 13.3595 8.46755 13.1778C11.9218 12.2623 15.4396 9.78861 17.5756 7.85833C18.1413 7.34576 18.2596 6.49204 17.7556 5.92119C16.7691 4.80376 15.4266 4.06186 13.9556 3.82128C12.4846 3.5807 10.9757 3.85624 9.68469 4.60118V4.6029Z" fill="#2626C6"/>
</svg>
