<svg width="25" height="24" viewBox="0 0 25 24" fill="none" xmlns="http://www.w3.org/2000/svg">
<g clip-path="url(#clip0_90_29)">
<mask id="mask0_90_29" style="mask-type:luminance" maskUnits="userSpaceOnUse" x="0" y="0" width="25" height="24">
<path d="M25 0H0V24H25V0Z" fill="white"/>
</mask>
<g mask="url(#mask0_90_29)">
<path fill-rule="evenodd" clip-rule="evenodd" d="M17.8821 1.28232C15.471 0.166486 12.7483 -0.169948 10.1215 0.32335C7.49458 0.816645 5.10468 2.11316 3.30924 4.01894C1.51381 5.9247 0.40937 8.3373 0.161132 10.8959C-0.0871057 13.4544 0.534206 16.0213 1.93212 18.2126L0.162479 22.7383C0.106915 22.8802 0.0915224 23.0337 0.11787 23.1831C0.144217 23.3325 0.211361 23.4725 0.31246 23.5889C0.413559 23.7053 0.544997 23.7939 0.693378 23.8456C0.841758 23.8974 1.00178 23.9104 1.15712 23.8834L7.33213 22.8103C10.2972 24.0958 13.6699 24.2104 16.7222 23.1294C19.7746 22.0483 22.2617 19.8583 23.6466 17.0322C25.0316 14.206 25.2034 10.9704 24.1249 8.02375C23.0464 5.07705 20.8041 2.65568 17.8821 1.28232Z" fill="#C1C1FD"/>
<path d="M7.14282 7.82234C7.14282 7.99119 7.17746 8.15834 7.2448 8.31434C7.31209 8.47034 7.41074 8.61209 7.53511 8.73144C7.65949 8.85084 7.80709 8.94554 7.96959 9.01019C8.13209 9.07479 8.30626 9.10804 8.48215 9.10804C8.65798 9.10804 8.83214 9.07479 8.99464 9.01019C9.15714 8.94554 9.3048 8.85084 9.42912 8.73144C9.5535 8.61209 9.65214 8.47034 9.71949 8.31434C9.78678 8.15834 9.82142 7.99119 9.82142 7.82234C9.82142 7.48134 9.68032 7.15429 9.42912 6.91319C9.17798 6.67209 8.8373 6.53659 8.48215 6.53659C8.12694 6.53659 7.78626 6.67209 7.53511 6.91319C7.28397 7.15429 7.14282 7.48134 7.14282 7.82234Z" fill="#3030F8"/>
<path d="M15.1232 7.82234C15.1232 8.16334 15.2643 8.49034 15.5155 8.73144C15.7666 8.97259 16.1072 9.10804 16.4624 9.10804C16.8176 9.10804 17.1583 8.97259 17.4095 8.73144C17.6606 8.49034 17.8018 8.16334 17.8018 7.82234C17.8018 7.48134 17.6606 7.15429 17.4095 6.91319C17.1583 6.67209 16.8176 6.53659 16.4624 6.53659C16.1072 6.53659 15.7666 6.67209 15.5155 6.91319C15.2643 7.15429 15.1232 7.48134 15.1232 7.82234Z" fill="#3030F8"/>
<path d="M12.5 18.8574C14.1576 18.8574 15.7473 18.2253 16.9194 17.1C18.0915 15.9748 18.75 14.4487 18.75 12.8574H6.25C6.25 14.4487 6.90849 15.9748 8.08057 17.1C9.25271 18.2253 10.8424 18.8574 12.5 18.8574Z" fill="#3030F8"/>
</g>
</g>
<defs>
<clipPath id="clip0_90_29">
<rect width="25" height="24" fill="white"/>
</clipPath>
</defs>
</svg>
