<svg width="136" height="136" viewBox="0 0 136 136" fill="none" xmlns="http://www.w3.org/2000/svg">
<g style="mix-blend-mode:overlay">
<g clip-path="url(#clip0_3082_73850)">
<path fill-rule="evenodd" clip-rule="evenodd" d="M97.2789 7.26634C84.1624 0.943259 69.3512 -0.963198 55.061 1.83215C40.7707 4.6275 27.7696 11.9744 18.0024 22.7738C8.2353 33.5732 2.22713 47.2447 0.876716 61.743C-0.473698 76.2413 2.90623 90.7871 10.5109 103.205L0.884041 128.85C0.581775 129.654 0.498039 130.524 0.641367 131.371C0.784695 132.217 1.14996 133.011 1.69994 133.67C2.24992 134.33 2.96494 134.832 3.77213 135.125C4.57932 135.418 5.44982 135.492 6.2949 135.339L39.8869 129.258C56.0169 136.543 74.3645 137.192 90.9692 131.066C107.574 124.94 121.104 112.53 128.638 96.5156C136.172 80.5008 137.107 62.1655 131.24 45.4676C125.373 28.7698 113.175 15.0487 97.2789 7.26634Z" fill="#C1C1FD"/>
<path d="M38.8572 44.3267C38.8572 45.2835 39.0456 46.2309 39.4118 47.1149C39.7779 47.9988 40.3146 48.802 40.9911 49.4785C41.6677 50.1551 42.4708 50.6917 43.3548 51.0579C44.2387 51.424 45.1861 51.6124 46.1429 51.6124C47.0997 51.6124 48.0471 51.424 48.931 51.0579C49.815 50.6917 50.6181 50.1551 51.2947 49.4785C51.9712 48.802 52.5079 47.9988 52.874 47.1149C53.2402 46.2309 53.4286 45.2835 53.4286 44.3267C53.4286 42.3944 52.661 40.5413 51.2947 39.175C49.9283 37.8086 48.0752 37.041 46.1429 37.041C44.2106 37.041 42.3575 37.8086 40.9911 39.175C39.6248 40.5413 38.8572 42.3944 38.8572 44.3267Z" fill="#3030F8"/>
<path d="M82.2703 44.3267C82.2703 46.259 83.0379 48.1122 84.4042 49.4785C85.7705 50.8448 87.6237 51.6124 89.556 51.6124C91.4883 51.6124 93.3414 50.8448 94.7078 49.4785C96.0741 48.1122 96.8417 46.259 96.8417 44.3267C96.8417 42.3944 96.0741 40.5413 94.7078 39.175C93.3414 37.8086 91.4883 37.041 89.556 37.041C87.6237 37.041 85.7705 37.8086 84.4042 39.175C83.0379 40.5413 82.2703 42.3944 82.2703 44.3267Z" fill="#3030F8"/>
<path d="M68 106.857C77.0174 106.857 85.6654 103.275 92.0416 96.8991C98.4179 90.5228 102 81.8748 102 72.8574H34C34 81.8748 37.5821 90.5228 43.9584 96.8991C50.3346 103.275 58.9826 106.857 68 106.857Z" fill="#3030F8"/>
</g>
</g>
<defs>
<clipPath id="clip0_3082_73850">
<rect width="136" height="136" rx="24" fill="white"/>
</clipPath>
</defs>
</svg>
