<svg width="57" height="60" viewBox="0 0 57 60" fill="none" xmlns="http://www.w3.org/2000/svg">
<path fill-rule="evenodd" clip-rule="evenodd" d="M14.7903 3.05284C16.1218 1.5228 17.927 0.663418 19.8091 0.663574H36.038C37.921 0.663574 39.727 1.52396 41.0585 3.05547C42.39 4.58697 43.1381 6.66414 43.1381 8.83002V18.1631C43.1381 19.0913 42.8175 19.9815 42.2468 20.6379C41.6762 21.2943 40.9022 21.663 40.0952 21.663C39.2881 21.663 38.5142 21.2943 37.9435 20.6379C37.3728 19.9815 37.0522 19.0913 37.0522 18.1631V8.83002C37.0522 8.52061 36.9454 8.22387 36.7552 8.00508C36.565 7.78629 36.307 7.66338 36.038 7.66338H19.8091C19.5401 7.66338 19.2821 7.78629 19.0919 8.00508C18.9017 8.22387 18.7948 8.52061 18.7948 8.83002V18.1631C18.7948 19.0913 18.4742 19.9815 17.9036 20.6379C17.3329 21.2943 16.5589 21.663 15.7519 21.663C14.9449 21.663 14.1709 21.2943 13.6002 20.6379C13.0296 19.9815 12.709 19.0913 12.709 18.1631V8.83002C12.709 6.66474 13.4555 4.58347 14.7903 3.05284Z" fill="#2626C6"/>
<path d="M6.25527 15.8193C4.65895 15.8193 3.128 16.4515 1.99923 17.5766C0.870465 18.7018 0.236328 20.2279 0.236328 21.8192L0.236328 53.8183C0.236328 54.6062 0.392013 55.3864 0.694493 56.1143C0.996973 56.8423 1.44032 57.5037 1.99923 58.0608C2.55814 58.618 3.22167 59.0599 3.95192 59.3614C4.68217 59.6629 5.46485 59.8181 6.25527 59.8181H50.3942C51.9905 59.8181 53.5214 59.186 54.6502 58.0608C55.779 56.9356 56.4131 55.4095 56.4131 53.8183V21.8192C56.4131 21.0313 56.2574 20.2511 55.9549 19.5231C55.6525 18.7952 55.2091 18.1338 54.6502 17.5766C54.0913 17.0195 53.4278 16.5776 52.6975 16.276C51.9673 15.9745 51.1846 15.8193 50.3942 15.8193H6.25527Z" fill="#C1C1FD"/>
<path d="M12.7031 33.3294C12.7031 32.0407 13.7478 30.9961 15.0364 30.9961H43.1396C44.4283 30.9961 45.4729 32.0407 45.4729 33.3294C45.4729 34.618 44.4283 35.6626 43.1396 35.6626H15.0364C13.7478 35.6626 12.7031 34.618 12.7031 33.3294Z" fill="#2626C6"/>
<path d="M12.7031 44.9959C12.7031 43.7072 13.7478 42.6626 15.0364 42.6626H43.1396C44.4283 42.6626 45.4729 43.7072 45.4729 44.9959C45.4729 46.2845 44.4283 47.3291 43.1396 47.3291H15.0364C13.7478 47.3291 12.7031 46.2845 12.7031 44.9959Z" fill="#2626C6"/>
</svg>
