<svg width="412" height="354" viewBox="0 0 412 354" fill="none" xmlns="http://www.w3.org/2000/svg">
<g filter="url(#filter0_dd_141_9070)">
<path d="M398.639 198.136C386.935 187.911 365.97 169.779 348.378 155.552C349.745 150.347 350.582 144.912 350.873 139.342C351.1 134.931 351.034 129.133 348.507 123.369C348.031 122.291 347.473 121.246 346.839 120.252C349.007 114.923 350.131 109.211 350.131 103.361C350.131 78.538 329.938 58.345 305.115 58.345C298.914 58.345 293.001 59.6043 287.622 61.8832V60.4159C287.622 53.9599 282.388 48.7264 275.932 48.7264H264.823C264.642 47.8645 264.336 47.0512 263.976 46.2664C265.718 43.4291 266.741 40.1055 266.741 36.5388C266.741 26.2478 258.368 17.8751 248.076 17.8751C238.016 17.8751 229.813 25.8806 229.447 35.853L143.006 23.325C134.804 10.5757 120.579 2.63397 105.153 2.63397C80.3323 2.63397 60.1376 22.827 60.1376 47.6498C60.1376 54.1695 61.5412 60.3639 64.0464 65.9631C53.903 66.1358 45.6996 74.4279 45.6996 84.61C45.6996 94.9026 54.0723 103.275 64.365 103.275C65.0961 103.275 65.8155 103.222 66.5248 103.139C65.4181 107.405 64.6384 111.695 64.2342 115.971C63.5903 115.87 62.9363 115.805 62.2723 115.805C62.0744 115.805 61.8748 115.808 61.6786 115.818C59.3863 113.306 56.0862 111.728 52.4273 111.728C48.7667 111.728 45.4682 113.308 43.1759 115.818C42.9797 115.808 42.7802 115.805 42.5823 115.805C39.2369 115.805 36.0912 117.108 33.7267 119.476C31.136 122.065 29.9202 125.519 30.0778 128.92C27.5608 131.212 25.9795 134.514 25.9795 138.178C25.9795 141.842 27.5608 145.144 30.0778 147.436C29.9202 150.837 31.136 154.289 33.7267 156.878C36.0928 159.245 39.2386 160.549 42.5823 160.549C42.7802 160.549 42.9781 160.546 43.1759 160.536C43.9741 161.411 44.9015 162.166 45.9177 162.786C45.8858 163.623 45.8757 164.431 45.8875 165.179C45.8942 165.654 45.9043 166.125 45.921 166.594C42.6193 164.129 39.0022 161.956 34.9307 160.304C32.8279 159.466 29.5882 158.349 25.7549 158.349C24.353 158.349 22.9645 158.5 21.6398 158.797C18.0412 159.6 14.7444 161.487 12.0396 164.322C11.7395 164.644 11.2045 165.213 10.6311 165.974C8.89716 168.202 7.59421 170.827 6.85639 173.58C5.3757 179.095 6.10013 184.257 6.90167 188.152C8.10064 193.946 9.97373 199.475 12.4756 204.591C12.754 205.236 13.0558 205.84 13.3828 206.424C15.4185 210.353 17.8383 214.068 20.5984 217.518C16.0859 221.631 13.4348 227.289 13.5287 233.197C13.6343 237.944 15.4252 241.747 16.968 244.521C26.0433 260.875 41.5292 271.022 56.923 279.554C59.113 280.766 61.2779 281.947 63.4763 283.117C63.545 283.156 65.18 284.009 65.2186 284.03C77.9696 290.722 91.128 296.796 104.412 302.123V331.677C104.412 335.117 105.928 338.382 108.556 340.606C110.68 342.402 113.36 343.366 116.102 343.366C116.751 343.366 117.401 343.312 118.05 343.202L255.337 319.989C260.961 319.038 265.078 314.167 265.078 308.463V301.602C266.734 302.381 268.554 302.814 270.403 302.814C270.601 302.814 270.799 302.809 270.995 302.799C273.288 305.314 276.588 306.894 280.25 306.894C283.912 306.894 287.211 305.314 289.505 302.799C289.703 302.809 289.9 302.814 290.098 302.814C293.422 302.814 296.668 301.459 298.93 299.168C301.313 296.802 302.623 293.648 302.623 290.289C302.623 290.092 302.62 289.892 302.609 289.696C305.121 287.404 306.699 284.103 306.699 280.443C306.699 276.782 305.12 273.484 302.609 271.191C302.62 270.994 302.623 270.796 302.623 270.596C302.623 270.172 302.601 269.751 302.561 269.335C305.121 270.658 308.017 271.418 311.091 271.418C318.775 271.418 325.383 266.749 328.244 260.104C333.855 264.113 339.269 267.937 343.76 271.091C347.384 273.636 351.638 274.981 356.062 274.981C362.913 274.981 369.403 271.671 373.422 266.124L401.891 226.846C408.429 217.811 407.034 205.471 398.639 198.136Z" fill="white"/>
<path d="M142.385 304.174C140.608 303.497 138.999 302.858 137.537 302.242L137.514 302.229C136.682 301.877 135.892 301.533 135.144 301.199C135.144 301.199 135.139 301.181 135.121 301.186C128.75 298.312 124.55 295.835 116.028 292.558C101.317 286.885 86.929 280.346 72.9673 273.018L72.9438 273.004C72.4558 272.746 71.9745 272.504 71.4866 272.246C71.4631 272.233 71.4631 272.233 71.4631 272.233C69.258 271.061 67.0915 269.878 64.8981 268.664C51.094 261.014 37.1658 251.99 29.5075 238.189C28.4779 236.339 27.5808 234.376 27.5355 232.278C27.4752 228.456 30.3896 225.109 33.8154 223.481C37.2614 221.849 41.1736 221.586 44.9768 221.37C36.7768 215.943 30.3225 208.671 25.9676 200.164C25.7597 199.815 25.5887 199.456 25.431 199.074C23.2628 194.699 21.6799 190.014 20.6687 185.126C20.0483 182.107 19.6693 178.928 20.4658 175.955C20.8079 174.684 21.4199 173.444 22.245 172.411C22.4378 172.141 22.6592 171.905 22.8822 171.669C23.8682 170.636 25.0991 169.864 26.506 169.549C28.654 169.068 30.8809 169.692 32.915 170.505C40.6135 173.627 46.6972 179.667 52.3986 185.704C52.4791 185.785 52.5646 185.884 52.6451 185.964C52.8916 186.224 53.1432 186.502 53.388 186.761C66.4526 200.645 78.8665 215.135 90.5728 230.167C90.8864 230.529 91.1564 230.884 91.4498 231.252L91.4549 231.27C95.8282 236.898 100.096 242.592 104.261 248.354C105.437 249.986 106.56 251.572 107.635 253.13C107.924 253.559 108.209 253.97 108.469 254.366C120.789 272.308 127.568 286.129 142.385 304.174Z" fill="#6CE9A6"/>
<path d="M137.515 302.227C136.684 301.875 135.894 301.531 135.146 301.198C135.146 301.198 135.141 301.179 135.122 301.184C125.516 291.291 116.276 281.023 107.281 270.613C106.998 270.283 106.713 269.952 106.433 269.642C98.2478 260.132 90.2575 250.514 82.3761 241.009C82.0642 240.645 81.7691 240.278 81.4756 239.911C81.0111 239.344 80.5517 238.798 80.0922 238.251C71.4194 227.76 62.6141 217.141 53.5774 206.642L53.5589 206.647L53.5539 206.628L53.5354 206.633C53.1749 206.162 52.7825 205.718 52.3885 205.275C52.3885 205.275 52.37 205.28 52.365 205.262L52.3465 205.267C42.6558 194.008 32.6549 182.947 22.2432 172.413C22.436 172.143 22.6574 171.907 22.8804 171.67C33.4296 182.35 43.5497 193.562 53.3728 204.95C53.7568 205.355 54.1257 205.785 54.4762 206.219L54.4812 206.238C63.4743 216.648 72.2276 227.219 80.8401 237.625C83.5264 240.867 86.2346 244.122 88.9495 247.395C89.2379 247.744 89.528 248.092 89.8164 248.441L89.8215 248.46C95.5296 255.318 101.298 262.182 107.181 269.017C107.492 269.38 107.806 269.743 108.136 270.101L108.141 270.12C117.617 281.085 127.353 291.889 137.515 302.227Z" fill="#3D2929"/>
<path d="M53.3864 186.756C53.4317 193.153 53.715 199.693 54.4646 206.174L54.4797 206.231L54.5518 206.917L53.8576 206.71C53.7486 206.677 53.6597 206.64 53.5591 206.645L53.5356 206.632C44.4956 204.009 35.2492 201.839 25.966 200.162C25.7581 199.813 25.5871 199.455 25.4294 199.072C34.5198 200.699 43.5246 202.786 52.3652 205.26C52.3702 205.278 52.3886 205.273 52.3886 205.273C52.7391 205.386 53.0829 205.48 53.4283 205.573C53.3948 205.361 53.3847 205.163 53.3713 204.945C52.6737 198.51 52.4423 192.019 52.397 185.701C52.4775 185.781 52.563 185.88 52.6435 185.961C52.89 186.217 53.1416 186.496 53.3864 186.756Z" fill="#3D2929"/>
<path d="M82.6748 241.041C63.934 238.589 46.092 238.246 31.0788 240.047L30.9631 239.079C46.0551 237.266 63.9809 237.612 82.8022 240.074L82.6748 241.041Z" fill="#3D2929"/>
<path d="M91.448 231.245L91.453 231.263L89.8147 248.433L89.8197 248.451L89.8147 248.513L88.8455 248.416L88.9478 247.387L90.571 230.16C90.8845 230.524 91.1545 230.878 91.448 231.245Z" fill="#3D2929"/>
<path d="M108.467 254.359C108.202 256.817 108.051 259.326 107.9 261.754C107.823 263.119 107.92 264.543 108.023 265.903C108.107 267.268 108.204 268.69 108.135 270.093L108.14 270.112C108.127 270.135 108.127 270.135 108.13 270.153L108.106 270.621L107.644 270.618C107.521 270.61 107.402 270.618 107.28 270.61C95.8116 270.548 84.3166 271.336 72.9658 273.013L72.9423 272.999C72.4543 272.741 71.9731 272.499 71.4851 272.241C83.0539 270.469 94.7501 269.61 106.431 269.639C106.673 269.639 106.933 269.632 107.172 269.632C107.181 269.429 107.186 269.206 107.176 269.008C107.198 267.979 107.12 266.952 107.052 265.966C106.941 264.568 106.862 263.141 106.939 261.695C107.09 258.865 107.268 255.987 107.63 253.123C107.922 253.552 108.207 253.963 108.467 254.359Z" fill="#3D2929"/>
<path d="M221.626 297.544C223.566 296.445 225.315 295.419 226.898 294.446L226.923 294.426C227.826 293.87 228.679 293.333 229.486 292.813C229.486 292.813 229.487 292.791 229.511 292.793C236.381 288.336 240.808 284.722 250.098 279.418C266.132 270.241 281.638 260.117 296.514 249.156L296.539 249.135C297.057 248.75 297.574 248.386 298.092 248C298.117 247.98 298.117 247.98 298.117 247.98C300.463 246.233 302.764 244.48 305.09 242.685C319.722 231.377 334.257 218.457 340.685 201.115C341.55 198.789 342.241 196.356 341.922 193.917C341.315 189.479 337.348 186.118 333.088 184.841C328.807 183.559 324.23 183.948 319.787 184.373C328.325 176.634 334.512 167.067 338.05 156.443C338.23 156.002 338.364 155.555 338.478 155.084C340.214 149.631 341.218 143.926 341.523 138.084C341.708 134.479 341.584 130.729 340.133 127.426C339.511 126.014 338.584 124.686 337.445 123.638C337.173 123.359 336.875 123.125 336.576 122.89C335.252 121.869 333.689 121.193 332.002 121.077C329.428 120.899 326.959 122.018 324.748 123.319C316.383 128.299 310.407 136.374 304.872 144.376C304.793 144.483 304.711 144.612 304.632 144.719C304.392 145.063 304.151 145.43 303.912 145.774C291.239 164.171 279.427 183.154 268.53 202.637C268.232 203.113 267.982 203.571 267.707 204.049L267.705 204.073C263.637 211.367 259.702 218.719 255.898 226.13C254.827 228.23 253.806 230.264 252.836 232.259C252.578 232.808 252.322 233.334 252.09 233.839C240.998 256.809 235.591 274.019 221.626 297.544Z" fill="#6CE9A6"/>
<path d="M226.923 294.426C227.826 293.87 228.679 293.333 229.486 292.813C229.486 292.813 229.487 292.791 229.511 292.793C238.886 279.631 247.769 266.1 256.343 252.449C256.613 252.016 256.884 251.584 257.152 251.173C264.948 238.709 272.499 226.152 279.945 213.747C280.243 213.27 280.516 212.792 280.791 212.315C281.229 211.577 281.663 210.861 282.099 210.146C290.288 196.458 298.605 182.599 307.212 168.836L307.236 168.838L307.238 168.815L307.259 168.816C307.593 168.206 307.97 167.622 308.346 167.04C308.346 167.04 308.368 167.042 308.371 167.02L308.395 167.022C317.624 152.264 327.249 137.682 337.443 123.634C337.172 123.356 336.873 123.121 336.575 122.886C326.248 137.127 316.512 151.905 307.15 166.834C306.778 167.372 306.426 167.934 306.097 168.499L306.096 168.523C297.522 182.174 289.256 195.97 281.125 209.548C278.588 213.777 276.027 218.028 273.464 222.3C273.19 222.756 272.917 223.211 272.645 223.667L272.644 223.69C267.247 232.647 261.781 241.618 256.178 250.576C255.881 251.052 255.583 251.528 255.263 252.001L255.261 252.025C246.224 266.412 236.861 280.652 226.923 294.426Z" fill="#3D2929"/>
<path d="M303.912 145.771C304.992 153.189 305.824 160.814 306.102 168.454L306.096 168.523L306.134 169.329L306.902 168.967C307.023 168.91 307.12 168.85 307.236 168.838L307.261 168.818C317.267 164.178 327.593 160.028 338.049 156.441C338.228 156 338.362 155.554 338.476 155.083C328.236 158.576 318.174 162.592 308.373 167.022C308.371 167.045 308.348 167.042 308.348 167.042C307.962 167.235 307.58 167.404 307.196 167.574C307.197 167.322 307.174 167.091 307.152 166.836C306.82 159.26 305.938 151.699 304.872 144.374C304.793 144.481 304.711 144.61 304.632 144.718C304.394 145.06 304.152 145.427 303.912 145.771Z" fill="#3D2929"/>
<path d="M279.604 213.839C300.877 207.678 321.483 204.12 339.192 203.548L339.155 202.406C321.352 202.981 300.651 206.554 279.286 212.742L279.604 213.839Z" fill="#3D2929"/>
<path d="M267.707 204.048L267.705 204.071L272.644 223.669L272.642 223.692L272.659 223.763L273.764 223.478L273.464 222.302L268.532 202.637C268.233 203.11 267.983 203.568 267.707 204.048Z" fill="#3D2929"/>
<path d="M252.088 233.834C252.83 236.634 253.448 239.514 254.054 242.301C254.386 243.868 254.525 245.534 254.647 247.127C254.793 248.723 254.932 250.388 255.259 252.001L255.258 252.025C255.278 252.05 255.278 252.05 255.276 252.072L255.385 252.61L255.922 252.524C256.063 252.493 256.202 252.483 256.341 252.451C269.613 250.348 283.067 249.224 296.512 249.156L296.537 249.135C297.056 248.75 297.572 248.386 298.09 248C284.377 247.997 270.675 249.073 257.151 251.176C256.871 251.218 256.569 251.258 256.291 251.3C256.244 251.067 256.2 250.811 256.177 250.579C255.969 249.39 255.878 248.188 255.781 247.033C255.662 245.393 255.501 243.726 255.155 242.066C254.48 238.814 253.764 235.513 252.836 232.258C252.578 232.803 252.32 233.329 252.088 233.834Z" fill="#3D2929"/>
<path d="M142.201 299.043C140.696 297.307 139.353 295.707 138.151 294.218L138.134 294.19C137.45 293.34 136.808 292.523 136.204 291.74C136.204 291.74 136.209 291.716 136.187 291.711C131.056 285.014 128.006 279.98 120.817 271.626C108.418 257.184 96.8577 242.009 86.1994 226.236L86.1826 226.207C85.8121 225.654 85.4364 225.122 85.0675 224.569C85.0507 224.541 85.0508 224.541 85.0508 224.541C83.3772 222.034 81.749 219.54 80.109 216.993C69.8046 200.969 60.1525 183.412 59.8976 164.361C59.8607 161.805 60.0301 159.204 61.1787 156.947C63.3 152.849 68.3105 150.956 72.885 151.184C77.4813 151.419 81.7909 153.374 85.9596 155.319C80.3421 144.862 77.6356 133.439 77.867 121.907C77.8452 121.416 77.8687 120.938 77.9207 120.442C78.1168 114.549 79.1096 108.665 80.8284 102.888C81.8932 99.3246 83.3068 95.726 85.854 93.0212C86.944 91.8641 88.3039 90.8966 89.7695 90.2711C90.13 90.095 90.5007 89.9693 90.8712 89.8452C92.5096 89.3102 94.2602 89.1929 95.9371 89.6641C98.4977 90.3801 100.508 92.3169 102.205 94.3442C108.608 102.065 111.623 111.963 114.235 121.64C114.275 121.771 114.309 121.926 114.349 122.056C114.463 122.472 114.571 122.912 114.685 123.329C120.641 145.56 125.557 168.062 129.413 190.735C129.537 191.3 129.622 191.83 129.725 192.39L129.72 192.413C131.152 200.897 132.436 209.392 133.571 217.898C133.888 220.306 134.177 222.634 134.43 224.904C134.492 225.527 134.559 226.125 134.611 226.695C137.45 252.818 136.759 271.389 142.201 299.043Z" fill="#3030F8"/>
<path d="M138.134 294.19C137.45 293.34 136.808 292.523 136.204 291.74C136.204 291.74 136.209 291.716 136.187 291.711C131.628 275.701 127.672 259.502 124.059 243.293C123.945 242.78 123.832 242.267 123.713 241.776C120.447 226.987 117.447 212.192 114.499 197.581C114.375 197.016 114.272 196.458 114.17 195.898C114.001 195.031 113.825 194.186 113.648 193.342C110.424 177.229 107.129 160.906 103.522 144.577L103.498 144.572L103.503 144.548L103.48 144.543C103.366 143.836 103.202 143.14 103.037 142.444C103.037 142.444 103.015 142.439 103.02 142.415L102.997 142.41C99.1284 124.9 94.8154 107.424 89.7664 90.2711C90.1269 90.095 90.4975 89.9692 90.8681 89.8452C95.9792 107.231 100.332 124.937 104.27 142.659C104.446 143.309 104.593 143.977 104.717 144.639L104.712 144.662C108.326 160.873 111.591 177.115 114.799 193.102C115.802 198.083 116.823 203.093 117.837 208.126C117.945 208.662 118.052 209.199 118.161 209.734L118.156 209.757C120.304 220.312 122.516 230.908 124.864 241.537C124.988 242.103 125.113 242.668 125.261 243.238L125.256 243.26C129.061 260.337 133.238 277.391 138.134 294.19Z" fill="#3D2929"/>
<path d="M114.681 123.326C111.074 130.154 107.637 137.269 104.731 144.589L104.714 144.657L104.399 145.427L103.778 144.81C103.681 144.713 103.607 144.622 103.498 144.57L103.482 144.542C95.3688 136.587 86.7765 128.995 77.8655 121.905C77.8438 121.414 77.8672 120.936 77.9192 120.44C86.6541 127.364 95.0351 134.734 103.024 142.415C103.019 142.439 103.041 142.444 103.041 142.444C103.349 142.764 103.661 143.061 103.975 143.358C104.06 143.113 104.164 142.897 104.271 142.657C107.206 135.416 110.672 128.382 114.234 121.639C114.274 121.77 114.308 121.924 114.348 122.055C114.46 122.471 114.569 122.91 114.681 123.326Z" fill="#3D2929"/>
<path d="M114.796 197.788C96.2694 184.468 77.495 173.906 60.5032 167.242L60.9325 166.147C78.0165 172.846 96.878 183.457 115.483 196.834L114.796 197.788Z" fill="#3D2929"/>
<path d="M129.723 192.386L129.718 192.41L118.162 209.73L118.157 209.754L118.117 209.816L117.143 209.159L117.84 208.122L129.413 190.735C129.535 191.296 129.62 191.826 129.723 192.386Z" fill="#3D2929"/>
<path d="M134.608 226.69C132.922 229.152 131.328 231.734 129.778 234.231C128.915 235.64 128.205 237.206 127.536 238.712C126.844 240.211 126.134 241.779 125.261 243.233L125.256 243.255C125.227 243.271 125.227 243.271 125.22 243.295L124.929 243.779L124.439 243.511C124.313 243.431 124.182 243.374 124.057 243.293C111.899 236.673 99.2255 230.941 86.1978 226.236L86.181 226.207C85.8104 225.654 85.4348 225.122 85.0659 224.569C98.3787 229.298 111.307 235.068 123.711 241.776C123.968 241.913 124.246 242.056 124.504 242.193C124.63 241.982 124.761 241.749 124.865 241.532C125.477 240.449 125.98 239.316 126.471 238.226C127.152 236.674 127.883 235.113 128.792 233.619C130.57 230.695 132.404 227.737 134.427 224.899C134.489 225.522 134.557 226.12 134.608 226.69Z" fill="#3D2929"/>
<path d="M118.417 30.5725V331.011L255.703 307.798V50.4687L118.417 30.5725Z" fill="#8383FB"/>
<path d="M240.446 267.385C230.042 274.321 217.729 278.392 205.223 278.957C195.929 279.366 186.559 277.827 177.851 274.554C174.403 273.249 171.033 271.671 167.837 269.84C168.772 261.91 169.747 254.196 170.642 245.975C161.699 247.844 152.543 249.716 143.485 248.527C140.738 248.176 137.757 247.338 136.296 244.98C135.225 243.305 135.205 241.18 135.205 239.193C135.263 221.718 135.828 205.469 135.887 187.975C132.087 187.156 128.348 185.852 124.744 184.448C129.263 168.201 129.478 151.115 130.979 134.321C132.459 117.509 135.459 100.267 144.733 86.1812C155.369 70.0111 174.111 59.5104 193.458 58.8481C205.498 58.459 219.973 63.7764 226.772 73.7522C233.552 83.7078 236.299 95.8836 237.721 107.845C239.864 126.099 239.26 144.548 238.656 162.92C237.602 194.659 240.934 234.012 240.446 267.385Z" fill="#F0F7FD"/>
<path d="M157.722 85.2069C155.731 88.2354 154.333 91.6193 152.374 94.6679C150.7 97.2721 148.633 99.6063 146.964 102.214C142.878 108.596 141.377 116.778 143.755 123.973C146.134 131.169 152.649 137.044 160.182 137.881C168.029 138.753 175.616 134.442 183.512 134.469C191.147 134.494 198.238 138.554 205.841 139.259C217.554 140.348 229.63 132.054 232.195 120.572C233.102 116.514 232.906 112.275 232.188 108.179C230.329 97.5622 224.832 87.5244 216.518 80.6659C200.801 67.7053 169.983 66.5533 157.722 85.2069Z" fill="#D6D6FE"/>
<path d="M154.232 160.231C154.232 162.795 152.153 164.874 149.589 164.874C147.025 164.874 144.945 162.795 144.945 160.231C144.945 157.667 147.025 155.589 149.589 155.589C152.153 155.589 154.232 157.667 154.232 160.231Z" fill="#6CE9A6"/>
<path d="M202.65 239.487L177.849 274.554C174.402 273.249 171.031 271.671 167.835 269.84C168.771 261.91 169.745 254.196 170.64 245.975L202.65 239.487Z" fill="#6CE9A6"/>
<path d="M219.891 96.2308C222.637 96.2308 224.864 94.004 224.864 91.2571C224.864 88.5103 222.637 86.2835 219.891 86.2835C217.144 86.2835 214.917 88.5103 214.917 91.2571C214.917 94.004 217.144 96.2308 219.891 96.2308Z" fill="#6CE9A6"/>
<path d="M221.217 90.9251H272.285V67.3801" stroke="#6CE9A6" stroke-width="0.5809" stroke-miterlimit="10" stroke-linecap="round" stroke-linejoin="round"/>
<path d="M278.253 59.7536H264.989V72.0233H278.253V59.7536Z" fill="#6CE9A6"/>
<path d="M150.251 132.708C152.998 132.708 155.225 130.481 155.225 127.734C155.225 124.987 152.998 122.761 150.251 122.761C147.505 122.761 145.278 124.987 145.278 127.734C145.278 130.481 147.505 132.708 150.251 132.708Z" fill="#6CE9A6"/>
<path d="M148.925 127.402H97.8572V103.857" stroke="#6CE9A6" stroke-width="0.5809" stroke-miterlimit="10" stroke-linecap="round" stroke-linejoin="round"/>
<path d="M91.8887 108.5H105.153V96.2306H91.8887V108.5Z" fill="#6CE9A6"/>
<path d="M139.544 282.237L129.871 283.48V272.563L139.544 271.321V282.237Z" fill="#FECDCA"/>
<path d="M139.544 298.431L129.871 299.673V288.757L139.544 287.514V298.431Z" fill="#C1C1FD"/>
<path d="M139.544 316.586L129.871 317.829V306.912L139.544 305.67V316.586Z" fill="#F0F7FD"/>
<path d="M317.381 144.979C302.965 138.005 213.913 101.203 207.95 116.127C201.988 131.049 274.111 152.441 274.111 152.441C274.111 152.441 250.225 153.922 243.271 156.922C236.297 159.904 214.925 194.717 214.419 208.141C213.912 221.583 225.855 212.621 232.829 200.192C239.785 187.763 250.227 181.782 250.227 181.782C250.227 181.782 236.297 207.654 236.804 219.597C237.29 231.52 248.24 229.533 248.24 229.533C252.721 237.501 256.208 234.013 265.656 227.546C275.105 221.078 286.054 217.61 286.054 217.61C286.054 217.61 301.464 223.571 318.88 236.508C330.08 244.836 344.171 254.812 352.788 260.862C357.143 263.919 363.147 262.913 366.269 258.603L394.737 219.322C397.694 215.244 397.061 209.591 393.268 206.278C375.755 190.973 329.044 150.599 317.381 144.979ZM272.164 200.367C268.676 202.139 265.072 203.737 261.994 206.154C259.539 208.102 257.999 210.498 256.539 213.166C257.065 211.023 257.728 208.919 258.643 206.913C260.104 203.622 262.306 200.563 265.384 198.673C267.507 197.348 269.982 196.627 272.087 195.244C273.626 194.231 274.951 192.868 276.665 192.185C278.36 191.503 280.698 191.796 281.496 193.451C279.098 196.528 275.63 198.594 272.164 200.367Z" fill="#FECDCA"/>
<path d="M357.923 237.496C357.923 237.496 342.753 236.75 323.603 221.827C304.453 206.905 277.592 190.242 265.405 184.272C253.219 178.302 240.535 168.105 245.011 160.397C249.488 152.686 291.021 171.588 305.695 175.319C320.37 179.05 349.467 187.009 349.467 187.009" stroke="#3D2929" stroke-width="0.5809" stroke-miterlimit="10" stroke-linecap="round" stroke-linejoin="round"/>
<path d="M271.131 162.389C272.689 155.346 276.111 148.725 280.957 143.381" stroke="#3D2929" stroke-width="0.5809" stroke-miterlimit="10" stroke-linecap="round" stroke-linejoin="round"/>
<path d="M214.915 213.373C214.915 213.373 219.143 218.098 224.614 211.632C230.086 205.166 234.563 195.217 239.289 190.99C244.014 186.762 254.709 178.306 254.709 178.306" stroke="#3D2929" stroke-width="0.5809" stroke-miterlimit="10" stroke-linecap="round" stroke-linejoin="round"/>
<path d="M248.243 229.538C248.243 229.538 252.721 228.543 254.709 219.839C256.7 211.134 258.689 204.916 262.42 201.185C266.151 197.454 278.089 191.236 278.089 191.236" stroke="#3D2929" stroke-width="0.5809" stroke-miterlimit="10" stroke-linecap="round" stroke-linejoin="round"/>
<path d="M285.358 205.666C285.088 209.564 285.173 213.488 285.613 217.372" stroke="#3D2929" stroke-width="0.5809" stroke-miterlimit="10" stroke-linecap="round" stroke-linejoin="round"/>
<path d="M339.968 110.056C344.036 92.1046 332.781 74.2549 314.83 70.1873C296.879 66.1196 279.029 77.3743 274.962 95.3253C270.894 113.276 282.149 131.126 300.1 135.194C318.051 139.261 335.9 128.007 339.968 110.056Z" fill="#F0F7FD"/>
<path d="M311.562 84.529L303.862 84.8611L305.507 122.996L313.207 122.664L311.562 84.529Z" fill="#3030F8"/>
<path d="M327.738 106.821L327.406 99.1209L289.271 100.766L289.604 108.466L327.738 106.821Z" fill="#3030F8"/>
<path d="M120.092 77.8378C137.132 70.8786 145.304 51.4235 138.345 34.3836C131.386 17.3437 111.931 9.1716 94.8909 16.1308C77.8509 23.0899 69.6789 42.545 76.638 59.585C83.5972 76.6249 103.052 84.797 120.092 77.8378Z" fill="#F0F7FD"/>
<path d="M111.592 28.8335L103.892 29.1657L105.537 67.3005L113.237 66.9683L111.592 28.8335Z" fill="#3030F8"/>
<path d="M127.79 51.106L127.458 43.4059L89.3227 45.051L89.6549 52.7511L127.79 51.106Z" fill="#3030F8"/>
<path d="M282.564 265.851V293.702" stroke="#F0F7FD" stroke-width="0.9957" stroke-miterlimit="10" stroke-linecap="round" stroke-linejoin="round"/>
<path d="M292.411 269.93L272.717 289.624" stroke="#F0F7FD" stroke-width="0.9957" stroke-miterlimit="10" stroke-linecap="round" stroke-linejoin="round"/>
<path d="M296.489 279.777H268.639" stroke="#F0F7FD" stroke-width="0.9957" stroke-miterlimit="10" stroke-linecap="round" stroke-linejoin="round"/>
<path d="M292.411 289.624L272.717 269.93" stroke="#F0F7FD" stroke-width="0.9957" stroke-miterlimit="10" stroke-linecap="round" stroke-linejoin="round"/>
<path d="M54.7478 123.591V151.44" stroke="#F0F7FD" stroke-width="0.9957" stroke-miterlimit="10" stroke-linecap="round" stroke-linejoin="round"/>
<path d="M64.5947 127.669L44.9031 147.362" stroke="#F0F7FD" stroke-width="0.9957" stroke-miterlimit="10" stroke-linecap="round" stroke-linejoin="round"/>
<path d="M68.6743 137.516H40.823" stroke="#F0F7FD" stroke-width="0.9957" stroke-miterlimit="10" stroke-linecap="round" stroke-linejoin="round"/>
<path d="M64.5947 147.362L44.9031 127.669" stroke="#F0F7FD" stroke-width="0.9957" stroke-miterlimit="10" stroke-linecap="round" stroke-linejoin="round"/>
<path d="M257.374 35.8781C257.374 39.7316 254.25 42.8539 250.398 42.8539C246.545 42.8539 243.422 39.7299 243.422 35.8781C243.422 32.0246 246.545 28.9023 250.398 28.9023C254.252 28.9023 257.374 32.0246 257.374 35.8781Z" fill="#C1C1FD"/>
<path d="M320.379 252.087C320.379 255.94 317.257 259.062 313.404 259.062C309.55 259.062 306.428 255.94 306.428 252.087C306.428 248.233 309.552 245.111 313.404 245.111C317.257 245.111 320.379 248.235 320.379 252.087Z" fill="#8383FB"/>
<path d="M75.6286 83.9492C75.6286 88.8877 71.6259 92.8904 66.6875 92.8904C61.7491 92.8904 57.7463 88.8877 57.7463 83.9492C57.7463 79.0108 61.7491 75.0081 66.6875 75.0081C71.6259 75.0081 75.6286 79.0108 75.6286 83.9492Z" fill="#FECDCA"/>
</g>
<defs>
<filter id="filter0_dd_141_9070" x="0" y="0.633972" width="412" height="352.732" filterUnits="userSpaceOnUse" color-interpolation-filters="sRGB">
<feFlood flood-opacity="0" result="BackgroundImageFix"/>
<feColorMatrix in="SourceAlpha" type="matrix" values="0 0 0 0 0 0 0 0 0 0 0 0 0 0 0 0 0 0 127 0" result="hardAlpha"/>
<feMorphology radius="2" operator="erode" in="SourceAlpha" result="effect1_dropShadow_141_9070"/>
<feOffset dy="2"/>
<feGaussianBlur stdDeviation="2"/>
<feColorMatrix type="matrix" values="0 0 0 0 0.0627451 0 0 0 0 0.0941176 0 0 0 0 0.156863 0 0 0 0.06 0"/>
<feBlend mode="normal" in2="BackgroundImageFix" result="effect1_dropShadow_141_9070"/>
<feColorMatrix in="SourceAlpha" type="matrix" values="0 0 0 0 0 0 0 0 0 0 0 0 0 0 0 0 0 0 127 0" result="hardAlpha"/>
<feMorphology radius="2" operator="erode" in="SourceAlpha" result="effect2_dropShadow_141_9070"/>
<feOffset dy="4"/>
<feGaussianBlur stdDeviation="4"/>
<feColorMatrix type="matrix" values="0 0 0 0 0.0627451 0 0 0 0 0.0941176 0 0 0 0 0.156863 0 0 0 0.1 0"/>
<feBlend mode="normal" in2="effect1_dropShadow_141_9070" result="effect2_dropShadow_141_9070"/>
<feBlend mode="normal" in="SourceGraphic" in2="effect2_dropShadow_141_9070" result="shape"/>
</filter>
</defs>
</svg>
