<svg width="54" height="54" viewBox="0 0 54 54" fill="none" xmlns="http://www.w3.org/2000/svg">
<path d="M27 0C12.0882 0 0 12.0884 0 27C0 41.9118 12.0884 54 27 54C41.9116 54 54 41.9116 54 27C54.0002 12.0884 41.9118 0 27 0ZM27 51.4046C13.5217 51.4046 2.59541 40.4783 2.59541 27C2.59541 13.5217 13.5217 2.59541 27 2.59541C40.4783 2.59541 51.4046 13.5217 51.4046 27C51.4046 40.4783 40.4783 51.4046 27 51.4046Z" fill="url(#paint0_linear_571_19271)"/>
<path d="M28.814 5.00619L34.3899 17.0338L47.5518 18.6199C49.1161 18.8084 49.7438 20.7409 48.5892 21.8128L38.8732 30.8324L41.4319 43.8403C41.736 45.3862 40.092 46.5806 38.7158 45.8136L27.1353 39.3604L15.5549 45.8136C14.1787 46.5806 12.5347 45.3862 12.8388 43.8403L15.3975 30.8324L5.6815 21.8128C4.52686 20.7409 5.15483 18.8084 6.7189 18.6199L19.8808 17.0338L25.4567 5.00619C26.1193 3.57671 28.1514 3.57671 28.814 5.00619Z" fill="#32D583"/>
<path d="M34.3896 17.0336L35.9608 19.9904L35.5352 17.1718L34.3896 17.0336Z" fill="#F0F7FD"/>
<path d="M27.136 39.3607L23.7441 36.9705L26.1424 39.9144L27.136 39.3607Z" fill="#F0F7FD"/>
<path d="M38.8735 30.8324L36.0977 33.1576L39.1021 31.9951L38.8735 30.8324Z" fill="#F0F7FD"/>
<path d="M15.3977 30.8324L16.384 26.7482L14.4482 29.9512L15.3977 30.8324Z" fill="#F0F7FD"/>
<path d="M19.8818 17.0336L23.3278 16.8556L20.3629 15.996L19.8818 17.0336Z" fill="#F0F7FD"/>
<path d="M28.2105 10.9596L32.1862 19.5356L41.571 20.6667C42.5729 20.7873 42.9749 22.0251 42.2355 22.7116L35.3079 29.1428L37.1323 38.4178C37.327 39.4078 36.2743 40.1728 35.3926 39.6817L27.1354 35.0805L18.8782 39.6817C17.9968 40.1728 16.9438 39.4078 17.1388 38.4178L18.9631 29.1428L12.0355 22.7116C11.2959 22.0251 11.6981 20.7873 12.7 20.6667L22.0848 19.5356L26.0605 10.9596C26.4848 10.0441 27.7862 10.0441 28.2105 10.9596Z" fill="#6CE9A6"/>
<path d="M28.2105 10.9596L32.1862 19.5356L41.571 20.6667C42.5729 20.7873 42.9749 22.0251 42.2355 22.7116L35.3079 29.1428L37.1323 38.4178C37.327 39.4078 36.2743 40.1728 35.3926 39.6817L27.1354 35.0805L18.8782 39.6817C17.9968 40.1728 16.9438 39.4078 17.1388 38.4178L18.9631 29.1428L12.0355 22.7116C11.2959 22.0251 11.6981 20.7873 12.7 20.6667L22.0848 19.5356L26.0605 10.9596C26.4848 10.0441 27.7862 10.0441 28.2105 10.9596Z" fill="#A6F4C5"/>
<path d="M18.8195 29.8733L17.1388 38.4176C16.944 39.4076 17.9968 40.1726 18.8782 39.6814L27.1354 35.0802L35.3926 39.6814C36.2741 40.1726 37.327 39.4076 37.1323 38.4176L35.3079 29.1426L42.2355 22.7114C42.8136 22.1746 42.692 21.3035 42.1336 20.89C38.9601 23.1083 35.6947 25.1849 32.1826 26.7998C27.9979 28.7243 23.3967 29.9649 18.8195 29.8733Z" fill="#6CE9A6"/>
<path d="M18.9628 27.8456L12.0352 21.4144C11.9614 21.3458 11.9018 21.2705 11.8502 21.1926C11.5574 21.6446 11.5753 22.2845 12.0352 22.7115L18.9628 29.1427V27.8456Z" fill="#F0F7FD"/>
<path d="M37.0269 37.8831C36.7414 38.4418 36.0242 38.7364 35.3926 38.3845L27.1354 33.7833L18.8782 38.3845C18.2466 38.7364 17.5292 38.4418 17.2439 37.8831L17.1388 38.4176C16.944 39.4078 17.9968 40.1726 18.8782 39.6814L27.1354 35.0802L35.3926 39.6814C36.274 40.1726 37.327 39.4076 37.1322 38.4176L37.0269 37.8831Z" fill="#F0F7FD"/>
<path d="M42.2352 21.4145L35.3076 27.8457V29.1426L42.2352 22.7114C42.6951 22.2844 42.7131 21.6447 42.4203 21.1925C42.3686 21.2706 42.3093 21.3459 42.2352 21.4145Z" fill="#F0F7FD"/>
<defs>
<linearGradient id="paint0_linear_571_19271" x1="27" y1="0" x2="27" y2="54" gradientUnits="userSpaceOnUse">
<stop stop-color="#7B7BFF"/>
<stop offset="1" stop-color="#E5E5FF"/>
</linearGradient>
</defs>
</svg>
