<svg width="300" height="300" viewBox="0 0 300 300" fill="none" xmlns="http://www.w3.org/2000/svg">
<path d="M150 0C67.1566 0 0 67.1577 0 150C0 232.843 67.1577 300 150 300C232.842 300 300 232.842 300 150C300.001 67.1577 232.843 0 150 0ZM150 285.581C75.1205 285.581 14.419 224.879 14.419 150C14.419 75.1205 75.1205 14.419 150 14.419C224.879 14.419 285.581 75.1205 285.581 150C285.581 224.879 224.879 285.581 150 285.581Z" fill="url(#paint0_linear_317_30940)"/>
<path d="M160.079 27.8122L191.056 94.6324L264.178 103.444C272.868 104.491 276.356 115.227 269.941 121.182L215.964 171.291L230.179 243.557C231.868 252.146 222.735 258.781 215.089 254.52L150.753 218.669L86.4174 254.52C78.7718 258.781 69.6386 252.146 71.328 243.557L85.543 171.291L31.5654 121.182C25.1508 115.227 28.6395 104.491 37.3287 103.444L110.45 94.6324L141.427 27.8122C145.109 19.8706 156.398 19.8706 160.079 27.8122Z" fill="#717BBC"/>
<path d="M191.057 94.6313L199.785 111.058L197.421 95.3992L191.057 94.6313Z" fill="#F0F7FD"/>
<path d="M150.754 218.67L131.91 205.391L145.234 221.746L150.754 218.67Z" fill="#F0F7FD"/>
<path d="M215.964 171.291L200.543 184.209L217.234 177.75L215.964 171.291Z" fill="#F0F7FD"/>
<path d="M85.5421 171.291L91.0218 148.601L80.2676 166.395L85.5421 171.291Z" fill="#F0F7FD"/>
<path d="M110.451 94.6313L129.595 93.6425L113.124 88.8668L110.451 94.6313Z" fill="#F0F7FD"/>
<path d="M156.726 60.8865L178.813 108.531L230.951 114.815C236.517 115.485 238.75 122.362 234.642 126.175L196.155 161.904L206.291 213.432C207.373 218.932 201.524 223.182 196.626 220.454L150.753 194.891L104.879 220.454C99.9825 223.182 94.1328 218.932 95.2157 213.432L105.351 161.904L66.8643 126.175C62.7557 122.362 64.9899 115.485 70.5559 114.815L122.694 108.531L144.781 60.8865C147.138 55.8003 154.368 55.8003 156.726 60.8865Z" fill="#9EA5D1"/>
<path d="M156.726 60.8865L178.813 108.531L230.951 114.815C236.517 115.485 238.75 122.362 234.642 126.175L196.155 161.904L206.291 213.432C207.373 218.932 201.524 223.182 196.626 220.454L150.753 194.891L104.879 220.454C99.9825 223.182 94.1328 218.932 95.2158 213.432L105.351 161.904L66.8643 126.175C62.7557 122.362 64.9899 115.485 70.5559 114.815L122.694 108.531L144.781 60.8865C147.138 55.8003 154.368 55.8003 156.726 60.8865Z" fill="#C8CCE5"/>
<path d="M104.554 165.963L95.2166 213.431C94.1348 218.931 99.9833 223.181 104.88 220.452L150.754 194.89L196.627 220.452C201.524 223.181 207.373 218.931 206.292 213.431L196.156 161.903L234.643 126.174C237.855 123.192 237.179 118.353 234.077 116.056C216.446 128.379 198.305 139.916 178.793 148.888C155.545 159.579 129.983 166.472 104.554 165.963Z" fill="#9EA5D1"/>
<path d="M105.351 154.698L66.8647 118.969C66.4544 118.588 66.1237 118.17 65.8367 117.737C64.2101 120.248 64.3098 123.803 66.8647 126.175L105.351 161.904V154.698Z" fill="#F0F7FD"/>
<path d="M205.706 210.462C204.12 213.566 200.136 215.203 196.627 213.247L150.754 187.685L104.88 213.247C101.371 215.203 97.3859 213.566 95.8007 210.462L95.2166 213.431C94.1348 218.932 99.9833 223.181 104.88 220.452L150.754 194.89L196.627 220.452C201.524 223.181 207.373 218.931 206.292 213.431L205.706 210.462Z" fill="#F0F7FD"/>
<path d="M234.643 118.969L196.156 154.698V161.903L234.643 126.174C237.198 123.802 237.298 120.248 235.671 117.736C235.384 118.17 235.054 118.588 234.643 118.969Z" fill="#F0F7FD"/>
<g filter="url(#filter0_dd_317_30940)">
<path d="M105.191 182.758V111.218H121.263V182.758H105.191ZM153.312 182.758L131.556 111.218H148.118L165.366 171.586L161.642 169.724H171.638L167.718 171.586L183.692 111.218H199.764L179.478 182.758H153.312Z" fill="white"/>
</g>
<defs>
<filter id="filter0_dd_317_30940" x="99.1914" y="109.218" width="106.572" height="83.54" filterUnits="userSpaceOnUse" color-interpolation-filters="sRGB">
<feFlood flood-opacity="0" result="BackgroundImageFix"/>
<feColorMatrix in="SourceAlpha" type="matrix" values="0 0 0 0 0 0 0 0 0 0 0 0 0 0 0 0 0 0 127 0" result="hardAlpha"/>
<feMorphology radius="2" operator="erode" in="SourceAlpha" result="effect1_dropShadow_317_30940"/>
<feOffset dy="2"/>
<feGaussianBlur stdDeviation="2"/>
<feColorMatrix type="matrix" values="0 0 0 0 0.0627451 0 0 0 0 0.0941176 0 0 0 0 0.156863 0 0 0 0.06 0"/>
<feBlend mode="normal" in2="BackgroundImageFix" result="effect1_dropShadow_317_30940"/>
<feColorMatrix in="SourceAlpha" type="matrix" values="0 0 0 0 0 0 0 0 0 0 0 0 0 0 0 0 0 0 127 0" result="hardAlpha"/>
<feMorphology radius="2" operator="erode" in="SourceAlpha" result="effect2_dropShadow_317_30940"/>
<feOffset dy="4"/>
<feGaussianBlur stdDeviation="4"/>
<feColorMatrix type="matrix" values="0 0 0 0 0.0627451 0 0 0 0 0.0941176 0 0 0 0 0.156863 0 0 0 0.1 0"/>
<feBlend mode="normal" in2="effect1_dropShadow_317_30940" result="effect2_dropShadow_317_30940"/>
<feBlend mode="normal" in="SourceGraphic" in2="effect2_dropShadow_317_30940" result="shape"/>
</filter>
<linearGradient id="paint0_linear_317_30940" x1="150" y1="0" x2="150" y2="300" gradientUnits="userSpaceOnUse">
<stop stop-color="#7B7BFF"/>
<stop offset="1" stop-color="#E5E5FF"/>
</linearGradient>
</defs>
</svg>
