<svg width="301" height="300" viewBox="0 0 301 300" fill="none" xmlns="http://www.w3.org/2000/svg">
<path d="M150.129 0C67.2855 0 0.128906 67.1577 0.128906 150C0.128906 232.843 67.2866 300 150.129 300C232.971 300 300.129 232.842 300.129 150C300.13 67.1577 232.972 0 150.129 0ZM150.129 285.581C75.2494 285.581 14.5479 224.879 14.5479 150C14.5479 75.1205 75.2494 14.419 150.129 14.419C225.008 14.419 285.71 75.1205 285.71 150C285.71 224.879 225.008 285.581 150.129 285.581Z" fill="url(#paint0_linear_391_10271)"/>
<path d="M160.208 27.8122L191.185 94.6324L264.307 103.444C272.997 104.491 276.485 115.227 270.07 121.182L216.093 171.291L230.308 243.557C231.997 252.146 222.864 258.781 215.218 254.52L150.882 218.669L86.5463 254.52C78.9007 258.781 69.7675 252.146 71.4569 243.557L85.6719 171.291L31.6943 121.182C25.2797 115.227 28.7684 104.491 37.4577 103.444L110.579 94.6324L141.556 27.8122C145.238 19.8706 156.527 19.8706 160.208 27.8122Z" fill="#8098F9"/>
<path d="M191.186 94.6313L199.914 111.058L197.55 95.3992L191.186 94.6313Z" fill="#F0F7FD"/>
<path d="M150.883 218.67L132.039 205.391L145.363 221.746L150.883 218.67Z" fill="#F0F7FD"/>
<path d="M216.093 171.291L200.672 184.209L217.363 177.751L216.093 171.291Z" fill="#F0F7FD"/>
<path d="M85.671 171.291L91.1507 148.601L80.3965 166.395L85.671 171.291Z" fill="#F0F7FD"/>
<path d="M110.58 94.6313L129.724 93.6425L113.253 88.8668L110.58 94.6313Z" fill="#F0F7FD"/>
<path d="M156.855 60.8866L178.942 108.531L231.079 114.815C236.645 115.485 238.879 122.362 234.771 126.175L196.284 161.904L206.42 213.432C207.501 218.932 201.653 223.182 196.755 220.454L150.882 194.891L105.008 220.454C100.111 223.182 94.2617 218.932 95.3447 213.432L105.48 161.904L66.9932 126.175C62.8846 122.362 65.1188 115.485 70.6849 114.815L122.823 108.531L144.91 60.8866C147.267 55.8003 154.497 55.8003 156.855 60.8866Z" fill="#A4BCFD"/>
<path d="M156.855 60.8866L178.942 108.531L231.079 114.815C236.645 115.485 238.879 122.362 234.771 126.175L196.284 161.904L206.42 213.432C207.501 218.932 201.653 223.182 196.755 220.454L150.882 194.891L105.008 220.454C100.111 223.182 94.2617 218.932 95.3447 213.432L105.48 161.904L66.9932 126.175C62.8846 122.362 65.1188 115.485 70.6849 114.815L122.823 108.531L144.91 60.8866C147.267 55.8003 154.497 55.8003 156.855 60.8866Z" fill="#C7D7FE"/>
<path d="M104.683 165.963L95.3455 213.431C94.2637 218.931 100.112 223.181 105.009 220.452L150.882 194.89L196.756 220.452C201.653 223.181 207.502 218.931 206.421 213.431L196.285 161.903L234.772 126.174C237.984 123.192 237.308 118.353 234.206 116.056C216.575 128.379 198.434 139.916 178.922 148.888C155.674 159.579 130.112 166.472 104.683 165.963Z" fill="#A4BCFD"/>
<path d="M105.48 154.698L66.9936 118.969C66.5833 118.588 66.2526 118.17 65.9656 117.737C64.339 120.248 64.4387 123.803 66.9936 126.175L105.48 161.904V154.698Z" fill="#F0F7FD"/>
<path d="M205.835 210.462C204.249 213.566 200.265 215.203 196.756 213.247L150.882 187.685L105.009 213.247C101.5 215.203 97.5148 213.566 95.9296 210.462L95.3455 213.431C94.2637 218.932 100.112 223.181 105.009 220.452L150.882 194.89L196.756 220.452C201.653 223.181 207.502 218.931 206.42 213.431L205.835 210.462Z" fill="#F0F7FD"/>
<path d="M234.772 118.969L196.285 154.698V161.903L234.772 126.174C237.327 123.802 237.427 120.248 235.8 117.736C235.513 118.17 235.183 118.588 234.772 118.969Z" fill="#F0F7FD"/>
<g filter="url(#filter0_dd_391_10271)">
<path d="M121.273 182.758L99.517 111.218H116.079L133.327 171.586L129.603 169.724H139.599L135.679 171.586L151.653 111.218H167.725L147.439 182.758H121.273ZM178.234 182.758V111.218H194.306V182.758H178.234Z" fill="white"/>
</g>
<defs>
<filter id="filter0_dd_391_10271" x="93.5176" y="109.218" width="106.789" height="83.54" filterUnits="userSpaceOnUse" color-interpolation-filters="sRGB">
<feFlood flood-opacity="0" result="BackgroundImageFix"/>
<feColorMatrix in="SourceAlpha" type="matrix" values="0 0 0 0 0 0 0 0 0 0 0 0 0 0 0 0 0 0 127 0" result="hardAlpha"/>
<feMorphology radius="2" operator="erode" in="SourceAlpha" result="effect1_dropShadow_391_10271"/>
<feOffset dy="2"/>
<feGaussianBlur stdDeviation="2"/>
<feColorMatrix type="matrix" values="0 0 0 0 0.0627451 0 0 0 0 0.0941176 0 0 0 0 0.156863 0 0 0 0.06 0"/>
<feBlend mode="normal" in2="BackgroundImageFix" result="effect1_dropShadow_391_10271"/>
<feColorMatrix in="SourceAlpha" type="matrix" values="0 0 0 0 0 0 0 0 0 0 0 0 0 0 0 0 0 0 127 0" result="hardAlpha"/>
<feMorphology radius="2" operator="erode" in="SourceAlpha" result="effect2_dropShadow_391_10271"/>
<feOffset dy="4"/>
<feGaussianBlur stdDeviation="4"/>
<feColorMatrix type="matrix" values="0 0 0 0 0.0627451 0 0 0 0 0.0941176 0 0 0 0 0.156863 0 0 0 0.1 0"/>
<feBlend mode="normal" in2="effect1_dropShadow_391_10271" result="effect2_dropShadow_391_10271"/>
<feBlend mode="normal" in="SourceGraphic" in2="effect2_dropShadow_391_10271" result="shape"/>
</filter>
<linearGradient id="paint0_linear_391_10271" x1="150.129" y1="0" x2="150.129" y2="300" gradientUnits="userSpaceOnUse">
<stop stop-color="#7B7BFF"/>
<stop offset="1" stop-color="#E5E5FF"/>
</linearGradient>
</defs>
</svg>
