<svg width="36" height="54" viewBox="0 0 36 54" fill="none" xmlns="http://www.w3.org/2000/svg">
<path d="M30.1526 30.6445V51.6255C30.1526 52.9977 28.6334 53.8218 27.4783 53.0839L22.3401 49.7808L18.0004 46.9907L13.6596 49.781L8.52135 53.0841C7.36738 53.822 5.84814 52.9979 5.84814 51.6257V30.6447H30.1526V30.6445Z" fill="#F79009"/>
<path d="M22.3399 30.6445V49.781L18.0004 46.9907L13.6597 49.781V30.6445H22.3399Z" fill="#F0F7FD"/>
<path d="M30.1526 30.6445V33.3487C28.4827 34.5004 25.7497 36.0714 22.3398 36.8999V30.6445H30.1526Z" fill="#DC6803"/>
<path d="M22.3401 30.6445V36.8999C20.9081 37.2494 19.3556 37.4666 17.7131 37.4666C16.28 37.4666 14.9238 37.2976 13.6597 37.0196V30.6445H22.3401Z" fill="#E6E6E6"/>
<path d="M13.6596 30.6445V37.0196C10.297 36.276 7.58815 34.7531 5.84814 33.5488V30.6447H13.6596V30.6445Z" fill="#DC6803"/>
<path d="M18 36C27.9411 36 36 27.9411 36 18C36 8.05887 27.9411 0 18 0C8.05887 0 0 8.05887 0 18C0 27.9411 8.05887 36 18 36Z" fill="#FEDF89"/>
<path d="M18 34.3985C27.0572 34.3985 34.3995 27.0562 34.3995 17.9991C34.3995 8.94189 27.0572 1.59961 18 1.59961C8.94287 1.59961 1.60059 8.94189 1.60059 17.9991C1.60059 27.0562 8.94287 34.3985 18 34.3985Z" fill="#FEC84B"/>
<path d="M33.3957 17.999C33.3957 26.4886 26.4898 33.3957 18.0002 33.3957C15.5925 33.3957 13.3123 32.8406 11.2816 31.8512C9.16245 30.8192 7.31438 29.316 5.87435 27.4772C5.21689 26.6381 4.64455 25.7292 4.16994 24.7627C3.16786 22.7204 2.60352 20.4242 2.60352 17.9992C2.60352 16.2006 2.91381 14.4743 3.48279 12.8689C5.19625 8.03271 9.26251 4.30118 14.2974 3.05411C15.4833 2.75982 16.7245 2.60352 18.0002 2.60352C20.8401 2.60352 23.5017 3.37577 25.7877 4.72165C26.8071 5.32264 27.7519 6.03634 28.6046 6.84778C30.2123 8.37755 31.4903 10.2496 32.3201 12.3469C33.0142 14.0972 33.3957 16.0039 33.3957 17.999Z" fill="#FEDF89"/>
<path d="M25.7877 4.72165L4.16994 24.7627C3.16786 22.7204 2.60352 20.4242 2.60352 17.9992C2.60352 16.2006 2.91381 14.4743 3.48279 12.8689L14.2974 3.05411C15.4833 2.75982 16.7245 2.60352 18.0002 2.60352C20.8401 2.60373 23.5017 3.37599 25.7877 4.72165Z" fill="#FEF0C7"/>
<path d="M32.3203 12.347L11.2818 31.8511C9.16262 30.8191 7.31455 29.3158 5.87451 27.477L28.6048 6.84766C30.2125 8.37743 31.4905 10.2495 32.3203 12.347Z" fill="#FEF0C7"/>
<g filter="url(#filter0_dd_2200_13282)">
<path d="M20.1523 11.123V11.6992C19.9635 11.7773 19.7845 11.8392 19.6152 11.8848C19.446 11.9303 19.2995 11.9889 19.1758 12.0605C18.8958 12.2168 18.7559 12.5033 18.7559 12.9199V23.2031C18.7559 23.6198 18.8958 23.9062 19.1758 24.0625C19.306 24.1341 19.4557 24.1927 19.625 24.2383C19.7943 24.2839 19.9766 24.3457 20.1719 24.4238V25H14.9082V24.4238C15.097 24.3457 15.276 24.2839 15.4453 24.2383C15.6146 24.1927 15.7643 24.1341 15.8945 24.0625C16.181 23.9062 16.3242 23.6198 16.3242 23.2031V12.9199C16.3242 12.5033 16.181 12.2168 15.8945 12.0605C15.7643 11.9889 15.6146 11.9303 15.4453 11.8848C15.276 11.8392 15.097 11.7773 14.9082 11.6992V11.123H20.1523Z" fill="white"/>
</g>
<defs>
<filter id="filter0_dd_2200_13282" x="8.9082" y="9.12305" width="17.2637" height="25.877" filterUnits="userSpaceOnUse" color-interpolation-filters="sRGB">
<feFlood flood-opacity="0" result="BackgroundImageFix"/>
<feColorMatrix in="SourceAlpha" type="matrix" values="0 0 0 0 0 0 0 0 0 0 0 0 0 0 0 0 0 0 127 0" result="hardAlpha"/>
<feMorphology radius="2" operator="erode" in="SourceAlpha" result="effect1_dropShadow_2200_13282"/>
<feOffset dy="2"/>
<feGaussianBlur stdDeviation="2"/>
<feColorMatrix type="matrix" values="0 0 0 0 0.0627451 0 0 0 0 0.0941176 0 0 0 0 0.156863 0 0 0 0.06 0"/>
<feBlend mode="normal" in2="BackgroundImageFix" result="effect1_dropShadow_2200_13282"/>
<feColorMatrix in="SourceAlpha" type="matrix" values="0 0 0 0 0 0 0 0 0 0 0 0 0 0 0 0 0 0 127 0" result="hardAlpha"/>
<feMorphology radius="2" operator="erode" in="SourceAlpha" result="effect2_dropShadow_2200_13282"/>
<feOffset dy="4"/>
<feGaussianBlur stdDeviation="4"/>
<feColorMatrix type="matrix" values="0 0 0 0 0.0627451 0 0 0 0 0.0941176 0 0 0 0 0.156863 0 0 0 0.1 0"/>
<feBlend mode="normal" in2="effect1_dropShadow_2200_13282" result="effect2_dropShadow_2200_13282"/>
<feBlend mode="normal" in="SourceGraphic" in2="effect2_dropShadow_2200_13282" result="shape"/>
</filter>
</defs>
</svg>
