<svg width="168" height="168" viewBox="0 0 168 168" fill="none" xmlns="http://www.w3.org/2000/svg">
<g filter="url(#filter0_dd_571_19132)">
<circle cx="84" cy="80" r="78" fill="white"/>
<mask id="mask0_571_19132" style="mask-type:alpha" maskUnits="userSpaceOnUse" x="11" y="7" width="142" height="142">
<ellipse cx="82.3227" cy="78.3224" rx="70.4516" ry="70.4516" fill="white"/>
</mask>
<g mask="url(#mask0_571_19132)">
<path d="M150.961 78.6129L129.548 111.203L20.6245 143.741H14.3838V78.6129C14.3838 78.2428 14.3838 77.8801 14.3972 77.51C14.3972 77.1796 14.404 76.8566 14.4174 76.5262C14.4968 73.8782 14.7411 71.2693 15.124 68.7068C15.157 68.482 15.19 68.264 15.2297 68.0466C18.5842 47.2903 31.6604 29.7963 49.6296 20.3787C49.8476 20.2596 50.0723 20.1479 50.2897 20.0423C59.2382 15.4724 69.3684 12.9032 80.1002 12.9032H85.2515C90.3368 12.9032 95.2828 13.4779 100.031 14.5741C100.031 14.5741 100.031 14.5741 100.038 14.5741C104.422 15.5781 108.63 17.0309 112.638 18.8667H112.645C112.915 18.9918 113.173 19.1177 113.444 19.2428C114.209 19.6062 114.976 19.9891 115.729 20.3855C115.947 20.4978 116.172 20.6169 116.389 20.7421C118.403 21.8248 120.351 23.0139 122.233 24.2951C124.875 26.0979 127.378 28.0857 129.722 30.2451C129.96 30.4564 130.204 30.6812 130.436 30.9053C133.625 33.9233 136.511 37.2584 139.041 40.8639C145.328 49.8057 149.442 60.3787 150.611 71.8231C150.717 72.8002 150.796 73.7779 150.849 74.7685C150.921 76.0437 150.961 77.3249 150.961 78.6129Z" fill="#5959F9"/>
<path d="M74.1547 28.4772H38.335V29.1373H74.1547V28.4772Z" fill="#32D583"/>
<path d="M74.1547 39.2549H38.335V39.915H74.1547V39.2549Z" fill="#32D583"/>
<path d="M53.4062 21.1993H52.7461V28.8074H53.4062V21.1993Z" fill="#32D583"/>
<path d="M67.0361 28.808H66.376V39.4267H67.0361V28.808Z" fill="#32D583"/>
<path d="M118.444 68.0454H82.624V68.7056H118.444V68.0454Z" fill="#32D583"/>
<path d="M118.444 78.8228H82.624V79.4829H118.444V78.8228Z" fill="#32D583"/>
<path d="M97.6943 60.7675H97.0342V68.3755H97.6943V60.7675Z" fill="#32D583"/>
<path d="M111.326 68.3752H110.666V78.994H111.326V68.3752Z" fill="#32D583"/>
<path d="M42.4563 68.0463V68.7064H15.1221C15.155 68.4816 15.188 68.2636 15.2277 68.0463H42.4563Z" fill="#32D583"/>
<path d="M42.4575 78.8245H14.3838V79.4846H42.4575V78.8245Z" fill="#32D583"/>
<path d="M21.7041 60.7675H21.0439V68.3755H21.7041V60.7675Z" fill="#32D583"/>
<path d="M35.3349 68.3759H34.6748V78.9946H35.3349V68.3759Z" fill="#32D583"/>
<path d="M82.2572 122.919H26.2753C26.2753 122.919 25.8527 115.417 30.3236 102.691C32.4373 96.6809 36.9607 93.0229 41.1544 90.8433C43.0762 89.8393 44.9315 89.1529 46.4442 88.6906C48.6238 88.017 50.1029 87.8057 50.1029 87.8057L59.071 87.766C59.071 87.766 61.7189 87.7068 65.1535 88.7565C66.8177 89.2653 68.6736 90.031 70.4959 91.1999C71.1365 91.6091 71.7704 92.0653 72.3915 92.5734C78.4599 97.5463 82.2572 122.919 82.2572 122.919Z" fill="#32D583"/>
<path d="M42.1004 115.139C45.6662 106.666 42.2195 94.2308 41.1562 90.8433C43.0781 89.8393 44.9334 89.153 46.4461 88.6907C47.8794 91.8009 52.2111 99.911 58.7364 100.637C65.2019 101.357 65.3533 92.4018 65.1554 88.7566C66.8196 89.2653 68.6755 90.0311 70.4978 91.2C71.1579 97.7644 72.7628 113.812 73.6013 122.919H42.1004V115.139Z" fill="#8383FB"/>
<path d="M49.7422 83.4083L50.0988 87.8086C50.0988 87.8086 55.855 93.7485 57.6073 93.274C60.3051 92.5433 59.3751 87.4519 59.3751 87.4519L59.0185 84.4789L49.7422 83.4083Z" fill="#FDA29B"/>
<path d="M68.2127 80.5839C67.9994 81.6095 67.7121 82.4076 67.3258 82.8483C65.1307 85.3456 47.5842 87.5063 45.1462 82.6202C44.5366 81.3961 44.0211 79.7266 43.5857 77.9077C40.4344 75.321 38.4473 71.5351 38.4473 67.3139C38.4473 59.5194 45.2256 53.2013 53.5854 53.2013C61.9498 53.2013 68.7282 59.5194 68.7282 67.3139C68.7282 67.725 68.7033 68.1315 68.669 68.5325C68.7087 69.5237 68.7484 70.7424 68.7578 72.0607C68.782 74.965 68.6831 78.3141 68.2127 80.5839Z" fill="#FDA29B"/>
<path d="M42.4885 73.4188C42.4885 73.4188 36.7801 69.9701 35.472 74.1321C34.1638 78.2942 37.8507 81.6245 41.0613 82.1002C44.2725 82.576 46.6506 80.7921 46.6506 80.7921L42.4885 73.4188Z" fill="#FDA29B"/>
<path d="M43.0247 79.7201C42.9568 79.7201 42.8915 79.6797 42.8625 79.6138C42.5369 78.8561 42.0698 77.8837 41.3539 77.0809C40.6432 76.2855 39.7604 75.7613 38.8667 75.6045C37.852 75.4255 36.8123 75.7478 36.2147 76.4208C36.1501 76.4934 36.0391 76.5002 35.9664 76.4356C35.8937 76.371 35.887 76.2599 35.9516 76.1872C36.6286 75.4235 37.7968 75.0581 38.928 75.2573C39.899 75.4275 40.8545 75.9921 41.617 76.846C42.3673 77.6865 42.8498 78.6919 43.1869 79.4738C43.2253 79.5633 43.1842 79.6669 43.0947 79.7053C43.0718 79.7154 43.0483 79.7201 43.0247 79.7201Z" fill="#2C1F40"/>
<path d="M39.1407 79.3934C39.0653 79.3934 38.996 79.345 38.9725 79.2696C38.7733 78.6263 38.9361 77.8827 39.3877 77.3747C39.8372 76.8693 40.5653 76.6021 41.2503 76.695C41.3465 76.7085 41.4138 76.7973 41.401 76.8935C41.3876 76.9904 41.2967 77.051 41.2025 77.0442C40.6305 76.9655 40.0242 77.1876 39.6508 77.6082C39.2793 78.0267 39.1454 78.6371 39.3089 79.1653C39.3379 79.2582 39.2854 79.3571 39.1925 79.386C39.175 79.3907 39.1575 79.3934 39.1407 79.3934Z" fill="#2C1F40"/>
<path d="M51.3143 82.2784C53.6788 82.2784 55.5955 80.3616 55.5955 77.9972C55.5955 75.6328 53.6788 73.7161 51.3143 73.7161C48.9499 73.7161 47.0332 75.6328 47.0332 77.9972C47.0332 80.3616 48.9499 82.2784 51.3143 82.2784Z" fill="#FECDCA"/>
<path d="M68.2077 80.5838H68.1727C65.8094 80.5838 63.8916 78.6659 63.8916 76.3026C63.8916 73.9393 65.8094 72.0215 68.1727 72.0215C68.3713 72.0215 68.5644 72.0363 68.7528 72.0612C68.777 74.9649 68.6781 78.314 68.2077 80.5838Z" fill="#FECDCA"/>
<path d="M54.6171 71.9114C54.716 72.941 54.1406 73.8387 53.3318 73.9167C52.5229 73.9948 51.7867 73.2229 51.6878 72.1934C51.5889 71.1638 52.1643 70.2661 52.9731 70.1881C53.782 70.11 54.5181 70.8818 54.6171 71.9114Z" fill="#2C1F40"/>
<path d="M66.0718 70.8105C66.1708 71.84 65.5954 72.7377 64.7859 72.8158C63.977 72.8938 63.2408 72.122 63.1419 71.0924C63.043 70.0628 63.6184 69.1652 64.4272 69.0871C65.2367 69.009 65.9729 69.7809 66.0718 70.8105Z" fill="#2C1F40"/>
<path d="M59.4735 77.5803C57.9251 77.5803 57.1115 75.8771 57.0772 75.8024C57.0335 75.7095 57.0739 75.5992 57.1667 75.5554C57.2596 75.5124 57.37 75.5507 57.4137 75.6449C57.4211 75.6618 58.2131 77.3071 59.6094 77.2034C61.0226 77.0944 61.464 76.3219 61.4822 76.2889C61.5313 76.1987 61.643 76.1644 61.7339 76.2149C61.8234 76.2634 61.8577 76.3751 61.8092 76.4652C61.7877 76.5049 61.2669 77.4484 59.6377 77.5735C59.5825 77.5782 59.5274 77.5803 59.4735 77.5803Z" fill="#2C1F40"/>
<path d="M50.4975 68.2083C50.4854 68.2083 50.4727 68.207 50.4599 68.2043C50.3603 68.1834 50.295 68.0872 50.3152 67.9863C50.3179 67.9715 50.6368 66.4998 52.7276 66.4998C52.8299 66.4998 52.9133 66.5832 52.9133 66.6855C52.9133 66.7878 52.8299 66.8712 52.7276 66.8712C50.9524 66.8712 50.6893 68.0118 50.6792 68.0603C50.6611 68.1484 50.5837 68.2083 50.4975 68.2083Z" fill="#2C1F40"/>
<path d="M65.8088 65.8599C65.7516 65.8599 65.6944 65.8336 65.658 65.7831C64.9764 64.8411 63.6668 65.2939 63.6117 65.3141C63.5154 65.3511 63.4091 65.2987 63.3741 65.2017C63.3398 65.1048 63.3896 64.9992 63.4858 64.9642C63.5006 64.9575 65.1136 64.3956 65.9588 65.5645C66.0187 65.6479 65.9999 65.7636 65.9171 65.8242C65.8848 65.8484 65.8464 65.8599 65.8088 65.8599Z" fill="#2C1F40"/>
<path d="M100.719 95.5184L55.6995 123.004L16.4121 100.24L16.7486 99.5667L17.0588 96.5554L17.1052 96.1066L17.363 93.6302L17.4094 93.1679L17.5877 91.4775C17.5877 91.4775 54.0091 99.5674 55.8643 114.07C55.8643 114.07 69.8585 86.082 95.9969 82.7073L96.5446 84.1864L96.7034 84.6224L97.6018 87.0591L97.7606 87.4817L100.719 95.5184Z" fill="#FFEFE5"/>
<path d="M97.7594 87.4823C85.6804 91.8341 69.9831 99.4557 57.5609 112.267C57.5145 112.313 57.4553 112.339 57.396 112.339C57.3436 112.339 57.2904 112.32 57.2507 112.287C57.1585 112.208 57.1383 112.076 57.211 111.977C62.1772 105.016 68.9394 99.5021 74.2824 95.4733C77.8422 92.7856 82.128 89.7346 86.8627 87.4891C89.973 86.016 93.2091 84.9138 96.5441 84.187L96.7029 84.6231C93.3813 85.3431 90.152 86.4393 87.0612 87.9049C82.3588 90.1303 78.0999 93.1618 74.5536 95.836C69.9373 99.3231 64.2444 103.926 59.5952 109.612C71.6607 98.1408 86.2288 91.1471 97.6013 87.0597L97.7594 87.4823Z" fill="#2C1F40"/>
<path d="M55.4668 114.644C55.4803 114.75 55.4204 114.855 55.3214 114.895C55.2952 114.908 55.2683 114.908 55.2353 114.908C55.1626 114.908 55.0967 114.875 55.0503 114.816C53.6701 112.848 51.1473 111.31 48.9152 109.949C48.2746 109.559 47.6474 109.176 47.066 108.8C37.9923 102.869 27.7033 98.6822 17.0576 96.5558L17.104 96.1069C27.8224 98.2334 38.1841 102.447 47.317 108.417C47.8917 108.793 48.5121 109.17 49.1527 109.559C51.0746 110.728 53.2145 112.029 54.6936 113.647C54.1983 112.518 53.2603 111.554 52.2899 110.669C47.7329 106.522 42.0931 103.008 35.0469 99.9311C29.3082 97.4218 23.2653 95.4737 17.3611 93.6312L17.4075 93.1689C23.3515 95.0181 29.4468 96.9797 35.232 99.5153C42.3246 102.613 48.0041 106.152 52.5941 110.333C53.9218 111.54 55.1896 112.894 55.4668 114.644Z" fill="#2C1F40"/>
<path d="M101.622 88.9745L100.618 107.723L100.162 116.282L100.136 116.823L98.6963 143.741L66.4861 137.169L27.9296 143.741H20.7031L15.4199 97.5926L16.899 98.1209L30.2391 102.922L43.6323 107.736L47.7001 109.203H47.7068L49.8131 109.962L52.6071 110.966H52.6131L53.6171 111.329L55.3277 111.943L55.6648 112.062L55.8755 112.141L56.0807 112.042L57.3815 111.382L57.8108 111.163L59.5611 110.273L59.5671 110.266L71.778 104.091L77.2004 101.343L98.8282 90.3876L101.622 88.9745Z" fill="#FEC84B"/>
<path d="M56.8472 122.919L58.2738 143.741H57.8115L56.3849 122.919L56.3654 122.595L55.7315 113.317V113.31L55.6521 112.161C55.6453 112.128 55.6521 112.095 55.6655 112.062C55.6985 111.983 55.7712 111.923 55.8633 111.917C55.9495 111.917 56.0349 111.963 56.0814 112.042C56.0948 112.068 56.1076 112.094 56.1076 112.128L56.1998 113.436V113.442L56.8075 122.325V122.332L56.8472 122.919Z" fill="#2C1F40"/>
<path d="M74.4366 143.741H27.4624C26.9274 143.286 26.6239 142.856 26.4651 142.48C26.0688 141.529 26.6239 140.875 26.8413 140.67C26.8877 140.624 26.9207 140.597 26.9207 140.597C26.9207 140.597 26.815 140.564 26.6502 140.492C25.8642 140.182 23.6651 139.197 24.2263 138.18C24.2525 138.128 24.3124 138.088 24.3979 138.048C26.4052 137.044 43.8932 138.18 43.8932 138.18C43.8932 138.18 33.6634 132.56 34.2313 131.325C34.7926 130.09 43.8932 131.886 51.7651 131.774C59.6302 131.662 67.7268 129.747 67.7268 129.747V129.298L74.4366 143.741Z" fill="#FECDCA"/>
<path d="M42.8856 143.187C42.8762 143.187 42.8661 143.187 42.856 143.185C42.825 143.181 39.7188 142.788 35.4458 142.399C31.0946 142.004 26.4521 140.762 25.0074 139.895C24.3735 139.515 24.0094 139.106 23.926 138.679C23.854 138.309 24.0229 138.07 24.043 138.044C24.1184 137.943 24.2618 137.924 24.3634 137.998C24.463 138.073 24.4845 138.214 24.4118 138.315C24.4051 138.325 24.3398 138.432 24.3782 138.606C24.4233 138.805 24.609 139.123 25.2429 139.503C26.6426 140.343 31.3214 141.566 35.4875 141.944C39.77 142.333 42.8836 142.728 42.9145 142.732C43.0397 142.748 43.1285 142.862 43.1124 142.987C43.0969 143.102 42.9987 143.187 42.8856 143.187Z" fill="#2C1F40"/>
<path d="M30.9906 143.741H29.3527C28.0122 143.319 26.9685 142.876 26.4665 142.479C26.3676 142.4 26.2882 142.327 26.235 142.255C26.0102 141.957 25.9376 141.654 26.0042 141.35C26.0836 141 26.3474 140.729 26.5459 140.564C26.5856 140.537 26.6253 140.511 26.6515 140.491C26.7437 140.432 26.8104 140.399 26.8164 140.392C26.9288 140.333 27.0674 140.379 27.1266 140.491C27.1731 140.577 27.1529 140.683 27.0937 140.749C27.0741 140.769 27.054 140.788 27.0277 140.802C26.8958 140.875 26.519 141.132 26.453 141.449C26.4133 141.621 26.4598 141.792 26.5984 141.977C26.9557 142.447 28.6791 143.134 30.9906 143.741Z" fill="#2C1F40"/>
<path d="M122.393 61.3313L111.57 53.7091C109.442 56.0139 106.667 57.6666 104.747 58.0078C102.862 58.3496 99.6794 55.9526 96.8074 53.2394C96.6916 53.1297 96.5819 53.02 96.4662 52.9103C95.7892 52.2637 95.1365 51.5995 94.5208 50.9589L91.1245 52.5079C90.5572 52.7704 90.0149 52.1116 90.3749 51.6055L92.43 48.6844C91.753 47.9098 91.2106 47.2571 90.8749 46.8305C87.8319 43.8185 85.984 39.5986 86.1247 34.9399C86.375 26.7444 92.9481 19.9391 101.132 19.433C110.455 18.8537 118.194 26.2383 118.194 35.4338C118.194 36.458 118.09 37.458 117.907 38.4277C122.59 41.33 130.48 46.2087 130.7 46.2814C131.009 46.3857 122.393 61.3313 122.393 61.3313Z" fill="#FECDCA"/>
<path d="M82.4326 31.0244C82.4326 31.0244 85.6499 36.5256 92.3966 36.7329C99.1433 36.9408 100.7 36.214 100.7 36.214L105.786 43.0644L108.692 36.4213L114.816 41.9224C114.816 41.9224 122.912 45.9701 129.658 45.4513C129.658 45.4513 120.94 13.587 113.57 13.1718C87.8496 11.723 82.6399 30.7129 82.4326 31.0244Z" fill="#F97066"/>
<path d="M95.1399 44.3562C95.763 44.9793 95.9231 45.8299 95.4979 46.2552C95.0719 46.6805 94.222 46.5203 93.5989 45.8972C92.9757 45.274 92.8156 44.4235 93.2409 43.9982C93.6662 43.5729 94.5167 43.7331 95.1399 44.3562Z" fill="#2C1F40"/>
<path d="M98.0694 49.5507C97.8924 50.8555 97.4597 52.1058 96.807 53.2397C96.6913 53.13 96.5816 53.0203 96.4658 52.9106C97.0634 51.8554 97.4537 50.6973 97.6125 49.4895C97.6307 49.3677 97.7464 49.2761 97.8689 49.2943C97.9961 49.3125 98.0815 49.4282 98.0694 49.5507Z" fill="#2C1F40"/>
<path d="M107.39 35.2908C108.255 34.6851 109.324 34.3513 110.376 34.4489C111.427 34.5465 112.446 35.0963 113.034 35.9724C113.781 37.0854 113.767 38.5356 113.583 39.8633C113.472 40.6634 113.302 41.4763 112.874 42.1613C111.512 44.3389 107.325 44.8227 105.754 42.6149C104.229 40.4716 105.386 36.6951 107.39 35.2908Z" fill="#FECDCA"/>
<path d="M108.48 42.7251C108.383 42.7251 108.293 42.6625 108.262 42.5649C107.873 41.3321 107.862 40.065 108.23 38.9957C108.651 37.769 109.573 36.8054 110.696 36.4178C110.816 36.378 110.945 36.44 110.986 36.5591C111.027 36.6782 110.964 36.8087 110.845 36.8498C109.854 37.1923 109.039 38.0496 108.663 39.1438C108.326 40.1215 108.339 41.2877 108.698 42.4263C108.736 42.5467 108.669 42.6753 108.548 42.7129C108.525 42.7217 108.502 42.7251 108.48 42.7251Z" fill="#2C1F40"/>
<path d="M108.369 40.1222C108.316 40.1222 108.263 40.1034 108.22 40.0664C108.124 39.9836 108.114 39.8396 108.196 39.744C108.996 38.8188 110.434 38.5153 111.539 39.0388C111.653 39.092 111.702 39.2292 111.648 39.343C111.593 39.4574 111.457 39.5065 111.344 39.4513C110.418 39.0139 109.213 39.2669 108.542 40.0428C108.497 40.0953 108.433 40.1222 108.369 40.1222Z" fill="#2C1F40"/>
<path d="M90.4435 42.4678C90.4206 42.4678 90.397 42.4638 90.3742 42.4571C90.2537 42.4194 90.1878 42.2902 90.2254 42.1704C90.537 41.1899 91.5585 40.5076 92.5713 40.5715C92.6971 40.5803 92.7926 40.6886 92.7846 40.8151C92.7765 40.941 92.6708 41.0278 92.541 41.0278C91.72 40.9706 90.9064 41.5358 90.6615 42.3077C90.6305 42.4053 90.5404 42.4678 90.4435 42.4678Z" fill="#2C1F40"/>
<path d="M150.849 74.77C150.222 73.9046 149.442 73.1126 148.769 72.2869C145.645 68.4829 142.521 64.6728 139.233 61.0006C135.818 57.1966 132.253 53.188 129.453 48.816C128.957 48.0435 128.482 47.2507 128.039 46.452C127.854 46.1283 127.676 45.7986 127.511 45.4682C127.234 44.9467 126.976 44.4177 126.732 43.8834C126.151 42.6089 125.649 41.2947 125.246 39.9475C126.223 40.2248 127.214 40.4293 128.212 40.5679C131.758 41.0767 135.417 40.8721 139.042 40.8654C145.33 49.8072 149.444 60.3802 150.613 71.8246C150.716 72.8024 150.796 73.7794 150.849 74.77Z" fill="#F97066"/>
<path d="M150.961 78.6131V143.656L149.257 143.742H73.1588L64.6328 127.292L76.3087 122.92L81.9088 120.826L97.2696 115.074L97.4809 114.995C97.4809 114.995 97.5139 114.922 97.5731 114.784C97.8901 114.044 99.0192 111.428 100.617 107.724C105.557 96.2922 114.988 74.5386 118.811 66.1055C119.677 64.1971 120.522 62.3479 121.341 60.5909C124.319 54.1456 126.842 48.9082 128.037 46.4514C128.229 46.0618 128.38 45.7381 128.506 45.4938C128.592 45.3155 128.658 45.1769 128.698 45.0847C128.75 44.9858 128.777 44.9326 128.777 44.9326L128.975 44.9064C128.975 44.9064 129.2 45.0383 129.616 45.3155C132.455 47.1977 144.059 55.6577 150.61 71.824C150.715 72.8011 150.795 73.7789 150.847 74.7694C150.921 76.0439 150.961 77.3252 150.961 78.6131Z" fill="#8383FB"/>
<path d="M105.267 123.835C105.171 123.835 105.081 123.774 105.049 123.677C103.033 117.427 97.4568 115.226 97.4009 115.205C97.2832 115.16 97.2239 115.028 97.269 114.91C97.3148 114.793 97.4473 114.733 97.5644 114.779C97.6223 114.801 103.399 117.072 105.485 123.537C105.523 123.657 105.457 123.786 105.337 123.824C105.315 123.832 105.291 123.835 105.267 123.835Z" fill="#2C1F40"/>
<path d="M137.863 97.3158C137.269 99.0392 123.288 139.535 120.785 142.038C120.355 142.468 118.85 143.055 116.644 143.742H115.06C117.998 142.904 119.986 142.19 120.462 141.715C122.892 139.291 137.289 97.5937 137.434 97.1705C137.474 97.0514 137.606 96.9854 137.725 97.0251C137.843 97.0715 137.903 97.1967 137.863 97.3158Z" fill="#2C1F40"/>
<path d="M36.5578 72.5907C36.5578 72.5907 33.9441 61.3778 35.7987 59.355C37.6533 57.3315 43.9768 55.4769 43.9768 55.4769L48.698 61.1255C48.698 61.1255 48.0237 65.3407 45.8313 65.5096C45.8313 65.5096 47.0958 68.7134 45.8313 70.0619C44.5669 71.4111 42.7964 71.7483 42.7964 71.7483L43.8078 75.5422C43.8078 75.5422 41.4472 70.5673 36.5578 72.5907Z" fill="#2C1F40"/>
<path d="M48.783 60.7876C48.783 60.7876 53.5042 64.7497 55.4429 63.0641C57.3823 61.3777 56.2861 58.5117 56.2861 58.5117C56.2861 58.5117 60.5013 63.739 62.946 62.4739C65.3908 61.2095 62.693 57.4155 62.693 57.4155C62.693 57.4155 69.2688 61.0406 70.0279 58.3428C70.7869 55.6451 64.1263 53.6216 64.1263 53.6216C64.1263 53.6216 68.0327 51.4299 65.2508 48.9845C62.4689 46.5397 43.7246 55.7292 43.7246 55.7292L46.7595 61.9679L48.783 60.7876Z" fill="#2C1F40"/>
</g>
</g>
<defs>
<filter id="filter0_dd_571_19132" x="0" y="0" width="168" height="168" filterUnits="userSpaceOnUse" color-interpolation-filters="sRGB">
<feFlood flood-opacity="0" result="BackgroundImageFix"/>
<feColorMatrix in="SourceAlpha" type="matrix" values="0 0 0 0 0 0 0 0 0 0 0 0 0 0 0 0 0 0 127 0" result="hardAlpha"/>
<feMorphology radius="2" operator="erode" in="SourceAlpha" result="effect1_dropShadow_571_19132"/>
<feOffset dy="2"/>
<feGaussianBlur stdDeviation="2"/>
<feColorMatrix type="matrix" values="0 0 0 0 0.0627451 0 0 0 0 0.0941176 0 0 0 0 0.156863 0 0 0 0.06 0"/>
<feBlend mode="normal" in2="BackgroundImageFix" result="effect1_dropShadow_571_19132"/>
<feColorMatrix in="SourceAlpha" type="matrix" values="0 0 0 0 0 0 0 0 0 0 0 0 0 0 0 0 0 0 127 0" result="hardAlpha"/>
<feMorphology radius="2" operator="erode" in="SourceAlpha" result="effect2_dropShadow_571_19132"/>
<feOffset dy="4"/>
<feGaussianBlur stdDeviation="4"/>
<feColorMatrix type="matrix" values="0 0 0 0 0.0627451 0 0 0 0 0.0941176 0 0 0 0 0.156863 0 0 0 0.1 0"/>
<feBlend mode="normal" in2="effect1_dropShadow_571_19132" result="effect2_dropShadow_571_19132"/>
<feBlend mode="normal" in="SourceGraphic" in2="effect2_dropShadow_571_19132" result="shape"/>
</filter>
</defs>
</svg>
