<svg width="513" height="512" viewBox="0 0 513 512" fill="none" xmlns="http://www.w3.org/2000/svg">
<path d="M247.853 229.84C240.093 229.28 232.973 225.36 228.253 219.12C224.333 213.92 217.133 212.72 211.933 216.4C208.973 218.48 205.133 219.52 201.293 219.2C195.533 218.8 190.573 215.52 188.413 210.88C188.333 210.4 188.253 209.92 188.013 209.44C184.093 201.68 185.933 190.88 192.333 184.96C194.733 182.72 194.893 178.88 192.653 176.48C190.413 174.08 186.573 173.92 184.173 176.16C176.733 183.12 173.133 193.44 174.093 203.44C169.773 204.48 165.293 204.88 160.733 204.48C139.053 202.8 122.573 185.76 124.013 166.4C124.173 163.92 124.733 161.6 125.533 159.2C131.293 164.4 138.093 168.4 144.173 170.4C144.813 170.64 145.453 170.72 146.013 170.72C148.573 170.72 150.893 169.12 151.693 166.56C152.733 163.44 151.053 160 147.853 158.96C139.853 156.32 132.173 150.32 127.773 143.76C127.533 143.28 127.373 142.8 127.133 142.32C123.773 137.12 122.253 131.12 122.733 124.96C123.853 110.24 136.173 99.1998 150.893 99.0398C156.253 104.72 162.893 109.12 170.333 111.68C174.413 113.04 178.253 113.76 181.933 113.76C184.253 113.76 186.573 113.44 188.733 112.88C196.013 110.96 201.853 105.36 203.613 98.7198C204.493 95.5198 202.573 92.2398 199.373 91.3598C196.173 90.5598 192.893 92.3998 192.013 95.5998C191.373 98.0798 188.813 100.32 185.613 101.2C182.413 102.08 178.573 101.68 174.173 100.24C168.493 98.3198 163.373 94.8798 159.213 90.4798C159.053 90.0798 158.813 89.6798 158.573 89.3598C154.013 83.3598 154.573 75.8398 160.333 69.0398C166.813 65.1998 173.453 65.1998 178.493 69.0398C181.213 71.0398 184.653 71.9198 187.933 71.3598C191.053 70.7998 193.773 69.0398 195.533 66.3998C200.413 58.9598 208.813 54.7998 217.613 55.5198C223.053 55.9198 228.093 58.1598 232.173 61.8398C235.773 65.1198 240.973 65.8398 245.453 63.5998C247.853 62.3998 250.413 61.9198 253.053 62.0798C258.173 62.4798 262.733 65.4398 265.133 70.0798C265.693 71.1998 266.493 72.1598 267.373 73.0398C269.133 77.3598 270.733 81.7598 271.453 86.1598C272.253 91.4398 271.453 96.2398 269.373 99.6798C267.213 103.12 263.373 105.2 260.093 104.64C256.893 104.08 253.773 106.32 253.213 109.6C252.653 112.88 254.893 115.92 258.173 116.48C259.133 116.64 260.173 116.72 261.213 116.72C268.333 116.72 275.533 112.64 279.613 106C283.293 100.16 284.573 92.3998 283.373 84.3198C282.893 81.0398 282.013 77.8398 280.973 74.7998C281.453 74.5598 282.013 74.2398 282.493 73.9198C290.173 68.3998 300.813 65.5998 311.853 66.4798C322.173 67.2798 331.613 70.9598 338.413 76.9598C344.733 82.4798 347.933 89.3598 347.373 96.2398C347.373 97.0398 347.053 97.8398 346.893 98.5598C337.053 103.28 329.773 113.2 328.733 124.16C327.533 137.36 335.453 150.72 347.613 156C348.413 156.32 349.213 156.48 350.013 156.48C352.333 156.48 354.573 155.12 355.533 152.88C356.813 149.84 355.453 146.32 352.413 144.96C344.973 141.76 339.933 133.28 340.733 125.28C341.373 118.32 346.333 111.84 352.733 109.04C352.893 109.04 353.133 109.04 353.293 109.04C356.573 108.32 359.933 108.08 363.133 108.32C377.453 109.44 388.413 118.88 387.613 129.44C387.373 132.4 386.173 135.2 384.013 137.76C380.733 141.76 380.413 147.36 383.213 151.76C385.613 155.52 386.733 160.08 386.333 164.8C385.853 171.6 382.253 177.76 377.053 180.8C374.013 182.56 371.933 185.52 371.293 188.96C370.653 192.32 371.533 195.68 373.613 198.32C375.613 200.8 377.933 204.8 377.533 210.16C376.733 220.32 366.573 227.84 354.813 226.96C349.773 226.56 345.053 224.64 341.293 221.28C339.453 219.68 336.813 219.36 334.653 220.48C332.493 221.6 331.213 223.92 331.373 226.4C331.373 227.2 331.453 228 331.373 228.8C330.973 233.84 327.933 238.56 322.733 241.92C317.053 245.6 309.693 247.36 301.933 246.8C290.733 245.92 280.973 240.24 277.133 232.32C276.413 230.8 275.373 229.68 274.173 228.64C270.173 221.68 270.013 212.48 274.173 205.52C278.653 197.84 288.013 193.2 296.813 194.4C300.093 194.8 303.133 192.48 303.533 189.2C303.933 185.92 301.613 182.88 298.333 182.48C284.813 180.8 270.653 187.76 263.773 199.44C258.893 207.76 258.013 218.08 260.733 227.36C256.653 229.2 252.093 230 247.613 229.68L247.853 229.84ZM63.2926 321.68C54.4926 313.2 48.4926 301.76 46.5726 289.68L31.2926 197.44C30.3326 191.28 34.3326 185.6 40.5726 184.56C46.0126 183.6 51.3726 187.12 52.9726 192.24L71.9326 253.2C76.4926 267.6 85.6926 280.32 97.9326 289.12C95.9326 296.88 97.6926 306.08 103.453 315.44C120.653 343.36 139.213 363.92 140.013 364.8C142.253 367.28 146.013 367.44 148.493 365.2C150.973 362.96 151.133 359.2 148.893 356.72C148.733 356.48 130.253 336.08 113.693 309.2C107.933 299.84 107.533 291.92 112.413 287.04C116.653 282.8 123.453 282.16 126.973 284.32C132.653 287.84 154.573 306.32 187.053 335.2C199.853 346.48 208.013 362.08 210.093 379.12L215.373 421.6H146.653C143.133 406 135.133 391.6 123.773 380.48L63.3726 321.68H63.2926ZM231.613 446.88C231.613 452.24 227.293 456.56 221.933 456.56H143.933C138.573 456.56 134.253 452.24 134.253 446.88V443.28C134.253 438.72 137.453 435.12 141.693 434.08C142.013 434.08 142.333 434.08 142.573 434.08C142.813 434.08 143.053 433.92 143.293 433.84C143.453 433.84 143.613 433.76 143.853 433.76H221.373C221.373 433.76 221.773 433.84 222.013 433.84C222.093 433.84 222.173 433.84 222.333 433.84C227.453 434.08 231.533 438.24 231.533 443.44V447.04L231.613 446.88ZM379.373 446.88C379.373 452.24 375.053 456.56 369.693 456.56H291.693C286.333 456.56 282.013 452.24 282.013 446.88V443.28C282.013 438.08 286.093 434 291.213 433.68C291.293 433.68 291.373 433.68 291.533 433.68C291.773 433.68 291.933 433.6 292.173 433.6H369.693C369.693 433.6 370.013 433.68 370.253 433.68C370.493 433.68 370.733 433.92 370.973 433.92C371.293 433.92 371.613 433.92 371.853 433.92C376.093 434.96 379.293 438.64 379.293 443.12V446.72L379.373 446.88ZM482.333 197.44L467.053 289.68C465.053 301.84 459.133 313.2 450.333 321.68L389.933 380.48C378.493 391.6 370.573 406 367.053 421.6H298.333L303.613 379.12C305.693 362.08 313.853 346.48 326.653 335.2C359.133 306.32 381.053 287.76 386.813 284.32C390.253 282.24 397.053 282.8 401.293 287.04C406.173 291.92 405.773 299.76 400.013 309.2C383.453 336.16 364.973 356.56 364.813 356.72C362.573 359.2 362.733 362.96 365.213 365.2C367.693 367.44 371.453 367.28 373.693 364.8C374.493 363.92 393.053 343.44 410.253 315.44C416.013 306.08 417.773 296.88 415.773 289.12C428.013 280.32 437.213 267.6 441.773 253.2L460.733 192.24C462.173 187.6 466.573 184.4 471.373 184.4C471.933 184.4 472.573 184.4 473.213 184.56C479.373 185.6 483.453 191.28 482.413 197.44H482.333Z" fill="white"/>
</svg>
