<svg width="100" height="101" viewBox="0 0 100 101" fill="none" xmlns="http://www.w3.org/2000/svg">
<g id="reshot-icon-search-results-PSM4FNYDQ3 1" clip-path="url(#clip0_1639_14606)">
<g id="Layer_x0020_1">
<path id="Vector" fill-rule="evenodd" clip-rule="evenodd" d="M50 0.539062C77.6142 0.539062 100 22.9249 100 50.5391C100 78.1533 77.6142 100.539 50 100.539C22.3858 100.539 0 78.1532 0 50.5391C0 22.9249 22.3858 0.539062 50 0.539062Z" fill="white"/>
<g id="Clip path group">
<mask id="mask0_1639_14606" style="mask-type:luminance" maskUnits="userSpaceOnUse" x="0" y="0" width="100" height="101">
<g id="id0">
<path id="Vector_2" d="M50 0.539062C77.6142 0.539062 100 22.9249 100 50.5391C100 78.1533 77.6142 100.539 50 100.539C22.3858 100.539 0 78.1532 0 50.5391C0 22.9249 22.3858 0.539062 50 0.539062Z" fill="white"/>
</g>
</mask>
<g mask="url(#mask0_1639_14606)">
<g id="Group">
<g id="_289348784">
<g id="Group_2">
<path id="_2909710321" fill-rule="evenodd" clip-rule="evenodd" d="M48.4412 30.2227L103.904 85.6857L103.959 85.7467L104.009 85.8126L104.052 85.883L104.088 85.9582L104.117 86.0368L104.138 86.1188L104.151 86.2038L104.155 86.2916L48.6921 30.8286L48.6877 30.7409L48.6747 30.6559L48.6536 30.5737L48.6248 30.495L48.5887 30.4201L48.5458 30.3495L48.4964 30.2835L48.4412 30.2227Z" fill="#D6D6FE"/>
<path id="_290970936" fill-rule="evenodd" clip-rule="evenodd" d="M75.0889 42.4844L130.552 97.9471L130.686 98.1019L130.815 98.2586L130.942 98.4188L131.064 98.5809L131.183 98.7459L131.298 98.9139L131.408 99.0838L131.515 99.2562L131.618 99.4305L131.717 99.6073L131.812 99.7865L131.903 99.9671L131.989 100.15L132.072 100.335L132.15 100.522L132.224 100.71L132.294 100.9L132.36 101.092L132.421 101.285L132.478 101.48L132.53 101.676L132.579 101.873L132.623 102.072L132.662 102.272L132.696 102.472L132.727 102.674L132.752 102.877L132.773 103.08L77.3101 47.6177L77.2891 47.4141L77.2632 47.2114L77.2334 47.0096L77.1987 46.8087L77.1592 46.609L77.1157 46.4104L77.0674 46.2131L77.0151 46.017L76.958 45.8224L76.897 45.6291L76.8311 45.4374L76.7612 45.2473L76.687 45.0588L76.6089 44.8722L76.5264 44.6873L76.4399 44.5043L76.3491 44.3233L76.2539 44.1444L76.1553 43.9676L76.0523 43.793L75.9453 43.6207L75.8345 43.4507L75.7197 43.2831L75.6016 43.1181L75.479 42.9556L75.3525 42.7958L75.2227 42.6387L75.0889 42.4844Z" fill="#D6D6FE"/>
<path id="_290971320" fill-rule="evenodd" clip-rule="evenodd" d="M77.3276 47.6172L132.791 103.08L132.806 103.603L77.3433 48.1397L77.3276 47.6172Z" fill="#D6D6FE"/>
<path id="_290971680" fill-rule="evenodd" clip-rule="evenodd" d="M77.3433 48.1406L132.806 103.604L132.807 103.61V103.614V103.618V103.62V103.622V103.626V103.632V103.639L77.3438 48.1764V48.1687V48.1633V48.1596V48.1569V48.1544V48.1513L77.3433 48.147V48.1406Z" fill="#D6D6FE"/>
<path id="_290971800" fill-rule="evenodd" clip-rule="evenodd" d="M77.3438 48.1758L132.807 103.639V103.661L77.3433 48.1978L77.3438 48.1758Z" fill="#D6D6FE"/>
<path id="_290971488" fill-rule="evenodd" clip-rule="evenodd" d="M77.3433 48.1973L132.807 103.66L132.806 103.668L77.3433 48.2044V48.1973Z" fill="#D6D6FE"/>
<path id="_290971848" fill-rule="evenodd" clip-rule="evenodd" d="M77.3433 48.2051L132.806 103.668V103.674L77.3428 48.2105L77.3433 48.2051Z" fill="#D6D6FE"/>
<path id="_290971992" fill-rule="evenodd" clip-rule="evenodd" d="M77.3428 48.2109L132.806 103.674L132.797 103.892L132.785 104.11L132.768 104.328L132.748 104.545L132.723 104.761L132.694 104.977L132.662 105.192L132.625 105.406L132.583 105.618L132.539 105.83L132.489 106.041L132.435 106.25L132.376 106.458L132.314 106.664L132.247 106.869L132.175 107.072L132.099 107.273L132.018 107.473L131.933 107.67L131.843 107.866L131.749 108.059L131.649 108.25L131.545 108.438L131.436 108.625L131.322 108.808L131.204 108.989L131.08 109.167L130.952 109.343L130.818 109.515L130.68 109.684L130.536 109.851L130.388 110.014L74.9248 54.5506L75.0732 54.3875L75.2168 54.2215L75.3555 54.052L75.4888 53.8797L75.6172 53.7044L75.7407 53.5262L75.8594 53.345L75.9731 53.1614L76.082 52.9754L76.186 52.7869L76.2856 52.596L76.3799 52.4026L76.4702 52.2073L76.5552 52.0101L76.6362 51.8104L76.7119 51.6092L76.7837 51.4061L76.8511 51.201L76.9136 50.9949L76.9717 50.7869L77.0259 50.5774L77.0752 50.367L77.1206 50.1551L77.1616 49.9427L77.1987 49.7283L77.2314 49.5135L77.2603 49.2981L77.2847 49.0817L77.3052 48.8647L77.3218 48.6472L77.3345 48.4292L77.3428 48.2109Z" fill="#D6D6FE"/>
<path id="_290972304" fill-rule="evenodd" clip-rule="evenodd" d="M48.6921 30.8281L104.155 86.2912V89.6276L48.6921 34.1646V30.8281Z" fill="#D6D6FE"/>
<path id="_290972136" fill-rule="evenodd" clip-rule="evenodd" d="M53.3442 35.0215L108.807 90.4845V93.8209L53.3442 38.358V35.0215Z" fill="#D6D6FE"/>
<path id="_290972376" fill-rule="evenodd" clip-rule="evenodd" d="M57.5376 39.2148L113 94.6777V125.709L57.5376 70.2466V39.2148Z" fill="#D6D6FE"/>
<path id="_290972328" fill-rule="evenodd" clip-rule="evenodd" d="M68.2554 57.3594L123.718 112.822L123.512 112.808L123.305 112.791L123.1 112.769L122.895 112.744L122.69 112.715L122.487 112.683L122.284 112.646L122.083 112.606L121.881 112.563L121.682 112.515L121.483 112.463L121.286 112.408L121.09 112.349L120.896 112.285L120.703 112.218L120.512 112.146L120.322 112.07L120.134 111.991L119.948 111.907L119.764 111.818L119.582 111.726L119.402 111.629L119.224 111.528L119.048 111.423L118.875 111.313L118.704 111.199L118.536 111.081L118.37 110.958L118.207 110.83L118.046 110.698L117.889 110.562L117.734 110.42L62.2715 54.957L62.4263 55.0986L62.5835 55.2353L62.7441 55.3672L62.9072 55.4946L63.0728 55.6177L63.2412 55.7363L63.4121 55.8506L63.5855 55.96L63.7612 56.0654L63.939 56.1665L64.1187 56.2632L64.3008 56.3555L64.4854 56.4434L64.6714 56.5273L64.8589 56.6074L65.0488 56.6831L65.2402 56.7544L65.4331 56.8223L65.6274 56.8853L65.8232 56.9448L66.0205 57.0005L66.2188 57.0522L66.4185 57.0996L66.6191 57.1436L66.8213 57.1836L67.0239 57.2197L67.2275 57.2524L67.4316 57.2812L67.6367 57.3062L67.8423 57.3276L68.0488 57.3452L68.2554 57.3594Z" fill="#D6D6FE"/>
<path id="_290972232" fill-rule="evenodd" clip-rule="evenodd" d="M68.8833 60.1484L124.346 115.611H124.344L124.341 115.612H124.339H124.337H124.334H124.332L124.33 115.612H124.327L68.8643 60.1494L68.8667 60.1489H68.8691H68.8716H68.8735H68.876L68.8784 60.1484H68.8809H68.8833Z" fill="#D6D6FE"/>
<path id="_290972160" fill-rule="evenodd" clip-rule="evenodd" d="M68.8643 60.1489L124.327 115.612L124.222 115.604L124.124 115.577L124.034 115.532L123.955 115.471L68.4922 60.0078L68.5713 60.0688L68.6606 60.1143L68.7593 60.1411L68.8643 60.1489Z" fill="#D6D6FE"/>
<path id="_290971896" fill-rule="evenodd" clip-rule="evenodd" d="M69.2949 57.334L124.758 112.797L124.824 114.836L69.3603 59.373L69.2949 57.334Z" fill="#D6D6FE"/>
<path id="_290971944" fill-rule="evenodd" clip-rule="evenodd" d="M62.2715 54.9575L117.734 110.421L117.574 110.267L117.418 110.109L61.9556 54.6465L62.1113 54.8037L62.2715 54.9575Z" fill="#D6D6FE"/>
<path id="_290971920" fill-rule="evenodd" clip-rule="evenodd" d="M53.0928 34.416L108.556 89.879L108.611 89.94L108.661 90.006L108.704 90.0763L108.74 90.1515L108.769 90.2301L108.79 90.3121L108.803 90.3976L108.807 90.485L53.3442 35.022L53.3394 34.9344L53.3267 34.8493L53.3057 34.7672L53.2769 34.6884L53.2407 34.6135L53.1978 34.5429L53.1484 34.4769L53.0928 34.416Z" fill="#D6D6FE"/>
<path id="_290971968" fill-rule="evenodd" clip-rule="evenodd" d="M69.3604 59.373L124.824 114.836H124.824L124.825 114.836H124.825H124.826V114.837L69.3628 59.3735H69.3623L69.3618 59.373H69.3613H69.3608H69.3604Z" fill="#D6D6FE"/>
<path id="_290973360" fill-rule="evenodd" clip-rule="evenodd" d="M57.2866 38.6094L112.75 94.0723L112.805 94.1333L112.854 94.1992L112.897 94.27L112.933 94.3447L112.962 94.4233L112.983 94.5059L112.996 94.5908L113 94.6782L57.5376 39.2153L57.5327 39.1277L57.52 39.0427L57.499 38.9605L57.4702 38.8817L57.4341 38.8068L57.3911 38.7362L57.3418 38.6702L57.2866 38.6094Z" fill="#D6D6FE"/>
<path id="_290973264" fill-rule="evenodd" clip-rule="evenodd" d="M69.3604 59.373L124.824 114.836L124.831 115.076L69.3682 59.6128L69.3604 59.373Z" fill="#D6D6FE"/>
<path id="_290973024" fill-rule="evenodd" clip-rule="evenodd" d="M74.9248 54.5508L130.388 110.014L130.247 110.16L130.104 110.303L129.958 110.442L129.809 110.578L129.656 110.71L129.502 110.838L129.344 110.963L129.185 111.084L129.022 111.202L128.857 111.315L128.69 111.425L128.521 111.531L128.349 111.633L128.175 111.732L127.999 111.826L127.821 111.917L127.641 112.003L127.459 112.085L127.275 112.164L127.09 112.238L126.903 112.308L126.714 112.374L126.524 112.436L126.333 112.493L126.14 112.546L125.946 112.595L125.75 112.64L125.554 112.68L125.356 112.716L125.158 112.748L124.958 112.775L124.758 112.798L69.2949 57.3345L69.4951 57.312L69.6948 57.2847L69.8936 57.2534L70.0908 57.2173L70.2876 57.1772L70.4829 57.1323L70.6768 57.0835L70.8696 57.0298L71.0615 56.9727L71.2515 56.9106L71.4399 56.8447L71.627 56.7744L71.8125 56.7002L71.9961 56.6221L72.1777 56.5395L72.3579 56.4531L72.5356 56.3628L72.7119 56.2686L72.8857 56.1704L73.0576 56.0684L73.227 55.9624L73.394 55.8525L73.5591 55.7388L73.7217 55.6216L73.8813 55.5005L74.0391 55.3755L74.1934 55.2471L74.3457 55.1147L74.4946 54.9795L74.6411 54.8398L74.7842 54.6973L74.9248 54.5508Z" fill="#D6D6FE"/>
<path id="_290972832" fill-rule="evenodd" clip-rule="evenodd" d="M69.3682 59.6133L124.831 115.076L124.824 115.179L124.798 115.275L124.755 115.364L124.696 115.442L124.624 115.508L124.541 115.559L124.447 115.594L124.346 115.611L68.8833 60.148L68.9844 60.1309L69.0776 60.0962L69.1611 60.0444L69.2334 59.979L69.292 59.9009L69.335 59.8125L69.3613 59.7158L69.3682 59.6133Z" fill="#D6D6FE"/>
<path id="_290972712" fill-rule="evenodd" clip-rule="evenodd" d="M57.5376 70.248L113 125.711L112.996 125.798L112.983 125.883L112.962 125.966L112.933 126.044L112.897 126.119L112.854 126.19L112.805 126.256L112.75 126.317L112.688 126.372L112.623 126.421L112.552 126.464L112.477 126.5L112.398 126.529L112.316 126.55L112.231 126.563L112.144 126.568L56.6807 71.105L56.7681 71.1001L56.853 71.0874L56.9351 71.0664L57.0142 71.0376L57.0889 71.0015L57.1597 70.9585L57.2256 70.9092L57.2866 70.854L57.3418 70.793L57.3911 70.727L57.4341 70.6562L57.4702 70.5815L57.499 70.5024L57.52 70.4204L57.5327 70.3354L57.5376 70.248Z" fill="#D6D6FE"/>
<path id="_290973096" fill-rule="evenodd" clip-rule="evenodd" d="M27.3081 62.7168L82.771 118.18H78.9761L23.5132 62.7168H27.3081Z" fill="#D6D6FE"/>
<path id="_290973240" fill-rule="evenodd" clip-rule="evenodd" d="M28.165 66.9102L83.6279 122.374L83.5405 122.369L83.4555 122.356L83.373 122.335L83.2944 122.306L83.2197 122.27L83.1489 122.227L83.083 122.178L27.6199 66.7148L27.6859 66.7642L27.7565 66.8071L27.8314 66.8428L27.9102 66.8716L27.9923 66.8931L28.0774 66.9058L28.165 66.9102Z" fill="#D6D6FE"/>
<path id="_290972856" fill-rule="evenodd" clip-rule="evenodd" d="M31.5015 66.9102L86.9644 122.374H83.6279L28.165 66.9102H31.5015Z" fill="#D6D6FE"/>
<path id="_290972904" fill-rule="evenodd" clip-rule="evenodd" d="M32.3583 71.104L87.8211 126.567L87.7337 126.563L87.6488 126.549L87.5663 126.528L87.4876 126.5L87.4129 126.463L87.3421 126.42L87.2762 126.371L31.8132 70.9082L31.8792 70.9575L31.9499 71.0005L32.0248 71.0366L32.1035 71.0654L32.1856 71.0864L32.2708 71.0991L32.3583 71.104Z" fill="#D6D6FE"/>
<path id="_290973072" fill-rule="evenodd" clip-rule="evenodd" d="M56.6806 71.1035L112.143 126.566H87.8212L32.3584 71.1035H56.6806Z" fill="#D6D6FE"/>
<path id="_290973864" fill-rule="evenodd" clip-rule="evenodd" d="M23.5131 62.7173L78.976 118.18L78.8886 118.176L78.8032 118.163L78.7211 118.142L78.6425 118.113L78.5678 118.077L78.497 118.034L78.4311 117.985L22.968 62.5215L23.034 62.5708L23.1046 62.6138L23.1795 62.6499L23.2584 62.6787L23.3405 62.6997L23.4255 62.7129L23.5131 62.7173Z" fill="#D6D6FE"/>
</g>
<path id="_289349120" fill-rule="evenodd" clip-rule="evenodd" d="M74.5171 41.8985C76.1184 43.3999 77.1113 45.4438 77.3096 47.6194L77.3273 47.6189L77.343 48.1414C77.3436 48.1618 77.3436 48.1526 77.3434 48.1772L77.3432 48.1992L77.343 48.2064L77.3427 48.2118C77.2712 50.5417 76.5381 52.8303 74.9243 54.5516C73.444 56.1306 71.4362 57.1179 69.2946 57.3353L69.3603 59.374L69.368 59.6138C69.3766 59.8945 69.1609 60.1301 68.8829 60.1485C68.8767 60.1489 68.8704 60.1492 68.8641 60.1494C68.5771 60.1581 68.3373 59.9325 68.3286 59.6455L68.3209 59.4082L68.2549 57.3611C66.0491 57.2286 63.9047 56.4903 62.2712 54.9588C60.5424 53.338 59.5229 51.0849 59.4466 48.7162C59.3698 46.3355 60.2353 44.0428 61.864 42.3057C63.4849 40.5769 65.7379 39.5574 68.1067 39.481C70.4873 39.4043 72.78 40.2698 74.5171 41.8985L74.5171 41.8985ZM23.5127 29.9727H47.8347C48.308 29.9727 48.6917 30.3563 48.6917 30.8295V34.1661H52.4866C52.9598 34.1661 53.3435 34.5498 53.3435 35.023V38.3595H56.68C57.1532 38.3595 57.5369 38.7432 57.5369 39.2165V70.248C57.5369 70.7212 57.1532 71.1049 56.68 71.1049H32.358C31.8847 71.1049 31.501 70.7212 31.501 70.248V66.9114H28.1646C27.6913 66.9114 27.3076 66.5278 27.3076 66.0545V62.718H23.5127C23.0394 62.718 22.6558 62.3343 22.6558 61.8611V30.8295C22.6558 30.3563 23.0394 29.9727 23.5127 29.9727Z" fill="#D6D6FE"/>
</g>
</g>
</g>
</g>
<path id="Vector_3" d="M63.4691 53.3544C66.1893 56.0747 70.5997 56.0747 73.32 53.3544C76.0402 50.6342 76.0402 46.2238 73.32 43.5036C70.5997 40.7833 66.1893 40.7833 63.4691 43.5036C60.7489 46.2238 60.7489 50.6342 63.4691 53.3544Z" fill="#BBDEFB"/>
<path id="Vector_4" d="M69.2827 56.9514C69.2739 56.6644 69.0341 56.4387 68.7471 56.4475C68.4601 56.4563 68.2344 56.6961 68.2432 56.9831L68.3289 59.6455C68.3377 59.9326 68.5775 60.1582 68.8645 60.1494C69.1516 60.1407 69.3772 59.9009 69.3684 59.6138L69.2827 56.9514Z" fill="#2626C6"/>
<path id="Vector_5" d="M70.1973 60.5434L71.0952 67.8565C71.1014 67.8862 71.1052 67.917 71.1062 67.9484L70.5852 67.9652L71.105 67.9493C71.1355 68.8938 70.6324 69.5187 69.972 69.8091C69.7225 69.9189 69.4519 69.9785 69.1815 69.9872C68.9112 69.9959 68.6376 69.954 68.3823 69.8608C67.7153 69.6173 67.1796 69.0396 67.1344 68.1183C67.1311 68.0893 67.1302 68.0597 67.132 68.0296L67.6524 68.0597L67.1326 68.0295L67.5613 60.6116C67.554 60.0039 67.8862 59.5997 68.3197 59.409C68.4842 59.3367 68.6618 59.2975 68.8387 59.2917C69.0155 59.286 69.1949 59.3137 69.363 59.375C69.8112 59.5386 70.1706 59.9262 70.1973 60.5434Z" fill="#5D4037"/>
<path id="Vector_6" d="M69.1288 69.9881C68.8757 69.9901 68.6209 69.9478 68.382 69.8606C67.715 69.6172 67.1793 69.0395 67.1341 68.1181C67.1309 68.0892 67.13 68.0595 67.1318 68.0295L67.6521 68.0595L67.1324 68.0293L67.561 60.6114C67.5537 60.0038 67.886 59.5996 68.3195 59.4088C68.484 59.3365 68.6615 59.2973 68.8384 59.2916C68.8461 59.2914 68.8539 59.2911 68.8616 59.291L69.1288 69.9881Z" fill="#1500A3"/>
<path id="Vector_7" d="M70.1973 60.5435L71.0951 67.8565C71.1014 67.8862 71.1052 67.917 71.1062 67.9484L70.5852 67.9652L71.105 67.9493C71.1354 68.8939 70.6323 69.5187 69.972 69.8092C69.7225 69.9189 69.4518 69.9785 69.1815 69.9872C69.1646 69.9878 69.1478 69.9881 69.131 69.9882H69.1291L68.8618 59.2912L68.8735 59.2911C69.039 59.2898 69.2059 59.3177 69.363 59.375C69.8111 59.5386 70.1706 59.9262 70.1973 60.5435Z" fill="#0B0B79"/>
<path id="Vector_8" fill-rule="evenodd" clip-rule="evenodd" d="M77.3101 47.6196L77.3279 47.6191L77.3435 48.1416C77.3441 48.162 77.3441 48.1528 77.344 48.1774L77.3437 48.1994L77.3434 48.2066L77.3433 48.212C77.2717 50.542 76.5387 52.8305 74.9248 54.5518C73.4235 56.1532 71.3797 57.146 69.2039 57.3443L69.2045 57.362L68.682 57.3777C68.6615 57.3783 68.6708 57.3783 68.6463 57.3782L68.6242 57.3779L68.617 57.3777L68.6116 57.3775C66.2816 57.3059 63.9931 56.5729 62.2717 54.959C60.543 53.3382 59.5234 51.0851 59.4471 48.7164C59.3704 46.3358 60.2359 44.0431 61.8646 42.3059C63.4854 40.5771 65.7385 39.5576 68.1072 39.4813C70.4878 39.4046 72.7805 40.27 74.5177 41.8987C76.119 43.4001 77.1118 45.4439 77.3101 47.6196L77.3101 47.6196ZM68.6612 55.3259C70.4722 55.2562 72.1907 54.4723 73.4306 53.1498C74.6621 51.8363 75.4582 50.0948 75.296 48.2678L75.295 48.2568L75.2931 48.2296L75.2923 48.2105C75.2913 48.185 75.2915 48.1931 75.2917 48.1696L75.2917 48.1624C75.222 46.3514 74.4382 44.6329 73.1156 43.3929C71.7752 42.1362 70.008 41.4711 68.1714 41.5302C66.3447 41.5891 64.6087 42.3748 63.3587 43.7079C62.1021 45.0483 61.4369 46.8156 61.4961 48.6521C61.555 50.4789 62.3406 52.2149 63.6738 53.4649C64.9873 54.6962 66.7288 55.4924 68.5559 55.3301L68.5668 55.3291L68.5941 55.3273L68.6131 55.3265C68.6386 55.3255 68.6305 55.3257 68.654 55.3258L68.6612 55.3259Z" fill="#1570EF"/>
<path id="Vector_9" fill-rule="evenodd" clip-rule="evenodd" d="M73.8379 42.9853C76.8444 45.9918 76.8444 50.8662 73.8379 53.8726C70.8315 56.879 65.9571 56.879 62.9506 53.8726C59.9442 50.8662 59.9442 45.9918 62.9506 42.9853C65.9571 39.9789 70.8315 39.9789 73.8379 42.9853ZM68.6607 55.3259C70.4717 55.2562 72.1903 54.4723 73.4302 53.1498C74.6616 51.8364 75.4577 50.0949 75.2955 48.2678L75.2945 48.2568L75.2927 48.2296L75.2919 48.2105C75.2908 48.185 75.2911 48.1932 75.2912 48.1696L75.2913 48.1624C75.2216 46.3515 74.4377 44.6329 73.1152 43.393C71.7748 42.1363 70.0075 41.4711 68.171 41.5303C66.3443 41.5891 64.6083 42.3748 63.3583 43.708C62.1017 45.0484 61.4364 46.8156 61.4956 48.6521C61.5545 50.4789 62.3401 52.2149 63.6734 53.4649C64.9868 54.6963 66.7283 55.4924 68.5554 55.3301L68.5664 55.3292L68.5936 55.3273L68.6127 55.3265C68.6382 55.3255 68.6301 55.3257 68.6535 55.3259L68.6607 55.3259Z" fill="#2E90FA"/>
<path id="Vector_10" fill-rule="evenodd" clip-rule="evenodd" d="M23.5132 29.9727H47.8352C48.3085 29.9727 48.6921 30.3563 48.6921 30.8296V61.8611C48.6921 62.3344 48.3085 62.7181 47.8352 62.7181H23.5132C23.0399 62.7181 22.6562 62.3344 22.6562 61.8611V30.8296C22.6562 30.3563 23.0399 29.9727 23.5132 29.9727Z" fill="#1D1D95"/>
<path id="Vector_11" fill-rule="evenodd" clip-rule="evenodd" d="M28.165 34.166H52.4871C52.9603 34.166 53.344 34.5497 53.344 35.0229V66.0544C53.344 66.5277 52.9603 66.9114 52.4871 66.9114H28.165C27.6918 66.9114 27.3081 66.5277 27.3081 66.0544V35.0229C27.3081 34.5497 27.6918 34.166 28.165 34.166Z" fill="#2626C6"/>
<path id="Vector_12" fill-rule="evenodd" clip-rule="evenodd" d="M32.3584 38.3594H56.6804C57.1537 38.3594 57.5374 38.7431 57.5374 39.2163V70.2478C57.5374 70.7211 57.1537 71.1048 56.6804 71.1048H32.3584C31.8851 71.1048 31.5015 70.7211 31.5015 70.2478V39.2163C31.5015 38.7431 31.8851 38.3594 32.3584 38.3594Z" fill="#3030F8"/>
<path id="Vector_13" fill-rule="evenodd" clip-rule="evenodd" d="M35.3181 65.1973H53.7206V66.9111H35.3181V65.1973Z" fill="white"/>
<path id="Vector_14" fill-rule="evenodd" clip-rule="evenodd" d="M35.3181 61.0039H53.7206V62.7178H35.3181V61.0039Z" fill="white"/>
<path id="Vector_15" fill-rule="evenodd" clip-rule="evenodd" d="M35.3181 56.8105H53.7206V58.5244H35.3181V56.8105Z" fill="white"/>
<path id="Vector_16" fill-rule="evenodd" clip-rule="evenodd" d="M35.3181 52.6172H53.7206V54.3311H35.3181V52.6172Z" fill="white"/>
<path id="Vector_17" fill-rule="evenodd" clip-rule="evenodd" d="M35.3181 44.2305H45.8818V45.9443H35.3181V44.2305Z" fill="white"/>
<path id="Vector_18" fill-rule="evenodd" clip-rule="evenodd" d="M35.3181 48.4238H53.7206V50.1378H35.3181V48.4238Z" fill="white"/>
</g>
</g>
<defs>
<clipPath id="clip0_1639_14606">
<rect width="100" height="100" fill="white" transform="translate(0 0.539062)"/>
</clipPath>
</defs>
</svg>
