<svg width="32" height="32" viewBox="0 0 32 32" fill="none" xmlns="http://www.w3.org/2000/svg">
<g clip-path="url(#clip0_187_7937)">
<path fill-rule="evenodd" clip-rule="evenodd" d="M25.5451 1.48424C25.099 -0.504512 22.2811 -0.490292 21.8525 1.50034L21.8049 1.72149C21.2796 4.16176 19.3593 6.0205 16.9647 6.44414C14.9165 6.80647 14.9165 9.76496 16.9647 10.1273C19.3593 10.5509 21.2796 12.4097 21.8049 14.8499L21.8525 15.0711C22.2811 17.0617 25.099 17.076 25.5451 15.0872L25.6027 14.8295C26.1481 12.3986 28.0704 10.5538 30.4608 10.1309C32.5131 9.76791 32.5131 6.80352 30.4608 6.44048C28.0704 6.0176 26.1481 4.1728 25.6027 1.74197L25.5451 1.48424ZM13.2548 6.24354C13.2571 7.03253 12.6194 7.67401 11.8304 7.67634C11.7413 7.67659 11.6544 7.70375 11.581 7.75426C11.5077 7.80475 11.4512 7.87623 11.4192 7.95934L11.4185 7.9611L10.6141 10.0377C10.4951 10.3448 10.2736 10.6014 9.98709 10.764L7.21835 12.3355C6.93929 12.4939 6.61499 12.5537 6.29778 12.5053L4.10592 12.1709C4.02151 12.161 3.93593 12.1755 3.8595 12.213C3.78153 12.2512 3.71655 12.3115 3.67264 12.3864L2.92697 13.6913L2.91824 13.7066C2.87291 13.7837 2.85193 13.8727 2.85824 13.9619C2.8645 14.0502 2.89712 14.1346 2.95182 14.2041L4.35138 15.9395C4.55623 16.1935 4.66793 16.51 4.66793 16.8363V19.9792C4.66793 20.2991 4.56059 20.6097 4.36309 20.8613L2.99744 22.6011L2.99097 22.6094C2.93525 22.6793 2.90199 22.7645 2.89566 22.8537C2.88935 22.9429 2.91024 23.032 2.95557 23.109L2.96448 23.1241L3.71008 24.4293C3.75399 24.504 3.81895 24.5643 3.89691 24.6025C3.97335 24.64 4.0589 24.6546 4.14331 24.6446L6.3352 24.3102C6.65525 24.2615 6.9824 24.3227 7.26304 24.4841L9.99438 26.0558C10.2774 26.2185 10.4961 26.4734 10.6141 26.7778L11.4185 28.8544L11.4192 28.8562C11.4512 28.9392 11.5077 29.0107 11.581 29.0613C11.654 29.1115 11.7404 29.1387 11.829 29.1392H13.3949C13.4834 29.1387 13.5698 29.1115 13.6428 29.0613C13.7162 29.0107 13.7726 28.9392 13.8047 28.8562L13.8053 28.8544L14.6098 26.7778C14.7277 26.4734 14.9464 26.2185 15.2295 26.0558L17.9608 24.4841C18.2414 24.3227 18.5686 24.2615 18.8886 24.3102L21.0805 24.6446C21.1649 24.6546 21.2505 24.64 21.3269 24.6025C21.4048 24.5643 21.4698 24.504 21.5137 24.4293L21.5151 24.427L22.2594 23.1243L22.2682 23.109C22.3135 23.032 22.3345 22.9429 22.3282 22.8537C22.3219 22.7654 22.2893 22.681 22.2346 22.6115L22.2329 22.6093L20.835 20.876C20.3397 20.2619 20.4361 19.3625 21.0503 18.8672C21.6644 18.3719 22.5638 18.4683 23.059 19.0824L24.4622 20.8222L24.4674 20.8287C24.8832 21.3506 25.131 21.9863 25.1783 22.6519C25.2251 23.3141 25.0711 23.9751 24.7365 24.5483L23.9918 25.8512L23.9879 25.8581C23.6601 26.4245 23.1717 26.8805 22.5841 27.1682C21.9966 27.456 21.3368 27.5627 20.6886 27.4747L20.6653 27.4715L18.9522 27.2101L17.0917 28.2805L16.4702 29.8848L16.4696 29.8864C16.2302 30.5056 15.8095 31.0386 15.2625 31.4149C14.715 31.7918 14.0665 31.9943 13.4019 31.9963H13.3976H11.8262H11.822C11.1573 31.9943 10.5088 31.7918 9.9613 31.4149C9.41392 31.0382 8.99303 30.5051 8.75374 29.8853L8.13211 28.2805L6.27168 27.2101L4.55854 27.4715L4.53529 27.475C3.88702 27.563 3.2272 27.456 2.63973 27.1682C2.05226 26.8805 1.56362 26.4245 1.23592 25.8581L1.23198 25.8514L0.487463 24.5483C0.15279 23.9751 -0.00123292 23.3143 0.0456547 22.6519C0.0926391 21.9883 0.339159 21.3544 0.752793 20.8334L1.81079 19.4855V17.3406L0.724265 15.9933L0.719031 15.9868C0.303184 15.465 0.0553625 14.8293 0.00823937 14.1637C-0.0386473 13.5014 0.115366 12.8404 0.450025 12.2672L1.19458 10.9642L1.19848 10.9574C1.52619 10.3912 2.01484 9.93518 2.60231 9.64731C3.18978 9.35945 3.84958 9.25273 4.49785 9.34073L4.52114 9.34391L6.2389 9.60613L8.13383 8.53063L8.75358 6.93079C8.99289 6.31106 9.41403 5.77721 9.9613 5.40059C10.5088 5.02382 11.1573 4.82117 11.822 4.8192C12.6109 4.81687 13.2524 5.45458 13.2548 6.24354ZM12.5932 13.8057C11.3726 13.8057 10.2021 14.2906 9.33899 15.1536C8.47593 16.0167 7.99106 17.1873 7.99106 18.4078C7.99106 19.3181 8.26098 20.2078 8.76665 20.9646C9.27234 21.7214 9.99109 22.3113 10.832 22.6596C11.6729 23.008 12.5983 23.0992 13.491 22.9216C14.3837 22.744 15.2037 22.3056 15.8474 21.662C16.491 21.0184 16.9293 20.1984 17.1069 19.3057C17.2844 18.4129 17.1933 17.4876 16.845 16.6467C16.4966 15.8058 15.9068 15.087 15.15 14.5813C14.3932 14.0756 13.5034 13.8057 12.5932 13.8057Z" fill="#031B4E"/>
</g>
<defs>
<clipPath id="clip0_187_7937">
<rect width="32" height="32" fill="white"/>
</clipPath>
</defs>
</svg>
