<svg width="252" height="156" viewBox="0 0 252 156" fill="none" xmlns="http://www.w3.org/2000/svg">
<path d="M194.751 99.0085C195.017 98.6629 195.204 98.2631 195.299 97.8373C195.394 97.4115 195.395 96.9701 195.301 96.5441C195.207 96.1181 195.02 95.7179 194.755 95.3717C194.489 95.0254 194.151 94.7417 193.764 94.5403L194.354 87.7462L190.312 86.3809L189.614 95.987C189.319 96.6596 189.281 97.417 189.507 98.1158C189.733 98.8146 190.207 99.4062 190.84 99.7786C191.473 100.151 192.221 100.278 192.941 100.137C193.662 99.9947 194.305 99.5934 194.75 99.0089L194.751 99.0085Z" fill="#FFB8B8"/>
<path d="M214.916 151.83H211.28L209.549 137.795H214.919L214.916 151.83Z" fill="#FFB8B8"/>
<path d="M208.681 150.789H215.698V155.207H204.263C204.263 154.035 204.728 152.912 205.557 152.083C206.385 151.255 207.509 150.789 208.681 150.789Z" fill="#2F2E41"/>
<path d="M206.659 142.519L203.127 143.387L198.096 130.172L203.311 128.891L206.659 142.519Z" fill="#FFB8B8"/>
<path d="M200.404 142.87L207.218 141.193L208.274 145.483L197.17 148.216C196.89 147.078 197.074 145.876 197.68 144.873C198.287 143.87 199.267 143.15 200.404 142.87Z" fill="#2F2E41"/>
<path d="M210.66 147.356C210.327 147.357 210.007 147.234 209.76 147.012C209.513 146.79 209.357 146.484 209.323 146.153L205.137 107.151L201.494 119.078L206.654 137.707C206.743 138.026 206.711 138.367 206.564 138.664C206.416 138.961 206.165 139.193 205.857 139.316L201.755 140.957C201.586 141.024 201.405 141.057 201.223 141.052C201.041 141.048 200.862 141.007 200.697 140.932C200.531 140.856 200.383 140.748 200.26 140.613C200.137 140.479 200.043 140.321 199.984 140.149L193.66 122.006C192.968 120.025 192.662 117.93 192.758 115.834L193.64 96.2539L216.887 97.2383L216.524 145.681C216.52 146.019 216.39 146.342 216.159 146.588C215.929 146.835 215.615 146.986 215.279 147.014L210.764 147.354C210.729 147.355 210.694 147.356 210.66 147.356Z" fill="#2F2E41"/>
<path d="M206.81 52.9204C211.127 52.9204 214.626 49.4208 214.626 45.1037C214.626 40.7867 211.127 37.2871 206.81 37.2871C202.493 37.2871 198.993 40.7867 198.993 45.1037C198.993 49.4208 202.493 52.9204 206.81 52.9204Z" fill="#FFB8B8"/>
<path d="M212.558 98.5112C210.5 98.5112 207.943 98.3429 205.296 98.1688C201.681 97.9308 197.943 97.6847 195.152 97.8464C194.775 97.8838 194.395 97.8241 194.048 97.6729C193.701 97.5217 193.398 97.2841 193.169 96.9827C190.292 93.2992 194.728 78.9351 194.919 78.3257L198.529 62.264C199.325 58.7314 201.862 56.1255 205.153 55.4636C208.234 54.8449 211.214 56.0781 213.125 58.7654C213.226 58.908 213.328 59.0543 213.429 59.2043C219.651 68.42 216.132 91.3162 215.896 92.7925C216.225 93.1862 218.002 95.4124 217.514 96.9588C217.315 97.588 216.775 98.0167 215.909 98.2318C214.806 98.4503 213.681 98.5438 212.557 98.5103L212.558 98.5112Z" fill="#6C63FF"/>
<path d="M195.278 98.5178C194.57 98.5178 193.615 98.2565 192.327 97.7222C191.774 97.4918 190.09 96.7913 192.134 78.9223C193.139 70.1448 194.578 61.4285 194.592 61.3416L194.606 61.2576L194.683 61.2226C194.72 61.2057 198.395 59.5215 199.034 57.3571C199.055 57.2822 199.08 57.2095 199.108 57.1391C199.284 56.6579 199.639 56.2633 200.099 56.0375C200.559 55.8117 201.088 55.7721 201.576 55.9271C202.092 56.0504 202.541 56.3653 202.833 56.8078C203.125 57.2504 203.238 57.7875 203.149 58.3102C202.926 59.722 202.498 61.0935 201.879 62.3813C200.15 65.949 198.978 75.4068 198.967 75.502C198.9 76.3097 197.331 95.4476 197.029 96.8998C196.923 97.4071 196.729 98.0277 196.159 98.3288C195.886 98.4637 195.583 98.5292 195.279 98.5197L195.278 98.5178Z" fill="#2F2E41"/>
<path d="M203.817 97.7837C203.675 97.7837 203.536 97.7361 203.423 97.6484C201.123 95.9009 204.845 74.7179 207.051 67.4092C207.493 65.9452 207.887 64.6922 208.221 63.6837C208.83 61.874 209.256 60.0074 209.491 58.1123C209.612 57.0856 209.876 56.4994 210.298 56.3196C210.591 56.1945 210.934 56.2795 211.323 56.572C213.362 56.4714 215.343 57.304 217.179 58.2208L218.831 59.0451L220.685 91.8727C220.633 93.9678 216.503 95.4467 214.702 95.5412C211.809 95.693 206.615 96.1641 204.327 97.6128C204.177 97.7171 204 97.7763 203.818 97.7833L203.817 97.7837Z" fill="#2F2E41"/>
<path d="M193.488 91.6252C193.461 91.6252 193.433 91.6252 193.406 91.6226L189.66 91.3922C189.474 91.3808 189.292 91.3307 189.126 91.2451C188.96 91.1595 188.813 91.0402 188.696 90.895C188.579 90.7497 188.493 90.5815 188.444 90.4012C188.395 90.221 188.384 90.0325 188.412 89.8477L190.107 78.6201L193.297 62.8665C193.375 62.4784 193.535 62.1112 193.764 61.7887C193.994 61.4661 194.289 61.1954 194.63 60.9941C194.97 60.7928 195.35 60.6654 195.743 60.6201C196.137 60.5748 196.535 60.6127 196.913 60.7313C197.558 60.9373 198.109 61.3675 198.466 61.944C198.822 62.5206 198.961 63.2056 198.857 63.8754L196.322 79.6607L194.821 90.4645C194.775 90.7858 194.615 91.0798 194.37 91.2929C194.126 91.506 193.813 91.6239 193.488 91.6252Z" fill="#2F2E41"/>
<path d="M206.282 79.3354C206.511 78.9637 206.818 78.6466 207.182 78.4064C207.546 78.1663 207.959 78.0089 208.39 77.9454C208.822 77.8819 209.262 77.9138 209.68 78.0389C210.098 78.1639 210.483 78.3791 210.809 78.6693L216.95 75.7031L219.663 78.9951L210.932 83.0621C210.408 83.5771 209.714 83.8821 208.98 83.9193C208.247 83.9565 207.525 83.7234 206.952 83.264C206.379 82.8046 205.994 82.151 205.871 81.4269C205.747 80.7029 205.894 79.9587 206.282 79.3354Z" fill="#FFB8B8"/>
<path d="M214.813 82.522C214.51 82.522 214.217 82.4202 213.979 82.2331C213.742 82.046 213.574 81.7845 213.503 81.4905L212.612 77.7829C212.544 77.504 212.567 77.2107 212.679 76.9461C212.79 76.6814 212.983 76.4595 213.23 76.3129L218.608 73.0934L215.858 63.0258C215.621 62.1636 215.73 61.2426 216.162 60.4599C216.595 59.6772 217.317 59.0949 218.174 58.8378C219.03 58.5807 219.953 58.6692 220.746 59.0842C221.538 59.4993 222.136 60.208 222.412 61.0586L225.448 70.3278C225.821 71.4577 225.824 72.6771 225.456 73.8087C225.089 74.9404 224.37 75.9254 223.405 76.6206L215.601 82.2664C215.372 82.4325 215.096 82.522 214.813 82.522Z" fill="#2F2E41"/>
<path d="M156.699 20.3887H6.10352C4.69614 20.3904 3.34689 20.9502 2.35172 21.9454C1.35655 22.9405 0.796728 24.2898 0.795044 25.6971V41.9026C0.796728 43.31 1.35655 44.6593 2.35172 45.6545C3.34689 46.6496 4.69614 47.2094 6.10352 47.2111H156.699C158.107 47.2094 159.456 46.6496 160.451 45.6545C161.446 44.6593 162.006 43.31 162.008 41.9026V25.6971C162.006 24.2898 161.446 22.9405 160.451 21.9454C159.456 20.9502 158.107 20.3904 156.699 20.3887ZM161.449 41.9026C161.447 43.1618 160.946 44.3688 160.056 45.2591C159.166 46.1494 157.959 46.6504 156.699 46.6523H6.10352C4.84441 46.6504 3.6374 46.1494 2.74707 45.2591C1.85675 44.3688 1.35575 43.1618 1.3539 41.9026V25.6971C1.35575 24.438 1.85675 23.231 2.74707 22.3407C3.6374 21.4504 4.84441 20.9494 6.10352 20.9475H156.699C157.959 20.9494 159.166 21.4504 160.056 22.3407C160.946 23.231 161.447 24.438 161.449 25.6971V41.9026Z" fill="#3030F8"/>
<path d="M156.699 85.4882H6.10352C4.69614 85.4865 3.34689 84.9266 2.35172 83.9315C1.35655 82.9363 0.796728 81.5871 0.795044 80.1797V63.9745C0.796728 62.5671 1.35655 61.2179 2.35172 60.2227C3.34689 59.2275 4.69614 58.6677 6.10352 58.666H156.699C158.107 58.6677 159.456 59.2275 160.451 60.2227C161.446 61.2179 162.006 62.5671 162.008 63.9745V80.1797C162.006 81.5871 161.446 82.9363 160.451 83.9315C159.456 84.9266 158.107 85.4865 156.699 85.4882ZM6.10352 59.2249C4.84428 59.2263 3.63703 59.7272 2.74661 60.6176C1.8562 61.508 1.35533 62.7153 1.3539 63.9745V80.1797C1.35508 81.4391 1.85583 82.6466 2.74627 83.5372C3.63672 84.4278 4.84412 84.9288 6.10352 84.9303H156.699C157.959 84.9289 159.166 84.4281 160.057 83.5377C160.947 82.6472 161.448 81.4399 161.449 80.1806V63.9745C161.448 62.7153 160.947 61.508 160.057 60.6176C159.166 59.7272 157.959 59.2263 156.7 59.2249H6.10352Z" fill="#667085"/>
<path d="M156.699 123.767H6.10352C4.69614 123.766 3.34689 123.206 2.35172 122.211C1.35655 121.216 0.796728 119.866 0.795044 118.459V102.254C0.796728 100.846 1.35655 99.4972 2.35172 98.502C3.34689 97.5068 4.69614 96.947 6.10352 96.9453H156.699C158.107 96.947 159.456 97.5068 160.451 98.502C161.446 99.4972 162.006 100.846 162.008 102.254V118.459C162.006 119.866 161.446 121.216 160.451 122.211C159.456 123.206 158.107 123.766 156.699 123.767ZM6.10352 97.5029C4.84428 97.5043 3.63703 98.0052 2.74661 98.8956C1.8562 99.786 1.35533 100.993 1.3539 102.253V118.458C1.35524 119.717 1.85608 120.924 2.7465 121.815C3.63693 122.705 4.84423 123.206 6.10352 123.208H156.699C157.959 123.206 159.166 122.705 160.057 121.815C160.947 120.925 161.448 119.717 161.449 118.458V102.254C161.448 100.994 160.948 99.7867 160.057 98.8959C159.166 98.0052 157.959 97.5042 156.699 97.5029H6.10352Z" fill="#667085"/>
<path d="M121.596 36.8729H22.9691C22.3763 36.8729 21.8078 36.4772 21.3886 35.7729C20.9694 35.0685 20.7339 34.1132 20.7339 33.1171C20.7339 32.121 20.9694 31.1657 21.3886 30.4614C21.8078 29.757 22.3763 29.3613 22.9691 29.3613H121.596C122.189 29.3613 122.757 29.757 123.177 30.4614C123.596 31.1657 123.831 32.121 123.831 33.1171C123.831 34.1132 123.596 35.0685 123.177 35.7729C122.757 36.4772 122.189 36.8729 121.596 36.8729Z" fill="#5959F9"/>
<path d="M149.12 37.0983C149.515 37.6973 150.394 37.6973 150.789 37.0983L153.578 32.8719C154.016 32.207 153.539 31.3211 152.743 31.3211H147.165C146.369 31.3211 145.892 32.207 146.331 32.8719L149.12 37.0983Z" fill="#667085"/>
<path d="M149.12 75.7292C149.515 76.3282 150.394 76.3282 150.789 75.7292L153.578 71.5027C154.016 70.8379 153.539 69.952 152.743 69.952H147.165C146.369 69.952 145.892 70.8379 146.331 71.5027L149.12 75.7292Z" fill="#D0D5DD"/>
<path d="M149.12 114.36C149.515 114.959 150.394 114.959 150.789 114.36L153.578 110.134C154.016 109.469 153.539 108.583 152.743 108.583H147.165C146.369 108.583 145.892 109.469 146.331 110.134L149.12 114.36Z" fill="#D0D5DD"/>
<path d="M121.596 75.1503H22.9691C22.3763 75.1503 21.8078 74.7546 21.3886 74.0502C20.9694 73.3459 20.7339 72.3906 20.7339 71.3945C20.7339 70.3984 20.9694 69.4431 21.3886 68.7387C21.8078 68.0344 22.3763 67.6387 22.9691 67.6387H121.596C122.189 67.6387 122.757 68.0344 123.177 68.7387C123.596 69.4431 123.831 70.3984 123.831 71.3945C123.831 72.3906 123.596 73.3459 123.177 74.0502C122.757 74.7546 122.189 75.1503 121.596 75.1503Z" fill="#D0D5DD"/>
<path d="M121.596 113.43H22.9691C22.3763 113.43 21.8078 113.034 21.3886 112.33C20.9694 111.625 20.7339 110.67 20.7339 109.674C20.7339 108.678 20.9694 107.722 21.3886 107.018C21.8078 106.314 22.3763 105.918 22.9691 105.918H121.596C122.189 105.918 122.757 106.314 123.177 107.018C123.596 107.722 123.831 108.678 123.831 109.674C123.831 110.67 123.596 111.625 123.177 112.33C122.757 113.034 122.189 113.43 121.596 113.43Z" fill="#D0D5DD"/>
<path d="M238.41 155.597H175.396C175.311 155.597 175.23 155.564 175.171 155.504C175.111 155.445 175.077 155.364 175.077 155.279C175.077 155.195 175.111 155.114 175.171 155.054C175.23 154.994 175.311 154.961 175.396 154.961H238.41C238.494 154.961 238.575 154.994 238.635 155.054C238.695 155.114 238.728 155.195 238.728 155.279C238.728 155.364 238.695 155.445 238.635 155.504C238.575 155.564 238.494 155.597 238.41 155.597Z" fill="#D0D5DD"/>
<path d="M209.683 47.1872C209.683 47.1872 208.732 41.9277 206.567 42.556C204.403 43.1844 198.832 43.8274 198.822 41.3504C198.812 38.8735 204.066 36.6841 207.163 36.9804C210.261 37.2767 215.528 38.1833 215.238 42.8288C215.006 45.7546 214.101 48.5874 212.595 51.1066L209.683 47.1872Z" fill="#2F2E41"/>
<path d="M243.052 147.391L243.965 145.437C245.191 145.115 246.437 144.845 247.698 144.628L247.666 145.555L248.134 144.555C249.697 144.298 250.75 144.203 250.75 144.203C250.75 144.203 248.846 148.164 245.527 151.104L242.053 151.395L244.671 151.812C244.26 152.131 243.823 152.43 243.364 152.709C238.722 155.505 233.798 156.654 232.367 155.276C230.936 153.897 233.539 150.513 238.181 147.717C239.684 146.853 241.347 146.164 243.111 145.675L243.052 147.391Z" fill="#8383FB"/>
<path d="M232.771 139.554L231.397 136.941C232.307 135.767 233.302 134.632 234.375 133.539L235.451 134.501L234.748 133.163C236.093 131.823 237.092 130.997 237.092 130.997C237.092 130.997 239.822 136.33 239.833 141.605L236.51 144.303L239.776 142.915C239.723 143.522 239.62 144.128 239.468 144.728C237.908 150.773 234.079 155.344 230.915 154.937C227.752 154.529 226.451 149.299 228.011 143.254C228.567 141.338 229.5 139.49 230.779 137.774L232.771 139.554Z" fill="#ACACFC"/>
<path d="M186.651 10.7309H0.946884C0.867828 10.7309 0.79201 10.6995 0.736109 10.6436C0.680208 10.5877 0.648804 10.5119 0.648804 10.4328C0.648804 10.3538 0.680208 10.278 0.736109 10.2221C0.79201 10.1662 0.867828 10.1348 0.946884 10.1348H186.651C186.73 10.1348 186.806 10.1662 186.861 10.2221C186.917 10.278 186.949 10.3538 186.949 10.4328C186.949 10.5119 186.917 10.5877 186.861 10.6436C186.806 10.6995 186.73 10.7309 186.651 10.7309Z" fill="#CACACA"/>
<path d="M7.65595 6.55776C9.46683 6.55776 10.9348 5.08975 10.9348 3.27888C10.9348 1.468 9.46683 0 7.65595 0C5.84508 0 4.37708 1.468 4.37708 3.27888C4.37708 5.08975 5.84508 6.55776 7.65595 6.55776Z" fill="#3F3D56"/>
<path d="M18.9831 6.55776C20.794 6.55776 22.262 5.08975 22.262 3.27888C22.262 1.468 20.794 0 18.9831 0C17.1722 0 15.7042 1.468 15.7042 3.27888C15.7042 5.08975 17.1722 6.55776 18.9831 6.55776Z" fill="#3F3D56"/>
<path d="M30.31 6.55776C32.1209 6.55776 33.5889 5.08975 33.5889 3.27888C33.5889 1.468 32.1209 0 30.31 0C28.4991 0 27.0311 1.468 27.0311 3.27888C27.0311 5.08975 28.4991 6.55776 30.31 6.55776Z" fill="#3F3D56"/>
<rect x="121" y="118" width="17" height="17" rx="8.5" fill="#8383FB"/>
<path d="M128.044 124.058V129H127.147V125.104L125.959 125.496V124.772L127.943 124.058H128.044Z" fill="white"/>
<path d="M133.041 128.296V129H129.703V128.397L131.304 126.668C131.471 126.478 131.603 126.313 131.7 126.173C131.797 126.033 131.866 125.907 131.907 125.794C131.95 125.679 131.971 125.57 131.971 125.466C131.971 125.315 131.944 125.183 131.89 125.07C131.836 124.955 131.757 124.865 131.653 124.802C131.551 124.739 131.426 124.708 131.277 124.708C131.112 124.708 130.971 124.746 130.854 124.823C130.739 124.897 130.651 125.001 130.59 125.134C130.531 125.267 130.502 125.42 130.502 125.591H129.605C129.605 125.3 129.673 125.035 129.808 124.796C129.943 124.554 130.137 124.361 130.39 124.217C130.643 124.072 130.943 124 131.291 124C131.629 124 131.916 124.056 132.151 124.169C132.385 124.28 132.564 124.438 132.685 124.643C132.807 124.849 132.868 125.093 132.868 125.378C132.868 125.536 132.842 125.691 132.79 125.845C132.738 125.998 132.665 126.151 132.57 126.302C132.478 126.451 132.367 126.602 132.239 126.756C132.11 126.909 131.967 127.066 131.809 127.226L130.847 128.296H133.041Z" fill="white"/>
</svg>
