<svg width="315" height="312" viewBox="0 0 315 312" fill="none" xmlns="http://www.w3.org/2000/svg">
<g filter="url(#filter0_dd_747_19494)">
<path d="M31.6928 302C17.7766 302 6.45557 290.679 6.45557 276.763V42.2271C6.45557 28.3109 17.7766 16.9899 31.6928 16.9899H128.37C130.022 14.1751 132.261 11.6335 134.918 9.62334C141.313 4.78598 148.921 3.34424 154.086 2.67967C157.597 2.22793 161.18 2 164.732 2C169.406 2 174.107 2.39407 178.702 3.17261C185.951 4.40014 192.048 6.4323 197.34 9.38305C200.992 11.4193 204.315 14.0103 207.119 16.9899H283.749C297.672 16.9899 309 28.3109 309 42.2271V276.763C309 290.679 297.672 302 283.749 302H31.6928Z" fill="white"/>
<path d="M300.764 42.4479V276.984C300.764 286.334 293.102 293.982 283.751 293.982H247.941L180.163 273.886L118.229 293.982H31.695C22.3443 293.982 14.6963 286.334 14.6963 276.984V42.4479C14.6963 33.0973 22.3443 25.4492 31.695 25.4492H283.751C293.102 25.4492 300.764 33.0973 300.764 42.4479Z" fill="#3030F8"/>
<path d="M97.644 25.4492C97.0399 29.9392 95.6256 34.4017 93.4012 38.5347C88.6778 47.2949 80.6316 54.6684 70.457 59.8037C66.2417 61.9457 61.6693 63.6895 56.8086 64.9939C55.669 65.296 54.5431 65.5706 53.4309 65.7903C52.9503 63.6895 52.3461 61.6848 51.6184 59.8037C50.7671 57.5793 49.751 55.5059 48.5702 53.5836C45.0001 47.8029 40.0296 44.1643 34.908 43.6013C31.6675 43.2306 28.1113 44.4526 25.626 46.7869C23.5801 48.7092 22.5228 51.1533 22.6464 53.6523C22.7563 55.9316 23.7998 58.2933 25.6672 60.4902C27.2874 62.3851 29.3059 63.9366 31.6401 65.1175C37.1049 67.9186 44.3411 68.6875 52.4422 67.2732C52.5658 67.8637 52.6757 68.4678 52.7718 69.0857C52.8267 69.4015 52.8679 69.7173 52.9228 70.0331C53.3485 72.944 53.5682 76.0335 53.5819 79.3151C53.5819 84.2308 53.1288 89.1876 52.2363 94.062C51.2751 99.2934 49.8059 104.442 47.8562 109.344C45.5357 115.18 42.5561 120.713 39.2332 126.055C37.0226 129.611 34.6746 133.085 32.2854 136.504C30.775 138.646 29.2647 140.76 27.768 142.861C24.349 147.653 20.8202 152.596 17.6072 157.594C16.5774 159.187 15.6025 160.78 14.6963 162.345V164.913C15.9183 162.73 17.2502 160.533 18.6782 158.295C21.8912 153.31 25.4063 148.381 28.8115 143.616C30.1709 141.722 31.5302 139.799 32.8896 137.877C35.3474 134.376 37.7778 130.819 40.0571 127.167C42.5973 123.089 44.959 118.915 46.9911 114.576C47.1833 114.178 47.3618 113.779 47.5266 113.381C48.0759 112.214 48.5702 111.02 49.0507 109.825C51.1927 104.456 52.758 98.7854 53.7192 93.0322C54.4881 88.4873 54.8726 83.8738 54.8589 79.3151C54.8589 76.0472 54.6392 72.944 54.2135 70.0331C54.1723 69.7036 54.1311 69.3878 54.0625 69.0857C53.9664 68.3854 53.8428 67.7126 53.7055 67.0398C54.8314 66.8201 55.9848 66.5455 57.1382 66.2297C62.9326 64.6918 68.3425 62.5086 73.2169 59.8037C82.5951 54.6134 90.0234 47.4871 94.5271 39.1388C96.8476 34.8136 98.3031 30.1589 98.9347 25.4492H97.644ZM31.6401 63.6895C29.704 62.6185 28.0289 61.2866 26.6558 59.6664C25.475 58.2796 24.047 56.1101 23.9234 53.5836C23.8273 51.4691 24.7335 49.382 26.5048 47.7206C28.4683 45.8806 31.1732 44.8234 33.7684 44.8234C34.0979 44.8234 34.4412 44.8371 34.7707 44.8783C39.4941 45.4001 44.1214 48.819 47.4717 54.2564C48.5427 55.9728 49.4627 57.8264 50.2453 59.8037C51.028 61.7534 51.6596 63.8268 52.1676 66.0237C44.0665 67.4243 36.899 66.6004 31.6401 63.6895ZM46.387 276.05C46.1947 275.336 45.975 274.649 45.7279 273.977V273.963C45.6592 273.702 45.5631 273.455 45.467 273.194C44.8354 271.505 44.1214 269.857 43.325 268.251C43.1602 267.894 42.9817 267.537 42.7895 267.18C42.46 266.521 42.103 265.875 41.746 265.23C41.5675 264.914 41.389 264.598 41.1967 264.283C40.5514 263.17 39.8648 262.086 39.1508 261.001C38.8076 260.466 38.4506 259.944 38.0936 259.422C34.3588 254.012 30.0061 248.987 25.7358 244.057L24.5138 242.657C21.0262 238.634 17.6621 234.624 14.6963 230.45V232.647C17.4287 236.341 20.4495 239.911 23.5389 243.494L24.761 244.895C29.4294 250.277 34.194 255.77 38.0936 261.729C38.4643 262.264 38.8076 262.813 39.1508 263.376C39.5353 263.981 39.906 264.598 40.263 265.23C40.4553 265.546 40.6338 265.862 40.8123 266.178C40.9908 266.507 41.1693 266.837 41.3478 267.18C41.54 267.537 41.7322 267.894 41.897 268.251C42.5149 269.445 43.0778 270.681 43.5859 271.931C43.8193 272.494 44.0527 273.057 44.2587 273.633C44.3273 273.826 44.396 274.032 44.4647 274.224C46.5655 280.21 47.3481 287.364 45.975 293.982H47.2657C48.474 288.023 47.9797 281.652 46.387 276.064V276.05Z" fill="#F0F7FD"/>
<path d="M288.172 219.754C287.966 215.374 287.527 211.158 286.868 207.121C286.799 206.696 286.731 206.27 286.648 205.844C285.989 202.027 285.11 198.361 284.026 194.86C283.888 194.393 283.737 193.94 283.586 193.487C282.2 189.244 280.511 185.248 278.52 181.513C275.416 175.692 271.421 170.254 267.576 164.982C261.699 156.963 255.617 148.656 252.761 139.072C250.124 130.229 250.399 120.576 253.516 111.898C255.452 112.557 257.47 112.983 259.502 113.134C264.514 113.491 268.963 112.132 272.355 109.18C274.291 107.504 275.609 105.005 275.746 102.809C275.828 101.339 275.389 100.035 274.469 99.0463C273.618 98.1263 272.382 97.4947 270.803 97.1789C263.031 95.6136 256.029 102.397 252.774 110.251C249.438 108.891 246.39 106.763 244.069 104.072C238.302 97.3849 235.501 87.7184 235.529 74.5505C235.542 58.5816 239.071 42.4891 245.731 27.9894C246.101 27.1656 246.513 26.3143 246.953 25.4492H245.511C245.181 26.122 244.865 26.7948 244.563 27.4539C237.835 42.1184 234.265 58.4031 234.238 74.5368C234.224 88.0479 237.121 97.9753 243.094 104.909C245.552 107.765 248.779 110.017 252.321 111.445C249.095 120.398 248.82 130.339 251.525 139.442C254.45 149.232 260.587 157.636 266.533 165.751C270.364 170.968 274.318 176.378 277.394 182.118C279.453 185.962 281.183 190.109 282.57 194.517C282.735 194.983 282.872 195.423 283.01 195.903V195.917C283.957 199.089 284.74 202.398 285.344 205.844C285.426 206.27 285.495 206.696 285.564 207.121C286.236 211.186 286.676 215.415 286.882 219.809C288.117 245.87 280.95 272.082 266.917 293.982H268.441C282.323 271.999 289.394 245.815 288.172 219.754ZM270.542 98.4284C271.86 98.6893 272.863 99.1973 273.522 99.9113C274.208 100.653 274.524 101.614 274.455 102.74C274.359 104.594 273.192 106.749 271.517 108.205C268.386 110.923 264.253 112.187 259.585 111.857C257.69 111.72 255.795 111.322 253.983 110.704C257.031 103.358 263.471 97.0141 270.542 98.4284Z" fill="#F0F7FD"/>
<path d="M132.675 58.4945C132.178 64.5677 132.5 70.7836 132.931 76.6123C133.439 83.4736 134.115 90.3266 134.421 97.2044C134.626 101.598 136.412 105.761 139.438 108.92C142.826 112.459 147.489 114.461 152.381 114.504L160.114 114.708L160.113 114.876L159.951 122.958L159.893 125.951L156.09 136.93L166.139 155.628L205.404 131.555L201.595 99.5592C212.821 98.1999 220.391 87.5846 215.4 78.0733C212.127 71.845 206.405 72.8583 202.209 74.7655C204.101 70.3909 205.161 65.5838 205.206 60.524C205.385 40.315 189.149 23.7913 168.942 23.6128C158.379 23.5195 147.956 27.7623 141.027 35.8456C135.542 42.2469 133.352 50.2396 132.675 58.4945Z" fill="#FECDCA"/>
<path d="M135.38 61.8108C134.571 62.4314 133.847 63.3061 134.06 64.1944C134.305 65.216 135.636 65.7364 136.845 65.963C138.965 66.3625 141.212 66.3214 143.335 65.8435C144.309 65.6252 145.3 65.2915 145.961 64.6448C147.766 62.879 145.829 60.3141 143.548 59.7979C140.899 59.1978 137.357 60.2949 135.38 61.8108Z" fill="black"/>
<path d="M177.334 62.8655C178.143 63.4861 178.866 64.3608 178.654 65.2491C178.409 66.2707 177.077 66.7911 175.869 67.0177C173.749 67.4172 171.501 67.376 169.378 66.8982C168.405 66.6799 167.414 66.3462 166.753 65.6995C164.948 63.9337 166.885 61.3688 169.166 60.8525C171.814 60.2525 175.357 61.3496 177.334 62.8655Z" fill="black"/>
<path d="M154.354 86.8459C154.317 86.8459 154.279 86.8418 154.242 86.8336C151.132 86.136 148.692 83.3693 148.565 80.3993C148.51 79.1333 148.83 77.9209 149.138 76.7497L151.6 67.4072C151.673 67.1326 151.947 66.9665 152.229 67.0406C152.503 67.1134 152.668 67.3949 152.595 67.6709L150.133 77.0133C149.845 78.1118 149.546 79.2473 149.592 80.3568C149.699 82.8764 151.795 85.2298 154.465 85.8299C154.743 85.8916 154.917 86.1676 154.855 86.445C154.802 86.6839 154.589 86.8459 154.354 86.8459Z" fill="black"/>
<path d="M156.139 92.2896C154.845 92.2896 153.555 92.0136 152.371 91.4713C152.113 91.3532 151.999 91.047 152.117 90.7888C152.235 90.5307 152.541 90.4167 152.799 90.5348C154.413 91.2749 156.254 91.4562 157.981 91.0442C159.709 90.6337 161.271 89.6423 162.381 88.2555C162.559 88.0344 162.885 87.9987 163.104 88.1745C163.327 88.3516 163.362 88.6757 163.185 88.8981C161.933 90.4648 160.17 91.5825 158.22 92.0452C157.538 92.2086 156.838 92.2896 156.139 92.2896Z" fill="black"/>
<path d="M159.953 122.958C180.574 121.103 185.878 112.475 185.878 112.475C173.804 115.118 163.472 115.012 160.116 114.876L159.953 122.958Z" fill="black"/>
<path d="M200.838 93.4766C200.863 93.4766 200.889 93.4752 200.915 93.4711C201.204 93.4313 201.407 93.1649 201.367 92.8766C200.84 89.0004 201.534 84.9498 203.325 81.469C204.389 79.4012 205.702 77.8098 207.224 76.7374C208.988 75.4961 211.061 74.9689 212.92 75.3162C213.211 75.3602 213.482 75.1789 213.534 74.8906C213.586 74.6036 213.396 74.329 213.11 74.2755C210.98 73.8869 208.611 74.4704 206.616 75.8737C204.952 77.045 203.53 78.7641 202.386 80.9857C200.496 84.6573 199.763 88.929 200.321 93.018C200.356 93.283 200.58 93.4739 200.838 93.4766Z" fill="black"/>
<path d="M166.742 74.9602C166.723 77.0843 168.431 78.8226 170.555 78.8405C172.679 78.8597 174.417 77.1516 174.435 75.0274C174.454 72.9033 172.746 71.165 170.622 71.1471C168.498 71.1293 166.761 72.836 166.742 74.9602Z" fill="black"/>
<path d="M138.1 74.716C138.081 76.8402 139.787 78.5785 141.913 78.5963C144.037 78.6156 145.775 76.9074 145.793 74.7833C145.811 72.6591 144.104 70.9208 141.98 70.903C139.856 70.8851 138.119 72.5919 138.1 74.716Z" fill="black"/>
<path d="M188.443 29.0219C184.628 31.6925 181.929 35.9065 181.1 40.4884C180.27 45.0704 181.319 49.9641 183.954 53.8018C185.631 56.2432 187.894 58.2424 189.533 60.7098C191.038 62.9767 191.983 65.6131 192.259 68.3194C192.48 70.4834 192.285 72.7078 192.87 74.8031C193.531 77.173 195.215 79.2367 197.404 80.3613C198.296 78.0586 200.255 76.4384 202.461 75.3262C204.664 74.214 207.284 73.9504 209.667 74.6012C210.208 74.7495 210.739 74.9431 211.229 75.2177C212.163 75.7381 213.824 76.6403 214.52 77.4504C215.848 78.9978 216.495 80.4931 216.974 82.4758C218.254 73.0757 219.027 63.7127 219.141 54.2261C219.204 48.9645 218.876 43.5683 216.794 38.7364C214.711 33.9045 210.58 29.6892 205.405 28.7404C202.754 23.7575 198.26 19.5504 193.331 16.8015C188.402 14.0525 182.894 12.4612 177.329 11.5178C170.008 10.278 162.503 10.1269 155.139 11.073C149.736 11.7677 144.237 13.1285 139.892 16.4156C135.548 19.7028 132.597 25.2747 133.695 30.6105C134.268 33.391 136.105 36.0754 138.824 36.8924C142.349 37.9524 146.343 35.7156 149.745 37.1189C151.521 37.8508 152.766 39.4394 154.238 40.6724C158.999 44.6599 166.393 44.6406 171.647 41.3329C173.623 40.0889 175.324 38.4563 177.218 37.0901C179.05 35.7705 184.705 33.8208 186.825 33.0436L188.443 29.0219Z" fill="black"/>
<path d="M265.475 257.995L257.292 258.338L242.806 258.929V259.038L242.16 293.983H117.911C118.007 290.866 118.116 287.393 118.24 283.74C118.24 283.356 118.254 282.958 118.268 282.573C118.281 282.202 118.281 281.832 118.309 281.461V281.159C118.336 280.582 118.35 280.005 118.364 279.415C118.377 279.003 118.391 278.605 118.405 278.193C118.405 278.014 118.405 277.85 118.419 277.671C118.419 277.479 118.419 277.287 118.432 277.094C118.432 276.943 118.432 276.779 118.446 276.628V276.586C118.528 273.456 118.625 270.257 118.693 267.098L118.734 266.069C118.803 262.856 118.885 259.67 118.94 256.636C119.078 250.484 119.16 244.896 119.16 240.694C119.16 240.488 118.982 240.31 118.652 240.159C115.631 238.703 100.184 239.046 99.9507 236.479C98.6462 222.432 98.1245 208.372 100.637 194.092C102.299 184.508 105.333 174.827 110.4 164.969C116.853 152.446 143.656 137.109 154.174 131.452C154.242 131.411 154.311 131.37 154.38 131.328C154.627 131.205 154.874 131.067 155.107 130.944C156.741 130.079 157.853 129.502 158.252 129.296C158.375 129.241 158.43 129.214 158.43 129.214L158.595 129.694L166.147 150.95L204.689 125.561L205.17 125.246C205.17 125.246 205.197 125.259 205.266 125.301C205.623 125.493 206.9 126.166 208.822 127.25C209.234 127.484 209.687 127.745 210.168 128.033C210.168 128.033 210.168 128.019 210.181 128.033C210.387 128.143 210.593 128.266 210.799 128.39C221.18 134.349 242.971 147.86 251.209 160.3C261.672 176.118 265.146 250.539 265.448 257.473C265.462 257.816 265.475 257.995 265.475 257.995Z" fill="#BCD6FF"/>
<path d="M53.6073 197.928C53.6073 197.928 46.5964 190.566 55.7109 187.06C64.8254 183.555 79.5503 196.876 79.5503 196.876L53.6073 197.928Z" fill="#3030F8"/>
<path d="M26.9634 194.425L102.687 194.075L147.561 281.017L73.589 281.367L26.9634 194.425Z" fill="#FDB022"/>
<path d="M120.383 195.133L120.191 207.367V207.381L119.985 221.373C119.971 221.386 119.971 221.386 119.985 221.386L119.889 227.4V227.414L119.436 256.592L119.285 266.053L119.271 267.082L119.134 276.502L119.12 276.735V276.749L119.106 277.545V277.573L119.051 281.157L119.024 283.079L119.01 283.71V284.479L118.859 293.981H117.829L117.994 283.422L118.021 281.733V281.157L118.049 279.454L118.076 277.655L118.09 277.037C118.076 277.024 118.09 277.024 118.09 277.024V276.612L118.241 267.11L118.255 266.094L118.406 256.675L118.653 240.156L118.886 225.464L118.982 218.97L119.134 209.784V209.77L119.353 195.119C119.353 194.831 119.587 194.611 119.861 194.611C119.875 194.611 119.875 194.611 119.875 194.611C120.163 194.611 120.383 194.845 120.383 195.133Z" fill="black"/>
<path d="M262.551 258.23C262.551 258.23 262.537 258.354 262.523 258.574C262.235 261.663 259.763 284.635 247.763 293.985H131.751C127.646 292.887 124.433 291.789 123.197 290.827C119.654 288.081 119.847 286.022 120.149 285.157C120.272 284.854 120.396 284.703 120.396 284.703C119.819 284.415 119.366 284.086 119.009 283.715C118.68 283.358 118.432 282.973 118.268 282.575C118.158 282.301 118.075 282.026 118.02 281.738C117.979 281.545 117.952 281.353 117.952 281.161C117.897 280.57 117.952 279.994 118.048 279.458C118.144 278.978 118.268 278.552 118.405 278.195C118.46 277.989 118.528 277.811 118.583 277.673C118.721 277.357 118.817 277.165 118.817 277.165C118.817 277.165 118.68 277.152 118.432 277.097C118.336 277.083 118.226 277.055 118.089 277.042C116.428 276.685 112.377 275.614 111.279 273.128C109.878 269.97 113.791 266.991 113.791 266.991C113.791 266.991 113.462 266.922 112.899 266.785C109.507 265.961 97.6577 262.885 97.9598 260.331C98.152 258.697 108.436 257.489 118.405 256.679C118.583 256.665 118.762 256.638 118.94 256.638C119.105 256.61 119.27 256.596 119.435 256.596C125.463 256.102 131.243 255.773 134.429 255.58C135.404 255.512 136.145 255.471 136.571 255.429C140.786 255.072 162.632 269.449 162.632 269.449L182.651 266.634L192.977 265.178L193.883 265.041L196.657 264.656L202.012 263.901L203.81 263.64L214.864 262.089L215.152 259.672L215.221 259.164L257.292 258.34L262.551 258.23Z" fill="#FECDCA"/>
<path d="M118.612 277.678C117.563 277.678 113.24 277.455 111.347 273.895C109.188 269.829 113.304 266.395 113.347 266.361C113.433 266.29 113.543 266.248 113.656 266.244L127.444 265.777C127.775 265.791 127.966 265.992 127.977 266.274C127.986 266.559 127.764 266.796 127.48 266.807L113.873 267.267C113.248 267.833 110.669 270.421 112.258 273.413C114.063 276.811 118.75 276.643 118.791 276.645C119.074 276.614 119.315 276.851 119.329 277.135C119.342 277.42 119.123 277.66 118.839 277.674C118.814 277.675 118.736 277.678 118.612 277.678Z" fill="black"/>
<path d="M120.392 285.213C120.32 285.213 120.249 285.198 120.183 285.169C118.804 284.557 117.89 283.613 117.466 282.369C116.597 279.822 118.122 276.951 118.187 276.829C118.269 276.678 118.419 276.578 118.59 276.561L128.582 275.597C128.864 275.566 129.118 275.777 129.144 276.06C129.171 276.343 128.964 276.596 128.681 276.622L118.976 277.558C118.659 278.249 117.846 280.3 118.442 282.04C118.761 282.971 119.453 283.692 120.502 284.182L131.516 284.009C131.83 284.05 132.034 284.231 132.04 284.516C132.044 284.8 131.817 285.033 131.533 285.039L120.403 285.214C120.397 285.213 120.392 285.213 120.392 285.213Z" fill="black"/>
<path d="M215.221 259.679C215.087 259.679 214.958 259.626 214.862 259.532C214.763 259.436 214.707 259.302 214.707 259.164V204.24C214.707 203.956 214.937 203.726 215.221 203.726C215.506 203.726 215.736 203.956 215.736 204.24V258.636L265.458 257.48C265.748 257.478 265.979 257.699 265.986 257.983C265.992 258.267 265.767 258.503 265.483 258.51L215.234 259.679C215.23 259.679 215.226 259.679 215.221 259.679Z" fill="black"/>
<path d="M164.037 161.633C163.981 161.633 163.926 161.625 163.873 161.606C163.716 161.554 163.595 161.43 163.546 161.272L154.08 131.122C153.995 130.85 154.146 130.562 154.418 130.477C154.687 130.39 154.978 130.543 155.063 130.814L164.318 160.29L210.016 128.093C210.25 127.93 210.57 127.984 210.733 128.218C210.897 128.45 210.842 128.771 210.608 128.935L164.333 161.538C164.245 161.6 164.142 161.633 164.037 161.633Z" fill="black"/>
<path d="M211.014 220.183H174.554C174.27 220.183 174.04 219.952 174.04 219.668C174.04 219.384 174.27 219.153 174.554 219.153H211.014C211.298 219.153 211.529 219.384 211.529 219.668C211.529 219.952 211.298 220.183 211.014 220.183Z" fill="black"/>
<path d="M216.293 196.442C216.226 196.839 215.858 197.115 215.461 197.049C215.442 197.06 215.426 197.054 215.413 197.05C215.378 197.057 215.35 197.048 215.334 197.043C214.965 196.936 214.744 196.6 214.792 196.214C214.781 196.195 214.785 196.18 214.791 196.166C214.81 196.044 214.825 195.937 214.859 195.819C214.903 195.559 214.946 195.3 214.99 195.04C217.087 183.3 218.975 170.844 217.978 158.413C217.205 148.736 214.262 135.068 204.587 124.534L204.797 122.819C204.987 122.826 205.175 122.896 205.322 123.051C215.59 133.966 218.707 148.243 219.518 158.284C220.54 171.073 218.569 183.81 216.404 195.786C216.397 195.864 216.39 195.942 216.37 196.015C216.345 196.152 216.316 196.305 216.293 196.442Z" fill="black"/>
<path d="M214.56 272.951C214.54 272.946 214.519 272.939 214.5 272.931C202.657 268.39 193.953 255.734 192.326 240.686C190.767 226.257 195.528 211.934 205.061 202.376C208.417 199.011 211.913 196.737 215.451 195.617C215.856 195.486 216.288 195.713 216.415 196.116C216.544 196.52 216.319 196.953 215.915 197.08C212.615 198.125 209.33 200.271 206.15 203.46C196.941 212.694 192.344 226.548 193.854 240.52C195.419 255.001 203.74 267.159 215.049 271.496C215.446 271.648 215.644 272.092 215.491 272.487C215.348 272.863 214.941 273.061 214.56 272.951Z" fill="#3030F8"/>
<path d="M190.399 269.385C190.244 269.34 190.101 269.245 189.998 269.105C189.745 268.764 189.817 268.284 190.157 268.031C206.024 256.252 216.918 237.508 219.298 217.888C220.455 208.341 218.938 201.047 214.789 196.208C214.513 195.885 214.55 195.402 214.873 195.125C215.194 194.85 215.68 194.887 215.956 195.209C220.398 200.388 222.036 208.081 220.823 218.073C218.394 238.102 207.273 257.239 191.072 269.264C190.871 269.414 190.621 269.45 190.399 269.385Z" fill="#3030F8"/>
<path d="M193.51 269.544C192.645 272.526 189.525 274.241 186.544 273.375C183.563 272.51 181.847 269.39 182.713 266.409C183.578 263.428 186.698 261.712 189.679 262.578C192.66 263.443 194.375 266.563 193.51 269.544Z" fill="black"/>
<path d="M221.827 274.22C220.962 277.201 217.842 278.917 214.861 278.051C211.879 277.186 210.164 274.066 211.03 271.085C211.895 268.103 215.015 266.388 217.996 267.254C220.977 268.119 222.693 271.237 221.827 274.22Z" fill="black"/>
<path d="M130.786 217.097C130.746 218.173 130.705 219.248 130.665 220.325C130.653 220.641 130.446 220.917 130.176 221.015C130.086 221.053 129.984 221.072 129.873 221.07C129.81 221.068 129.736 221.047 129.677 221.029C129.618 221.013 129.563 220.98 129.508 220.948C129.274 220.816 129.123 220.565 129.126 220.278C129.156 219.182 129.204 218.077 129.254 216.972C129.846 201.435 131.094 185.067 135.244 169.557C139.987 151.786 148.234 136.825 159.158 126.193L158.609 128.913C148.688 139.229 141.151 153.342 136.729 169.956C132.599 185.343 131.375 201.623 130.786 217.097Z" fill="black"/>
<path d="M147.278 218.7C145.003 226.535 136.807 231.043 128.972 228.769C121.137 226.494 116.629 218.298 118.903 210.463C121.178 202.628 129.374 198.121 137.209 200.394C145.044 202.67 149.552 210.865 147.278 218.7Z" fill="black"/>
<path d="M136.12 204.17C135.543 204.006 134.966 203.896 134.39 203.841C134.156 203.8 133.936 203.772 133.717 203.772C132.975 203.731 132.234 203.759 131.506 203.882C130.971 203.951 130.435 204.074 129.927 204.225C126.549 205.255 123.748 207.919 122.691 211.558C121.029 217.297 124.339 223.311 130.078 224.973C135.818 226.634 141.832 223.339 143.493 217.599C145.168 211.86 141.859 205.846 136.12 204.17ZM142.01 217.16C140.582 222.103 135.419 224.931 130.504 223.503C125.574 222.075 122.732 216.913 124.16 211.983C125.011 209.072 127.167 206.889 129.817 205.901C130.325 205.695 130.861 205.544 131.396 205.447C132.783 205.187 134.239 205.241 135.68 205.653C140.61 207.081 143.438 212.244 142.01 217.16Z" fill="#F0F7FD"/>
<path d="M38.6184 285.946C38.3259 285.946 38.0884 285.708 38.0884 285.416V250.079C38.0884 249.787 38.3259 249.549 38.6184 249.549C38.9109 249.549 39.1484 249.787 39.1484 250.079V285.417C39.1484 285.708 38.9109 285.946 38.6184 285.946Z" fill="black"/>
<path d="M27.3941 279.726C27.2609 279.726 27.1278 279.675 27.0234 279.575C26.8147 279.371 26.8106 279.035 27.0152 278.826L48.5148 256.786C48.718 256.578 49.0545 256.574 49.2632 256.777C49.4719 256.981 49.476 257.317 49.2714 257.526L27.7717 279.566C27.6701 279.672 27.5314 279.726 27.3941 279.726Z" fill="black"/>
<path d="M56.2851 268.278H20.949C20.6565 268.278 20.4189 268.041 20.4189 267.748C20.4189 267.456 20.6565 267.218 20.949 267.218H56.2865C56.579 267.218 56.8165 267.456 56.8165 267.748C56.8152 268.041 56.5776 268.278 56.2851 268.278Z" fill="black"/>
<path d="M49.7047 279.051C49.5729 279.051 49.4425 279.003 49.3395 278.904L27.0283 257.675C26.8169 257.475 26.8086 257.138 27.0105 256.927C27.2123 256.715 27.5473 256.706 27.7588 256.909L50.07 278.138C50.2814 278.339 50.2897 278.675 50.0878 278.886C49.9848 278.996 49.8448 279.051 49.7047 279.051Z" fill="black"/>
<path d="M258.784 86.4346C258.43 86.4346 258.143 86.1477 258.143 85.7934V42.9767C258.143 42.6224 258.43 42.3354 258.784 42.3354C259.139 42.3354 259.426 42.6224 259.426 42.9767V85.7934C259.426 86.1477 259.139 86.4346 258.784 86.4346Z" fill="black"/>
<path d="M245.186 78.8979C245.024 78.8979 244.863 78.8375 244.738 78.7153C244.484 78.4682 244.479 78.0617 244.727 77.8077L270.778 51.1027C271.025 50.8487 271.43 50.8432 271.685 51.0917C271.939 51.3389 271.943 51.7453 271.696 51.9993L245.646 78.7043C245.52 78.8334 245.354 78.8979 245.186 78.8979Z" fill="black"/>
<path d="M280.192 65.0281H237.376C237.021 65.0281 236.734 64.7411 236.734 64.3868C236.734 64.0326 237.021 63.7456 237.376 63.7456H280.192C280.547 63.7456 280.834 64.0326 280.834 64.3868C280.835 64.7411 280.548 65.0281 280.192 65.0281Z" fill="black"/>
<path d="M272.221 78.079C272.061 78.079 271.904 78.0214 271.779 77.9019L244.744 52.18C244.487 51.9356 244.478 51.5292 244.722 51.2724C244.966 51.0156 245.372 51.0046 245.63 51.2504L272.664 76.9723C272.921 77.2167 272.931 77.6232 272.686 77.8799C272.559 78.0117 272.39 78.079 272.221 78.079Z" fill="black"/>
<path d="M271.873 228.536C271.519 228.536 271.232 228.249 271.232 227.895V185.078C271.232 184.724 271.519 184.437 271.873 184.437C272.227 184.437 272.514 184.724 272.514 185.078V227.895C272.516 228.249 272.229 228.536 271.873 228.536Z" fill="#12B76A"/>
<path d="M258.275 221C258.113 221 257.953 220.939 257.828 220.817C257.574 220.57 257.568 220.163 257.817 219.909L283.867 193.204C284.114 192.95 284.52 192.945 284.774 193.193C285.028 193.44 285.034 193.847 284.785 194.101L258.735 220.806C258.609 220.935 258.442 221 258.275 221Z" fill="#12B76A"/>
<path d="M293.283 207.127H250.464C250.11 207.127 249.823 206.84 249.823 206.485C249.823 206.131 250.11 205.844 250.464 205.844H293.281C293.635 205.844 293.922 206.131 293.922 206.485C293.924 206.84 293.637 207.127 293.283 207.127Z" fill="#12B76A"/>
<path d="M285.307 220.18C285.148 220.18 284.989 220.122 284.865 220.002L257.832 194.281C257.575 194.036 257.566 193.63 257.81 193.373C258.054 193.118 258.461 193.107 258.718 193.351L285.751 219.073C286.008 219.317 286.017 219.724 285.773 219.98C285.646 220.112 285.478 220.18 285.307 220.18Z" fill="#12B76A"/>
<path d="M105.977 143.245H41.9047C36.2339 143.245 31.6382 138.648 31.6382 132.978V59.8081H116.243V132.978C116.243 138.649 111.648 143.245 105.977 143.245Z" fill="#F0F7FD"/>
<rect x="53.4438" y="82.1602" width="38.0952" height="6.34921" fill="#8383FB"/>
<rect x="40.7461" y="92.4785" width="63.4921" height="6.34921" fill="#8383FB"/>
<rect x="40.7461" y="102.795" width="63.4921" height="6.34921" fill="#8383FB"/>
<rect x="40.7461" y="113.112" width="63.4921" height="6.34921" fill="#8383FB"/>
<rect x="54.2378" y="123.431" width="36.8254" height="6.34921" fill="#8383FB"/>
<path d="M116.476 70.0431H31.6375C31.3739 70.0431 31.1597 69.8289 31.1597 69.5652C31.1597 69.3016 31.3739 69.0874 31.6375 69.0874H116.476C116.74 69.0874 116.954 69.3016 116.954 69.5652C116.954 69.8289 116.74 70.0431 116.476 70.0431Z" fill="black"/>
<path d="M98.9496 61.73C97.5216 61.73 96.3682 62.8834 96.3682 64.3114C96.3682 65.7256 97.5216 66.8928 98.9496 66.8928C100.378 66.8928 101.531 65.7256 101.531 64.3114C101.531 62.8834 100.378 61.73 98.9496 61.73ZM98.9496 65.9316C98.0571 65.9316 97.3293 65.2039 97.3293 64.3114C97.3293 63.4051 98.0571 62.6774 98.9496 62.6774C99.8421 62.6774 100.57 63.4051 100.57 64.3114C100.57 65.2039 99.8421 65.9316 98.9496 65.9316Z" fill="black"/>
<path d="M107.188 61.73C105.76 61.73 104.606 62.8834 104.606 64.3114C104.606 65.7256 105.76 66.8928 107.188 66.8928C108.616 66.8928 109.769 65.7256 109.769 64.3114C109.769 62.8834 108.616 61.73 107.188 61.73ZM107.188 65.9316C106.295 65.9316 105.568 65.2039 105.568 64.3114C105.568 63.4051 106.295 62.6774 107.188 62.6774C108.08 62.6774 108.808 63.4051 108.808 64.3114C108.808 65.2039 108.08 65.9316 107.188 65.9316Z" fill="black"/>
</g>
<defs>
<filter id="filter0_dd_747_19494" x="0.455566" y="0" width="314.544" height="312" filterUnits="userSpaceOnUse" color-interpolation-filters="sRGB">
<feFlood flood-opacity="0" result="BackgroundImageFix"/>
<feColorMatrix in="SourceAlpha" type="matrix" values="0 0 0 0 0 0 0 0 0 0 0 0 0 0 0 0 0 0 127 0" result="hardAlpha"/>
<feMorphology radius="2" operator="erode" in="SourceAlpha" result="effect1_dropShadow_747_19494"/>
<feOffset dy="2"/>
<feGaussianBlur stdDeviation="2"/>
<feColorMatrix type="matrix" values="0 0 0 0 0.0627451 0 0 0 0 0.0941176 0 0 0 0 0.156863 0 0 0 0.06 0"/>
<feBlend mode="normal" in2="BackgroundImageFix" result="effect1_dropShadow_747_19494"/>
<feColorMatrix in="SourceAlpha" type="matrix" values="0 0 0 0 0 0 0 0 0 0 0 0 0 0 0 0 0 0 127 0" result="hardAlpha"/>
<feMorphology radius="2" operator="erode" in="SourceAlpha" result="effect2_dropShadow_747_19494"/>
<feOffset dy="4"/>
<feGaussianBlur stdDeviation="4"/>
<feColorMatrix type="matrix" values="0 0 0 0 0.0627451 0 0 0 0 0.0941176 0 0 0 0 0.156863 0 0 0 0.1 0"/>
<feBlend mode="normal" in2="effect1_dropShadow_747_19494" result="effect2_dropShadow_747_19494"/>
<feBlend mode="normal" in="SourceGraphic" in2="effect2_dropShadow_747_19494" result="shape"/>
</filter>
</defs>
</svg>
